<svg xmlns="http://www.w3.org/2000/svg" width="332" height="80" viewBox="0 0 332 80">
  <defs>
    <filter id="a" width="200%" height="200%" x="-50%" y="-50%" filterUnits="objectBoundingBox">
      <feOffset dy="2" in="SourceAlpha" result="shadowOffsetOuter1"/>
      <feGaussianBlur stdDeviation="2" in="shadowOffsetOuter1" result="shadowBlurOuter1"/>
      <feColorMatrix values="0 0 0 0 0 0 0 0 0 0 0 0 0 0 0 0 0 0 0.5 0" in="shadowBlurOuter1" result="shadowMatrixOuter1"/>
      <feMerge>
        <feMergeNode in="shadowMatrixOuter1"/>
        <feMergeNode in="SourceGraphic"/>
      </feMerge>
    </filter>
  </defs>
  <g fill="none" fill-rule="evenodd" filter="url(#a)" transform="translate(4 2)">
    <path fill="#000000" d="M32.8042841 0C51.6452065 0 63.046184 13.9358387 65.3708633 26.7017868 63.7459272 24.690179 62.0312075 22.2897102 58.2777655 19.9543224 56.7554233 16.5435482 51.8915614 10.8755187 47.8353509 8.52655073 46.8625506 8.52655073 46.4400059 9.96235593 46.9223675 11.6131278 47.4945682 12.5231821 50.0756675 12.5503343 50.2023626 14.4217862 49.8210201 15.2391768 51.3453063 15.3765779 49.7691884 16.5435482 43.2012091 15.3765525 29.8768254 16.7308209 23.2342099 28.8717468 22.1646558 28.5208291 18.5337354 26.0885684 17.7001829 26.0667076 15.8787146 26.0885684 16.1019745 27.7697238 14.3233428 26.7017868 13.7794538 26.5007543 13.0959451 25.4093591 13.0959451 24.0010419 12.4169272 21.6968726 13.2702305 21.7928195 13.878152 21.1571838 12.8166795 20.5413386 9.04953909 20.3498211 12.9524114 16.7308209 17.4689576 13.751002 17.2811494 18.938874 18.3406667 18.7445793 19.227063 18.6036892 18.1658882 16.3251345 19.227063 15.6474573 23.2303888 13.0908921 23.9682139 13.8845749 28.9891932 12.161863 29.9807115 11.9002663 30.1646712 13.5784933 31.0766981 12.0589557 31.6719582 10.6369359 31.7083636 9.01631484 30.3461589 8.10427613 27.9463047 7.27469207 26.4464677 10.3825196 25.300219 9.86335373 24.5076466 9.50437708 24.8661222 7.71068675 25.9992824 7.08753709 27.4707031 5.82248348 27.4192622 6.8350641 29.349433 6.75476274 30.404313 7.08753709 29.9112805 7.24114092 31.2431808 7.38275404 32.2367972 7.08753709 32.8042841 6.63634022 32.4733784 4.46235769 24.1697221 4.63679185 14.5109642 8.58062826 8.76157092 17.7790049 9.23098556 19.2863704 8.70379274 20.0281244 9.31738332 21.1571838 9.8479677 22.1920675 10.9427353 22.140308 11.236476 22.4499241 11.3602684 22.7347904 11.0569044 22.8370469 11.3522176 23.6005454 11.6475308 24.3640439 12.0615086 23.6262598 12.0615086 24.8150082 12.2711613 25.8269206 14.1138798 27.0190432 13.9339013 28.8717468 13.045565 30.7278424 11.7860462 32.0433804 11.7860462 34.3176264 12.0372414 37.1716777 12.9908013 37.5216798 14.9426105 39.1988715 14.9426105 40.5253045 15.2616339 40.6922844 15.6850167 41.5529273 14.5272942 50.958676 15.5161824 55.8089492 19.9452517 57.7188693 19.9452517 57.7188693 16.5768983 53.537269 21.4777061 49.5858439 25.300219 59.0327697 31.6575928 63.1891739 39.5532822 65.2738317 37.3156557 65.6368171 35.6798711 65.8820755 32.8042841 65.8820755 13.5318938 65.8820755.04848847e-15 50.8577942 0 32.8296574 0 14.8015207 13.9633618 0 32.8042841 0zM33.7373307 4.45134672C33.5969097 6.91504548 33.1530922 6.66201068 33.2480541 7.66230265 33.4582788 8.91391611 34.0458099 10.0269126 34.694439 10.1496779 35.6382986 10.0269126 36.0322812 8.61740984 37.014558 7.56054907 37.6561492 7.0853368 37.7477139 7.62762591 38.6202294 7.18918179 39.2903927 6.67042432 39.2031441 6.61249924 39.6790199 5.24281579 37.7836618 4.75801694 35.8957719 4.5335212 33.7373307 4.45134672zM45.4384181 11.5976244C44.8306229 12.3046448 45.4730554 12.2684078 45.3012341 12.6585561 44.8435522 13.0379896 44.5053996 13.2834429 44.628799 13.5400272 45.1767617 14.2750536 45.4384181 13.5400272 45.9570145 13.8017372 46.22026 14.8598236 46.2775483 16.2498343 47.7328264 15.9864843 47.7511337 15.9808701 47.7654857 15.9605739 47.7844945 15.9581106 48.7413593 15.8341166 48.009708 14.2376812 47.5296809 13.3194611 46.8886077 12.093184 45.9957911 11.306287 45.4384181 11.5976244zM45.2543331 19.3096729C57.504258 19.3096729 66.94012 29.0228141 66.94012 40.9523705 66.94012 48.1550305 62.8427039 54.0527006 62.8427039 54.0527006 69.4920671 60.7166298 73.0039389 61.51161 69.3461402 65.0203992 65.6883415 68.5291884 64.2235303 64.3092267 58.320833 58.4058588 58.320833 58.4058588 51.9943152 62.6382071 45.2543331 62.6382071 33.2599343 62.6382071 23.4693013 52.8862024 23.4693013 40.9523705 23.4693013 29.0751874 33.0044083 19.3096729 45.2543331 19.3096729zM45.2543289 57.9974687C54.6937141 57.9974687 62.3458478 50.3649775 62.3458478 40.9498224 62.3458478 31.5346673 54.6937141 23.9021761 45.2543289 23.9021761 35.8149436 23.9021761 28.16281 31.5346673 28.16281 40.9498224 28.16281 50.3649775 35.8149436 57.9974687 45.2543289 57.9974687zM53.0279455 34.2576728C55.9065973 34.4399645 58.3051635 36.3723405 59.1608394 39.0052735 59.8378159 39.590126 60.3068173 40.7558643 60.3068173 41.5521244 60.3068173 42.5269628 59.6047959 44.0583816 58.6761849 44.3948616 57.5099002 46.557634 55.2203982 48.0283733 52.5848352 48.0283733 49.633333 48.0283733 47.1202874 46.1804759 46.1280486 43.5838325L44.5976808 43.5838325C43.6056112 46.1804759 41.0932425 48.0283733 38.1416556 48.0283733 35.5267378 48.0283733 33.2528889 46.5803361 32.0779739 44.445245 31.0621285 44.2567081 30.2684728 42.5887394 30.2684728 41.5521244 30.2684728 40.6758585 30.8354544 39.3519653 31.6236949 38.847203 32.5556057 36.2037207 35.0505444 34.299026 38.0069542 34.2353083L53.0279455 34.2576728zM47.7837592 41.3020899C47.7837592 43.8837112 49.8826316 45.9766052 52.4711506 45.9766052 55.0595004 45.9766052 57.1576112 43.8837112 57.1576112 41.3020899 57.1576112 40.6300582 57.0133487 39.9925437 56.7567221 39.4149492L54.0735228 41.7570595 53.5448703 41.1538092 56.3615018 38.6953191C56.1583497 38.3933564 55.9167839 38.1200033 55.6494116 37.8734032L50.677218 41.7703938 50.1807178 41.1405593 54.995111 37.3672062C54.266437 36.9009278 53.4013692 36.6272371 52.4711506 36.6272371 49.8826316 36.6272371 47.7837592 38.7203842 47.7837592 41.3020899zM38.3042594 45.9766052C40.8926091 45.9766052 42.9908892 43.8837112 42.9908892 41.3020899 42.9908892 40.4942678 42.7852833 39.7345504 42.4236539 39.0720552L38.9803051 41.7703938 38.4838049 41.1405593 41.9765668 38.4033993C41.7067408 38.0636279 41.3906323 37.7636906 41.0378024 37.5096638L35.6005841 41.7703938 35.104084 41.1405593 40.2934752 37.0738517C39.6893493 36.7902869 39.0163496 36.6272371 38.3042594 36.6272371 35.7157404 36.6272371 33.618391 38.7203842 33.618391 41.3020899 33.618391 43.8837112 35.7157404 45.9766052 38.3042594 45.9766052zM81 41.496L81 17.952 87.192 17.952C94.14 17.952 98.28 21.84 98.28 29.616 98.28 37.428 94.14 41.496 87.408 41.496L81 41.496zM85.176 38.112L86.94 38.112C91.44 38.112 93.996 35.412 93.996 29.616 93.996 23.856 91.44 21.336 86.94 21.336L85.176 21.336 85.176 38.112zM101.691 41.496L117.243 41.496 117.243 37.968 111.555 37.968 111.555 21.48 117.243 21.48 117.243 17.952 101.691 17.952 101.691 21.48 107.379 21.48 107.379 37.968 101.691 37.968 101.691 41.496zM127.854 41.496L132.03 41.496 132.03 33.324 139.77 17.952 135.45 17.952 132.534 24.252C131.742 26.088 130.914 27.816 130.05 29.724L129.906 29.724C129.078 27.816 128.322 26.088 127.494 24.288L124.542 17.952 120.114 17.952 127.854 33.324 127.854 41.496zM151.461 41.928C149.805 41.928 147.861 41.064 146.313 39.552L146.205 39.552 145.845 41.496 142.569 41.496 142.569 16.08 146.745 16.08 146.745 22.632 146.565 25.728 146.673 25.728C148.149 24.288 150.165 23.388 152.073 23.388 156.645 23.388 159.309 26.916 159.309 32.352 159.309 38.436 155.529 41.928 151.461 41.928zM150.633 38.508C153.117 38.508 155.025 36.42 155.025 32.424 155.025 28.896 153.801 26.808 150.921 26.808 149.589 26.808 148.185 27.456 146.745 28.932L146.745 36.888C148.041 38.076 149.517 38.508 150.633 38.508zM170.784 41.496L174.924 41.496 174.924 23.82 163.116 23.82 163.116 27.096 170.784 27.096 170.784 41.496zM172.548 20.58C174.24 20.58 175.5 19.5 175.5 17.808 175.5 16.152 174.24 15 172.548 15 170.856 15 169.596 16.152 169.596 17.808 169.596 19.5 170.856 20.58 172.548 20.58zM191.367 41.928C186.723 41.928 182.475 38.544 182.475 32.676 182.475 26.772 186.723 23.388 191.367 23.388 196.011 23.388 200.259 26.772 200.259 32.676 200.259 38.544 196.011 41.928 191.367 41.928zM191.367 38.544C194.247 38.544 195.975 36.204 195.975 32.676 195.975 29.112 194.247 26.772 191.367 26.772 188.487 26.772 186.759 29.112 186.759 32.676 186.759 36.204 188.487 38.544 191.367 38.544zM211.482 41.928C217.494 41.928 220.698 39.336 220.698 35.952 220.698 32.964 219.114 31.344 213.714 30.12 210.906 29.472 209.97 29.4 209.97 28.608 209.97 27.96 210.69 27.6 211.842 27.6 213.714 27.6 215.802 28.176 217.674 29.256L220.41 25.584C218.502 24.396 215.802 23.064 212.418 23.064 207.198 23.064 203.85 25.368 203.85 28.896 203.85 31.704 205.65 33.576 210.618 34.656 213.642 35.304 214.578 35.448 214.578 36.312 214.578 36.96 213.93 37.392 212.346 37.392 210.042 37.392 207.558 36.708 205.29 35.376L202.698 39.192C205.002 40.704 208.386 41.928 211.482 41.928zM223.821 47.832L223.821 23.496 228.861 23.496 229.293 25.152 229.437 25.152C230.805 23.928 232.641 23.064 234.477 23.064 238.833 23.064 241.605 26.664 241.605 32.208 241.605 38.4 237.861 41.928 233.937 41.928 232.389 41.928 231.021 41.28 229.869 40.128L229.725 40.128 230.013 42.864 230.013 47.832 223.821 47.832zM232.461 36.888C233.973 36.888 235.269 35.736 235.269 32.28 235.269 29.328 234.369 28.104 232.605 28.104 231.633 28.104 230.877 28.464 230.013 29.4L230.013 36.024C230.769 36.672 231.633 36.888 232.461 36.888zM244.296 41.496L250.488 41.496 250.488 29.688C251.424 28.824 252.216 28.32 253.368 28.32 254.952 28.32 255.456 29.184 255.456 31.2L255.456 41.496 261.648 41.496 261.648 30.408C261.648 25.944 259.92 23.064 255.96 23.064 253.296 23.064 251.424 24.288 250.272 25.44L250.128 25.44 250.488 22.272 250.488 16.44 244.296 16.44 244.296 41.496zM274.347 41.928C268.659 41.928 264.267 38.472 264.267 32.496 264.267 26.592 268.875 23.064 273.699 23.064 279.387 23.064 282.267 26.952 282.267 31.776 282.267 32.856 282.087 33.936 282.015 34.368L270.459 34.368C270.999 36.384 272.583 37.248 275.211 37.248 276.651 37.248 277.947 36.888 279.531 36.168L281.547 39.84C279.387 41.208 276.579 41.928 274.347 41.928zM273.915 27.744C272.151 27.744 270.999 28.572 270.495 30.336L276.795 30.336C276.543 28.644 275.607 27.744 273.915 27.744zM286.686 41.496L292.878 41.496 292.878 32.568C294.21 29.544 296.406 28.464 298.458 28.464 299.754 28.464 300.51 28.644 301.59 28.968L302.814 23.784C301.806 23.352 301.05 23.064 299.394 23.064 296.694 23.064 294.102 24.36 292.374 27.312L292.23 27.312 291.762 23.496 286.686 23.496 286.686 41.496zM315.297 41.928C309.609 41.928 305.217 38.472 305.217 32.496 305.217 26.592 309.825 23.064 314.649 23.064 320.337 23.064 323.217 26.952 323.217 31.776 323.217 32.856 323.037 33.936 322.965 34.368L311.409 34.368C311.949 36.384 313.533 37.248 316.161 37.248 317.601 37.248 318.897 36.888 320.481 36.168L322.497 39.84C320.337 41.208 317.529 41.928 315.297 41.928zM314.865 27.744C313.101 27.744 311.949 28.572 311.445 30.336L317.745 30.336C317.493 28.644 316.557 27.744 314.865 27.744z"/>
    <path fill="#9B9B9B" d="M129,61.625 L130.625,61.625 L130.625,66.5 L135.5,66.5 L135.5,61.625 L137.125,61.625 L137.125,71.375 L135.5,71.375 L135.5,68.125 L130.625,68.125 L130.625,71.375 L129,71.375 L129,61.625 Z M130.625,60 L135.5,60 L135.5,61.625 L130.625,61.625 L130.625,60 Z M139.508333,60 L141.133333,60 L141.133333,69.75 L147.633333,69.75 L147.633333,71.375 L139.508333,71.375 L139.508333,60 Z M156.516667,61.625 L158.141667,61.625 L158.141667,66.5 L156.516667,66.5 L156.516667,61.625 Z M150.016667,60 L156.516667,60 L156.516667,61.625 L151.641667,61.625 L151.641667,66.5 L156.516667,66.5 L156.516667,68.125 L151.641667,68.125 L151.641667,71.375 L150.016667,71.375 L150.016667,60 Z M160.525,60 L162.15,60 L162.15,64.875 L167.025,64.875 L167.025,60 L168.65,60 L168.65,71.375 L167.025,71.375 L167.025,66.5 L162.15,66.5 L162.15,71.375 L160.525,71.375 L160.525,60 Z M171.033333,61.625 L172.658333,61.625 L172.658333,66.5 L177.533333,66.5 L177.533333,61.625 L179.158333,61.625 L179.158333,71.375 L177.533333,71.375 L177.533333,68.125 L172.658333,68.125 L172.658333,71.375 L171.033333,71.375 L171.033333,61.625 Z M172.658333,60 L177.533333,60 L177.533333,61.625 L172.658333,61.625 L172.658333,60 Z M193.675,69.75 L195.3,69.75 L195.3,71.375 L193.675,71.375 L193.675,69.75 Z M193.675,61.625 L195.3,61.625 L195.3,66.5 L193.675,66.5 L193.675,61.625 Z M187.175,60 L193.675,60 L193.675,61.625 L188.8,61.625 L188.8,66.5 L193.675,66.5 L193.675,69.75 L192.05,69.75 L192.05,68.125 L188.8,68.125 L188.8,71.375 L187.175,71.375 L187.175,60 Z M197.683333,60 L205.808333,60 L205.808333,61.625 L199.308333,61.625 L199.308333,64.875 L202.558333,64.875 L202.558333,66.5 L199.308333,66.5 L199.308333,69.75 L205.808333,69.75 L205.808333,71.375 L197.683333,71.375 L197.683333,60 Z M208.191666,60 L209.816666,60 L209.816666,69.75 L216.316666,69.75 L216.316666,71.375 L208.191666,71.375 L208.191666,60 Z M218.699999,60 L226.824999,60 L226.824999,61.625 L220.324999,61.625 L220.324999,64.875 L223.574999,64.875 L223.574999,66.5 L220.324999,66.5 L220.324999,69.75 L226.824999,69.75 L226.824999,71.375 L218.699999,71.375 L218.699999,60 Z M229.208333,61.625 L230.833333,61.625 L230.833333,66.5 L235.708333,66.5 L235.708333,61.625 L237.333333,61.625 L237.333333,71.375 L235.708333,71.375 L235.708333,68.125 L230.833333,68.125 L230.833333,71.375 L229.208333,71.375 L229.208333,61.625 Z M230.833333,60 L235.708333,60 L235.708333,61.625 L230.833333,61.625 L230.833333,60 Z M239.716666,61.625 L241.341666,61.625 L241.341666,64.875 L239.716666,64.875 L239.716666,61.625 Z M246.216666,66.5 L247.841666,66.5 L247.841666,69.75 L246.216666,69.75 L246.216666,66.5 Z M241.341666,69.75 L246.216666,69.75 L246.216666,71.375 L241.341666,71.375 L241.341666,69.75 Z M239.716666,68.125 L241.341666,68.125 L241.341666,69.75 L239.716666,69.75 L239.716666,68.125 Z M241.341666,64.875 L246.216666,64.875 L246.216666,66.5 L241.341666,66.5 L241.341666,64.875 Z M246.216666,61.625 L247.841666,61.625 L247.841666,63.25 L246.216666,63.25 L246.216666,61.625 Z M241.341666,60 L246.216666,60 L246.216666,61.625 L241.341666,61.625 L241.341666,60 Z M250.224999,60 L258.349999,60 L258.349999,61.625 L251.849999,61.625 L251.849999,64.875 L255.099999,64.875 L255.099999,66.5 L251.849999,66.5 L251.849999,69.75 L258.349999,69.75 L258.349999,71.375 L250.224999,71.375 L250.224999,60 Z"/>
  </g>
</svg>
