<svg xmlns="http://www.w3.org/2000/svg" width="82" height="78" viewBox="0 0 82 78">
  <defs>
    <filter id="a" width="200%" height="200%" x="-50%" y="-50%" filterUnits="objectBoundingBox">
      <feOffset dy="2" in="SourceAlpha" result="shadowOffsetOuter1"/>
      <feGaussianBlur stdDeviation="2" in="shadowOffsetOuter1" result="shadowBlurOuter1"/>
      <feColorMatrix values="0 0 0 0 0 0 0 0 0 0 0 0 0 0 0 0 0 0 0.5 0" in="shadowBlurOuter1" result="shadowMatrixOuter1"/>
      <feMerge>
        <feMergeNode in="shadowMatrixOuter1"/>
        <feMergeNode in="SourceGraphic"/>
      </feMerge>
    </filter>
  </defs>
  <g fill="#000000" fill-rule="evenodd" filter="url(#a)" transform="translate(4 2)">
    <path d="M41.3905931 14C57.122198 14 66.6416722 25.6360072 68.5827096 36.2951909 67.2259367 34.6155587 65.7941972 32.6112393 62.6601857 30.6612605 61.3890757 27.8133664 57.3278969 23.0807318 53.9410829 21.119414 53.1288238 21.119414 52.7760116 22.3182683 53.1787691 23.6966133 53.6565395 24.4564814 55.81168 24.4791526 55.9174666 26.0417588 55.599057 26.7242554 56.8717903 26.8389812 55.5557791 27.8133664 50.0717135 26.83896 38.9462528 27.9697335 33.3998682 38.1070424 32.5068226 37.8140366 29.475113 35.7831719 28.7791216 35.7649188 27.2582503 35.7831719 27.4446657 37.1868863 25.9595615 36.2951909 25.5054305 36.1273348 24.9347213 35.2160525 24.9347213 34.0401499 24.3677617 32.1162377 25.0802443 32.1963504 25.5878406 31.6656137 24.7015428 31.1514015 21.5560936 30.99149 24.8148749 27.9697335 28.5860555 25.4816742 28.4292413 29.8133916 29.3139065 29.6511613 30.0540207 29.5335223 29.1679716 27.6309975 30.0540207 27.0651574 33.3966777 24.9305022 34.0127396 25.5932034 38.2051066 24.1547907 39.0329946 23.9363653 39.1865954 25.3376345 39.9481106 24.0688662 40.4451349 22.8815224 40.4755323 21.5283524 39.3381323 20.7668274 37.334326 20.0741496 36.0820071 22.6690924 35.1249238 22.2356044 34.4631496 21.9358697 34.762466 20.4381921 35.7086208 19.9178808 36.9372129 18.861599 36.8942613 19.7070735 38.505896 19.6400242 39.3866892 19.9178808 38.9750219 20.0461354 40.0871186 20.1643781 40.9167585 19.9178808 41.3905931 19.541145 41.1142967 17.7259348 34.1809928 17.8715821 26.1162198 21.1645672 21.3156489 28.8449357 21.707596 30.1035406 21.2674058 30.722883 21.7797355 31.6656137 22.2227576 32.5297105 23.1368556 32.4864929 23.3821203 32.7450131 23.4854833 32.9828679 23.2321835 33.068249 23.4787611 33.7057474 23.7253388 34.3432457 24.0709978 33.7272181 24.0709978 34.7197874 24.2460515 35.5647038 25.7846661 36.5600905 25.6343896 38.1070424 24.8926554 39.6568265 23.840995 40.7552613 23.840995 42.6541885 24.0507354 45.0372356 24.8469293 45.3294769 26.4766314 46.7298817 26.4766314 47.8374134 26.7430064 47.9768366 27.0965184 48.6954476 26.1298548 56.5489656 26.9555468 60.5987982 30.6536868 62.1935242 30.6536868 62.1935242 27.8412127 58.7020134 31.9332402 55.402692 35.1249238 63.2905916 40.4331402 66.7610644 47.0258039 68.5016912 45.157453 68.804773 43.7916219 69.0095564 41.3905931 69.0095564 25.2987253 69.0095564 14 56.4647323 14 41.411779 14 26.3588257 25.6589882 14 41.3905931 14zM42.1696589 17.716741C42.0524116 19.7738555 41.6818373 19.562579 41.7611277 20.3977928 41.936659 21.4428525 42.4272298 22.3721712 42.9688156 22.4746766 43.7569101 22.3721712 44.0858737 21.1952787 44.9060454 20.3128316 45.4417548 19.9160437 45.5182086 20.3688388 46.2467328 20.0027511 46.8062991 19.5696042 46.7334492 19.5212385 47.1307912 18.3775939 45.548224 17.9728014 43.9718926 17.7853542 42.1696589 17.716741zM51.9397158 23.6836684C51.4322252 24.2740093 51.968637 24.2437524 51.8251714 24.5695146 51.4430207 24.8863302 51.1606734 25.0912763 51.2637082 25.3055165 51.7212406 25.9192414 51.9397158 25.3055165 52.3727283 25.5240365 52.5925304 26.4075069 52.6403644 27.5681241 53.8554779 27.3482347 53.870764 27.3435471 53.8827475 27.3266003 53.8986193 27.3245436 54.6975727 27.2210123 54.0866658 25.8880367 53.6858576 25.1213504 53.1505807 24.0974458 52.4051056 23.4404104 51.9397158 23.6836684zM51.9532214 29.8360972C62.551998 29.8360972 70.7160148 38.234138 70.7160148 48.5485049 70.7160148 54.7759684 67.1708831 59.8751297 67.1708831 59.8751297 72.923989 65.6368034 75.3167348 65.7676046 72.1519651 68.801325 68.9871954 71.8350455 68.36559 68.7429845 63.2585081 63.6388968 63.2585081 63.6388968 57.7847318 67.2982108 51.9532214 67.2982108 41.5755289 67.2982108 33.1045601 58.8665683 33.1045601 48.5485049 33.1045601 38.2794203 41.3544448 29.8360972 51.9532214 29.8360972zM51.8969112 63.3133166C60.0541225 63.3133166 66.6668488 56.7142184 66.6668488 48.5738182 66.6668488 40.433418 60.0541225 33.8343198 51.8969112 33.8343198 43.7396999 33.8343198 37.1269737 40.433418 37.1269737 48.5738182 37.1269737 56.7142184 43.7396999 63.3133166 51.8969112 63.3133166zM58.67649 42.7908596C61.1641277 42.9484701 63.236891 44.6192142 63.9763384 46.895664 64.5613595 47.401331 64.9666554 48.4092354 64.9666554 49.0976867 64.9666554 49.9405379 64.3599912 51.2646119 63.5575156 51.5555345 62.5496502 53.4254807 60.5711366 54.6970908 58.2935684 54.6970908 55.7429756 54.6970908 53.571283 53.0993875 52.7138223 50.8543139L51.391328 50.8543139C50.5340135 53.0993875 48.3629058 54.6970908 45.81224 54.6970908 43.5525126 54.6970908 41.587526 53.4451091 40.5722025 51.5990963 39.6943417 51.4360862 39.0084902 49.9939504 39.0084902 49.0976867 39.0084902 48.3400619 39.4984573 47.1954158 40.1796292 46.7589953 40.9849564 44.4734245 43.1410017 42.8266139 45.6958353 42.7715232L58.67649 42.7908596zM54.1390187 48.8517388C54.1390187 51.0838243 55.9527963 52.8933531 58.1897106 52.8933531 60.4264787 52.8933531 62.2395983 51.0838243 62.2395983 48.8517388 62.2395983 48.2706961 62.1149312 47.7194973 61.8931628 47.2201055L59.5744288 49.2451083 59.1175844 48.7235344 61.5516263 46.597909C61.3760687 46.3368302 61.1673154 46.1004874 60.9362609 45.8872755L56.6394521 49.2566372 56.2103928 48.7120784 60.3708356 45.4496145C59.741139 45.0464673 58.9935754 44.8098327 58.1897106 44.8098327 55.9527963 44.8098327 54.1390187 46.6195804 54.1390187 48.8517388zM45.8801407 52.8933531C48.1169088 52.8933531 49.9301746 51.0838243 49.9301746 48.8517388 49.9301746 48.1532909 49.7524966 47.4964347 49.4399881 46.9236373L46.4643576 49.2566372 46.0352982 48.7120784 49.05363 46.3455133C48.8204551 46.0517449 48.5472843 45.7924173 48.2423802 45.5727842L43.5437121 49.2566372 43.1146527 48.7120784 47.5991567 45.1959784C47.0770906 44.9508065 46.495506 44.8098327 45.8801407 44.8098327 43.6432264 44.8098327 41.8307649 46.6195804 41.8307649 48.8517388 41.8307649 51.0838243 43.6432264 52.8933531 45.8801407 52.8933531zM14.7215506 56.2408247L7.30631471 61.6117289 5.89378333 59.6615445C4.30879172 57.4732562 4.58890104 55.2824156 7.03796979 53.5085389 9.49837682 51.7264499 11.7240277 52.102352 13.2597449 54.2226106L14.7215506 56.2408247zM12.7031148 55.6975489L12.3007076 55.1419731C11.2741586 53.7246879 9.84070769 53.5355993 8.01524441 54.8577944 6.20111941 56.1717771 5.99051954 57.5516625 7.01706851 58.9689476L7.4194757 59.5245234 12.7031148 55.6975489zM11.134229 49.0494733L8.96953713 43.4021365 7.68842831 43.8932008 8.4801443 45.958662 2.49292146 48.2536362 1.70120547 46.1881751.420096649 46.6792394 2.58478849 52.3265762 3.8658973 51.8355119 3.07418131 49.7700507 9.06140415 47.4750765 9.85312014 49.5405377 11.134229 49.0494733zM9.50627539 39.0365002L9.37263778 37.418008 6.20541598 37.679523 0 35.1716561.138245804 36.8459584 2.67325253 37.7745039C3.41017606 38.0227049 4.10639409 38.2883145 4.87352675 38.5621164L4.87813494 38.6179265C4.16514855 38.999893 3.51962066 39.3481942 2.84849182 39.7267045L.487316459 41.0735716.629018408 42.7897314 6.33905359 39.2980152 9.50627539 39.0365002zM11.3230356 30.0163448C11.196302 30.6477516 10.718098 31.3228464 10.0231277 31.7973612L10.0148625 31.8385399 10.7285284 32.1245765 10.4778162 33.373664.787094007 31.428578 1.1066832 29.8363347 3.60485805 30.3377591 4.77153889 30.6433271 4.77980413 30.6021484C4.34371297 29.9291696 4.15484152 29.0916234 4.30086072 28.3641329 4.65075579 26.620901 6.19980272 25.8751574 8.27246427 26.2911744 10.5921981 26.7567828 11.6343596 28.4652802 11.3230356 30.0163448zM9.95567642 30.0703156C10.1457769 29.1232054 9.49567444 28.2359203 7.97206231 27.9301065 6.62689124 27.6601088 5.73709689 27.9670062 5.51669055 29.065105 5.41475261 29.5729757 5.55437676 30.1578903 6.00694924 30.819898L9.04044726 31.4287705C9.59259589 31.0255436 9.87026896 30.4958289 9.95567642 30.0703156zM14.7054647 23.2635172L9.69699158 20.7584829 8.36306085 23.4254949 7.2236332 22.8555996 9.27776128 18.7486516 15.4256621 21.8235811 14.7054647 23.2635172zM7.73752416 19.011417C7.44318264 19.5999126 6.84835666 19.8502764 6.25986106 19.5559349 5.68388665 19.267856 5.50239929 18.6292118 5.79674081 18.0407162 6.09108233 17.4522206 6.71095068 17.214382 7.2869251 17.5024609 7.87542069 17.7968024 8.03186569 18.4229214 7.73752416 19.011417zM20.1636678 17.3345648C18.9755783 18.694741 16.8976626 19.0731936 15.1789903 17.5719642 13.449774 16.0615249 13.5454174 13.951593 14.7335069 12.5914168 15.9215964 11.2312406 17.9995121 10.852788 19.7287284 12.3632274 21.4474007 13.8644567 21.3517573 15.9743886 20.1636678 17.3345648zM19.1725316 16.4688252C19.9093313 15.625305 19.666051 14.5205432 18.6327389 13.6179636 17.5888827 12.706174 16.4614428 12.6136363 15.7246431 13.4571565 14.9878434 14.3006766 15.2311237 15.4054384 16.2749799 16.317228 17.308292 17.2198076 18.4357319 17.3123453 19.1725316 16.4688252zM26.6472195 12.9731079C25.6528078 13.651902 24.2975323 14.0007002 23.2260009 14.0202064L23.2218784 12.2262435C24.2423821 12.1568156 25.1901901 11.8318973 25.9302174 11.3267482 26.4389862 10.9794582 26.5524034 10.6986299 26.4103302 10.4904973 26.2208993 10.212987 25.8886914 10.3719521 24.7753324 10.8268277 22.9428599 11.5691676 21.9542799 11.3625432 21.3386295 10.460635 20.5651199 9.32746817 21.1353229 7.8533961 22.8119473 6.70891766 23.8988623 5.96697991 25.0581211 5.80283658 25.9314237 5.76608654L25.8577227 7.54536959C25.0196619 7.60891545 24.2227249 7.8817 23.6214527 8.29213365 23.2514391 8.5447082 23.0991101 8.81819656 23.2411833 9.02632923 23.4148283 9.28071361 23.7312503 9.09862264 24.7752317 8.69110485 26.7780311 7.90030113 27.6419829 8.0733428 28.2970981 9.03306569 29.0390359 10.1199808 28.5782282 11.6549844 26.6472195 12.9731079zM31.9423181 13.5700186L28.8207849 4.63562846 30.6711024 3.98915708 31.042113 4.5417067 31.0949793 4.52323609C31.4402081 3.89840248 32.0034287 3.34570491 32.6774729 3.11020462 34.2766758 2.55146865 35.7561157 3.51756473 36.4672342 5.55291395 37.2614705 7.82616114 36.3394789 9.60161925 34.8988746 10.1049434 34.3305628 10.3035025 33.745216 10.2410753 33.1745214 9.96591047L33.1216552 9.98438109 33.5783292 10.9518979 34.2155653 12.7757823 31.9423181 13.5700186zM33.7105245 8.44394968C34.2656198 8.25000826 34.5936508 7.66084306 34.1503561 6.39205393 33.7717086 5.30829655 33.2842946 4.97437505 32.6366835 5.20064004 32.2798365 5.32531666 32.0484654 5.5544529 31.8513271 6.00890695L32.7009752 8.44075278C33.0616406 8.58168003 33.4065438 8.55015569 33.7105245 8.44394968zM38.9585649 9.88520976L41.3609893 9.72143815 41.0486807 5.14007075C41.388986 4.78009257 41.6829426 4.56359887 42.1299053 4.53312973 42.7444789 4.49123467 42.962877 4.81312643 43.0161979 5.59531111L43.2885159 9.59004 45.6909402 9.42626839 45.3976748 5.12425266C45.2796069 3.3922723 44.53299 2.32056932 42.9965558 2.42530697 41.9629547 2.49576685 41.2690138 3.02017704 40.8525202 3.49760885L40.7966499 3.50141749 40.8525356 2.26274854 40.6982856 0 38.2958612.163771609 38.9585649 9.88520976zM50.5092503 11.4701689C48.3364153 11.0557635 46.9104472 9.41557605 47.3458351 7.13272403 47.7759774 4.87737625 49.7932851 3.86538926 51.6360692 4.21684699 53.8089043 4.63125238 54.6258095 6.32630691 54.2743518 8.16909107 54.1956672 8.58165469 54.048222 8.98110422 53.989244 9.14088402L49.5748133 8.29895916C49.6342172 9.10842019 50.1763629 9.55387512 51.1802677 9.7453409 51.7303525 9.85025366 52.251657 9.80715393 52.9092067 9.64751555L53.4117979 11.1971097C52.4870036 11.5623212 51.3618818 11.6327837 50.5092503 11.4701689zM51.3776155 6.02035958C50.7037616 5.89184145 50.2033689 6.12421002 49.8823211 6.76134447L52.2889422 7.22033778C52.3159498 6.55562838 52.0239652 6.14363207 51.3776155 6.02035958zM54.9088699 13.3999443L57.7196431 6.98905092 59.527515 7.78168895 59.0983144 9.21387845 59.1496015 9.23636464C60.2260141 8.45481235 61.3515584 8.39797936 62.3131924 8.81959534 62.9029946 9.07818647 63.1272797 9.29881324 63.4188312 9.61007798L62.1733878 11.2652827C61.8393281 10.9812402 61.5981783 10.7990788 61.136594 10.5967032 60.4057521 10.276275 59.4549768 10.3180143 58.5083607 11.1870472L57.1142173 14.3668503 54.9088699 13.3999443zM64.237126 19.4292376C62.4093571 18.1833624 61.7550294 16.1108144 63.0639868 14.1905003 64.3571737 12.2933225 66.6106559 12.1689597 68.160789 13.225588 69.9885578 14.4714631 70.0623996 16.351647 69.0057712 17.9017801 68.7692127 18.2488248 68.4748133 18.5564431 68.3570536 18.6794904L64.643675 16.1483137C64.3756214 16.9144098 64.6953734 17.5389981 65.5398489 18.114624 66.0025752 18.4300354 66.4978818 18.5982242 67.1645864 18.7138136L67.0081041 20.3353417C66.0143737 20.3018145 64.9543517 19.9181253 64.237126 19.4292376zM67.2051107 14.7767601C66.638271 14.3903811 66.0867284 14.4041196 65.5383952 14.8605653L67.5628227 16.2404904C67.8524541 15.64159 67.7488141 15.1473686 67.2051107 14.7767601z"/>
  </g>
</svg>
