<svg xmlns="http://www.w3.org/2000/svg" width="81" height="105" viewBox="0 0 81 105">
  <defs>
    <filter id="a" width="200%" height="200%" x="-50%" y="-50%" filterUnits="objectBoundingBox">
      <feOffset dy="2" in="SourceAlpha" result="shadowOffsetOuter1"/>
      <feGaussianBlur stdDeviation="2" in="shadowOffsetOuter1" result="shadowBlurOuter1"/>
      <feColorMatrix values="0 0 0 0 0 0 0 0 0 0 0 0 0 0 0 0 0 0 0.5 0" in="shadowBlurOuter1" result="shadowMatrixOuter1"/>
      <feMerge>
        <feMergeNode in="shadowMatrixOuter1"/>
        <feMergeNode in="SourceGraphic"/>
      </feMerge>
    </filter>
  </defs>
  <path fill="#000000" fill-rule="evenodd" d="M44.0536669,90.9230853 L44.0423756,90.9230853 C44.1251785,90.9305773 44.1703431,90.9717832 44.1778706,91.046704 L44.1778706,95.182313 C44.1778706,95.1972972 44.1741069,95.2141541 44.1665794,95.2328844 C44.1590518,95.2516146 44.1477607,95.2647255 44.1327056,95.2722176 C44.1251781,95.3021859 43.9125283,95.4089465 43.4947499,95.5925025 C43.0769716,95.7760586 42.4917143,95.8828191 41.7389604,95.9127875 C40.7904906,95.965232 39.9116637,95.717997 39.1024534,95.171075 C38.293243,94.6241529 37.8622979,93.4516596 37.8096052,91.6535597 C37.8472429,89.8479677 38.2330234,88.6417605 38.9669584,88.0349018 C39.7008933,87.4280431 40.5420831,87.1470942 41.4905529,87.1920467 C42.2734169,87.2070308 42.8436194,87.2688396 43.2011774,87.3774748 C43.5587355,87.48611 43.7600941,87.5629027 43.8052593,87.6078552 C43.8353695,87.6378235 43.8504244,87.6715374 43.8504244,87.7089978 L43.5455606,88.9901376 C43.5455606,89.027598 43.5305057,89.0594388 43.5003956,89.0856611 C43.4702854,89.1118834 43.436412,89.1212484 43.3987743,89.1137563 C43.2783337,89.0688038 43.0995574,89.020106 42.8624399,88.9676614 C42.6253225,88.9152168 42.2809427,88.885249 41.8292905,88.8777569 C41.2722526,88.8402965 40.7716788,88.9901359 40.3275541,89.3272796 C39.8834293,89.6644233 39.6500792,90.4098744 39.6274965,91.5636551 C39.6576067,92.7174359 39.8702565,93.459141 40.2654522,93.7887926 C40.660648,94.1184443 41.0690108,94.2645377 41.4905529,94.2270773 C41.8217646,94.2270773 42.0569966,94.2139663 42.1962561,94.187744 C42.3355156,94.1615217 42.4013805,94.1484108 42.393853,94.1484108 L42.393853,92.4964148 L41.3324754,92.4964148 C41.2496725,92.4889227 41.2045079,92.4477169 41.1969804,92.372796 L41.1969804,91.046704 C41.2045079,90.9717832 41.2496725,90.9305773 41.3324754,90.9230853 L44.0536669,90.9230853 Z M57.8289929,87.5067126 L57.8177016,87.5067126 C57.892977,87.5142047 57.9343778,87.5554105 57.9419054,87.6303313 L57.9419054,95.6205977 C57.9343778,95.6955185 57.892977,95.7367244 57.8177016,95.7442164 L56.2820915,95.7442164 C56.2068161,95.7367244 56.1654153,95.6955185 56.1578877,95.6205977 L56.169179,92.204225 L53.7754338,92.204225 L53.7754338,95.6205977 C53.7679063,95.6955185 53.7265054,95.7367244 53.6512301,95.7442164 L52.1156199,95.7442164 C52.0855098,95.7442164 52.057282,95.7329785 52.0309356,95.7105022 C52.0045892,95.688026 51.9914162,95.6580581 51.9914162,95.6205977 L51.9914162,87.6303313 C51.9989437,87.5554105 52.0403446,87.5142047 52.1156199,87.5067126 L53.6512301,87.5067126 C53.7265054,87.5142047 53.7679063,87.5554105 53.7754338,87.6303313 L53.7754338,90.5747051 L56.169179,90.5747051 L56.169179,87.6303313 C56.1767065,87.5554105 56.2181074,87.5142047 56.2933828,87.5067126 L57.8289929,87.5067126 Z M45.8941407,87.6865217 C46.1726597,87.6940137 46.404128,87.7895364 46.5885527,87.9730924 C46.7729774,88.1566484 46.8651883,88.3907725 46.8651883,88.6754716 C46.8651883,88.9601708 46.7729774,89.1942949 46.5885527,89.3778509 C46.404128,89.5614069 46.1707778,89.6531836 45.8884951,89.6531836 C45.6062124,89.6531836 45.3728623,89.5614069 45.1884376,89.3778509 C45.0040129,89.1942949 44.9118019,88.9601708 44.9118019,88.6754716 C44.9118019,88.3907725 45.0040129,88.1566484 45.1884376,87.9730924 C45.3728623,87.7895364 45.6080943,87.6940137 45.8941407,87.6865217 Z M46.7748583,90.2375631 L46.7748583,95.5419312 C46.7748583,95.6018679 46.7635672,95.6486927 46.7409846,95.6824071 C46.7184019,95.7161214 46.6694737,95.7329784 46.5941983,95.7329784 L45.2053744,95.7329784 C45.1451541,95.7329784 45.094344,95.7198674 45.0529426,95.6936451 C45.0115411,95.6674228 44.9908407,95.616852 44.9908407,95.5419312 L44.9908407,90.2600392 C44.9908407,90.2225788 45.0021318,90.188865 45.0247144,90.1588966 C45.0472971,90.1289283 45.0774068,90.1139444 45.1150444,90.1139444 L46.6506546,90.1139444 C46.7259299,90.1214364 46.7673308,90.1626423 46.7748583,90.2375631 Z M63.7681908,90.1251824 C63.8509937,90.1326745 63.8961583,90.1738803 63.9036858,90.2488012 L63.8923946,95.6205977 C63.8923946,95.6955185 63.8509937,95.7367244 63.7681908,95.7442164 L62.7971432,95.7442164 C62.7444505,95.7367244 62.7086952,95.7161214 62.6898763,95.6824071 C62.6710575,95.6486927 62.6578845,95.5868839 62.650357,95.4969789 L62.6277745,95.3508841 C62.6127194,95.3733603 62.433943,95.465137 62.09144,95.6262167 C61.7489371,95.7872965 61.3217557,95.8790732 60.8098831,95.9015494 C60.1850974,95.9165336 59.6807599,95.7854241 59.2968555,95.508217 C58.912951,95.23101 58.7134743,94.702826 58.6984192,93.9236494 L58.6984192,90.2488012 C58.7059467,90.1738803 58.7473476,90.1326745 58.8226229,90.1251824 L60.3695243,90.1251824 C60.4447997,90.1326745 60.4862005,90.1738803 60.4937281,90.2488012 L60.4937281,93.6651739 C60.4862005,93.9348888 60.5351288,94.1334261 60.6405143,94.2607915 C60.7458999,94.3881569 60.9340855,94.4480926 61.2050769,94.4406006 C61.4760682,94.4331085 61.6962454,94.3900296 61.865615,94.3113628 C62.0349846,94.2326959 62.1234319,94.1858711 62.1309594,94.1708869 L62.1309594,90.2600392 C62.1309594,90.1776263 62.1723603,90.1326745 62.2551632,90.1251824 L63.7681908,90.1251824 Z M67.9346623,89.9453733 C68.4013697,89.9079129 68.8661882,90.0652443 69.3291318,90.4173722 C69.7920754,90.7695001 70.0423623,91.541173 70.08,92.7324142 C70.0724725,93.9386395 69.8805231,94.7739942 69.5041462,95.2385034 C69.1277693,95.7030125 68.5857947,95.9240256 67.8782061,95.9015494 C67.2835306,95.8790732 66.8318851,95.7798045 66.523256,95.6037406 C66.2146269,95.4276766 66.0603147,95.328408 66.0603147,95.3059318 L66.0377322,95.4745028 C66.0226771,95.5718999 66.0057404,95.6393276 65.9869216,95.676788 C65.9681027,95.7142485 65.9361112,95.7329784 65.8909459,95.7329784 L64.8182771,95.7329784 C64.7806394,95.7329784 64.7486479,95.7217404 64.7223015,95.6992642 C64.6959551,95.6767879 64.6827821,95.64682 64.6827821,95.6093596 L64.6940734,87.6190933 C64.7016009,87.5441724 64.7430017,87.5029666 64.8182771,87.4954745 L66.3538872,87.4954745 C66.4291626,87.5029666 66.4705635,87.5441724 66.478091,87.6190933 L66.478091,90.3274677 C66.4856185,90.3124835 66.6192303,90.2488017 66.8789304,90.1364205 C67.1386305,90.0240393 67.4905376,89.9603575 67.9346623,89.9453733 Z M67.3362261,94.4518386 C67.7050754,94.481807 67.9628897,94.3862843 68.1096767,94.1652679 C68.2564637,93.9442514 68.3260924,93.5003522 68.3185649,92.8335568 C68.3110373,92.2042219 68.2000078,91.7996555 67.985473,91.6198455 C67.7709381,91.4400355 67.5206512,91.3726078 67.2346048,91.4175603 C67.0163062,91.4400365 66.8337661,91.4849883 66.6869791,91.5524171 C66.5401921,91.6198458 66.463036,91.6573057 66.4555085,91.6647977 L66.4555085,94.1933631 C66.4555085,94.2008551 66.5345465,94.242061 66.6926248,94.3169818 C66.8507031,94.3919026 67.0652347,94.4368545 67.3362261,94.4518386 Z M51.1909443,94.4182481 L51.1909443,94.4182481 C51.2654554,94.4260992 51.3064539,94.4710098 51.3139411,94.5529812 L51.3139411,95.6318358 C51.3139411,95.6842803 51.2913589,95.7217402 51.2461936,95.7442164 C51.2010284,95.7666927 51.088117,95.7966606 50.9074561,95.834121 C50.7267952,95.8715814 50.5348459,95.8940573 50.3316023,95.9015494 C49.87995,95.9315177 49.4320682,95.8285031 48.9879435,95.5925025 C48.5438187,95.3565019 48.3029411,94.8152071 48.2653034,93.9686017 L48.2653034,91.6086074 L47.4636246,91.6086074 C47.3883492,91.6011153 47.3469484,91.5561635 47.3394209,91.4737506 L47.3394209,90.4960387 C47.3394209,90.4286099 47.3695306,90.3874041 47.4297509,90.3724199 L48.2653034,90.1701347 L48.2653034,88.6080432 C48.2653034,88.5481066 48.2991768,88.5181387 48.3669247,88.5181387 L49.9251173,88.5181387 C49.9928651,88.5181387 50.0267385,88.5481066 50.0267385,88.6080432 L50.0267385,90.1251824 L51.1784461,90.1251824 C51.2085563,90.1251824 51.2349023,90.1364204 51.2574849,90.1588966 C51.2800675,90.1813729 51.2913586,90.2113408 51.2913586,90.2488012 L51.2913586,91.4737506 C51.2913586,91.5561635 51.2537215,91.6011153 51.1784461,91.6086074 L50.0267385,91.6086074 L50.0267385,93.856221 C50.0267385,94.0285389 50.0831942,94.1690134 50.1961073,94.2776486 C50.3090204,94.3862838 50.5047334,94.4443465 50.7832524,94.4518386 C50.8735828,94.4518386 50.9563845,94.4462196 51.0316599,94.4349815 C51.1004884,94.4247059 51.1535828,94.4191281 51.1909443,94.4182481 Z M25.791968,94.9460223 C25.3379342,94.9460223 24.8641599,94.7200747 24.4594776,94.2976509 L24.4199964,94.2976509 L24.3015529,94.8281366 L23.1664685,94.8281366 L23.1664685,87.9416466 L24.6174024,87.9416466 L24.6174024,89.6313417 L24.5680509,90.3975988 L24.5976618,90.3975988 C24.9628629,90.0439417 25.4662481,89.8376417 25.9400225,89.8376417 C27.1639395,89.8376417 27.9140822,90.8101988 27.9140822,92.3034177 C27.9140822,93.983289 26.8875712,94.9460223 25.791968,94.9460223 Z M25.4662481,93.7671652 C25.9992443,93.7671652 26.4236671,93.3349176 26.4236671,92.3328891 C26.4236671,91.4585701 26.1374284,91.0164987 25.5254699,91.0164987 C25.2096204,91.0164987 24.9233817,91.1540321 24.6174024,91.4683939 L24.6174024,93.4429795 C24.8937708,93.6787509 25.2096204,93.7671652 25.4662481,93.7671652 Z M29.789439,96.7339555 C29.5032003,96.7339555 29.2465726,96.6946603 29.0392963,96.6357174 L29.2959241,95.5354508 C29.424238,95.5747461 29.5525518,95.5943937 29.6808657,95.5943937 C30.2434728,95.5943937 30.549452,95.3389746 30.7073768,94.9558461 L30.8060798,94.7004271 L28.6839655,89.9555274 L30.1250292,89.9555274 L30.944264,92.0479987 C31.1219294,92.5097177 31.2798541,93.0009081 31.4377789,93.5117462 L31.4772601,93.5117462 C31.605574,93.0303796 31.7733691,92.5293653 31.9214236,92.0479987 L32.6419554,89.9555274 L34.0139269,89.9555274 L32.0793483,94.8772556 C31.605574,96.1052317 31.0232264,96.7339555 29.789439,96.7339555 Z M17.4597298,90.0981545 L13.5603525,90.0981545 L13.5603525,93.0089127 L17.4597298,93.0089127 L17.4597298,93.9791654 L13.5603525,93.9791654 L13.5603525,95.9196709 L11.6106638,95.9196709 L11.6106638,94.9494182 L9.66097516,94.9494182 C9.16339587,94.9393113 8.74452164,94.7573908 8.40433989,94.403651 C8.06415813,94.0499113 7.83314265,93.5850032 7.7112865,93.0089127 L6.73644217,92.03866 C6.17793481,92.0487668 5.71590384,92.2357408 5.35033539,92.5995873 C4.98476694,92.9634339 4.79690819,93.4232887 4.78675351,93.9791654 L4.78675351,95.9196709 L3.81190918,95.9196709 L3.81190918,93.9791654 C3.83221854,93.1504038 4.11654529,92.4631483 4.66489797,91.9173784 C5.21325064,91.3716085 5.90375847,91.088621 6.73644217,91.0684073 L7.7112865,90.0981545 C7.83314265,89.5119572 8.0616195,89.0445225 8.39672392,88.6958361 C8.73182833,88.3471498 9.1532412,88.1677559 9.66097516,88.1576491 L11.6106638,88.1576491 L11.6106638,87.1873964 L13.5603525,87.1873964 L13.5603525,89.1279018 L17.4597298,89.1279018 L17.4597298,90.0981545 Z M45.2946022,81.3664329 L45.2946022,73.4746286 L46.9528625,73.4746286 L46.9528625,75.4109914 L46.862617,76.4804941 L46.8964591,76.4804941 C47.3138443,76.052693 47.9117205,75.6474078 48.7577716,75.6474078 C50.0099274,75.6474078 50.5739615,76.5142679 50.5739615,77.9215083 L50.5739615,81.3664329 L48.9157012,81.3664329 L48.9157012,78.1354088 C48.9157012,77.3923859 48.7013682,77.0546482 48.0922114,77.0546482 C47.6409841,77.0546482 47.3476864,77.2572908 46.9528625,77.6400602 L46.9528625,81.3664329 L45.2946022,81.3664329 Z M42.0908885,81.5015279 C40.3085407,81.5015279 39.6768225,80.5108307 39.6768225,79.0473006 L39.6768225,77.077164 L38.2667372,77.077164 L38.2667372,75.8500504 L39.7557872,75.7825029 L39.9701202,74.0712985 L41.3350827,74.0712985 L41.3350827,75.7825029 L43.704026,75.7825029 L43.704026,77.077164 L41.3350827,77.077164 L41.3350827,79.0360427 C41.3350827,79.880387 41.6960646,80.2068667 42.5195544,80.2068667 C42.9369396,80.2068667 43.2866408,80.1168034 43.6250612,80.0042241 L43.918359,81.197564 C43.422009,81.343917 42.8354135,81.5015279 42.0908885,81.5015279 Z M34.8374098,74.9043848 C34.1944109,74.9043848 33.7319029,74.5103575 33.7319029,73.9024296 C33.7319029,73.2945018 34.1944109,72.8667007 34.8374098,72.8667007 C35.4804087,72.8667007 35.9429167,73.2945018 35.9429167,73.9024296 C35.9429167,74.5103575 35.4804087,74.9043848 34.8374098,74.9043848 Z M34.0816041,81.3664329 L34.0816041,77.077164 L31.8367483,77.077164 L31.8367483,75.7825029 L35.7398644,75.7825029 L35.7398644,81.3664329 L34.0816041,81.3664329 Z M25.1360231,81.3664329 L24.2222879,75.7825029 L25.8241447,75.7825029 L26.1738459,78.3718252 C26.24153,78.9234635 26.2866527,79.4638438 26.3543368,80.02674 L26.3881788,80.02674 C26.4558629,79.4638438 26.5348277,78.9009476 26.6476345,78.3718252 L26.9973357,76.5255258 L28.2043687,76.5255258 L28.5653505,78.3718252 C28.6781573,78.9234635 28.7684028,79.4638438 28.8473676,80.02674 L28.8924903,80.02674 C28.9714551,79.4638438 28.9940164,78.9234635 29.0504198,78.3718252 L29.3662789,75.7825029 L30.9004517,75.7825029 L30.0431199,81.3664329 L28.0915618,81.3664329 L27.7869834,79.5539072 C27.7192993,79.0698165 27.6516152,78.5406941 27.5839311,77.8989924 L27.5388084,77.8989924 C27.4936857,78.3718252 27.4372823,78.8559159 27.3470368,79.5539072 L27.0537391,81.3664329 L25.1360231,81.3664329 Z M59.7113208,82.1705712 C59.6106003,82.1705712 59.5098798,82.1328772 59.4343394,82.0574892 L55.50624,78.2755261 C55.4558798,78.2315498 54.0709729,76.9688013 54.0709729,75.4610419 C54.0709729,73.620319 55.1977835,72.5209111 57.0799978,72.5209111 C58.1816282,72.5209111 59.2140133,73.3878727 59.7113208,73.8778945 C60.2086282,73.3878727 61.2410133,72.5209111 62.3426438,72.5209111 C64.224858,72.5209111 65.3516686,73.620319 65.3516686,75.4610419 C65.3516686,76.9688013 63.9667618,78.2315498 63.9101065,78.2880908 L59.9883021,82.0574892 C59.9127618,82.1328772 59.8120413,82.1705712 59.7113208,82.1705712 Z M21.0107823,77.8923039 L18.0772978,80.8198701 C17.9954624,80.9015404 17.8695618,80.9015404 17.7877264,80.8198701 L17.4729748,80.5057535 C17.3911394,80.4240832 17.3911394,80.2984366 17.4729748,80.2167663 L19.946922,77.7478103 L17.4729748,75.2788543 C17.3911394,75.197184 17.3911394,75.0715374 17.4729748,74.9898671 L17.7877264,74.6757505 C17.8695618,74.5940802 17.9954624,74.5940802 18.0772978,74.6757505 L21.0107823,77.6033167 C21.0926177,77.684987 21.0926177,77.8106336 21.0107823,77.8923039 Z M16.8749469,73.8025066 L14.5269003,81.9129956 C14.4954251,82.0197953 14.3821146,82.0826186 14.2813941,82.0512069 L13.8911022,81.9444073 C13.7840866,81.9129956 13.7211363,81.7999137 13.7526115,81.6931141 L16.1006581,73.582625 C16.1321332,73.4758254 16.2454438,73.413002 16.3461643,73.4444137 L16.7364562,73.5512133 C16.8434717,73.582625 16.906422,73.6957069 16.8749469,73.8025066 Z M13.1545835,80.5057535 L12.839832,80.8198701 C12.7579966,80.9015404 12.6320959,80.9015404 12.5502605,80.8198701 L9.61677607,77.8923039 C9.53494066,77.8106336 9.53494066,77.684987 9.61677607,77.6033167 L12.5502605,74.6757505 C12.6320959,74.5940802 12.7579966,74.5940802 12.839832,74.6757505 L13.1545835,74.9898671 C13.2364189,75.0715374 13.2364189,75.197184 13.1545835,75.2788543 L10.6806363,77.7478103 L13.1545835,80.2167663 C13.2364189,80.2984366 13.2364189,80.4240832 13.1545835,80.5057535 Z M41.0810384,13.8764424 C56.8126433,13.8764424 66.3321175,25.5124496 68.273155,36.1716333 C66.9163821,34.4920012 65.4846426,32.4876817 62.3506311,30.5377029 C61.0795211,27.6898089 57.0183423,22.9571743 53.6315283,20.9958565 C52.8192692,20.9958565 52.466457,22.1947108 52.8692144,23.5730557 C53.3469849,24.3329238 55.5021253,24.3555951 55.6079119,25.9182012 C55.2895024,26.6006979 56.5622356,26.7154236 55.2462245,27.6898089 C49.7621588,26.7154024 38.6366982,27.846176 33.0903136,37.9834848 C32.197268,37.690479 29.1655584,35.6596144 28.469567,35.6413612 C26.9486956,35.6596144 27.135111,37.0633287 25.6500069,36.1716333 C25.1958759,36.0037772 24.6251666,35.0924949 24.6251666,33.9165924 C24.0582071,31.9926801 24.7706897,32.0727929 25.278286,31.5420561 C24.3919882,31.0278439 21.246539,30.8679325 24.5053203,27.846176 C28.2765009,25.3581166 28.1196867,29.6898341 29.0043518,29.5276037 C29.7444661,29.4099648 28.858417,27.50744 29.7444661,26.9415999 C33.0871231,24.8069446 33.7031849,25.4696459 37.895552,24.0312332 C38.72344,23.8128078 38.8770408,25.2140769 39.638556,23.9453087 C40.1355803,22.7579648 40.1659777,21.4047948 39.0285776,20.6432699 C37.0247713,19.9505921 35.7724524,22.5455348 34.8153692,22.1120469 C34.153595,21.8123122 34.4529113,20.3146345 35.3990662,19.7943233 C36.6276583,18.7380415 36.5847066,19.5835159 38.1963414,19.5164667 C39.0771345,19.7943233 38.6654672,19.9225779 39.777564,20.0408206 C40.6072039,19.7943233 41.0810384,19.4175874 40.804742,17.6023772 C33.8714382,17.7480245 25.8066651,21.0410096 21.0060942,28.7213781 C21.3980414,29.9799831 20.9578512,30.5993254 21.4701809,31.5420561 C21.9132029,32.406153 22.827301,32.3629354 23.0725657,32.6214556 C23.1759286,32.8593103 22.9226289,32.9446915 23.1692065,33.5821898 C23.4157841,34.2196882 23.7614432,33.6036606 23.7614432,34.5962298 C23.9364969,35.4411462 25.4751115,36.4365329 25.3248349,37.9834848 C24.5831008,39.533269 23.5314404,40.6317038 23.5314404,42.5306309 C23.7411808,44.9136781 24.5373747,45.2059193 26.1670768,46.6063241 C26.1670768,47.7138559 26.4334518,47.8532791 26.7869638,48.5718901 C25.8203002,56.425408 26.6459922,60.4752406 30.3441322,62.0699666 C30.3441322,62.0699666 27.5316581,58.5784558 31.6236856,55.2791344 C34.8153692,63.1670341 40.1235855,66.6375069 46.7162493,68.3781336 C44.8478983,68.6812155 43.4820673,68.8859989 41.0810384,68.8859989 C24.9891707,68.8859989 13.6904454,56.3411747 13.6904454,41.2882215 C13.6904454,26.2352682 25.3494335,13.8764424 41.0810384,13.8764424 Z M41.8601043,17.5931834 C41.742857,19.650298 41.3722827,19.4390215 41.4515731,20.2742353 C41.6271043,21.319295 42.1176752,22.2486137 42.659261,22.351119 C43.4473555,22.2486137 43.7763191,21.0717211 44.5964908,20.1892741 C45.1322002,19.7924861 45.208654,20.2452812 45.9371782,19.8791936 C46.4967445,19.4460466 46.4238945,19.3976809 46.8212366,18.2540363 C45.2386694,17.8492438 43.662338,17.6617966 41.8601043,17.5931834 Z M51.6301612,23.5601109 C51.1226705,24.1504517 51.6590824,24.1201948 51.5156167,24.445957 C51.1334661,24.7627726 50.8511188,24.9677187 50.9541536,25.1819589 C51.411686,25.7956839 51.6301612,25.1819589 52.0631737,25.4004789 C52.2829757,26.2839494 52.3308098,27.4445666 53.5459233,27.2246772 C53.5612094,27.2199895 53.5731929,27.2030428 53.5890646,27.2009861 C54.388018,27.0974547 53.7771112,25.7644791 53.3763029,24.9977929 C52.841026,23.9738883 52.0955509,23.3168529 51.6301612,23.5601109 Z M51.6436668,29.7125397 C62.2424433,29.7125397 70.4064602,38.1105804 70.4064602,48.4249474 C70.4064602,54.6524108 66.8613285,59.7515722 66.8613285,59.7515722 C72.6144344,65.5132458 75.0071802,65.6440471 71.8424105,68.6777675 C68.6776408,71.7114879 68.0560354,68.6194269 62.9489535,63.5153392 C62.9489535,63.5153392 57.4751772,67.1746532 51.6436668,67.1746532 C41.2659743,67.1746532 32.7950054,58.7430108 32.7950054,48.4249474 C32.7950054,38.1558628 41.0448902,29.7125397 51.6436668,29.7125397 Z M51.5873566,63.189759 C59.7445678,63.189759 66.3572941,56.5906608 66.3572941,48.4502606 C66.3572941,40.3098604 59.7445678,33.7107622 51.5873566,33.7107622 C43.4301453,33.7107622 36.817419,40.3098604 36.817419,48.4502606 C36.817419,56.5906608 43.4301453,63.189759 51.5873566,63.189759 Z M58.3669353,42.6673021 C60.854573,42.8249126 62.9273364,44.4956566 63.6667838,46.7721065 C64.2518049,47.2777734 64.6571008,48.2856778 64.6571008,48.9741291 C64.6571008,49.8169804 64.0504366,51.1410543 63.247961,51.431977 C62.2400956,53.3019232 60.261582,54.5735332 57.9840137,54.5735332 C55.433421,54.5735332 53.2617284,52.97583 52.4042677,50.7307563 L51.0817733,50.7307563 C50.2244589,52.97583 48.0533512,54.5735332 45.5026853,54.5735332 C43.242958,54.5735332 41.2779714,53.3215515 40.2626478,51.4755388 C39.3847871,51.3125287 38.6989355,49.8703928 38.6989355,48.9741291 C38.6989355,48.2165043 39.1889026,47.0718582 39.8700746,46.6354377 C40.6754018,44.3498669 42.8314471,42.7030563 45.3862807,42.6479656 L58.3669353,42.6673021 Z M53.8294641,48.7281813 C53.8294641,50.9602667 55.6432416,52.7697955 57.880156,52.7697955 C60.1169241,52.7697955 61.9300436,50.9602667 61.9300436,48.7281813 C61.9300436,48.1471386 61.8053766,47.5959397 61.5836082,47.096548 L59.2648742,49.1215508 L58.8080298,48.5999768 L61.2420716,46.4743514 C61.0665141,46.2132726 60.8577608,45.9769298 60.6267063,45.7637179 L56.3298975,49.1330797 L55.9008381,48.5885209 L60.0612809,45.3260569 C59.4315844,44.9229098 58.6840208,44.6862752 57.880156,44.6862752 C55.6432416,44.6862752 53.8294641,46.4960229 53.8294641,48.7281813 Z M45.5705861,52.7697955 C47.8073542,52.7697955 49.62062,50.9602667 49.62062,48.7281813 C49.62062,48.0297334 49.442942,47.3728771 49.1304335,46.8000798 L46.1548029,49.1330797 L45.7257435,48.5885209 L48.7440753,46.2219558 C48.5109004,45.9281873 48.2377297,45.6688597 47.9328256,45.4492266 L43.2341574,49.1330797 L42.8050981,48.5885209 L47.2896021,45.0724208 C46.767536,44.827249 46.1859514,44.6862752 45.5705861,44.6862752 C43.3336717,44.6862752 41.5212103,46.4960229 41.5212103,48.7281813 C41.5212103,50.9602667 43.3336717,52.7697955 45.5705861,52.7697955 Z M14.7215506,56.2408247 L7.30631471,61.6117289 L5.89378333,59.6615445 C4.30879172,57.4732562 4.58890104,55.2824156 7.03796979,53.5085389 C9.49837682,51.7264499 11.7240277,52.102352 13.2597449,54.2226106 L14.7215506,56.2408247 Z M12.7031148,55.6975489 L12.3007076,55.1419731 C11.2741586,53.7246879 9.84070769,53.5355993 8.01524441,54.8577944 C6.20111941,56.1717771 5.99051954,57.5516625 7.01706851,58.9689476 L7.4194757,59.5245234 L12.7031148,55.6975489 Z M11.134229,49.0494733 L9.85312014,49.5405377 L9.06140415,47.4750765 L3.07418131,49.7700507 L3.8658973,51.8355119 L2.58478849,52.3265762 L0.420096649,46.6792394 L1.70120547,46.1881751 L2.49292146,48.2536362 L8.4801443,45.958662 L7.68842831,43.8932008 L8.96953713,43.4021365 L11.134229,49.0494733 Z M9.50627539,39.0365002 L6.33905359,39.2980152 L0.629018408,42.7897314 L0.487316459,41.0735716 L2.84849182,39.7267045 C3.51962066,39.3481942 4.16514855,38.999893 4.87813494,38.6179265 L4.87352675,38.5621164 C4.10639409,38.2883145 3.41017606,38.0227049 2.67325253,37.7745039 L0.138245804,36.8459584 L7.10542736e-15,35.1716561 L6.20541598,37.679523 L9.37263778,37.418008 L9.50627539,39.0365002 Z M11.3230356,30.0163448 C11.196302,30.6477516 10.718098,31.3228464 10.0231277,31.7973612 L10.0148625,31.8385399 L10.7285284,32.1245765 L10.4778162,33.373664 L0.787094007,31.428578 L1.1066832,29.8363347 L3.60485805,30.3377591 L4.77153889,30.6433271 L4.77980413,30.6021484 C4.34371297,29.9291696 4.15484152,29.0916234 4.30086072,28.3641329 C4.65075579,26.620901 6.19980272,25.8751574 8.27246427,26.2911744 C10.5921981,26.7567828 11.6343596,28.4652802 11.3230356,30.0163448 Z M9.95567642,30.0703156 C10.1457769,29.1232054 9.49567444,28.2359203 7.97206231,27.9301065 C6.62689124,27.6601088 5.73709689,27.9670062 5.51669055,29.065105 C5.41475261,29.5729757 5.55437676,30.1578903 6.00694924,30.819898 L9.04044726,31.4287705 C9.59259589,31.0255436 9.87026896,30.4958289 9.95567642,30.0703156 Z M14.7054647,23.2635172 L9.69699158,20.7584829 L8.36306085,23.4254949 L7.2236332,22.8555996 L9.27776128,18.7486516 L15.4256621,21.8235811 L14.7054647,23.2635172 Z M7.73752416,19.011417 C7.44318264,19.5999126 6.84835666,19.8502764 6.25986106,19.5559349 C5.68388665,19.267856 5.50239929,18.6292118 5.79674081,18.0407162 C6.09108233,17.4522206 6.71095068,17.214382 7.2869251,17.5024609 C7.87542069,17.7968024 8.03186569,18.4229214 7.73752416,19.011417 Z M20.1636678,17.3345648 C18.9755783,18.694741 16.8976626,19.0731936 15.1789903,17.5719642 C13.449774,16.0615249 13.5454174,13.951593 14.7335069,12.5914168 C15.9215964,11.2312406 17.9995121,10.852788 19.7287284,12.3632274 C21.4474007,13.8644567 21.3517573,15.9743886 20.1636678,17.3345648 Z M19.1725316,16.4688252 C19.9093313,15.625305 19.666051,14.5205432 18.6327389,13.6179636 C17.5888827,12.706174 16.4614428,12.6136363 15.7246431,13.4571565 C14.9878434,14.3006766 15.2311237,15.4054384 16.2749799,16.317228 C17.308292,17.2198076 18.4357319,17.3123453 19.1725316,16.4688252 Z M26.6472195,12.9731079 C25.6528078,13.651902 24.2975323,14.0007002 23.2260009,14.0202064 L23.2218784,12.2262435 C24.2423821,12.1568156 25.1901901,11.8318973 25.9302174,11.3267482 C26.4389862,10.9794582 26.5524034,10.6986299 26.4103302,10.4904973 C26.2208993,10.212987 25.8886914,10.3719521 24.7753324,10.8268277 C22.9428599,11.5691676 21.9542799,11.3625432 21.3386295,10.460635 C20.5651199,9.32746817 21.1353229,7.8533961 22.8119473,6.70891766 C23.8988623,5.96697991 25.0581211,5.80283658 25.9314237,5.76608654 L25.8577227,7.54536959 C25.0196619,7.60891545 24.2227249,7.8817 23.6214527,8.29213365 C23.2514391,8.5447082 23.0991101,8.81819656 23.2411833,9.02632923 C23.4148283,9.28071361 23.7312503,9.09862264 24.7752317,8.69110485 C26.7780311,7.90030113 27.6419829,8.0733428 28.2970981,9.03306569 C29.0390359,10.1199808 28.5782282,11.6549844 26.6472195,12.9731079 Z M31.9423181,13.5700186 L28.8207849,4.63562846 L30.6711024,3.98915708 L31.042113,4.5417067 L31.0949793,4.52323609 C31.4402081,3.89840248 32.0034287,3.34570491 32.6774729,3.11020462 C34.2766758,2.55146865 35.7561157,3.51756473 36.4672342,5.55291395 C37.2614705,7.82616114 36.3394789,9.60161925 34.8988746,10.1049434 C34.3305628,10.3035025 33.745216,10.2410753 33.1745214,9.96591047 L33.1216552,9.98438109 L33.5783292,10.9518979 L34.2155653,12.7757823 L31.9423181,13.5700186 Z M33.7105245,8.44394968 C34.2656198,8.25000826 34.5936508,7.66084306 34.1503561,6.39205393 C33.7717086,5.30829655 33.2842946,4.97437505 32.6366835,5.20064004 C32.2798365,5.32531666 32.0484654,5.5544529 31.8513271,6.00890695 L32.7009752,8.44075278 C33.0616406,8.58168003 33.4065438,8.55015569 33.7105245,8.44394968 Z M38.9585649,9.88520976 L38.2958612,0.163771609 L40.6982856,0 L40.8525356,2.26274854 L40.7966499,3.50141749 L40.8525202,3.49760885 C41.2690138,3.02017704 41.9629547,2.49576685 42.9965558,2.42530697 C44.53299,2.32056932 45.2796069,3.3922723 45.3976748,5.12425266 L45.6909402,9.42626839 L43.2885159,9.59004 L43.0161979,5.59531111 C42.962877,4.81312643 42.7444789,4.49123467 42.1299053,4.53312973 C41.6829426,4.56359887 41.388986,4.78009257 41.0486807,5.14007075 L41.3609893,9.72143815 L38.9585649,9.88520976 Z M50.5092503,11.4701689 C48.3364153,11.0557635 46.9104472,9.41557605 47.3458351,7.13272403 C47.7759774,4.87737625 49.7932851,3.86538926 51.6360692,4.21684699 C53.8089043,4.63125238 54.6258095,6.32630691 54.2743518,8.16909107 C54.1956672,8.58165469 54.048222,8.98110422 53.989244,9.14088402 L49.5748133,8.29895916 C49.6342172,9.10842019 50.1763629,9.55387512 51.1802677,9.7453409 C51.7303525,9.85025366 52.251657,9.80715393 52.9092067,9.64751555 L53.4117979,11.1971097 C52.4870036,11.5623212 51.3618818,11.6327837 50.5092503,11.4701689 Z M51.3776155,6.02035958 C50.7037616,5.89184145 50.2033689,6.12421002 49.8823211,6.76134447 L52.2889422,7.22033778 C52.3159498,6.55562838 52.0239652,6.14363207 51.3776155,6.02035958 Z M54.9088699,13.3999443 L57.7196431,6.98905092 L59.527515,7.78168895 L59.0983144,9.21387845 L59.1496015,9.23636464 C60.2260141,8.45481235 61.3515584,8.39797936 62.3131924,8.81959534 C62.9029946,9.07818647 63.1272797,9.29881324 63.4188312,9.61007798 L62.1733878,11.2652827 C61.8393281,10.9812402 61.5981783,10.7990788 61.136594,10.5967032 C60.4057521,10.276275 59.4549768,10.3180143 58.5083607,11.1870472 L57.1142173,14.3668503 L54.9088699,13.3999443 Z M64.237126,19.4292376 C62.4093571,18.1833624 61.7550294,16.1108144 63.0639868,14.1905003 C64.3571737,12.2933225 66.6106559,12.1689597 68.160789,13.225588 C69.9885578,14.4714631 70.0623996,16.351647 69.0057712,17.9017801 C68.7692127,18.2488248 68.4748133,18.5564431 68.3570536,18.6794904 L64.643675,16.1483137 C64.3756214,16.9144098 64.6953734,17.5389981 65.5398489,18.114624 C66.0025752,18.4300354 66.4978818,18.5982242 67.1645864,18.7138136 L67.0081041,20.3353417 C66.0143737,20.3018145 64.9543517,19.9181253 64.237126,19.4292376 Z M67.2051107,14.7767601 C66.638271,14.3903811 66.0867284,14.4041196 65.5383952,14.8605653 L67.5628227,16.2404904 C67.8524541,15.64159 67.7488141,15.1473686 67.2051107,14.7767601 Z" filter="url(#a)" transform="translate(4 2)"/>
</svg>
