<svg xmlns="http://www.w3.org/2000/svg" width="26" height="34" viewBox="0 0 26 34">
  <g fill="none" transform="translate(1 1)">
    <path fill="#9B9B9B" stroke="#FFFFFF" d="M10.7775275,31.3539861 C1.68731231,18.1892119 0,16.8381037 0,11.9998512 C0,5.37249587 5.37794044,0 12.012012,0 C18.6460836,0 24.024024,5.37249587 24.024024,11.9998512 C24.024024,16.8381037 22.3367117,18.1892119 13.2464965,31.3539861 C12.6499625,32.2148505 11.373999,32.214788 10.7775275,31.3539861 Z"/>
    <path fill="#FFFFFF" d="M4.16666667,8.10810811 L3.04054054,8.10810811 C2.85472973,8.10810811 2.7027027,7.95608108 2.7027027,7.77027027 L2.7027027,6.64414414 C2.7027027,6.45833333 2.85472973,6.30630631 3.04054054,6.30630631 L4.16666667,6.30630631 C4.35247748,6.30630631 4.5045045,6.45833333 4.5045045,6.64414414 L4.5045045,7.77027027 C4.5045045,7.95608108 4.35247748,8.10810811 4.16666667,8.10810811 Z M7.20720721,7.77027027 L7.20720721,6.64414414 C7.20720721,6.45833333 7.05518018,6.30630631 6.86936937,6.30630631 L5.74324324,6.30630631 C5.55743243,6.30630631 5.40540541,6.45833333 5.40540541,6.64414414 L5.40540541,7.77027027 C5.40540541,7.95608108 5.55743243,8.10810811 5.74324324,8.10810811 L6.86936937,8.10810811 C7.05518018,8.10810811 7.20720721,7.95608108 7.20720721,7.77027027 Z M9.90990991,7.77027027 L9.90990991,6.64414414 C9.90990991,6.45833333 9.75788288,6.30630631 9.57207207,6.30630631 L8.44594595,6.30630631 C8.26013514,6.30630631 8.10810811,6.45833333 8.10810811,6.64414414 L8.10810811,7.77027027 C8.10810811,7.95608108 8.26013514,8.10810811 8.44594595,8.10810811 L9.57207207,8.10810811 C9.75788288,8.10810811 9.90990991,7.95608108 9.90990991,7.77027027 Z M7.20720721,10.472973 L7.20720721,9.34684685 C7.20720721,9.16103604 7.05518018,9.00900901 6.86936937,9.00900901 L5.74324324,9.00900901 C5.55743243,9.00900901 5.40540541,9.16103604 5.40540541,9.34684685 L5.40540541,10.472973 C5.40540541,10.6587838 5.55743243,10.8108108 5.74324324,10.8108108 L6.86936937,10.8108108 C7.05518018,10.8108108 7.20720721,10.6587838 7.20720721,10.472973 Z M4.5045045,10.472973 L4.5045045,9.34684685 C4.5045045,9.16103604 4.35247748,9.00900901 4.16666667,9.00900901 L3.04054054,9.00900901 C2.85472973,9.00900901 2.7027027,9.16103604 2.7027027,9.34684685 L2.7027027,10.472973 C2.7027027,10.6587838 2.85472973,10.8108108 3.04054054,10.8108108 L4.16666667,10.8108108 C4.35247748,10.8108108 4.5045045,10.6587838 4.5045045,10.472973 Z M9.90990991,10.472973 L9.90990991,9.34684685 C9.90990991,9.16103604 9.75788288,9.00900901 9.57207207,9.00900901 L8.44594595,9.00900901 C8.26013514,9.00900901 8.10810811,9.16103604 8.10810811,9.34684685 L8.10810811,10.472973 C8.10810811,10.6587838 8.26013514,10.8108108 8.44594595,10.8108108 L9.57207207,10.8108108 C9.75788288,10.8108108 9.90990991,10.6587838 9.90990991,10.472973 Z M12.6126126,3.15315315 L12.6126126,13.0630631 C12.6126126,13.8091216 12.0073198,14.4144144 11.2612613,14.4144144 L1.35135135,14.4144144 C0.605292793,14.4144144 0,13.8091216 0,13.0630631 L0,3.15315315 C0,2.40709459 0.605292793,1.8018018 1.35135135,1.8018018 L2.7027027,1.8018018 L2.7027027,0.337837838 C2.7027027,0.152027027 2.85472973,0 3.04054054,0 L4.16666667,0 C4.35247748,0 4.5045045,0.152027027 4.5045045,0.337837838 L4.5045045,1.8018018 L8.10810811,1.8018018 L8.10810811,0.337837838 C8.10810811,0.152027027 8.26013514,0 8.44594595,0 L9.57207207,0 C9.75788288,0 9.90990991,0.152027027 9.90990991,0.337837838 L9.90990991,1.8018018 L11.2612613,1.8018018 C12.0073198,1.8018018 12.6126126,2.40709459 12.6126126,3.15315315 Z M11.2612613,12.8941441 L11.2612613,4.5045045 L1.35135135,4.5045045 L1.35135135,12.8941441 C1.35135135,12.9870495 1.42736486,13.0630631 1.52027027,13.0630631 L11.0923423,13.0630631 C11.1852477,13.0630631 11.2612613,12.9870495 11.2612613,12.8941441 Z" transform="translate(5.718 4.757)"/>
  </g>
</svg>
