<svg xmlns="http://www.w3.org/2000/svg" width="26" height="26" viewBox="0 0 26 26">
  <g fill="none" transform="translate(1 1)">
    <path fill="#006DE2" stroke="#FFFFFF" d="M12,0 C5.37096774,0 0,5.37096774 0,12 C0,18.6290323 5.37096774,24 12,24 C18.6290323,24 24,18.6290323 24,12 C24,5.37096774 18.6290323,0 12,0 Z"/>
    <path fill="#FFFFFF" d="M3.95674905,7.69961977 L2.88735741,7.69961977 C2.71090779,7.69961977 2.56653992,7.5552519 2.56653992,7.37880228 L2.56653992,6.30941065 C2.56653992,6.13296103 2.71090779,5.98859316 2.88735741,5.98859316 L3.95674905,5.98859316 C4.13319867,5.98859316 4.27756654,6.13296103 4.27756654,6.30941065 L4.27756654,7.37880228 C4.27756654,7.5552519 4.13319867,7.69961977 3.95674905,7.69961977 Z M6.84410646,7.37880228 L6.84410646,6.30941065 C6.84410646,6.13296103 6.69973859,5.98859316 6.52328897,5.98859316 L5.45389734,5.98859316 C5.27744772,5.98859316 5.13307985,6.13296103 5.13307985,6.30941065 L5.13307985,7.37880228 C5.13307985,7.5552519 5.27744772,7.69961977 5.45389734,7.69961977 L6.52328897,7.69961977 C6.69973859,7.69961977 6.84410646,7.5552519 6.84410646,7.37880228 Z M9.41064639,7.37880228 L9.41064639,6.30941065 C9.41064639,6.13296103 9.26627852,5.98859316 9.0898289,5.98859316 L8.02043726,5.98859316 C7.84398764,5.98859316 7.69961977,6.13296103 7.69961977,6.30941065 L7.69961977,7.37880228 C7.69961977,7.5552519 7.84398764,7.69961977 8.02043726,7.69961977 L9.0898289,7.69961977 C9.26627852,7.69961977 9.41064639,7.5552519 9.41064639,7.37880228 Z M6.84410646,9.94534221 L6.84410646,8.87595057 C6.84410646,8.69950095 6.69973859,8.55513308 6.52328897,8.55513308 L5.45389734,8.55513308 C5.27744772,8.55513308 5.13307985,8.69950095 5.13307985,8.87595057 L5.13307985,9.94534221 C5.13307985,10.1217918 5.27744772,10.2661597 5.45389734,10.2661597 L6.52328897,10.2661597 C6.69973859,10.2661597 6.84410646,10.1217918 6.84410646,9.94534221 Z M4.27756654,9.94534221 L4.27756654,8.87595057 C4.27756654,8.69950095 4.13319867,8.55513308 3.95674905,8.55513308 L2.88735741,8.55513308 C2.71090779,8.55513308 2.56653992,8.69950095 2.56653992,8.87595057 L2.56653992,9.94534221 C2.56653992,10.1217918 2.71090779,10.2661597 2.88735741,10.2661597 L3.95674905,10.2661597 C4.13319867,10.2661597 4.27756654,10.1217918 4.27756654,9.94534221 Z M9.41064639,9.94534221 L9.41064639,8.87595057 C9.41064639,8.69950095 9.26627852,8.55513308 9.0898289,8.55513308 L8.02043726,8.55513308 C7.84398764,8.55513308 7.69961977,8.69950095 7.69961977,8.87595057 L7.69961977,9.94534221 C7.69961977,10.1217918 7.84398764,10.2661597 8.02043726,10.2661597 L9.0898289,10.2661597 C9.26627852,10.2661597 9.41064639,10.1217918 9.41064639,9.94534221 Z M11.9771863,2.99429658 L11.9771863,12.404943 C11.9771863,13.1134149 11.4023883,13.6882129 10.6939163,13.6882129 L1.28326996,13.6882129 C0.574798004,13.6882129 0,13.1134149 0,12.404943 L0,2.99429658 C0,2.28582462 0.574798004,1.71102662 1.28326996,1.71102662 L2.56653992,1.71102662 L2.56653992,0.32081749 C2.56653992,0.144367871 2.71090779,0 2.88735741,0 L3.95674905,0 C4.13319867,0 4.27756654,0.144367871 4.27756654,0.32081749 L4.27756654,1.71102662 L7.69961977,1.71102662 L7.69961977,0.32081749 C7.69961977,0.144367871 7.84398764,0 8.02043726,0 L9.0898289,0 C9.26627852,0 9.41064639,0.144367871 9.41064639,0.32081749 L9.41064639,1.71102662 L10.6939163,1.71102662 C11.4023883,1.71102662 11.9771863,2.28582462 11.9771863,2.99429658 Z M10.6939163,12.2445342 L10.6939163,4.27756654 L1.28326996,4.27756654 L1.28326996,12.2445342 C1.28326996,12.332759 1.3554539,12.404943 1.44367871,12.404943 L10.5335076,12.404943 C10.6217324,12.404943 10.6939163,12.332759 10.6939163,12.2445342 Z" transform="translate(6 5)"/>
  </g>
</svg>
