<svg xmlns="http://www.w3.org/2000/svg" width="26" height="34" viewBox="0 0 26 34">
  <g fill="none" transform="translate(1 1)">
    <path fill="#006DE2" stroke="#FFFFFF" d="M10.7775275,31.3539861 C1.68731231,18.1892119 0,16.8381037 0,11.9998512 C0,5.37249587 5.37794044,0 12.012012,0 C18.6460836,0 24.024024,5.37249587 24.024024,11.9998512 C24.024024,16.8381037 22.3367117,18.1892119 13.2464965,31.3539861 C12.6499625,32.2148505 11.373999,32.214788 10.7775275,31.3539861 Z"/>
    <path fill="#FFFFFF" d="M3.50192424,9.17717718 L1.60810275,9.17717718 C0.721397488,9.17717718 0,8.45387538 0,7.56482943 L0,6.7174024 C0,5.88690511 0.468380706,4.89317177 1.53350058,4.48223393 C1.35300138,4.13577538 1.25075237,3.74213303 1.25075237,3.32492492 C1.25075237,1.94193844 2.37291177,0.816816817 3.75225712,0.816816817 C4.28661501,0.816816817 4.78232987,0.985774474 5.18918919,1.27308348 C4.97030752,1.69640511 4.83863978,2.16168529 4.80390534,2.64645556 C4.58127142,2.30028438 4.19361636,2.07087087 3.75225712,2.07087087 C3.061477,2.07087087 2.50150474,2.63232132 2.50150474,3.32492492 C2.50150474,4.01752853 3.061477,4.57897898 3.75225712,4.57897898 C3.90501469,4.57906702 4.05648913,4.5510212 4.19914051,4.49623754 C4.07231984,4.63595589 3.95783701,4.78645008 3.85698157,4.94602492 C3.6867229,5.2152024 3.55536785,5.51042763 3.46695529,5.8164952 C3.12780283,5.7778418 2.80023808,5.66950669 2.5047098,5.49825285 L2.07544116,5.62122853 C1.58728293,5.76105556 1.25075237,6.20838709 1.25075237,6.7174024 L1.25075237,7.56482943 C1.25075237,7.76270871 1.41074445,7.92312312 1.60810275,7.92312312 L3.33533966,7.92312312 L3.33533966,8.31127898 C3.33506448,8.60794314 3.3916169,8.90189974 3.50192424,9.17717718 Z M15.1872355,4.48223393 C15.3677329,4.13577538 15.4699809,3.74213303 15.4699809,3.32492492 C15.4699809,1.94193844 14.3478328,0.816816817 12.9685013,0.816816817 C12.4341227,0.816816817 11.9384128,0.985800601 11.5315315,1.27310961 C11.7504371,1.69648348 11.8821295,2.16176366 11.9168897,2.64645556 C12.1394953,2.30028438 12.5271465,2.07087087 12.9685013,2.07087087 C13.6592745,2.07087087 14.2192411,2.63232132 14.2192411,3.32492492 C14.2192411,4.01752853 13.6592745,4.57897898 12.9685013,4.57897898 C12.8157819,4.57906256 12.6643455,4.55102582 12.5217266,4.49626366 C12.6495035,4.63709822 12.7647501,4.78886843 12.8661491,4.94983934 C13.0352074,5.2179979 13.1657794,5.51191682 13.2537742,5.81646907 C13.5929405,5.77781975 13.9205198,5.66948461 14.2160621,5.49822673 L14.6453265,5.6212024 C15.1334537,5.76105556 15.4699809,6.20838709 15.4699809,6.7174024 L15.4699809,7.56482943 C15.4699809,7.76270871 15.3099904,7.92312312 15.1126341,7.92312312 L13.3854146,7.92312312 L13.3854146,8.31127898 C13.3856897,8.60794314 13.3291379,8.90189974 13.2188317,9.17717718 L15.1126341,9.17717718 C15.9993565,9.17717718 16.7207207,8.45387538 16.7207207,7.56482943 L16.7207207,6.7174024 C16.7207207,5.88687898 16.2518496,4.89296276 15.1872355,4.48223393 Z M12.7807808,6.75518231 L12.7807808,8.3384776 C12.7807808,9.27782695 12.0160433,10.042042 11.0760519,10.042042 L5.69271686,10.042042 C4.75272544,10.042042 3.98798799,9.27782695 3.98798799,8.3384776 L3.98798799,6.75518231 C3.98798799,5.80837988 4.53424024,4.67825788 5.7589245,4.23394982 C5.55917632,3.83354955 5.45345345,3.38937225 5.45345345,2.92892893 C5.45345345,1.30862975 6.76577778,0 8.38438438,0 C10.0057911,0 11.3153153,1.31140178 11.3153153,2.92892893 C11.3153153,3.38937225 11.2095924,3.83354955 11.0098443,4.23394982 C12.2394483,4.68003616 12.7807808,5.81465616 12.7807808,6.75518231 Z M6.67867868,2.93093093 C6.67867868,3.85969219 7.4315991,4.61261261 8.36036036,4.61261261 C9.28912162,4.61261261 10.042042,3.85969219 10.042042,2.93093093 C10.042042,2.00216967 9.28912162,1.24924925 8.36036036,1.24924925 C7.4315991,1.24924925 6.67867868,2.00216967 6.67867868,2.93093093 Z M11.5315315,6.75996972 C11.5315315,6.12270257 11.1081353,5.56267993 10.4939958,5.38759762 L10.1351423,5.28528529 C9.63172993,5.65968039 9.02364865,5.86210704 8.38438438,5.86210704 C7.74512012,5.86210704 7.13703884,5.65968039 6.63362643,5.28528529 L6.27477297,5.38759762 C5.66063343,5.56265376 5.23723724,6.12270257 5.23723724,6.75996972 L5.23723724,8.3442147 C5.23723724,8.59196232 5.43852352,8.79279279 5.68683343,8.79279279 L11.0819353,8.79279279 C11.3302452,8.79279279 11.5315315,8.59196232 11.5315315,8.3442147 L11.5315315,6.75996972 Z" transform="translate(3.844 6.342)"/>
  </g>
</svg>
