<svg xmlns="http://www.w3.org/2000/svg" width="26" height="34" viewBox="0 0 26 34">
  <g fill="none" transform="translate(1 1)">
    <path fill="#006DE2" stroke="#FFFFFF" d="M10.7775275,31.3539861 C1.68731231,18.1892119 0,16.8381037 0,11.9998512 C0,5.37249587 5.37794044,0 12.012012,0 C18.6460836,0 24.024024,5.37249587 24.024024,11.9998512 C24.024024,16.8381037 22.3367117,18.1892119 13.2464965,31.3539861 C12.6499625,32.2148505 11.373999,32.214788 10.7775275,31.3539861 Z"/>
    <path fill="#FFFFFF" d="M12.2072072,1.2012012 C12.9654655,1.2012012 13.2132132,3.03553554 13.2132132,3.56606607 C13.2132132,7.47747748 9.26426426,9.52202202 6.50900901,9.52202202 C4.79479479,9.52202202 3.35835836,8.73373373 3.35835836,8.73373373 C3.02302302,8.73373373 2.62012012,10.01001 2.03703704,10.01001 C1.47647648,10.01001 1.2012012,9.53703704 1.2012012,9.25175175 C1.2012012,8.6011011 2.52752753,8.0955956 2.52752753,7.73273273 C2.52752753,7.73273273 2.26726727,7.31731732 2.26726727,6.56906907 C2.26726727,4.57957958 3.96396396,3.16066066 5.86586587,2.57007007 C7.23973974,2.14464464 10.1626627,2.64014014 11.0935936,1.81431431 C11.463964,1.49399399 11.6441441,1.2012012 12.2072072,1.2012012 Z M12.2072072,-1.42108547e-14 C11.1261261,-1.42108547e-14 10.6456456,0.613113113 10.3078078,0.905905906 C9.87237237,1.28378378 6.87687688,1.001001 5.51051051,1.42392392 C3.0980981,2.16966967 1.06606607,4.02402402 1.06606607,6.56906907 C1.06606607,6.89189189 1.1011011,7.17467467 1.15365365,7.41741742 C0.545545546,7.88038038 0,8.43093093 0,9.25175175 C0,10.2352352 0.845845846,11.2112112 2.03953954,11.2112112 C2.75775776,11.2112112 3.27827828,10.7657658 3.68868869,10.1876877 C4.58708709,10.5205205 5.54804805,10.7232232 6.50900901,10.7232232 C9.68218218,10.7232232 14.4144144,8.37837838 14.4144144,3.56606607 C14.4144144,2.01951952 13.7862863,-1.38552277e-14 12.2072072,-1.42108547e-14 Z M4.35185185,7.54004004 C5.61311311,5.85835836 7.20970971,5.11761762 9.4994995,5.28528529 C9.82982983,5.31031031 10.1176176,5.06006006 10.1426426,4.72972973 C10.1676677,4.3993994 9.91741742,4.11161161 9.58708709,4.08658659 C6.85435435,3.88638639 4.87487487,4.83733734 3.39089089,6.81681682 C3.19069069,7.08208208 3.24574575,7.45745746 3.51101101,7.65765766 C3.77627628,7.85785786 4.15165165,7.80530531 4.35185185,7.54004004 Z" transform="translate(4.805 6.246)"/>
  </g>
</svg>
