<svg xmlns="http://www.w3.org/2000/svg" width="26" height="34" viewBox="0 0 26 34">
  <g fill="none" transform="translate(1 1)">
    <path fill="#9B9B9B" stroke="#FFFFFF" d="M10.7775275,31.3539861 C1.68731231,18.1892119 0,16.8381037 0,11.9998512 C0,5.37249587 5.37794044,0 12.012012,0 C18.6460836,0 24.024024,5.37249587 24.024024,11.9998512 C24.024024,16.8381037 22.3367117,18.1892119 13.2464965,31.3539861 C12.6499625,32.2148505 11.373999,32.214788 10.7775275,31.3539861 Z"/>
    <path fill="#FFFFFF" d="M11.4877416,10.6024775 L8.40816202,5.6493994 L8.40816202,1.26126126 L8.93368754,1.26126126 C9.10711097,1.26126126 9.24900286,1.11936937 9.24900286,0.945945946 L9.24900286,0.315315315 C9.24900286,0.141891892 9.10711097,0 8.93368754,0 L2.83759145,0 C2.66416803,0 2.52227613,0.141891892 2.52227613,0.315315315 L2.52227613,0.945945946 C2.52227613,1.11936937 2.66416803,1.26126126 2.83759145,1.26126126 L3.36311697,1.26126126 L3.36311697,5.6493994 L0.283537395,10.6024775 C-0.4863575,11.8400901 0.401780638,13.4534535 1.8627416,13.4534535 L9.90853739,13.4534535 C11.372126,13.4534535 12.2576365,11.8374625 11.4877416,10.6024775 Z M9.90853739,12.1921922 L1.8627416,12.1921922 C1.387141,12.1921922 1.10861247,11.664039 1.35560947,11.2672673 L4.43518905,6.31418919 C4.55868754,6.11448949 4.62437824,5.88325826 4.62437824,5.6493994 L4.62437824,1.26126126 L7.14690076,1.26126126 L7.14690076,5.6493994 C7.14690076,5.88588589 7.21259145,6.11448949 7.33608995,6.31418919 L10.4156695,11.2672673 C10.6626665,11.664039 10.3867656,12.1921922 9.90853739,12.1921922 Z" transform="translate(6.102 5.333)"/>
  </g>
</svg>
