<svg xmlns="http://www.w3.org/2000/svg" width="26" height="26" viewBox="0 0 26 26">
  <g fill="none" transform="translate(1 1)">
    <path fill="#006DE2" stroke="#FFFFFF" d="M12,0 C5.37096774,0 0,5.37096774 0,12 C0,18.6290323 5.37096774,24 12,24 C18.6290323,24 24,18.6290323 24,12 C24,5.37096774 18.6290323,0 12,0 Z"/>
    <path fill="#FFFFFF" d="M10.2466552,9.45703125 L7.49978023,5.0390625 L7.49978023,1.125 L7.96853023,1.125 C8.12321773,1.125 8.24978023,0.9984375 8.24978023,0.84375 L8.24978023,0.28125 C8.24978023,0.1265625 8.12321773,0 7.96853023,0 L2.53103023,0 C2.37634273,0 2.24978023,0.1265625 2.24978023,0.28125 L2.24978023,0.84375 C2.24978023,0.9984375 2.37634273,1.125 2.53103023,1.125 L2.99978023,1.125 L2.99978023,5.0390625 L0.25290523,9.45703125 C-0.43381352,10.5609375 0.35837398,12 1.66149898,12 L8.83806148,12 C10.1435302,12 10.933374,10.5585938 10.2466552,9.45703125 Z M8.83806148,10.875 L1.66149898,10.875 C1.23728023,10.875 0.98884273,10.4039063 1.20915523,10.05 L3.95603023,5.63203125 C4.06618648,5.45390625 4.12478023,5.24765625 4.12478023,5.0390625 L4.12478023,1.125 L6.37478023,1.125 L6.37478023,5.0390625 C6.37478023,5.25 6.43337398,5.45390625 6.54353023,5.63203125 L9.29040523,10.05 C9.51071773,10.4039063 9.26462398,10.875 8.83806148,10.875 Z" transform="translate(7 5)"/>
  </g>
</svg>
