<svg xmlns="http://www.w3.org/2000/svg" width="26" height="34" viewBox="0 0 26 34">
  <g fill="none" transform="translate(1 1)">
    <path fill="#006DE2" stroke="#FFFFFF" d="M10.7775275,31.3539861 C1.68731231,18.1892119 0,16.8381037 0,11.9998512 C0,5.37249587 5.37794044,0 12.012012,0 C18.6460836,0 24.024024,5.37249587 24.024024,11.9998512 C24.024024,16.8381037 22.3367117,18.1892119 13.2464965,31.3539861 C12.6499625,32.2148505 11.373999,32.214788 10.7775275,31.3539861 Z"/>
    <path fill="#FFFFFF" d="M12.6000126,11.7117117 C12.6000126,13.2043637 11.3911708,14.4144144 9.9000099,14.4144144 C8.40884903,14.4144144 7.2000072,13.2043637 7.2000072,11.7117117 C7.19977288,11.4354858 7.24186869,11.1608584 7.32482607,10.8974099 L4.55909518,9.16711712 C4.07495095,9.62742117 3.42045342,9.90990991 2.7000027,9.90990991 C1.20884183,9.90990991 0,8.69985923 0,7.20720721 C0,5.71455518 1.20884183,4.5045045 2.7000027,4.5045045 C3.42045342,4.5045045 4.07495095,4.78699324 4.55909518,5.24732545 L7.32482607,3.5170045 C7.24186869,3.25355605 7.19977288,2.97892857 7.2000072,2.7027027 C7.2000072,1.21005068 8.40884903,0 9.9000099,0 C11.3911708,0 12.6000126,1.21005068 12.6000126,2.7027027 C12.6000126,4.19535473 11.3911708,5.40540541 9.9000099,5.40540541 C9.17955918,5.40540541 8.52506165,5.12291667 8.04091742,4.66258446 L5.27518653,6.39290541 C5.44160232,6.92077703 5.44174294,7.49321509 5.27518653,8.02150901 L8.04091742,9.75182995 C8.52506165,9.29149775 9.17955918,9.00900901 9.9000099,9.00900901 C11.3911708,9.00900901 12.6000126,10.2190597 12.6000126,11.7117117 Z M9.9000099,1.35135135 C9.15562478,1.35135135 8.55000855,1.9575732 8.55000855,2.7027027 C8.55000855,3.44783221 9.15562478,4.05405405 9.9000099,4.05405405 C10.644395,4.05405405 11.2500113,3.44783221 11.2500113,2.7027027 C11.2500113,1.9575732 10.644395,1.35135135 9.9000099,1.35135135 Z M2.7000027,5.85585586 C1.95561758,5.85585586 1.35000135,6.4620777 1.35000135,7.20720721 C1.35000135,7.95233671 1.95561758,8.55855856 2.7000027,8.55855856 C3.44438782,8.55855856 4.05000405,7.95233671 4.05000405,7.20720721 C4.05000405,6.4620777 3.44438782,5.85585586 2.7000027,5.85585586 Z M9.9000099,10.3603604 C9.15562478,10.3603604 8.55000855,10.9665822 8.55000855,11.7117117 C8.55000855,12.4568412 9.15562478,13.0630631 9.9000099,13.0630631 C10.644395,13.0630631 11.2500113,12.4568412 11.2500113,11.7117117 C11.2500113,10.9665822 10.644395,10.3603604 9.9000099,10.3603604 Z" transform="translate(4.805 4.276)"/>
  </g>
</svg>
