<svg xmlns="http://www.w3.org/2000/svg" width="26" height="34" viewBox="0 0 26 34">
  <g fill="none" transform="translate(1 1)">
    <path fill="#9B9B9B" stroke="#FFFFFF" d="M10.7775275,31.3539861 C1.68731231,18.1892119 0,16.8381037 0,11.9998512 C0,5.37249587 5.37794044,0 12.012012,0 C18.6460836,0 24.024024,5.37249587 24.024024,11.9998512 C24.024024,16.8381037 22.3367117,18.1892119 13.2464965,31.3539861 C12.6499625,32.2148505 11.373999,32.214788 10.7775275,31.3539861 Z"/>
    <path fill="#FFFFFF" d="M15.6546395,6.68926802 C14.8675083,3.38749718 11.8188888,1.35227196 8.4909918,1.11218375 L8.4909918,0.653153153 C8.4909918,0.29242211 8.19856969,0 7.83783865,0 C7.47710761,0 7.1846855,0.29242211 7.1846855,0.653153153 L7.1846855,1.1121021 C3.8665314,1.350503 0.829260383,3.36841967 0.0216909386,6.68649212 C-0.139093596,7.32987519 0.627708206,7.87817005 1.208062,7.38071227 L1.22139721,7.36879223 C2.5606061,6.12197729 3.65692367,6.60365053 4.63254398,8.12155124 C4.94143099,8.60515672 5.57866354,8.58147992 5.87260967,8.12212275 C6.24109691,7.55273649 6.62493324,7.02705706 7.1846855,6.79379974 L7.1846855,11.539039 C7.1846855,12.1392868 6.69634465,12.6276276 6.09609691,12.6276276 C5.49584916,12.6276276 5.00750832,12.1392868 5.00750832,11.539039 C5.00750832,11.178308 4.71508621,10.8858859 4.35435517,10.8858859 C3.99362412,10.8858859 3.70120201,11.178308 3.70120201,11.539039 C3.70120201,12.8595786 4.7755573,13.9339339 6.09609691,13.9339339 C7.41663651,13.9339339 8.4909918,12.8595786 8.4909918,11.539039 L8.4909918,6.80253566 C9.19558077,7.09718938 9.52553197,7.68940878 9.80252333,8.12130631 C10.0966328,8.58216029 10.7341919,8.60458521 11.0427795,8.12209553 C12.0284148,6.59921453 13.1270729,6.13313532 14.4541984,7.36879223 L14.4675609,7.38071227 C15.0453565,7.87599287 15.8128931,7.33379411 15.6546395,6.68926802 Z M13.7652579,5.46389827 C12.4627345,5.09013138 11.3217031,5.68450075 10.4453621,6.73136918 C9.79199124,5.91313157 8.89834165,5.36059122 7.83783865,5.36059122 C6.76536117,5.36059122 5.9399933,5.87026839 5.26466016,6.719939 C4.29434672,5.51498029 3.01079191,5.16625094 1.9267754,5.44539227 C3.12991072,3.45014546 5.49827127,2.39489489 7.83783865,2.39489489 C10.1682075,2.39489489 12.5664225,3.45591498 13.7652579,5.46389827 Z" transform="translate(4.276 4.853)"/>
  </g>
</svg>
