<svg xmlns="http://www.w3.org/2000/svg" width="26" height="26" viewBox="0 0 26 26">
  <g fill="none" transform="translate(1 1)">
    <path fill="#006DE2" stroke="#FFFFFF" d="M12,0 C5.37096774,0 0,5.37096774 0,12 C0,18.6290323 5.37096774,24 12,24 C18.6290323,24 24,18.6290323 24,12 C24,5.37096774 18.6290323,0 12,0 Z"/>
    <path fill="#FFFFFF" d="M12.4017455,1.71058559 L9.40822072,1.71058559 L9.40822072,1.28293919 C9.40822072,0.574382566 8.83383815,0 8.12528153,0 L5.55940315,0 C4.85084653,0 4.27646396,0.574382566 4.27646396,1.28293919 L4.27646396,1.71058559 L1.28293919,1.71058559 C0.574382566,1.71058559 0,2.28496815 0,2.99352477 L0,10.6911599 C0,11.3997165 0.574382566,11.9740991 1.28293919,11.9740991 L12.4017455,11.9740991 C13.1103021,11.9740991 13.6846847,11.3997165 13.6846847,10.6911599 L13.6846847,2.99352477 C13.6846847,2.28496815 13.1103021,1.71058559 12.4017455,1.71058559 Z M5.55940315,1.28293919 L8.12528153,1.28293919 L8.12528153,1.71058559 L5.55940315,1.71058559 L5.55940315,1.28293919 Z M1.28293919,3.15389217 C1.28293919,3.0653237 1.35473812,2.99352477 1.44330659,2.99352477 L12.2413781,2.99352477 C12.3299466,2.99352477 12.4017455,3.0653237 12.4017455,3.15389217 L12.4017455,5.98704955 L1.28293919,5.98704955 L1.28293919,3.15389217 Z M12.4017455,10.5307925 C12.4017455,10.619361 12.3299466,10.6911599 12.2413781,10.6911599 L1.44330659,10.6911599 C1.35473812,10.6911599 1.28293919,10.619361 1.28293919,10.5307925 L1.28293919,7.26998874 L5.13175676,7.26998874 L5.13175676,8.23219313 C5.13175676,8.40931892 5.27536576,8.55292793 5.45249155,8.55292793 L8.23219313,8.55292793 C8.40931892,8.55292793 8.55292793,8.40931892 8.55292793,8.23219313 L8.55292793,7.26998874 L12.4017455,7.26998874 L12.4017455,10.5307925 Z" transform="translate(5 5)"/>
  </g>
</svg>
