<svg xmlns="http://www.w3.org/2000/svg" width="26" height="34" viewBox="0 0 26 34">
  <g fill="none" transform="translate(1 1)">
    <path fill="#9B9B9B" stroke="#FFFFFF" d="M10.7775275,31.3539861 C1.68731231,18.1892119 0,16.8381037 0,11.9998512 C0,5.37249587 5.37794044,0 12.012012,0 C18.6460836,0 24.024024,5.37249587 24.024024,11.9998512 C24.024024,16.8381037 22.3367117,18.1892119 13.2464965,31.3539861 C12.6499625,32.2148505 11.373999,32.214788 10.7775275,31.3539861 Z"/>
    <path fill="#FFFFFF" d="M11.4954955,1.58558559 L8.72072072,1.58558559 L8.72072072,1.18918919 C8.72072072,0.53240991 8.18831081,0 7.53153153,0 L5.15315315,0 C4.49637387,0 3.96396396,0.53240991 3.96396396,1.18918919 L3.96396396,1.58558559 L1.18918919,1.58558559 C0.53240991,1.58558559 0,2.1179955 0,2.77477477 L0,9.90990991 C0,10.5666892 0.53240991,11.0990991 1.18918919,11.0990991 L11.4954955,11.0990991 C12.1522748,11.0990991 12.6846847,10.5666892 12.6846847,9.90990991 L12.6846847,2.77477477 C12.6846847,2.1179955 12.1522748,1.58558559 11.4954955,1.58558559 Z M5.15315315,1.18918919 L7.53153153,1.18918919 L7.53153153,1.58558559 L5.15315315,1.58558559 L5.15315315,1.18918919 Z M1.18918919,2.92342342 C1.18918919,2.84132704 1.25574146,2.77477477 1.33783784,2.77477477 L11.3468468,2.77477477 C11.4289432,2.77477477 11.4954955,2.84132704 11.4954955,2.92342342 L11.4954955,5.54954955 L1.18918919,5.54954955 L1.18918919,2.92342342 Z M11.4954955,9.76126126 C11.4954955,9.84335764 11.4289432,9.90990991 11.3468468,9.90990991 L1.33783784,9.90990991 C1.25574146,9.90990991 1.18918919,9.84335764 1.18918919,9.76126126 L1.18918919,6.73873874 L4.75675676,6.73873874 L4.75675676,7.63063063 C4.75675676,7.79481306 4.88987162,7.92792793 5.05405405,7.92792793 L7.63063063,7.92792793 C7.79481306,7.92792793 7.92792793,7.79481306 7.92792793,7.63063063 L7.92792793,6.73873874 L11.4954955,6.73873874 L11.4954955,9.76126126 Z" transform="translate(5.718 5.477)"/>
  </g>
</svg>
