<svg xmlns="http://www.w3.org/2000/svg" width="26" height="34" viewBox="0 0 26 34">
  <g fill="none" transform="translate(1 1)">
    <path fill="#006DE2" stroke="#FFFFFF" d="M10.7775275,31.3539861 C1.68731231,18.1892119 0,16.8381037 0,11.9998512 C0,5.37249587 5.37794044,0 12.012012,0 C18.6460836,0 24.024024,5.37249587 24.024024,11.9998512 C24.024024,16.8381037 22.3367117,18.1892119 13.2464965,31.3539861 C12.6499625,32.2148505 11.373999,32.214788 10.7775275,31.3539861 Z"/>
    <path fill="#FFFFFF" d="M12.6875,1.75 L9.625,1.75 L9.625,1.3125 C9.625,0.587617187 9.03738281,0 8.3125,0 L5.6875,0 C4.96261719,0 4.375,0.587617187 4.375,1.3125 L4.375,1.75 L1.3125,1.75 C0.587617187,1.75 0,2.33761719 0,3.0625 L0,10.9375 C0,11.6623828 0.587617187,12.25 1.3125,12.25 L12.6875,12.25 C13.4123828,12.25 14,11.6623828 14,10.9375 L14,3.0625 C14,2.33761719 13.4123828,1.75 12.6875,1.75 Z M5.6875,1.3125 L8.3125,1.3125 L8.3125,1.75 L5.6875,1.75 L5.6875,1.3125 Z M1.3125,3.2265625 C1.3125,3.13595328 1.38595328,3.0625 1.4765625,3.0625 L12.5234375,3.0625 C12.6140467,3.0625 12.6875,3.13595328 12.6875,3.2265625 L12.6875,6.125 L1.3125,6.125 L1.3125,3.2265625 Z M12.6875,10.7734375 C12.6875,10.8640467 12.6140467,10.9375 12.5234375,10.9375 L1.4765625,10.9375 C1.38595328,10.9375 1.3125,10.8640467 1.3125,10.7734375 L1.3125,7.4375 L5.25,7.4375 L5.25,8.421875 C5.25,8.60308203 5.39691797,8.75 5.578125,8.75 L8.421875,8.75 C8.60308203,8.75 8.75,8.60308203 8.75,8.421875 L8.75,7.4375 L12.6875,7.4375 L12.6875,10.7734375 Z" transform="translate(5 5)"/>
  </g>
</svg>
