<svg xmlns="http://www.w3.org/2000/svg" width="156" height="64" viewBox="0 0 156 64">
  <defs>
    <filter id="a" width="200%" height="200%" x="-50%" y="-50%" filterUnits="objectBoundingBox">
      <feOffset dy="2" in="SourceAlpha" result="shadowOffsetOuter1"/>
      <feGaussianBlur stdDeviation="2" in="shadowOffsetOuter1" result="shadowBlurOuter1"/>
      <feColorMatrix values="0 0 0 0 0 0 0 0 0 0 0 0 0 0 0 0 0 0 0.5 0" in="shadowBlurOuter1" result="shadowMatrixOuter1"/>
      <feMerge>
        <feMergeNode in="shadowMatrixOuter1"/>
        <feMergeNode in="SourceGraphic"/>
      </feMerge>
    </filter>
  </defs>
  <path fill="#000000" fill-rule="evenodd" d="M67.872,25 L67.872,9.304 L72,9.304 C76.632,9.304 79.392,11.896 79.392,17.08 C79.392,22.288 76.632,25 72.144,25 L67.872,25 Z M70.656,22.744 L71.832,22.744 C74.832,22.744 76.536,20.944 76.536,17.08 C76.536,13.24 74.832,11.56 71.832,11.56 L70.656,11.56 L70.656,22.744 Z M81.666,25 L81.666,22.648 L85.458,22.648 L85.458,11.656 L81.666,11.656 L81.666,9.304 L92.034,9.304 L92.034,11.656 L88.242,11.656 L88.242,22.648 L92.034,22.648 L92.034,25 L81.666,25 Z M99.108,25 L99.108,19.552 L93.948,9.304 L96.9,9.304 L98.868,13.528 C99.42,14.728 99.924,15.88 100.476,17.152 L100.572,17.152 C101.148,15.88 101.7,14.728 102.228,13.504 L104.172,9.304 L107.052,9.304 L101.892,19.552 L101.892,25 L99.108,25 Z M114.846,25.288 C113.742,25.288 112.446,24.712 111.414,23.704 L111.342,23.704 L111.102,25 L108.918,25 L108.918,8.056 L111.702,8.056 L111.702,12.424 L111.582,14.488 L111.654,14.488 C112.638,13.528 113.982,12.928 115.254,12.928 C118.302,12.928 120.078,15.28 120.078,18.904 C120.078,22.96 117.558,25.288 114.846,25.288 Z M114.294,23.008 C115.95,23.008 117.222,21.616 117.222,18.952 C117.222,16.6 116.406,15.208 114.486,15.208 C113.598,15.208 112.662,15.64 111.702,16.624 L111.702,21.928 C112.566,22.72 113.55,23.008 114.294,23.008 Z M127.728,25 L127.728,15.4 L122.616,15.4 L122.616,13.216 L130.488,13.216 L130.488,25 L127.728,25 Z M128.904,11.056 C127.776,11.056 126.936,10.336 126.936,9.208 C126.936,8.104 127.776,7.336 128.904,7.336 C130.032,7.336 130.872,8.104 130.872,9.208 C130.872,10.336 130.032,11.056 128.904,11.056 Z M141.45,25.288 C138.354,25.288 135.522,23.032 135.522,19.12 C135.522,15.184 138.354,12.928 141.45,12.928 C144.546,12.928 147.378,15.184 147.378,19.12 C147.378,23.032 144.546,25.288 141.45,25.288 Z M141.45,23.032 C143.37,23.032 144.522,21.472 144.522,19.12 C144.522,16.744 143.37,15.184 141.45,15.184 C139.53,15.184 138.378,16.744 138.378,19.12 C138.378,21.472 139.53,23.032 141.45,23.032 Z M72.96,46.288 C70.896,46.288 68.64,45.472 67.104,44.464 L68.832,41.92 C70.344,42.808 72,43.264 73.536,43.264 C74.592,43.264 75.024,42.976 75.024,42.544 C75.024,41.968 74.4,41.872 72.384,41.44 C69.072,40.72 67.872,39.472 67.872,37.6 C67.872,35.248 70.104,33.712 73.584,33.712 C75.84,33.712 77.64,34.6 78.912,35.392 L77.088,37.84 C75.84,37.12 74.448,36.736 73.2,36.736 C72.432,36.736 71.952,36.976 71.952,37.408 C71.952,37.936 72.576,37.984 74.448,38.416 C78.048,39.232 79.104,40.312 79.104,42.304 C79.104,44.56 76.968,46.288 72.96,46.288 Z M81.1693333,50.224 L81.1693333,34 L84.5293333,34 L84.8173333,35.104 L84.9133333,35.104 C85.8253333,34.288 87.0493333,33.712 88.2733333,33.712 C91.1773333,33.712 93.0253333,36.112 93.0253333,39.808 C93.0253333,43.936 90.5293333,46.288 87.9133333,46.288 C86.8813333,46.288 85.9693333,45.856 85.2013333,45.088 L85.1053333,45.088 L85.2973333,46.912 L85.2973333,50.224 L81.1693333,50.224 Z M86.9293333,42.928 C87.9373333,42.928 88.8013333,42.16 88.8013333,39.856 C88.8013333,37.888 88.2013333,37.072 87.0253333,37.072 C86.3773333,37.072 85.8733333,37.312 85.2973333,37.936 L85.2973333,42.352 C85.8013333,42.784 86.3773333,42.928 86.9293333,42.928 Z M94.8026667,46 L94.8026667,29.296 L98.9306667,29.296 L98.9306667,33.184 L98.6906667,35.296 L98.7866667,35.296 C99.5546667,34.528 100.802667,33.712 102.578667,33.712 C105.218667,33.712 106.370667,35.632 106.370667,38.608 L106.370667,46 L102.242667,46 L102.242667,39.136 C102.242667,37.792 101.906667,37.216 100.850667,37.216 C100.082667,37.216 99.5546667,37.552 98.9306667,38.128 L98.9306667,46 L94.8026667,46 Z M114.82,46.288 C111.028,46.288 108.1,43.984 108.1,40 C108.1,36.064 111.172,33.712 114.388,33.712 C118.18,33.712 120.1,36.304 120.1,39.52 C120.1,40.24 119.98,40.96 119.932,41.248 L112.228,41.248 C112.588,42.592 113.644,43.168 115.396,43.168 C116.356,43.168 117.22,42.928 118.276,42.448 L119.62,44.896 C118.18,45.808 116.308,46.288 114.82,46.288 Z M114.532,36.832 C113.356,36.832 112.588,37.384 112.252,38.56 L116.452,38.56 C116.284,37.432 115.66,36.832 114.532,36.832 Z M123.029333,46 L123.029333,34 L126.413333,34 L126.725333,36.544 L126.821333,36.544 C127.973333,34.576 129.701333,33.712 131.501333,33.712 C132.605333,33.712 133.109333,33.904 133.781333,34.192 L132.965333,37.648 C132.245333,37.432 131.741333,37.312 130.877333,37.312 C129.509333,37.312 128.045333,38.032 127.157333,40.048 L127.157333,46 L123.029333,46 Z M146.886667,44.896 C145.446667,45.808 143.574667,46.288 142.086667,46.288 C138.294667,46.288 135.366667,43.984 135.366667,40 C135.366667,36.064 138.438667,33.712 141.654667,33.712 C145.446667,33.712 147.366667,36.304 147.366667,39.52 C147.366667,40.24 147.246667,40.96 147.198667,41.248 L139.494667,41.248 C139.854667,42.592 140.910667,43.168 142.662667,43.168 C143.622667,43.168 144.486667,42.928 145.542667,42.448 L146.886667,44.896 Z M141.798667,36.832 C140.622667,36.832 139.854667,37.384 139.518667,38.56 L143.718667,38.56 C143.550667,37.432 142.926667,36.832 141.798667,36.832 Z M27.7090924,0 C43.6236253,0 53.2537925,11.7713113 55.2174004,22.5544406 C53.8448509,20.8552776 52.396463,18.8276518 49.2260091,16.8549986 C47.9401185,13.973989 43.8317161,9.1863231 40.40552,7.20219899 C39.583816,7.20219899 39.2269013,8.41499361 39.634342,9.80936606 C40.117668,10.5780699 42.2978685,10.6010048 42.4048852,12.181781 C42.0827732,12.8722138 43.3703058,12.9882736 42.0389921,13.973989 C36.4911574,12.9882521 25.2363293,14.1321744 19.625451,24.3873604 C18.722021,24.0909475 15.6550585,22.0364679 14.9509741,22.0180025 C13.412418,22.0364679 13.601001,23.4565047 12.098628,22.5544406 C11.6392163,22.3846326 11.0618708,21.4627539 11.0618708,20.2731779 C10.4883186,18.3268943 11.209086,18.4079386 11.7225846,17.8710305 C10.825981,17.350839 7.64395631,17.189068 10.9406309,14.1321744 C14.755663,11.6151837 14.5970253,15.9972706 15.4919774,15.8331539 C16.2406978,15.714147 15.3443457,13.7894995 16.2406978,13.2170798 C19.6222234,11.0576027 20.2454488,11.7280099 24.486565,10.2728712 C25.3240797,10.051906 25.4794666,11.4694691 26.2498367,10.1859476 C26.7526404,8.98479722 26.7833913,7.61589249 25.6327655,6.84551247 C23.6056588,6.14478018 22.3387779,8.76989704 21.3705656,8.33136851 C20.7010963,8.02814845 21.0038931,6.51305576 21.9610498,5.98669428 C23.2039281,4.91812997 23.160477,5.77343563 24.790852,5.70560675 C25.681887,5.98669428 25.2654328,6.11644022 26.3904611,6.23605786 C27.2297481,5.98669428 27.7090924,5.60557773 27.4295832,3.76926017 C20.4156585,3.91660106 12.2571079,7.24787715 7.40071563,15.0175534 C7.79722035,16.2907935 7.35191161,16.9173376 7.87019873,17.8710305 C8.31837226,18.7451751 9.24309951,18.7014549 9.49121614,18.9629812 C9.595781,19.2036018 9.33953583,19.2899757 9.58898069,19.9348869 C9.83842555,20.5797981 10.188104,19.9566073 10.188104,20.9607182 C10.3651932,21.8154594 11.9216989,22.8224204 11.7696749,24.3873604 C11.0193158,25.9551656 9.95542664,27.066373 9.95542664,28.987381 C10.1676059,31.3981384 10.9730581,31.6937778 12.6217104,33.1104666 C12.6217104,34.2308768 12.8911828,34.3719212 13.2488055,35.0988882 C12.2709014,43.0437274 13.1061946,47.1406516 16.8473368,48.7539212 C16.8473368,48.7539212 14.0021591,45.2218109 18.1417689,41.8841248 C21.3705656,49.8637454 26.7405062,53.374573 33.4098298,55.1354399 C31.5197536,55.442046 30.1380406,55.6492107 27.7090924,55.6492107 C11.4301075,55.6492107 8.85636275e-16,42.9585146 0,27.7305247 C0,12.5025349 11.7945595,0 27.7090924,0 Z M28.4972173,3.75995943 C28.3786067,5.84099423 28.0037233,5.62726103 28.0839357,6.47218673 C28.261508,7.52939842 28.7577832,8.46952331 29.3056667,8.57322057 C30.1029251,8.46952331 30.435714,7.27894578 31.2654226,6.3862376 C31.8073613,5.98483574 31.8847041,6.44289601 32.6216997,6.07255143 C33.1877726,5.63436785 33.1140755,5.58543974 33.5160379,4.4284968 C31.9150686,4.01899735 30.3204075,3.8293705 28.4972173,3.75995943 Z M38.380881,9.79627066 C37.8674892,10.393476 38.4101385,10.3628673 38.2650046,10.6924175 C37.8784103,11.012917 37.5927798,11.2202463 37.6970127,11.4369777 C38.1598653,12.0578391 38.380881,11.4369777 38.8189286,11.6580386 C39.0412865,12.5517821 39.0896767,13.7258951 40.3189197,13.5034488 C40.3343835,13.4987066 40.3465063,13.4815628 40.3625626,13.4794822 C41.1708063,13.374747 40.5527958,12.0262714 40.1473269,11.2506701 C39.6058258,10.2148595 38.8516823,9.55018403 38.380881,9.79627066 Z M38.2253883,16.3104767 C48.5726435,16.3104767 56.5429187,24.5149638 56.5429187,34.5916105 C56.5429187,40.6755467 53.0819171,45.6571852 53.0819171,45.6571852 C58.6984951,51.2860668 61.6648996,51.9575699 58.5752336,54.9213707 C55.4855676,57.8851715 54.2482722,54.3206582 49.2623873,49.3342069 C49.2623873,49.3342069 43.9185101,52.9091829 38.2253883,52.9091829 C28.0939706,52.9091829 19.8240277,44.6718686 19.8240277,34.5916105 C19.8240277,24.5592025 27.8781331,16.3104767 38.2253883,16.3104767 Z M38.2253847,48.9892483 C46.1986359,48.9892483 52.6622331,42.5422426 52.6622331,34.5894582 C52.6622331,26.6366737 46.1986359,20.1896681 38.2253847,20.1896681 C30.2521335,20.1896681 23.7885363,26.6366737 23.7885363,34.5894582 C23.7885363,42.5422426 30.2521335,48.9892483 38.2253847,48.9892483 Z M44.791596,28.9367394 C47.223133,29.0907174 49.2491517,30.722955 49.9719232,32.9469384 C50.543751,33.440951 50.9399067,34.4256258 50.9399067,35.09821 C50.9399067,35.9216356 50.3469239,37.215193 49.5625456,37.4994107 C48.5774094,39.3262593 46.6435149,40.568562 44.41731,40.568562 C41.9242378,40.568562 39.8015208,39.0076818 38.9633975,36.8143513 L37.6707278,36.8143513 C36.8327473,39.0076818 34.7106021,40.568562 32.2174584,40.568562 C30.0086921,40.568562 28.0880195,39.3454352 27.0955934,37.5419685 C26.23753,37.3827153 25.5671457,35.9738171 25.5671457,35.09821 C25.5671457,34.3580466 26.0460631,33.2397817 26.7118734,32.8134196 C27.499039,30.5805254 29.6064615,28.9716696 32.1036789,28.9178486 L44.791596,28.9367394 Z M40.3619416,34.8870112 C40.3619416,37.0676526 42.1348152,38.8354764 44.321283,38.8354764 C46.5076079,38.8354764 48.2798383,37.0676526 48.2798383,34.8870112 C48.2798383,34.31936 48.1579827,33.7808649 47.9412155,33.2929829 L45.6747733,35.2713145 L45.2282316,34.7617615 L47.6073813,32.6851264 C47.4357829,32.4300648 47.2317374,32.1991692 47.0058936,31.9908712 L42.8059857,35.2825777 L42.3866024,34.7505696 L46.4532196,31.5632972 C45.8377239,31.1694416 45.1070192,30.9382608 44.321283,30.9382608 C42.1348152,30.9382608 40.3619416,32.7062984 40.3619416,34.8870112 Z M32.3548064,38.8354764 C34.5411313,38.8354764 36.3135046,37.0676526 36.3135046,34.8870112 C36.3135046,34.2046607 36.1398336,33.5629433 35.8343727,33.0033475 L32.9258481,35.2825777 L32.5064648,34.7505696 L35.4567277,32.4385478 C35.2288113,32.15155 34.9618011,31.8981993 34.663773,31.6836282 L30.0710685,35.2825777 L29.6516852,34.7505696 L34.0350554,31.3155068 C33.5247629,31.0759855 32.9562941,30.9382608 32.3548064,30.9382608 C30.1683386,30.9382608 28.3967514,32.7062984 28.3967514,34.8870112 C28.3967514,37.0676526 30.1683386,38.8354764 32.3548064,38.8354764 Z" filter="url(#a)" transform="translate(4 2)"/>
</svg>
