<svg xmlns="http://www.w3.org/2000/svg" width="318" height="64" viewBox="0 0 318 64">
  <defs>
    <filter id="a" width="200%" height="200%" x="-50%" y="-50%" filterUnits="objectBoundingBox">
      <feOffset dy="2" in="SourceAlpha" result="shadowOffsetOuter1"/>
      <feGaussianBlur stdDeviation="2" in="shadowOffsetOuter1" result="shadowBlurOuter1"/>
      <feColorMatrix values="0 0 0 0 0 0 0 0 0 0 0 0 0 0 0 0 0 0 0.5 0" in="shadowBlurOuter1" result="shadowMatrixOuter1"/>
      <feMerge>
        <feMergeNode in="shadowMatrixOuter1"/>
        <feMergeNode in="SourceGraphic"/>
      </feMerge>
    </filter>
  </defs>
  <path fill="#000000" fill-rule="evenodd" d="M27.7090924,0 C43.6236253,0 53.2537925,11.7713113 55.2174004,22.5544406 C53.8448509,20.8552776 52.396463,18.8276518 49.2260091,16.8549986 C47.9401185,13.973989 43.8317161,9.1863231 40.40552,7.20219899 C39.583816,7.20219899 39.2269013,8.41499361 39.634342,9.80936606 C40.117668,10.5780699 42.2978685,10.6010048 42.4048852,12.181781 C42.0827732,12.8722138 43.3703058,12.9882736 42.0389921,13.973989 C36.4911574,12.9882521 25.2363293,14.1321744 19.625451,24.3873604 C18.722021,24.0909475 15.6550585,22.0364679 14.9509741,22.0180025 C13.412418,22.0364679 13.601001,23.4565047 12.098628,22.5544406 C11.6392163,22.3846326 11.0618708,21.4627539 11.0618708,20.2731779 C10.4883186,18.3268943 11.209086,18.4079386 11.7225846,17.8710305 C10.825981,17.350839 7.64395631,17.189068 10.9406309,14.1321744 C14.755663,11.6151837 14.5970253,15.9972706 15.4919774,15.8331539 C16.2406978,15.714147 15.3443457,13.7894995 16.2406978,13.2170798 C19.6222234,11.0576027 20.2454488,11.7280099 24.486565,10.2728712 C25.3240797,10.051906 25.4794666,11.4694691 26.2498367,10.1859476 C26.7526404,8.98479722 26.7833913,7.61589249 25.6327655,6.84551247 C23.6056588,6.14478018 22.3387779,8.76989704 21.3705656,8.33136851 C20.7010963,8.02814845 21.0038931,6.51305576 21.9610498,5.98669428 C23.2039281,4.91812997 23.160477,5.77343563 24.790852,5.70560675 C25.681887,5.98669428 25.2654328,6.11644022 26.3904611,6.23605786 C27.2297481,5.98669428 27.7090924,5.60557773 27.4295832,3.76926017 C20.4156585,3.91660106 12.2571079,7.24787715 7.40071563,15.0175534 C7.79722035,16.2907935 7.35191161,16.9173376 7.87019873,17.8710305 C8.31837226,18.7451751 9.24309951,18.7014549 9.49121614,18.9629812 C9.595781,19.2036018 9.33953583,19.2899757 9.58898069,19.9348869 C9.83842555,20.5797981 10.188104,19.9566073 10.188104,20.9607182 C10.3651932,21.8154594 11.9216989,22.8224204 11.7696749,24.3873604 C11.0193158,25.9551656 9.95542664,27.066373 9.95542664,28.987381 C10.1676059,31.3981384 10.9730581,31.6937778 12.6217104,33.1104666 C12.6217104,34.2308768 12.8911828,34.3719212 13.2488055,35.0988882 C12.2709014,43.0437274 13.1061946,47.1406516 16.8473368,48.7539212 C16.8473368,48.7539212 14.0021591,45.2218109 18.1417689,41.8841248 C21.3705656,49.8637454 26.7405062,53.374573 33.4098298,55.1354399 C31.5197536,55.442046 30.1380406,55.6492107 27.7090924,55.6492107 C11.4301075,55.6492107 8.85636275e-16,42.9585146 0,27.7305247 C0,12.5025349 11.7945595,0 27.7090924,0 Z M28.4972173,3.75995943 C28.3786067,5.84099423 28.0037233,5.62726103 28.0839357,6.47218673 C28.261508,7.52939842 28.7577832,8.46952331 29.3056667,8.57322057 C30.1029251,8.46952331 30.435714,7.27894578 31.2654226,6.3862376 C31.8073613,5.98483574 31.8847041,6.44289601 32.6216997,6.07255143 C33.1877726,5.63436785 33.1140755,5.58543974 33.5160379,4.4284968 C31.9150686,4.01899735 30.3204075,3.8293705 28.4972173,3.75995943 Z M38.380881,9.79627066 C37.8674892,10.393476 38.4101385,10.3628673 38.2650046,10.6924175 C37.8784103,11.012917 37.5927798,11.2202463 37.6970127,11.4369777 C38.1598653,12.0578391 38.380881,11.4369777 38.8189286,11.6580386 C39.0412865,12.5517821 39.0896767,13.7258951 40.3189197,13.5034488 C40.3343835,13.4987066 40.3465063,13.4815628 40.3625626,13.4794822 C41.1708063,13.374747 40.5527958,12.0262714 40.1473269,11.2506701 C39.6058258,10.2148595 38.8516823,9.55018403 38.380881,9.79627066 Z M38.2253883,16.3104767 C48.5726435,16.3104767 56.5429187,24.5149638 56.5429187,34.5916105 C56.5429187,40.6755467 53.0819171,45.6571852 53.0819171,45.6571852 C58.6984951,51.2860668 61.6648996,51.9575699 58.5752336,54.9213707 C55.4855676,57.8851715 54.2482722,54.3206582 49.2623873,49.3342069 C49.2623873,49.3342069 43.9185101,52.9091829 38.2253883,52.9091829 C28.0939706,52.9091829 19.8240277,44.6718686 19.8240277,34.5916105 C19.8240277,24.5592025 27.8781331,16.3104767 38.2253883,16.3104767 Z M38.2253847,48.9892483 C46.1986359,48.9892483 52.6622331,42.5422426 52.6622331,34.5894582 C52.6622331,26.6366737 46.1986359,20.1896681 38.2253847,20.1896681 C30.2521335,20.1896681 23.7885363,26.6366737 23.7885363,34.5894582 C23.7885363,42.5422426 30.2521335,48.9892483 38.2253847,48.9892483 Z M44.791596,28.9367394 C47.223133,29.0907174 49.2491517,30.722955 49.9719232,32.9469384 C50.543751,33.440951 50.9399067,34.4256258 50.9399067,35.09821 C50.9399067,35.9216356 50.3469239,37.215193 49.5625456,37.4994107 C48.5774094,39.3262593 46.6435149,40.568562 44.41731,40.568562 C41.9242378,40.568562 39.8015208,39.0076818 38.9633975,36.8143513 L37.6707278,36.8143513 C36.8327473,39.0076818 34.7106021,40.568562 32.2174584,40.568562 C30.0086921,40.568562 28.0880195,39.3454352 27.0955934,37.5419685 C26.23753,37.3827153 25.5671457,35.9738171 25.5671457,35.09821 C25.5671457,34.3580466 26.0460631,33.2397817 26.7118734,32.8134196 C27.499039,30.5805254 29.6064615,28.9716696 32.1036789,28.9178486 L44.791596,28.9367394 Z M40.3619416,34.8870112 C40.3619416,37.0676526 42.1348152,38.8354764 44.321283,38.8354764 C46.5076079,38.8354764 48.2798383,37.0676526 48.2798383,34.8870112 C48.2798383,34.31936 48.1579827,33.7808649 47.9412155,33.2929829 L45.6747733,35.2713145 L45.2282316,34.7617615 L47.6073813,32.6851264 C47.4357829,32.4300648 47.2317374,32.1991692 47.0058936,31.9908712 L42.8059857,35.2825777 L42.3866024,34.7505696 L46.4532196,31.5632972 C45.8377239,31.1694416 45.1070192,30.9382608 44.321283,30.9382608 C42.1348152,30.9382608 40.3619416,32.7062984 40.3619416,34.8870112 Z M32.3548064,38.8354764 C34.5411313,38.8354764 36.3135046,37.0676526 36.3135046,34.8870112 C36.3135046,34.2046607 36.1398336,33.5629433 35.8343727,33.0033475 L32.9258481,35.2825777 L32.5064648,34.7505696 L35.4567277,32.4385478 C35.2288113,32.15155 34.9618011,31.8981993 34.663773,31.6836282 L30.0710685,35.2825777 L29.6516852,34.7505696 L34.0350554,31.3155068 C33.5247629,31.0759855 32.9562941,30.9382608 32.3548064,30.9382608 C30.1683386,30.9382608 28.3967514,32.7062984 28.3967514,34.8870112 C28.3967514,37.0676526 30.1683386,38.8354764 32.3548064,38.8354764 Z M67.808,41 L67.808,17.456 L74,17.456 C80.948,17.456 85.088,21.344 85.088,29.12 C85.088,36.932 80.948,41 74.216,41 L67.808,41 Z M71.984,37.616 L73.748,37.616 C78.248,37.616 80.804,34.916 80.804,29.12 C80.804,23.36 78.248,20.84 73.748,20.84 L71.984,20.84 L71.984,37.616 Z M88.499,41 L88.499,37.472 L94.187,37.472 L94.187,20.984 L88.499,20.984 L88.499,17.456 L104.051,17.456 L104.051,20.984 L98.363,20.984 L98.363,37.472 L104.051,37.472 L104.051,41 L88.499,41 Z M114.662,41 L114.662,32.828 L106.922,17.456 L111.35,17.456 L114.302,23.792 C115.13,25.592 115.886,27.32 116.714,29.228 L116.858,29.228 C117.722,27.32 118.55,25.592 119.342,23.756 L122.258,17.456 L126.578,17.456 L118.838,32.828 L118.838,41 L114.662,41 Z M138.269,41.432 C136.613,41.432 134.669,40.568 133.121,39.056 L133.013,39.056 L132.653,41 L129.377,41 L129.377,15.584 L133.553,15.584 L133.553,22.136 L133.373,25.232 L133.481,25.232 C134.957,23.792 136.973,22.892 138.881,22.892 C143.453,22.892 146.117,26.42 146.117,31.856 C146.117,37.94 142.337,41.432 138.269,41.432 Z M137.441,38.012 C139.925,38.012 141.833,35.924 141.833,31.928 C141.833,28.4 140.609,26.312 137.729,26.312 C136.397,26.312 134.993,26.96 133.553,28.436 L133.553,36.392 C134.849,37.58 136.325,38.012 137.441,38.012 Z M157.592,41 L157.592,26.6 L149.924,26.6 L149.924,23.324 L161.732,23.324 L161.732,41 L157.592,41 Z M159.356,20.084 C157.664,20.084 156.404,19.004 156.404,17.312 C156.404,15.656 157.664,14.504 159.356,14.504 C161.048,14.504 162.308,15.656 162.308,17.312 C162.308,19.004 161.048,20.084 159.356,20.084 Z M178.175,41.432 C173.531,41.432 169.283,38.048 169.283,32.18 C169.283,26.276 173.531,22.892 178.175,22.892 C182.819,22.892 187.067,26.276 187.067,32.18 C187.067,38.048 182.819,41.432 178.175,41.432 Z M178.175,38.048 C181.055,38.048 182.783,35.708 182.783,32.18 C182.783,28.616 181.055,26.276 178.175,26.276 C175.295,26.276 173.567,28.616 173.567,32.18 C173.567,35.708 175.295,38.048 178.175,38.048 Z M198.29,41.432 C195.194,41.432 191.81,40.208 189.506,38.696 L192.098,34.88 C194.366,36.212 196.85,36.896 199.154,36.896 C200.738,36.896 201.386,36.464 201.386,35.816 C201.386,34.952 200.45,34.808 197.426,34.16 C192.458,33.08 190.658,31.208 190.658,28.4 C190.658,24.872 194.006,22.568 199.226,22.568 C202.61,22.568 205.31,23.9 207.218,25.088 L204.482,28.76 C202.61,27.68 200.522,27.104 198.65,27.104 C197.498,27.104 196.778,27.464 196.778,28.112 C196.778,28.904 197.714,28.976 200.522,29.624 C205.922,30.848 207.506,32.468 207.506,35.456 C207.506,38.84 204.302,41.432 198.29,41.432 Z M210.629,47.336 L210.629,23 L215.669,23 L216.101,24.656 L216.245,24.656 C217.613,23.432 219.449,22.568 221.285,22.568 C225.641,22.568 228.413,26.168 228.413,31.712 C228.413,37.904 224.669,41.432 220.745,41.432 C219.197,41.432 217.829,40.784 216.677,39.632 L216.533,39.632 L216.821,42.368 L216.821,47.336 L210.629,47.336 Z M219.269,36.392 C220.781,36.392 222.077,35.24 222.077,31.784 C222.077,28.832 221.177,27.608 219.413,27.608 C218.441,27.608 217.685,27.968 216.821,28.904 L216.821,35.528 C217.577,36.176 218.441,36.392 219.269,36.392 Z M231.104,41 L231.104,15.944 L237.296,15.944 L237.296,21.776 L236.936,24.944 L237.08,24.944 C238.232,23.792 240.104,22.568 242.768,22.568 C246.728,22.568 248.456,25.448 248.456,29.912 L248.456,41 L242.264,41 L242.264,30.704 C242.264,28.688 241.76,27.824 240.176,27.824 C239.024,27.824 238.232,28.328 237.296,29.192 L237.296,41 L231.104,41 Z M261.155,41.432 C255.467,41.432 251.075,37.976 251.075,32 C251.075,26.096 255.683,22.568 260.507,22.568 C266.195,22.568 269.075,26.456 269.075,31.28 C269.075,32.36 268.895,33.44 268.823,33.872 L257.267,33.872 C257.807,35.888 259.391,36.752 262.019,36.752 C263.459,36.752 264.755,36.392 266.339,35.672 L268.355,39.344 C266.195,40.712 263.387,41.432 261.155,41.432 Z M260.723,27.248 C258.959,27.248 257.807,28.076 257.303,29.84 L263.603,29.84 C263.351,28.148 262.415,27.248 260.723,27.248 Z M273.494,41 L273.494,23 L278.57,23 L279.038,26.816 L279.182,26.816 C280.91,23.864 283.502,22.568 286.202,22.568 C287.858,22.568 288.614,22.856 289.622,23.288 L288.398,28.472 C287.318,28.148 286.562,27.968 285.266,27.968 C283.214,27.968 281.018,29.048 279.686,32.072 L279.686,41 L273.494,41 Z M302.105,41.432 C296.417,41.432 292.025,37.976 292.025,32 C292.025,26.096 296.633,22.568 301.457,22.568 C307.145,22.568 310.025,26.456 310.025,31.28 C310.025,32.36 309.845,33.44 309.773,33.872 L298.217,33.872 C298.757,35.888 300.341,36.752 302.969,36.752 C304.409,36.752 305.705,36.392 307.289,35.672 L309.305,39.344 C307.145,40.712 304.337,41.432 302.105,41.432 Z M301.673,27.248 C299.909,27.248 298.757,28.076 298.253,29.84 L304.553,29.84 C304.301,28.148 303.365,27.248 301.673,27.248 Z" filter="url(#a)" transform="translate(4 2)"/>
</svg>
