<svg xmlns="http://www.w3.org/2000/svg" width="26" height="34" viewBox="0 0 26 34">
  <g fill="none" transform="translate(1 1)">
    <path fill="#9B9B9B" stroke="#FFFFFF" d="M10.7775275,31.3539861 C1.68731231,18.1892119 0,16.8381037 0,11.9998512 C0,5.37249587 5.37794044,0 12.012012,0 C18.6460836,0 24.024024,5.37249587 24.024024,11.9998512 C24.024024,16.8381037 22.3367117,18.1892119 13.2464965,31.3539861 C12.6499625,32.2148505 11.373999,32.214788 10.7775275,31.3539861 Z"/>
    <path fill="#FFFFFF" d="M14.4144144,3.15334731 C14.4144144,2.11724748 14.3918931,1.82443666 14.1047462,0.644746905 C14.0653339,0.481448562 13.9386515,0.354751572 13.7753719,0.312519242 C12.7084243,0.050678796 12.3874954,0 11.2614293,0 C9.33867144,0 7.67490877,1.11211802 6.27858679,2.70286912 L2.7033269,2.70286912 C2.27542178,2.70286912 1.88692898,2.94500115 1.69549774,3.32509212 L0.119005188,6.47843943 C-0.252596627,7.22735941 0.29073027,8.10860736 1.12964952,8.10860736 L2.99610409,8.10860736 C2.80748802,8.53093066 2.63294777,8.94762299 2.47248335,9.35023787 C2.40491939,9.5163517 2.4443317,9.70780493 2.5738293,9.83450192 L4.58104214,11.8419453 C4.70772457,11.9686423 4.89915581,12.0080592 5.06525056,11.9433029 C5.4678192,11.7828201 5.88446366,11.6082598 6.30673845,11.419622 L6.30673845,13.286291 C6.30673845,14.1224912 7.18788517,14.668696 7.93671913,14.294236 L11.0897042,12.7175623 C11.4725667,12.5261091 11.7118558,12.1375716 11.7118558,11.7096174 L11.7118558,8.13676225 C13.3024241,6.74027987 14.4144144,5.07632607 14.4144144,3.15334731 Z M1.49280584,6.7571728 L2.84408517,4.05430368 L5.22853015,4.05430368 C4.63453028,4.90739675 4.10527921,5.83087703 3.63514661,6.7571728 L1.49280584,6.7571728 Z M3.94481479,9.29674358 C5.54101349,5.38039884 8.24920248,1.35143456 11.2642445,1.35143456 C11.9004718,1.35143456 12.2411068,1.35143456 12.9195617,1.49783997 C13.0631351,2.17355725 13.0631351,2.51704687 13.0631351,3.15334731 C13.0631351,6.16873567 9.03463359,8.87442028 5.1187387,10.4708024 L3.94481479,9.29674358 Z M10.3605764,11.5716584 L7.65801777,12.923093 L7.65801777,10.7776906 C8.58420715,10.3103195 9.50758135,9.77819214 10.3605764,9.18412404 L10.3605764,11.5716584 Z M10.3605764,2.70286912 C11.1065952,2.70286912 11.7118558,3.30819918 11.7118558,4.05430368 C11.7118558,4.80040818 11.1065952,5.40573824 10.3605764,5.40573824 C9.61455763,5.40573824 9.0092971,4.80040818 9.0092971,4.05430368 C9.0092971,3.30819918 9.61455763,2.70286912 10.3605764,2.70286912 Z" transform="translate(4.66 5.381)"/>
  </g>
</svg>
