<svg xmlns="http://www.w3.org/2000/svg" width="26" height="26" viewBox="0 0 26 26">
  <g fill="none" transform="translate(1 1)">
    <path fill="#9B9B9B" stroke="#FFFFFF" d="M12,0 C5.37096774,0 0,5.37096774 0,12 C0,18.6290323 5.37096774,24 12,24 C18.6290323,24 24,18.6290323 24,12 C24,5.37096774 18.6290323,0 12,0 Z"/>
    <path fill="#FFFFFF" d="M14,3.06268857 C14,2.05637661 13.9781262,1.7719841 13.6992348,0.626210431 C13.6609556,0.467606916 13.5379153,0.344552464 13.37933,0.303534314 C12.3430571,0.0492217806 12.0313549,0 10.9376632,0 C9.07018463,0 7.45425514,1.08014463 6.09807742,2.62516163 L2.62560625,2.62516163 C2.21000341,2.62516163 1.83267977,2.86033236 1.64675218,3.22949572 L0.115583789,6.29218429 C-0.245334474,7.01957283 0.282371774,7.8754849 1.0971721,7.8754849 L2.9099661,7.8754849 C2.72677274,8.28566641 2.55725052,8.69037883 2.40139946,9.08141853 C2.33577795,9.24275659 2.37405716,9.42870554 2.49983171,9.55175999 L4.44933718,11.5014894 C4.57237749,11.6245439 4.75830508,11.6628275 4.91962461,11.599933 C5.31061939,11.444064 5.71528533,11.2745223 6.12541971,11.0913079 L6.12541971,12.9043102 C6.12541971,13.7164695 6.98123348,14.246971 7.70853846,13.8832767 L10.7708752,12.3519324 C11.1427304,12.1659834 11.3751399,11.7886165 11.3751399,11.3729659 L11.3751399,7.90283034 C12.9199794,6.54649682 14,4.93038169 14,3.06268857 Z M1.44988767,6.56290409 L2.76231772,3.93774245 L5.07820991,3.93774245 C4.50128753,4.76630909 3.98725243,5.66323932 3.53063614,6.56290409 L1.44988767,6.56290409 Z M3.83140136,9.0294622 C5.38170935,5.22571238 8.01203791,1.31258082 10.9403975,1.31258082 C11.5583333,1.31258082 11.889175,1.31258082 12.5481243,1.45477707 C12.68757,2.11106748 12.68757,2.44468177 12.68757,3.06268857 C12.68757,5.99138452 8.77488787,8.6192807 4.97157496,10.1697668 L3.83140136,9.0294622 Z M10.0627099,11.2389732 L7.43784976,12.5515541 L7.43784976,10.467832 C8.33741119,10.0138978 9.23423839,9.49706912 10.0627099,8.92008047 L10.0627099,11.2389732 Z M10.0627099,2.62516163 C10.7872806,2.62516163 11.3751399,3.21308846 11.3751399,3.93774245 C11.3751399,4.66239644 10.7872806,5.25032327 10.0627099,5.25032327 C9.3381391,5.25032327 8.75027981,4.66239644 8.75027981,3.93774245 C8.75027981,3.21308846 9.3381391,2.62516163 10.0627099,2.62516163 Z" transform="translate(4 5)"/>
  </g>
</svg>
