<svg xmlns="http://www.w3.org/2000/svg" width="163.61" height="82.5" viewBox="0 0 163.61 82.5"><defs><style>.cls-1{fill:#0d6082;}.cls-2{fill:#3bbeb3;}</style></defs><title>bto-logo</title><g id="Layer_2" data-name="Layer 2"><g id="About"><path class="cls-1" d="M73.2,46.33V25.25h7.67a9.56,9.56,0,0,1,5.43,1.3,4.15,4.15,0,0,1,1.89,3.64,4.33,4.33,0,0,1-1.15,3,6,6,0,0,1-3,1.77V35a5.79,5.79,0,0,1,3.59,1.67A4.61,4.61,0,0,1,89,40,5.62,5.62,0,0,1,87,44.63a8.63,8.63,0,0,1-5.66,1.7Zm4.74-17.58v5H80A3.51,3.51,0,0,0,82.35,33a2.45,2.45,0,0,0,.84-2c0-1.54-1.15-2.32-3.47-2.32Zm0,8.53v5.55h2.58a4,4,0,0,0,2.58-.76A2.57,2.57,0,0,0,84,40a2.36,2.36,0,0,0-.92-2,4,4,0,0,0-2.56-.72Z"/><path class="cls-1" d="M94.29,28.9a2.73,2.73,0,0,1-1.92-.7,2.26,2.26,0,0,1-.75-1.71,2.17,2.17,0,0,1,.75-1.71,2.8,2.8,0,0,1,1.92-.66,2.83,2.83,0,0,1,1.94.66A2.2,2.2,0,0,1,97,26.49a2.25,2.25,0,0,1-.74,1.73A2.8,2.8,0,0,1,94.29,28.9Zm2.25,12.33A2,2,0,0,0,97,42.68a1.57,1.57,0,0,0,1.22.49A3.91,3.91,0,0,0,99,43.1l.76-.15v3.26a14.55,14.55,0,0,1-1.77.36,12.22,12.22,0,0,1-1.94.14,4.58,4.58,0,0,1-1.69-.3,3.77,3.77,0,0,1-1.29-.89,4,4,0,0,1-.83-1.41,5.36,5.36,0,0,1-.3-1.85v-11h4.62Z"/><path class="cls-1" d="M106.2,41.23a2.08,2.08,0,0,0,.45,1.45,1.58,1.58,0,0,0,1.22.49,4,4,0,0,0,.77-.07l.76-.15v3.26a15.38,15.38,0,0,1-1.77.36,12.26,12.26,0,0,1-1.95.14,4.53,4.53,0,0,1-1.68-.3,3.68,3.68,0,0,1-1.29-.89,4,4,0,0,1-.83-1.41,5.36,5.36,0,0,1-.3-1.85V24.05h4.62Z"/><path class="cls-1" d="M115.86,41.23a2.08,2.08,0,0,0,.45,1.45,1.57,1.57,0,0,0,1.22.49,4,4,0,0,0,.77-.07l.76-.15v3.26a15.38,15.38,0,0,1-1.77.36,12.26,12.26,0,0,1-2,.14,4.49,4.49,0,0,1-1.68-.3,3.72,3.72,0,0,1-1.3-.89,4.28,4.28,0,0,1-.83-1.41,5.61,5.61,0,0,1-.29-1.85V24.05h4.62Z"/><path class="cls-1" d="M123.26,28.9a2.73,2.73,0,0,1-1.92-.7,2.26,2.26,0,0,1-.75-1.71,2.17,2.17,0,0,1,.75-1.71,3.15,3.15,0,0,1,3.86,0,2.2,2.2,0,0,1,.74,1.71,2.25,2.25,0,0,1-.74,1.73A2.78,2.78,0,0,1,123.26,28.9Zm2.25,12.33a2,2,0,0,0,.46,1.45,1.57,1.57,0,0,0,1.22.49,3.91,3.91,0,0,0,.76-.07l.77-.15v3.26a15.38,15.38,0,0,1-1.77.36,12.43,12.43,0,0,1-2,.14,4.49,4.49,0,0,1-1.68-.3,3.72,3.72,0,0,1-1.3-.89,4.11,4.11,0,0,1-.83-1.41,5.61,5.61,0,0,1-.29-1.85v-11h4.61Z"/><path class="cls-1" d="M137.85,46.7a8.09,8.09,0,0,1-5.92-2.11,7.63,7.63,0,0,1-2.15-5.73A7.64,7.64,0,0,1,132,33a8.46,8.46,0,0,1,6-2.11A8,8,0,0,1,143.93,33a7.51,7.51,0,0,1,2.13,5.58,8,8,0,0,1-2.19,5.92A8.21,8.21,0,0,1,137.85,46.7ZM138,34.47a3.09,3.09,0,0,0-2.55,1.13,5,5,0,0,0-.92,3.21q0,4.34,3.5,4.33,3.34,0,3.34-4.45C141.33,35.87,140.21,34.47,138,34.47Z"/><path class="cls-1" d="M163.61,46.33H159V38c0-2.34-.83-3.5-2.49-3.5a2.5,2.5,0,0,0-2,.92,3.55,3.55,0,0,0-.78,2.36v8.58h-4.64v-15h4.64v2.38h.06a5.33,5.33,0,0,1,4.84-2.75q5,0,5,6.2Z"/><path class="cls-1" d="M81.61,54.87H77.83V65.69h-3V54.87H71.07V52.44H81.61Z"/><path class="cls-1" d="M85.42,65.92a5.06,5.06,0,0,1-3.72-1.33,5.49,5.49,0,0,1,0-7.27A5.33,5.33,0,0,1,85.55,56a5.07,5.07,0,0,1,3.7,1.33,4.72,4.72,0,0,1,1.34,3.51,5,5,0,0,1-1.39,3.72A5.14,5.14,0,0,1,85.42,65.92Zm.07-7.69a1.94,1.94,0,0,0-1.6.71,3.12,3.12,0,0,0-.58,2c0,1.81.74,2.72,2.2,2.72s2.1-.93,2.1-2.8S86.9,58.23,85.49,58.23Z"/><path class="cls-2" d="M104.76,71.65a9.82,9.82,0,0,1-7.37-3A10.57,10.57,0,0,1,94.53,61a11.35,11.35,0,0,1,2.9-8.09,10,10,0,0,1,7.67-3.08,9.57,9.57,0,0,1,7.3,2.95,10.89,10.89,0,0,1,2.79,7.79,11.18,11.18,0,0,1-2.89,8A9.93,9.93,0,0,1,104.76,71.65ZM105,53.93a4.78,4.78,0,0,0-4,1.88,7.81,7.81,0,0,0-1.47,5A7.66,7.66,0,0,0,101,65.72a5.08,5.08,0,0,0,7.75,0,7.59,7.59,0,0,0,1.44-4.92,8.25,8.25,0,0,0-1.4-5.1A4.56,4.56,0,0,0,105,53.93Z"/><path class="cls-2" d="M132.77,71.28h-4.63V62.91c0-2.33-.84-3.5-2.5-3.5a2.48,2.48,0,0,0-2,.93,3.53,3.53,0,0,0-.78,2.35v8.59h-4.64V56.23h4.64v2.38h.06a5.32,5.32,0,0,1,4.84-2.75c3.33,0,5,2.06,5,6.2Z"/><path class="cls-2" d="M150,65.07h-9.82q.24,3.29,4.14,3.28a8.08,8.08,0,0,0,4.36-1.17v3.35a11.52,11.52,0,0,1-5.42,1.12A7,7,0,0,1,135.54,64a8.06,8.06,0,0,1,2.18-5.94,7.24,7.24,0,0,1,5.35-2.19,6.57,6.57,0,0,1,5.09,2,7.54,7.54,0,0,1,1.8,5.31Zm-4.3-2.85c0-2.15-.88-3.23-2.62-3.23a2.51,2.51,0,0,0-1.93.92,4.12,4.12,0,0,0-1,2.31Z"/><path class="cls-1" d="M20.7,24.71a18.08,18.08,0,0,0,1.08,2.94c.12.26.27.5.4.76l28.45-1c.68-1.24,1.29-2.51,1.86-3.81Z"/><path class="cls-1" d="M55.72,14.63l-36,1.31c0,.59,0,1.17,0,1.74s0,1.35.09,2l34.65-1.27c-.6,1.72-1.26,3.44-2,5.14-.57,1.3-1.18,2.57-1.86,3.81a34.56,34.56,0,0,1-3.3,5c-4.83,6-11.85,8.93-19.29,12-6.82,2.87-13.87,5.83-19.4,11.35C2.35,62-.67,71.43.13,82.28l5-.37c-.4-5.43,0-15.58,7.06-22.63C17,54.45,23.31,51.8,30,49c7.68-3.22,15.62-6.56,21.24-13.52,4.17-5.17,6.69-11.37,8.6-17.24h0l.1-.3L61,14.45Z"/><path class="cls-2" d="M18.2,24.71c-.1-.36-.22-.71-.31-1.07a26.48,26.48,0,0,1-.55-3.95c-.05-.66-.08-1.32-.09-2s0-1.15,0-1.74c0-1.8.19-3.73.43-5.84l-5.78-.67a66,66,0,0,0-.46,6.71c0,1.3,0,2.55.09,3.75.55,8.26,3.58,14.2,9.92,19.6a4.32,4.32,0,0,0,1.08.14c2.31,0,3-2.2,3.1-4.22a29.1,29.1,0,0,1-2.21-2,20.47,20.47,0,0,1-3.75-5c-.13-.26-.28-.5-.4-.76A19.06,19.06,0,0,1,18.2,24.71Z"/><path class="cls-1" d="M39.86,52.1c-1-.93-5.5,2.87-3.9,4.32a63,63,0,0,1,4.7,4.66L13.1,62.77a28.62,28.62,0,0,0-1.2,3.5l31.35-1.93a20.85,20.85,0,0,1,3.15,6.48L10.7,73c-.14,1.13-.29,2.34-.42,3.46L47,74.21a26.2,26.2,0,0,1-.32,6.46c1.43,1.45,3.36,2.63,5.12,1.13a4.21,4.21,0,0,0,.71-.81C54.18,69.63,50.45,61.66,39.86,52.1Z"/><path class="cls-1" d="M61.9,7.7a5.28,5.28,0,1,1-5.27-5.28A5.27,5.27,0,0,1,61.9,7.7Z"/><path class="cls-2" d="M20.93,4.13A4.13,4.13,0,1,1,16.8,0,4.13,4.13,0,0,1,20.93,4.13Z"/></g></g></svg>