<svg xmlns="http://www.w3.org/2000/svg" width="16" height="16" viewBox="0 0 16 16">
  <path fill="#000000" fill-rule="evenodd" d="M11.0769231,6.76923077 C11.0769231,9.14423077 9.14423077,11.0769231 6.76923077,11.0769231 C4.39423077,11.0769231 2.46153846,9.14423077 2.46153846,6.76923077 C2.46153846,4.39423077 4.39423077,2.46153846 6.76923077,2.46153846 C9.14423077,2.46153846 11.0769231,4.39423077 11.0769231,6.76923077 L11.0769231,6.76923077 Z M16,14.7692308 C16,14.4423077 15.8653846,14.125 15.6442308,13.9038462 L12.3461538,10.6057692 C13.125,9.48076923 13.5384615,8.13461538 13.5384615,6.76923077 C13.5384615,3.02884615 10.5096154,0 6.76923077,0 C3.02884615,0 0,3.02884615 0,6.76923077 C0,10.5096154 3.02884615,13.5384615 6.76923077,13.5384615 C8.13461538,13.5384615 9.48076923,13.125 10.6057692,12.3461538 L13.9038462,15.6346154 C14.125,15.8653846 14.4423077,16 14.7692308,16 C15.4423077,16 16,15.4423077 16,14.7692308 L16,14.7692308 Z"/>
</svg>
