<svg xmlns="http://www.w3.org/2000/svg" width="16" height="16" viewBox="0 0 16 16">
  <path fill="#000000" fill-rule="evenodd" d="M3.66666667,13 L0,13 L0,14.3333333 L3.66666667,14.3333333 L3.66666667,13 Z M7.33333333,11.6666667 L4.66666667,11.6666667 C4.30208333,11.6666667 4,11.96875 4,12.3333333 L4,15 C4,15.3645833 4.30208333,15.6666667 4.66666667,15.6666667 L7.33333333,15.6666667 C7.69791667,15.6666667 8,15.3645833 8,15 L8,12.3333333 C8,11.96875 7.69791667,11.6666667 7.33333333,11.6666667 L7.33333333,11.6666667 Z M9,7.66666667 L0,7.66666667 L0,9 L9,9 L9,7.66666667 Z M2.33333333,2.33333333 L0,2.33333333 L0,3.66666667 L2.33333333,3.66666667 L2.33333333,2.33333333 Z M16,13 L8.33333333,13 L8.33333333,14.3333333 L16,14.3333333 L16,13 Z M6,1 L3.33333333,1 C2.96875,1 2.66666667,1.30208333 2.66666667,1.66666667 L2.66666667,4.33333333 C2.66666667,4.69791667 2.96875,5 3.33333333,5 L6,5 C6.36458333,5 6.66666667,4.69791667 6.66666667,4.33333333 L6.66666667,1.66666667 C6.66666667,1.30208333 6.36458333,1 6,1 L6,1 Z M12.6666667,6.33333333 L10,6.33333333 C9.63541667,6.33333333 9.33333333,6.63541667 9.33333333,7 L9.33333333,9.66666667 C9.33333333,10.03125 9.63541667,10.3333333 10,10.3333333 L12.6666667,10.3333333 C13.03125,10.3333333 13.3333333,10.03125 13.3333333,9.66666667 L13.3333333,7 C13.3333333,6.63541667 13.03125,6.33333333 12.6666667,6.33333333 L12.6666667,6.33333333 Z M16,7.66666667 L13.6666667,7.66666667 L13.6666667,9 L16,9 L16,7.66666667 Z M16,2.33333333 L7,2.33333333 L7,3.66666667 L16,3.66666667 L16,2.33333333 Z"/>
</svg>
