<svg class="logo" xmlns="http://www.w3.org/2000/svg" width="56" height="20" viewBox="0 0 56 20">
  <path fill-rule="evenodd" d="M28.8815373,6.97285891 L28.9583741,7.04999256 C28.5072433,7.40595005 28.1190654,7.83827938 27.8141908,8.32812566 L27.6709777,8.18490466 C27.374091,7.88741637 27.3739009,7.40480733 27.6709777,7.1075095 L27.8054421,6.97285891 C28.1025189,6.67556108 28.5844605,6.67537063 28.8815373,6.97285891 Z M33.5295917,6.22723366 C33.0512637,6.07258547 32.5417446,5.98802414 32.0128261,5.98802414 C31.5514251,5.98802414 31.1054294,6.05296876 30.6814958,6.17181171 L30.6814958,5.79757069 C30.6814958,5.37685902 31.0221262,5.03594735 31.4420658,5.0357569 L32.7735863,5.0357569 C33.1937161,5.03594735 33.5341563,5.37704948 33.5343464,5.79757069 L33.5343464,6.17847758 C33.5343464,6.19523749 33.5307328,6.21085467 33.5295917,6.22723366 Z M27.8286452,10.9750501 C27.8286452,8.64177272 29.7257953,6.74983792 32.0667952,6.74983792 C34.4077951,6.74983792 36.3049451,8.64177272 36.3049451,10.9750501 C36.3049451,13.3083275 34.4077951,15.2002623 32.0667952,15.2002623 C29.7257953,15.2002623 27.8286452,13.3083275 27.8286452,10.9750501 Z M32.0667952,7.9570414 C30.3976452,7.9570414 29.0395452,9.31099558 29.0395452,10.9750501 C29.0395452,12.6391047 30.3976452,13.9930588 32.0667952,13.9930588 C33.7359451,13.9930588 35.0940451,12.6391047 35.0940451,10.9750501 C35.0940451,9.31099558 33.7359451,7.9570414 32.0667952,7.9570414 Z M32.7742359,8.61681187 C33.4326738,8.8040276 33.9830838,9.2498791 34.3056461,9.83952298 L32.0846068,11.0530924 L32.7742359,8.61681187 Z M12.6708795,14.9713324 C12.4960948,14.50834 12.3319608,14.0533467 12.1779069,13.6059716 C12.023853,13.1585964 11.8644737,12.7034127 11.7003397,12.2406108 L6.86304624,12.2406108 L5.89250646,14.9713324 L4.33656174,14.9713324 C4.74718204,13.8400389 5.13231686,12.7936876 5.49196625,11.8318977 C5.85142542,10.8702983 6.20289662,9.95745488 6.54733077,9.09374851 C6.89119434,8.22966122 7.23277567,7.40442643 7.57169433,6.61766324 C7.91061296,5.83090003 8.264937,5.05194544 8.63466644,4.28060897 L10.0057465,4.28060897 C10.3754759,5.05194544 10.7297999,5.83090003 11.0687186,6.61766324 C11.4076372,7.40442643 11.7490283,8.22966122 12.0932723,9.09374851 C12.4371359,9.95745488 12.7887973,10.8702983 13.1484466,11.8318977 C13.5079058,12.7936876 13.8930407,13.8400389 14.3038511,14.9713324 L12.6708795,14.9713324 Z M11.2689887,11.0066629 C10.9401501,10.1117222 10.6141644,9.24553991 10.2908413,8.40716382 C9.96713788,7.56897821 9.63069168,6.7643124 9.28169298,5.99278546 C8.92204359,6.7643124 8.58065247,7.56897821 8.25732941,8.40716382 C7.93381615,9.24553991 7.61258518,10.1117222 7.29439725,11.0066629 L11.2689887,11.0066629 Z M18.0625769,15.1254092 C17.1793344,15.1048402 16.5530386,14.9147677 16.1833091,14.5546202 C15.8133895,14.1948536 15.6289051,13.6343491 15.6289051,12.8731067 L15.6289051,3.24682767 L17.0612264,3 L17.0612264,12.6417058 C17.0612264,12.8786299 17.0819571,13.0738447 17.1228479,13.2281119 C17.1641192,13.3821888 17.2308759,13.5057931 17.323118,13.5983534 C17.4155504,13.6907234 17.5389837,13.7602389 17.6930377,13.8065191 C17.8472818,13.8527992 18.0370914,13.8914613 18.262847,13.9223148 L18.0625769,15.1254092 Z M24.8871661,14.168952 C24.7641131,14.2516088 24.5252344,14.3567391 24.1709104,14.4852951 C23.8165864,14.6138512 23.4031132,14.6782245 22.9306812,14.6782245 C22.4479788,14.6782245 21.9934246,14.6009004 21.5673989,14.4468236 C21.1411831,14.2923658 20.768791,14.0533467 20.4504128,13.7293854 C20.1320347,13.4052336 19.8804133,13.0018533 19.6955486,12.5184824 C19.5108741,12.0351116 19.4182515,11.4591803 19.4182515,10.7906887 C19.4182515,10.204473 19.5053585,9.66701338 19.6801432,9.17850029 C19.8547377,8.69017764 20.1088315,8.26832326 20.4428053,7.91350849 C20.7763986,7.55869372 21.1845464,7.2810126 21.6674389,7.0804651 C22.1501412,6.87991763 22.6944651,6.77954867 23.3004106,6.77954867 C23.9679776,6.77954867 24.5507199,6.82868566 25.0490178,6.9261978 C25.5471255,7.02409089 25.9655436,7.11398492 26.3044623,7.19607036 L26.3044623,14.3542632 C26.3044623,15.5884015 25.9862743,16.4829613 25.3495181,17.0383236 C24.7123814,17.5936859 23.747167,17.8711765 22.453114,17.8711765 C21.9498711,17.8711765 21.4749666,17.8304195 21.0282102,17.7481436 C20.5814538,17.6654868 20.1936563,17.5681651 19.8651981,17.4550358 L20.1270898,16.2054707 C20.4144669,16.3182191 20.7663185,16.4187785 21.1822641,16.5061967 C21.5982097,16.5934244 22.0320332,16.6374191 22.4839248,16.6374191 C23.3363565,16.6374191 23.9499096,16.4677251 24.3249643,16.1281466 C24.6998289,15.788949 24.8871661,15.248823 24.8871661,14.50834 L24.8871661,14.168952 Z M24.2941535,8.09862923 C24.0526122,8.062824 23.7266265,8.04454045 23.3160062,8.04454045 C22.5457365,8.04454045 21.9525338,8.29689127 21.5365882,8.80064065 C21.1206425,9.30458047 20.9127648,9.97288161 20.9127648,10.805925 C20.9127648,11.2689173 20.9715335,11.66487 21.0898318,11.9939736 C21.2079398,12.3232676 21.3671288,12.5954256 21.5673989,12.8115902 C21.767669,13.027374 21.99875,13.186974 22.2606416,13.2896284 C22.5225333,13.3926637 22.7922228,13.4438957 23.0695199,13.4438957 C23.4493294,13.4438957 23.7985183,13.3899974 24.1168964,13.2820103 C24.4350844,13.1738327 24.686896,13.0481334 24.8717607,12.9041506 L24.8717607,8.21442494 C24.7277868,8.17328698 24.5355047,8.1348154 24.2941535,8.09862923 Z M40.2130599,15.1255996 C39.329627,15.1048402 38.7033314,14.9149581 38.3336019,14.5548106 C37.9638725,14.1950441 37.7790078,13.6343491 37.7790078,12.8732972 L37.7790078,3.24701812 L39.2118995,3.00019045 L39.2118995,12.6417058 C39.2118995,12.8786299 39.2322497,13.0738447 39.2733309,13.2281119 C39.3144119,13.3823792 39.3811686,13.5057931 39.4737913,13.5983534 C39.5660333,13.6909138 39.6890864,13.7604293 39.8433305,13.8067095 C39.9973844,13.8529897 40.1871939,13.8914613 40.4133301,13.9223148 L40.2130599,15.1255996 Z M42.7239487,5.4993206 C42.4673824,5.4993206 42.2488541,5.41437835 42.0695049,5.24487478 C41.889585,5.07499032 41.7998153,4.84644616 41.7998153,4.55829012 C41.7998153,4.27032451 41.889585,4.04139946 42.0695049,3.87189589 C42.2488541,3.7020114 42.4673824,3.61725961 42.7239487,3.61725961 C42.9807054,3.61725961 43.1990435,3.7020114 43.3789634,3.87189589 C43.5583126,4.04139946 43.6484625,4.27032451 43.6484625,4.55829012 C43.6484625,4.84644616 43.5583126,5.07499032 43.3789634,5.24487478 C43.1990435,5.41437835 42.9807054,5.4993206 42.7239487,5.4993206 Z M42.0154909,6.94943314 L43.4481924,6.94943314 L43.4481924,14.9713324 L42.0154909,14.9713324 L42.0154909,6.94943314 Z M48.5009711,6.74888566 C49.076106,6.74888566 49.5612807,6.82373385 49.9568759,6.97266847 C50.3520909,7.12179352 50.670469,7.33262548 50.9118201,7.6049739 C51.1531714,7.87770323 51.3252932,8.20166456 51.4279961,8.57704831 C51.5305084,8.95243205 51.5820499,9.36628738 51.5820499,9.81880478 L51.5820499,14.8326822 C51.4588066,14.8532512 51.2866848,14.8814383 51.0660642,14.917434 C50.8450633,14.9534297 50.5961047,14.9867591 50.3188075,15.0176125 C50.0415105,15.048466 49.7410104,15.0766531 49.4176871,15.1023643 C49.0939837,15.1278851 48.7729431,15.1410264 48.4547552,15.1410264 C48.0026734,15.1410264 47.5869179,15.0947462 47.2069181,15.0021858 C46.8269186,14.9096254 46.4982701,14.7629763 46.2209732,14.5626192 C45.9436759,14.3620718 45.7280004,14.0973415 45.5739465,13.7680475 C45.4198926,13.4389439 45.3428655,13.0429912 45.3428655,12.5801893 C45.3428655,12.1381469 45.4326353,11.7574304 45.6125552,11.4386114 C45.7919044,11.1199827 46.0359182,10.8628706 46.3442162,10.6672749 C46.652324,10.4720601 47.0117833,10.3278868 47.4225937,10.2353265 C47.8332141,10.1427661 48.2645649,10.0964859 48.7166467,10.0964859 C48.8602402,10.0964859 49.0093493,10.104104 49.1634032,10.1195308 C49.3174571,10.1349575 49.4639034,10.1559074 49.6023616,10.1814281 C49.7410104,10.2071394 49.8617809,10.2301842 49.9646737,10.2507532 C50.0671863,10.2715126 50.1390781,10.2869393 50.180159,10.2970334 L50.180159,9.89593843 C50.180159,9.65939524 50.1544835,9.4255184 50.1031322,9.19392703 C50.0515907,8.96252609 49.9591582,8.7570268 49.825835,8.57704831 C49.6923216,8.39706979 49.5099294,8.25308698 49.2788484,8.14490943 C49.0477675,8.03711277 48.7472673,7.983024 48.3777281,7.983024 C47.9051058,7.983024 47.4920132,8.01654379 47.1374989,8.08339295 C46.7833648,8.15024214 46.5188105,8.21975762 46.3442162,8.29155859 L46.1747569,7.10370043 C46.3596216,7.021615 46.6679196,6.941815 47.0990805,6.86468135 C47.5304313,6.78735724 47.9977283,6.74888566 48.5009711,6.74888566 Z M48.6242145,13.9377415 C48.9631331,13.9377415 49.2636333,13.9299329 49.5255251,13.9145062 C49.7874166,13.8990794 50.0055647,13.8710828 50.180159,13.8297544 L50.180159,11.4386114 C50.0772662,11.3873794 49.9104697,11.3435751 49.6795789,11.3075794 C49.4483077,11.2715837 49.1685383,11.2533002 48.8398897,11.2533002 C48.6242145,11.2533002 48.395606,11.2689173 48.154445,11.2997708 C47.9130939,11.3306242 47.6920931,11.3949975 47.4920132,11.4925097 C47.2915528,11.5904028 47.124566,11.7239106 46.9912426,11.8937951 C46.8577291,12.0632986 46.7909724,12.2870814 46.7909724,12.5647626 C46.7909724,13.0789869 46.9551065,13.4362776 47.2839452,13.636825 C47.6125934,13.837563 48.0593499,13.9377415 48.6242145,13.9377415 Z"/>
</svg>
