<svg xmlns="http://www.w3.org/2000/svg" width="48" height="15" viewBox="0 0 48 15">
  <path fill="#9B9B9B" fill-rule="evenodd" d="M24.8815373,3.97285891 L24.9583741,4.04999256 C24.5072433,4.40595005 24.1190654,4.83827938 23.8141908,5.32812566 L23.6709777,5.18490466 C23.374091,4.88741637 23.3739009,4.40480733 23.6709777,4.1075095 L23.8054421,3.97285891 C24.1025189,3.67556108 24.5844605,3.67537063 24.8815373,3.97285891 Z M29.5295917,3.22723366 C29.0512637,3.07258547 28.5417446,2.98802414 28.0128261,2.98802414 C27.5514251,2.98802414 27.1054294,3.05296876 26.6814958,3.17181171 L26.6814958,2.79757069 C26.6814958,2.37685902 27.0221262,2.03594735 27.4420658,2.0357569 L28.7735863,2.0357569 C29.1937161,2.03594735 29.5341563,2.37704948 29.5343464,2.79757069 L29.5343464,3.17847758 C29.5343464,3.19523749 29.5307328,3.21085467 29.5295917,3.22723366 Z M23.8286452,7.97505014 C23.8286452,5.64177272 25.7257953,3.74983792 28.0667952,3.74983792 C30.4077951,3.74983792 32.3049451,5.64177272 32.3049451,7.97505014 C32.3049451,10.3083275 30.4077951,12.2002623 28.0667952,12.2002623 C25.7257953,12.2002623 23.8286452,10.3083275 23.8286452,7.97505014 Z M28.0667952,4.9570414 C26.3976452,4.9570414 25.0395452,6.31099558 25.0395452,7.97505014 C25.0395452,9.63910469 26.3976452,10.9930588 28.0667952,10.9930588 C29.7359451,10.9930588 31.0940451,9.63910469 31.0940451,7.97505014 C31.0940451,6.31099558 29.7359451,4.9570414 28.0667952,4.9570414 Z M28.7742359,5.61681187 C29.4326738,5.8040276 29.9830838,6.2498791 30.3056461,6.83952298 L28.0846068,8.05309236 L28.7742359,5.61681187 Z M8.67087946,11.9713324 C8.49609482,11.50834 8.33196081,11.0533467 8.17790689,10.6059716 C8.02385295,10.1585964 7.8644737,9.7034127 7.70033969,9.24061081 L2.86304624,9.24061081 L1.89250646,11.9713324 L0.336561743,11.9713324 C0.747182039,10.8400389 1.13231686,9.79368762 1.49196625,8.83189773 C1.85142542,7.87029827 2.20289662,6.95745488 2.54733077,6.09374851 C2.89119434,5.22966122 3.23277567,4.40442643 3.57169433,3.61766324 C3.91061296,2.83090003 4.264937,2.05194544 4.63466644,1.28060897 L6.00574645,1.28060897 C6.37547589,2.05194544 6.72979993,2.83090003 7.06871856,3.61766324 C7.40763722,4.40442643 7.74902834,5.22966122 8.09327231,6.09374851 C8.43713591,6.95745488 8.78879729,7.87029827 9.14844664,8.83189773 C9.50790582,9.79368762 9.89304067,10.8400389 10.3038511,11.9713324 L8.67087946,11.9713324 Z M7.2689887,8.00666294 C6.94015012,7.11172217 6.61416439,6.24553991 6.2908413,5.40716382 C5.96713788,4.56897821 5.63069168,3.7643124 5.28169298,2.99278546 C4.92204359,3.7643124 4.58065247,4.56897821 4.25732941,5.40716382 C3.93381615,6.24553991 3.61258518,7.11172217 3.29439725,8.00666294 L7.2689887,8.00666294 Z M14.0625769,12.1254092 C13.1793344,12.1048402 12.5530386,11.9147677 12.1833091,11.5546202 C11.8133895,11.1948536 11.6289051,10.6343491 11.6289051,9.87310673 L11.6289051,0.246827667 L13.0612264,0 L13.0612264,9.64170578 C13.0612264,9.87862986 13.0819571,10.0738447 13.1228479,10.2281119 C13.1641192,10.3821888 13.2308759,10.5057931 13.323118,10.5983534 C13.4155504,10.6907234 13.5389837,10.7602389 13.6930377,10.8065191 C13.8472818,10.8527992 14.0370914,10.8914613 14.262847,10.9223148 L14.0625769,12.1254092 Z M20.8871661,11.168952 C20.7641131,11.2516088 20.5252344,11.3567391 20.1709104,11.4852951 C19.8165864,11.6138512 19.4031132,11.6782245 18.9306812,11.6782245 C18.4479788,11.6782245 17.9934246,11.6009004 17.5673989,11.4468236 C17.1411831,11.2923658 16.768791,11.0533467 16.4504128,10.7293854 C16.1320347,10.4052336 15.8804133,10.0018533 15.6955486,9.51848239 C15.5108741,9.03511155 15.4182515,8.45918033 15.4182515,7.79068873 C15.4182515,7.20447302 15.5053585,6.66701338 15.6801432,6.17850029 C15.8547377,5.69017764 16.1088315,5.26832326 16.4428053,4.91350849 C16.7763986,4.55869372 17.1845464,4.2810126 17.6674389,4.0804651 C18.1501412,3.87991763 18.6944651,3.77954867 19.3004106,3.77954867 C19.9679776,3.77954867 20.5507199,3.82868566 21.0490178,3.9261978 C21.5471255,4.02409089 21.9655436,4.11398492 22.3044623,4.19607036 L22.3044623,11.3542632 C22.3044623,12.5884015 21.9862743,13.4829613 21.3495181,14.0383236 C20.7123814,14.5936859 19.747167,14.8711765 18.453114,14.8711765 C17.9498711,14.8711765 17.4749666,14.8304195 17.0282102,14.7481436 C16.5814538,14.6654868 16.1936563,14.5681651 15.8651981,14.4550358 L16.1270898,13.2054707 C16.4144669,13.3182191 16.7663185,13.4187785 17.1822641,13.5061967 C17.5982097,13.5934244 18.0320332,13.6374191 18.4839248,13.6374191 C19.3363565,13.6374191 19.9499096,13.4677251 20.3249643,13.1281466 C20.6998289,12.788949 20.8871661,12.248823 20.8871661,11.50834 L20.8871661,11.168952 Z M20.2941535,5.09862923 C20.0526122,5.062824 19.7266265,5.04454045 19.3160062,5.04454045 C18.5457365,5.04454045 17.9525338,5.29689127 17.5365882,5.80064065 C17.1206425,6.30458047 16.9127648,6.97288161 16.9127648,7.805925 C16.9127648,8.26891732 16.9715335,8.66487005 17.0898318,8.99397359 C17.2079398,9.32326762 17.3671288,9.59542558 17.5673989,9.81159024 C17.767669,10.027374 17.99875,10.186974 18.2606416,10.2896284 C18.5225333,10.3926637 18.7922228,10.4438957 19.0695199,10.4438957 C19.4493294,10.4438957 19.7985183,10.3899974 20.1168964,10.2820103 C20.4350844,10.1738327 20.686896,10.0481334 20.8717607,9.90415063 L20.8717607,5.21442494 C20.7277868,5.17328698 20.5355047,5.1348154 20.2941535,5.09862923 Z M36.2130599,12.1255996 C35.329627,12.1048402 34.7033314,11.9149581 34.3336019,11.5548106 C33.9638725,11.1950441 33.7790078,10.6343491 33.7790078,9.87329716 L33.7790078,0.247018121 L35.2118995,0.00019045414 L35.2118995,9.64170578 C35.2118995,9.87862986 35.2322497,10.0738447 35.2733309,10.2281119 C35.3144119,10.3823792 35.3811686,10.5057931 35.4737913,10.5983534 C35.5660333,10.6909138 35.6890864,10.7604293 35.8433305,10.8067095 C35.9973844,10.8529897 36.1871939,10.8914613 36.4133301,10.9223148 L36.2130599,12.1255996 Z M38.7239487,2.4993206 C38.4673824,2.4993206 38.2488541,2.41437835 38.0695049,2.24487478 C37.889585,2.07499032 37.7998153,1.84644616 37.7998153,1.55829012 C37.7998153,1.27032451 37.889585,1.04139946 38.0695049,0.871895885 C38.2488541,0.702011395 38.4673824,0.61725961 38.7239487,0.61725961 C38.9807054,0.61725961 39.1990435,0.702011395 39.3789634,0.871895885 C39.5583126,1.04139946 39.6484625,1.27032451 39.6484625,1.55829012 C39.6484625,1.84644616 39.5583126,2.07499032 39.3789634,2.24487478 C39.1990435,2.41437835 38.9807054,2.4993206 38.7239487,2.4993206 Z M38.0154909,3.94943314 L39.4481924,3.94943314 L39.4481924,11.9713324 L38.0154909,11.9713324 L38.0154909,3.94943314 Z M44.5009711,3.74888566 C45.076106,3.74888566 45.5612807,3.82373385 45.9568759,3.97266847 C46.3520909,4.12179352 46.670469,4.33262548 46.9118201,4.6049739 C47.1531714,4.87770323 47.3252932,5.20166456 47.4279961,5.57704831 C47.5305084,5.95243205 47.5820499,6.36628738 47.5820499,6.81880478 L47.5820499,11.8326822 C47.4588066,11.8532512 47.2866848,11.8814383 47.0660642,11.917434 C46.8450633,11.9534297 46.5961047,11.9867591 46.3188075,12.0176125 C46.0415105,12.048466 45.7410104,12.0766531 45.4176871,12.1023643 C45.0939837,12.1278851 44.7729431,12.1410264 44.4547552,12.1410264 C44.0026734,12.1410264 43.5869179,12.0947462 43.2069181,12.0021858 C42.8269186,11.9096254 42.4982701,11.7629763 42.2209732,11.5626192 C41.9436759,11.3620718 41.7280004,11.0973415 41.5739465,10.7680475 C41.4198926,10.4389439 41.3428655,10.0429912 41.3428655,9.5801893 C41.3428655,9.13814686 41.4326353,8.7574304 41.6125552,8.43861135 C41.7919044,8.11998273 42.0359182,7.86287056 42.3442162,7.66727487 C42.652324,7.47206011 43.0117833,7.32788684 43.4225937,7.23532646 C43.8332141,7.1427661 44.2645649,7.0964859 44.7166467,7.0964859 C44.8602402,7.0964859 45.0093493,7.10410404 45.1634032,7.11953077 C45.3174571,7.13495751 45.4639034,7.15590738 45.6023616,7.18142814 C45.7410104,7.20713937 45.8617809,7.23018421 45.9646737,7.25075319 C46.0671863,7.27151263 46.1390781,7.28693934 46.180159,7.29703337 L46.180159,6.89593843 C46.180159,6.65939524 46.1544835,6.4255184 46.1031322,6.19392703 C46.0515907,5.96252609 45.9591582,5.7570268 45.825835,5.57704831 C45.6923216,5.39706979 45.5099294,5.25308698 45.2788484,5.14490943 C45.0477675,5.03711277 44.7472673,4.983024 44.3777281,4.983024 C43.9051058,4.983024 43.4920132,5.01654379 43.1374989,5.08339295 C42.7833648,5.15024214 42.5188105,5.21975762 42.3442162,5.29155859 L42.1747569,4.10370043 C42.3596216,4.021615 42.6679196,3.941815 43.0990805,3.86468135 C43.5304313,3.78735724 43.9977283,3.74888566 44.5009711,3.74888566 Z M44.6242145,10.9377415 C44.9631331,10.9377415 45.2636333,10.9299329 45.5255251,10.9145062 C45.7874166,10.8990794 46.0055647,10.8710828 46.180159,10.8297544 L46.180159,8.43861135 C46.0772662,8.38737936 45.9104697,8.34357508 45.6795789,8.30757939 C45.4483077,8.27158367 45.1685383,8.25330015 44.8398897,8.25330015 C44.6242145,8.25330015 44.395606,8.26891732 44.154445,8.29977079 C43.9130939,8.33062423 43.6920931,8.3949975 43.4920132,8.49250967 C43.2915528,8.59040275 43.124566,8.72391061 42.9912426,8.8937951 C42.8577291,9.06329864 42.7909724,9.28708145 42.7909724,9.56476257 C42.7909724,10.0789869 42.9551065,10.4362776 43.2839452,10.636825 C43.6125934,10.837563 44.0593499,10.9377415 44.6242145,10.9377415 Z"/>
</svg>
