<svg class="logo" xmlns="http://www.w3.org/2000/svg" width="32" height="20" viewBox="0 0 32 20">
  <path fill="#9B9B9B" fill-rule="evenodd" d="M19.1081234,18.667481 L19.1081234,16.3106655 C19.0451074,16.2850208 18.9804214,16.2707864 18.9145187,16.2707864 C18.8326064,16.2707864 18.7519294,16.2922738 18.6734947,16.3299993 L18.6734947,18.6176782 C18.7626698,18.6663029 18.8549349,18.6946147 18.9487175,18.6946147 C19.0027545,18.6946147 19.0559742,18.6850488 19.1081234,18.667481 Z M19.4149429,18.4703601 C19.6867744,18.2144488 19.9045439,17.79643 20.0181898,17.5256499 C19.9192436,17.269438 19.6985003,16.8146737 19.4149429,16.5286687 L19.4149429,18.4703601 Z M18.3666751,18.3666927 L18.3666751,16.5626437 C18.1149304,16.8212703 17.9094641,17.1956425 17.7963018,17.4458546 C17.8915647,17.6727166 18.1012562,18.0791939 18.3666751,18.3666927 Z M13.4571424,18.6252649 L13.4571424,16.3233201 C13.3832168,16.2897482 13.3073703,16.2707864 13.2304379,16.2707864 C13.1595322,16.2707864 13.0900361,16.287264 13.0225137,16.3167021 L13.0225137,18.6624755 C13.0791889,18.6832242 13.1371639,18.6946147 13.1961098,18.6946147 C13.2849308,18.6946147 13.3723859,18.6692351 13.4571424,18.6252649 Z M13.7639619,18.3820247 C14.0361933,18.0938124 14.2517607,17.6767799 14.3488488,17.4458546 C14.2334155,17.1909279 14.0222277,16.8071179 13.7639619,16.548149 L13.7639619,18.3820247 Z M16.2953847,18.6343778 L16.2953847,16.3272646 C16.2232024,16.2926781 16.1486512,16.2726415 16.0724298,16.2715292 C16.0001566,16.2725845 15.9293777,16.2906747 15.8606914,16.3220637 L15.8606914,18.6397355 C15.9293489,18.6720352 16.0001317,18.6911448 16.0724298,18.6932907 C16.1486792,18.6910287 16.2232349,18.6699179 16.2953847,18.6343778 Z M16.6021719,18.3911437 C16.8548609,18.115928 17.0521446,17.7167117 17.1487225,17.4746274 C17.0468469,17.2245979 16.8506953,16.8345052 16.6021719,16.5666918 L16.6021719,18.3911437 Z M15.5538395,18.4030158 L15.5538395,16.5549806 C15.3001438,16.8230253 15.0996449,17.2209285 14.9962341,17.4746274 C15.0942099,17.7202158 15.2958908,18.1275178 15.5538395,18.4030158 Z M12.7156618,18.4566656 L12.7156618,16.5433562 C12.4390292,16.8300336 12.2240539,17.2737809 12.1267022,17.5256499 C12.2384054,17.7916528 12.4505506,18.1997448 12.7156618,18.4566656 Z M27.7079562,6.49723782 C29.6565447,7.16414743 30.9582327,8.97286363 30.9582327,11.0426989 C30.9582327,13.112405 29.6565447,14.9210889 27.7079562,15.5879662 L26.9409073,17.3032595 L23.8274261,18.0716652 C23.8556772,18.0007826 23.8769141,17.9424942 23.8906195,17.9031294 L23.9839712,17.6335496 L26.5935858,16.9558543 L27.3606346,15.3384402 L27.4824638,15.3003994 C29.353604,14.7145446 30.6108142,13.0034816 30.6108142,11.0426989 C30.6108142,9.08185161 29.353604,7.37078865 27.4824638,6.78490153 L27.3606346,6.74692527 L26.440176,5.12947895 L23.4109958,4.36665992 L23.3610229,4.32064277 C23.1105118,4.08952365 22.805761,3.87458319 22.4596678,3.6762412 C22.4482897,3.53014886 22.4177112,3.37972929 22.3700656,3.23111811 C22.821923,3.46733949 23.2185063,3.73046071 23.5422959,4.01957758 L26.7874329,4.78207369 L27.7079562,6.49723782 Z M8.60288693,4.0195905 C8.92855137,3.72882669 9.32665391,3.46399396 9.78164672,3.22677151 C9.73345162,3.37916094 9.70432768,3.52925758 9.69262639,3.6696664 C9.34268662,3.86959073 9.03686913,4.08740525 8.78409535,4.32062339 L8.73412243,4.36667283 L5.55156473,5.12945957 L4.78441893,6.74693818 L4.66249275,6.78491444 C2.79151421,7.37076928 1.53436869,9.08186453 1.53436869,11.0426795 C1.53436869,13.0034622 2.79151421,14.7145575 4.66249275,15.3004123 L4.78441893,15.3384531 L5.55156473,16.9558672 L8.27056375,17.6553924 L8.35654563,17.9031423 C8.37183489,17.9465115 8.39552839,18.0122595 8.42859585,18.0935403 L5.20421089,17.3032724 L4.43716205,15.5879468 C2.48857356,14.9211018 1.18691787,13.1123856 1.18691787,11.0426795 C1.18691787,8.97287654 2.48857356,7.16416035 4.43716205,6.49725074 L5.20421089,4.78205431 L8.60288693,4.0195905 Z M26.8141681,7.16019803 C28.6719261,7.47883046 30.0886553,9.09598614 30.0886553,11.0426892 C30.0886553,12.9893277 28.6719261,14.6065157 26.8141681,14.9250189 L26.0470223,16.4256947 L23.6682982,17.0695796 L22.5914883,16.697761 L22.4158719,17.2046278 C22.2652097,17.6403214 21.9454606,18.0983293 21.7962529,18.1558104 C21.6284267,18.10017 21.2849194,17.612808 21.1244306,17.2002683 C20.9951023,16.8309686 20.3197567,15.1212296 18.9145348,15.1212296 C18.3953789,15.1212296 17.9096782,15.3608417 17.4834538,15.8215622 C17.0699327,15.3609709 16.5905029,15.1214879 16.0710884,15.1214879 C15.5528051,15.1214879 15.0744421,15.3609709 14.6614058,15.8214653 C14.2352784,15.3608417 13.7494161,15.1212296 13.2304218,15.1212296 C11.8252646,15.1212296 11.149822,16.8309686 11.0205259,17.2002683 C10.8600695,17.612808 10.516336,18.10017 10.348736,18.1558104 C10.199399,18.0983293 9.87981152,17.6403214 9.72892303,17.2046278 L9.55350061,16.697761 L8.47672308,17.0695796 L6.097805,16.4256947 L5.33075616,14.9250189 C3.47322442,14.6065157 2.05649524,12.9893277 2.05649524,11.0426892 C2.05649524,9.09598614 3.47322442,7.47883046 5.33075616,7.16019803 L6.097805,5.65945766 L8.92887137,4.89315101 C9.12795497,4.65050339 9.40109288,4.42174164 9.73490297,4.21051485 C9.84739053,4.68147212 10.1383713,5.2040009 10.5862205,5.44994238 C11.1953665,6.38016697 12.2354886,6.94838996 13.3585541,6.94838996 C14.4657162,6.94838996 15.4935552,6.38346082 16.101182,5.4885322 C16.7091321,6.38346082 17.7366478,6.94838996 18.8441331,6.94838996 C19.9932518,6.94838996 21.0513137,6.35652868 21.6548031,5.39039458 C22.0491883,5.12456077 22.304742,4.64033118 22.4093425,4.20980441 C22.7436374,4.42135413 23.0170663,4.65037422 23.2163115,4.89315101 L25.8936125,5.65945766 L26.8141681,7.16019803 Z M26.2883534,12.030524 C26.3742383,11.7302985 26.4172615,11.3975218 26.4172615,11.032743 C26.4172615,10.6637016 26.3752727,10.3310542 26.2915858,10.0350589 C26.2076726,9.73880537 26.0874596,9.48469382 25.9307528,9.27207844 C25.7738844,9.0597214 25.5837222,8.89673996 25.3605249,8.78297264 C25.1370044,8.66917304 24.8857175,8.61233782 24.6066643,8.61233782 C24.3229887,8.61233782 24.0663684,8.6702387 23.8365123,8.78610504 C23.6066886,8.90197138 23.4113223,9.06614766 23.2501224,9.27850469 C23.0890842,9.49105549 22.9657357,9.74752441 22.8796246,10.0479114 C22.793772,10.3482662 22.7507487,10.6809137 22.7507487,11.0456601 C22.7507487,11.4104066 22.7927376,11.7419561 22.8764568,12.0402441 C22.9601114,12.3385644 23.080389,12.5938062 23.2372251,12.8062925 C23.3940936,13.0187464 23.5839325,13.1829226 23.8076147,13.2987567 C24.0308443,13.4145584 24.2821312,13.4725239 24.561346,13.4725239 C24.8451832,13.4725239 25.1016419,13.4135574 25.3314333,13.2954951 C25.5613217,13.1774975 25.7568173,13.0122878 25.9178555,12.7998016 C26.0789261,12.5873154 26.2022422,12.3311371 26.2883534,12.030524 Z M24.5807986,9.47498016 C24.8385503,9.47498016 25.0382157,9.61235347 25.1798272,9.88703549 C25.3217296,10.1616529 25.3927778,10.5456782 25.3927778,11.0392081 C25.3927778,11.5285399 25.3217296,11.9135985 25.1798272,12.1947068 C25.0382157,12.475815 24.8385503,12.6163207 24.5807986,12.6163207 C24.3229823,12.6163207 24.1242866,12.475815 23.9847761,12.1947068 C23.8451041,11.9135985 23.7754135,11.5285399 23.7754135,11.0392081 C23.7754135,10.5456782 23.8451041,10.1616529 23.9847761,9.88703549 C24.1242866,9.61235347 24.3229823,9.47498016 24.5807986,9.47498016 Z M20.8821622,13.4017059 L21.8617414,13.4017059 L21.8617414,8.6831235 L20.8821622,8.6831235 L20.8821622,13.4017059 Z M19.9287008,12.6228374 C20.0017207,12.4554964 20.0382145,12.2730425 20.0382145,12.0756047 C20.0382145,11.8052176 19.9738574,11.5758423 19.8449492,11.386736 C19.716138,11.197985 19.5291436,11.0564459 19.2843215,10.9619574 C19.4861527,10.8504505 19.6452515,10.7076521 19.7611654,10.5338848 C19.8772086,10.3601176 19.9351656,10.148794 19.9351656,9.89984925 C19.9351656,9.73673863 19.9007082,9.58018344 19.8320843,9.42982846 C19.7632988,9.27969953 19.6581488,9.14668574 19.516214,9.0308194 C19.3745055,8.91485618 19.1941052,8.82156247 18.9750454,8.75077679 C18.7558563,8.6800234 18.4980399,8.64450139 18.201855,8.64450139 C18.1374009,8.64450139 18.0587889,8.64672959 17.9666331,8.65095994 C17.8741541,8.65528716 17.778572,8.66064776 17.6799192,8.6671063 C17.5808461,8.67359714 17.4853932,8.68102447 17.3931082,8.68954976 C17.3006615,8.6982688 17.2202394,8.70886081 17.1514539,8.72171332 L17.1514539,13.3695424 C17.3320158,13.3952797 17.5241821,13.4135574 17.7282759,13.4243431 C17.9321758,13.4349352 18.1052062,13.4403603 18.2470116,13.4403603 C18.5474633,13.4403603 18.8105485,13.4059363 19.0362024,13.3373788 C19.2618564,13.2688213 19.4486892,13.1743974 19.5968301,13.0541715 C19.7450034,12.9339779 19.8555838,12.7901461 19.9287008,12.6228374 Z M18.3629094,11.3417167 C18.5690719,11.3417167 18.7290435,11.3987457 18.8429856,11.5123193 C18.9566369,11.6261189 19.0137534,11.7774103 19.0137534,11.9661937 C19.0137534,12.184977 18.9566369,12.3449875 18.8429856,12.4457408 C18.7290435,12.5466556 18.5732417,12.5970969 18.375742,12.5970969 C18.3068919,12.5970969 18.25443,12.5960312 18.2179039,12.593803 C18.1813454,12.5916717 18.1415869,12.5864403 18.0987899,12.5777858 L18.0987899,11.3610278 C18.1287219,11.3525025 18.1684481,11.3472711 18.2179039,11.3450106 C18.267295,11.3429116 18.315587,11.3417167 18.3629094,11.3417167 Z M18.3306791,10.6659008 C18.2833244,10.6659008 18.2415295,10.6648997 18.204971,10.6626069 C18.1684449,10.6605402 18.1330824,10.6572463 18.0987866,10.6530483 L18.0987866,9.53923948 C18.1846069,9.51786169 18.2748232,9.50707592 18.3693386,9.50707592 C18.5539088,9.50707592 18.6968455,9.5564838 18.7979874,9.65517041 C18.8986767,9.7538893 18.9493607,9.89345851 18.9493607,10.073652 C18.9493607,10.2795828 18.8965756,10.4298732 18.7913933,10.524168 C18.6860493,10.6185919 18.5325103,10.6659008 18.3306791,10.6659008 Z M14.6062934,11.650826 L15.875722,8.6831235 L14.8254502,8.6831235 L14.1165846,10.549902 L13.4142807,8.6831235 L12.3511116,8.6831235 L13.6270051,11.6443352 L13.6270051,13.4017059 L14.6062934,13.4017059 L14.6062934,11.650826 Z M10.7208823,13.4017059 L11.7004292,13.4017059 L11.7004292,8.6831235 L10.7208823,8.6831235 L10.7208823,13.4017059 Z M9.68997259,12.011213 C9.7846173,11.7109551 9.83184268,11.376144 9.83184268,11.0070703 C9.83184268,10.6422593 9.78348596,10.3140359 9.68667554,10.0221418 C9.59018836,9.73031238 9.44518284,9.4825625 9.25185291,9.27850469 C9.05861996,9.07486669 8.81696564,8.91811775 8.52692227,8.80867766 C8.23700819,8.69933446 7.89870507,8.64450139 7.5121422,8.64450139 C7.32304672,8.64450139 7.15021022,8.65095994 6.99343876,8.66381245 C6.83660265,8.67669725 6.67010165,8.69390928 6.49390346,8.71535165 L6.49390346,13.3695424 C6.68299893,13.3911139 6.85486571,13.4081968 7.00943914,13.4210816 C7.16410955,13.4338695 7.33817436,13.4403603 7.53131034,13.4403603 C7.91784089,13.4403603 8.25523894,13.3834605 8.54308428,13.2696932 C8.83086497,13.1560874 9.07028893,12.9930091 9.26148547,12.7805874 C9.45258504,12.5680366 9.59526323,12.3117615 9.68997259,12.011213 Z M7.71833385,9.53288104 C8.06617255,9.53288104 8.33465581,9.66382809 8.52378361,9.92562531 C8.7124912,10.1873902 8.80720056,10.5499085 8.80720056,11.0134384 C8.80720056,11.2494984 8.78473537,11.46192 8.73964337,11.6508325 C8.69455137,11.8396804 8.62783461,12.0016285 8.53994561,12.1368059 C8.45183035,12.271951 8.3421873,12.3760951 8.2112104,12.4490121 C8.0801042,12.5220905 7.92653281,12.5584844 7.75049624,12.5584844 C7.68607448,12.5584844 7.63551972,12.5574188 7.59905824,12.5551583 C7.56246745,12.5530593 7.52064018,12.5478278 7.47354409,12.5391411 L7.47354409,9.54566897 C7.52064018,9.54153549 7.56143309,9.53824164 7.59569654,9.53611032 C7.63018626,9.53407587 7.67091452,9.53288104 7.71833385,9.53288104 Z M23.5035912,17.5802569 C23.4424018,17.7571888 22.8745012,19.3076923 21.797756,19.3076923 C21.1370209,19.3076923 20.6491868,18.7214177 20.3567838,18.2315368 C20.0786357,18.7237105 19.6098728,19.3076923 18.9487175,19.3076923 C18.2721112,19.3076923 17.7764871,18.6923542 17.486767,18.1957888 C17.2134675,18.6910302 16.7428945,19.2977139 16.073949,19.3068527 L16.073949,19.3069819 L16.0718157,19.3068527 C16.0718157,19.3068527 16.0714924,19.3069819 16.0711045,19.3069819 L16.0711045,19.3068527 C15.4021267,19.2977139 14.9313275,18.6910302 14.6580926,18.1957888 C14.3684695,18.6923542 13.8728777,19.3076923 13.1961098,19.3076923 C12.5350837,19.3076923 12.0663209,18.7237105 11.7882374,18.2315368 C11.4958021,18.7214177 11.0079681,19.3076923 10.3470713,19.3076923 C9.27042306,19.3076923 8.70261944,17.7571888 8.64117149,17.5802569 L9.22145218,17.3800743 C9.3395318,17.7209887 9.79959948,18.6946147 10.3470713,18.6946147 C10.8980341,18.6946147 11.396729,17.7180177 11.5246674,17.3851119 C11.5859861,17.2083415 12.1536281,15.6576442 13.2304379,15.6576442 C13.8905912,15.6576442 14.3779081,16.2444033 14.6705374,16.7354789 C14.9472309,16.2451783 15.4136664,15.6630694 16.0711045,15.6580963 L16.0711045,15.6579672 C16.0714924,15.6579672 16.0724298,15.6580963 16.0724298,15.6580963 L16.073949,15.6579672 L16.073949,15.6580963 C16.7313548,15.6630694 17.1977257,16.2451783 17.4744839,16.7354789 C17.7669516,16.2444033 18.25443,15.6576442 18.9145187,15.6576442 C19.9913285,15.6576442 20.5590352,17.2083415 20.6202892,17.3851119 C20.7482599,17.7180177 21.2470195,18.6946147 21.797756,18.6946147 C22.3452925,18.6946147 22.8054571,17.7209887 22.9235691,17.3800743 L23.5035912,17.5802569 Z M21.3725368,2.82518549 C21.6311613,3.04897416 21.8103333,3.49503374 21.8103333,3.79971571 C21.8103333,4.17272911 21.5421409,4.75871312 21.1873849,4.88746426 C20.7418307,5.71503023 19.8671752,6.27779576 18.8603145,6.27779576 C17.732756,6.27779576 16.7727005,5.57071399 16.3936368,4.57713106 L15.8089923,4.57713106 C15.4299933,5.57071399 14.4701964,6.27779576 13.3426055,6.27779576 C12.3436318,6.27779576 11.4749563,5.72371698 11.0261051,4.90674303 C10.638023,4.83460105 10.3348237,4.1963674 10.3348237,3.79971571 C10.3348237,3.46442022 10.5514269,2.95784406 10.8525574,2.7647012 C11.2085741,1.7531958 12.1617123,1.02438102 13.2911456,1.00255113 L13.2911456,1 L19.0295954,1 L19.0295954,1.00855758 C20.129323,1.07830989 21.0456441,1.81771669 21.3725368,2.82518549 Z M18.8192954,5.48588097 C19.8081193,5.48588097 20.6096578,4.68505339 20.6096578,3.69721856 C20.6096578,3.4400715 20.5545454,3.19613216 20.4565066,2.97512067 L19.4314475,3.87130871 L19.2294871,3.64048022 L20.3055212,2.6997605 C20.2279112,2.58421709 20.1356262,2.47962092 20.0334823,2.38526154 L18.1339616,3.87641096 L17.9442843,3.63541026 L19.7835207,2.1915697 C19.5051463,2.01315233 19.1746656,1.90842698 18.8192954,1.90842698 C17.8304068,1.90842698 17.0285774,2.70935145 17.0285774,3.69721856 C17.0285774,4.68505339 17.8304068,5.48588097 18.8192954,5.48588097 Z M13.4142678,5.48588097 C14.4030917,5.48588097 15.2046949,4.68505339 15.2046949,3.69721856 C15.2046949,3.38811248 15.1261476,3.09741327 14.9879947,2.84391528 L13.6725367,3.87641096 L13.4828594,3.63541026 L14.8171946,2.58805993 C14.7141134,2.45804937 14.5933508,2.34328098 14.4585597,2.24607984 L12.3813863,3.87641096 L12.191709,3.63541026 L14.1742054,2.07932015 C13.9434119,1.97081655 13.6863067,1.90842698 13.4142678,1.90842698 C12.4253793,1.90842698 11.6241316,2.70935145 11.6241316,3.69721856 C11.6241316,4.68505339 12.4253793,5.48588097 13.4142678,5.48588097 Z"/>
</svg>
