<svg class="logo" xmlns="http://www.w3.org/2000/svg" width="45" height="20" viewBox="0 0 45 20">
  <path fill="#9B9B9B" fill-rule="evenodd" d="M19.3500226,13.8101852 L19.3315393,13.8101852 C19.3398568,13.8101852 19.3454018,13.818215 19.3537193,13.8199994 C19.3546435,13.8199994 19.3583401,13.8191072 19.3592643,13.8191072 L19.3500226,13.8101852 Z M19.3537193,13.8199994 C19.2677716,13.8208916 19.0515161,13.8637174 18.8232464,13.8637174 C18.1023948,13.8637174 17.8528692,13.5425244 17.8528692,13.123189 L17.8528692,10.3305942 L19.3222976,10.3305942 C19.4054728,10.3305942 19.4701646,10.259218 19.4701646,10.1610757 L19.4701646,8.64433091 C19.4701646,8.56403266 19.3962311,8.49265643 19.3222976,8.49265643 L17.8528692,8.49265643 L17.8528692,6.61010849 C17.8528692,6.53873227 17.8066608,6.49412213 17.7234856,6.49412213 L15.7272811,6.49412213 C15.6441059,6.49412213 15.5978974,6.53873227 15.5978974,6.61010849 L15.5978974,8.5461886 C15.5978974,8.5461886 14.5905535,8.78708336 14.5258617,8.79600539 C14.4519282,8.81384945 14.4057197,8.87630364 14.4057197,8.94767987 L14.4057197,10.1610757 C14.4057197,10.259218 14.4796532,10.3305942 14.5628284,10.3305942 L15.5886557,10.3305942 L15.5886557,13.2570195 C15.5886557,15.4339943 17.1597426,15.657045 18.2317784,15.657045 C18.7215879,15.657045 19.3130559,15.5053706 19.4054728,15.4607604 C19.4609229,15.4429164 19.4886479,15.3804622 19.4886479,15.318008 L19.4886479,13.9797037 C19.4886479,13.8913757 19.4258045,13.8324903 19.3537193,13.8199994 L19.3537193,13.8199994 Z M41.2528224,11.856261 C41.2528224,10.2413739 40.5781792,10.0272453 39.8665693,10.0986215 C39.312068,10.1343096 38.868467,10.4019705 38.868467,10.4019705 L38.868467,13.5425244 C38.868467,13.5425244 39.3213097,13.8458733 39.9959529,13.8637174 C40.9478467,13.8904835 41.2528224,13.5603684 41.2528224,11.856261 L41.2528224,11.856261 Z M43.4985525,11.7135086 C43.4985525,14.7737643 42.4727252,15.648123 40.6798378,15.648123 C39.164201,15.648123 38.3509325,14.9075947 38.3509325,14.9075947 C38.3509325,14.9075947 38.3139657,15.318008 38.2677573,15.3715401 C38.2400322,15.4250723 38.1938238,15.4429164 38.1383737,15.4429164 L36.7706039,15.4429164 C36.678187,15.4429164 36.5950118,15.3715401 36.5950118,15.2912419 L36.6134952,5.37886861 C36.6134952,5.29857035 36.6874287,5.22719413 36.7706039,5.22719413 L38.7390834,5.22719413 C38.8222586,5.22719413 38.8961921,5.29857035 38.8961921,5.37886861 L38.8961921,8.74247322 C38.8961921,8.74247322 39.6540105,8.26960573 40.763013,8.26960573 L40.7537713,8.25176167 C41.8627738,8.25176167 43.4985525,8.65325294 43.4985525,11.7135086 L43.4985525,11.7135086 Z M35.4398009,8.49265643 L35.4305592,8.49265643 L33.4990465,8.49265643 C33.3973879,8.49265643 33.3419378,8.56403266 33.3419378,8.66217497 L33.3419378,13.5157583 C33.3419378,13.5157583 32.8336449,13.8637174 32.1405184,13.8637174 C31.4473918,13.8637174 31.2440747,13.5603684 31.2440747,12.8912163 L31.2440747,8.65325294 C31.2440747,8.57295469 31.1701412,8.50157846 31.086966,8.50157846 L29.1092448,8.50157846 C29.0260696,8.50157846 28.9521361,8.57295469 28.9521361,8.65325294 L28.9521361,13.2124093 C28.9521361,15.1752555 30.0888637,15.6659671 31.6507089,15.6659671 C32.9353035,15.6659671 33.9796142,14.9789709 33.9796142,14.9789709 C33.9796142,14.9789709 34.0258227,15.32693 34.0535477,15.3804622 C34.0720311,15.4250723 34.1367229,15.4607604 34.2014147,15.4607604 L35.4398009,15.4607604 C35.5414594,15.4607604 35.5969096,15.3893842 35.5969096,15.3090859 L35.6153929,8.64433091 C35.6153929,8.56403266 35.5414594,8.49265643 35.4398009,8.49265643 L35.4398009,8.49265643 Z M13.5370011,8.4837344 L11.5685216,8.4837344 C11.4853464,8.4837344 11.4114129,8.56403266 11.4114129,8.66217497 L11.4114129,15.2109436 C11.4114129,15.3893842 11.5315549,15.4518384 11.6886635,15.4518384 L13.4630676,15.4518384 C13.6479013,15.4518384 13.6941098,15.3715401 13.6941098,15.2109436 L13.6941098,8.64433091 L13.6941098,8.63540888 C13.6941098,8.55511063 13.6201763,8.4837344 13.5370011,8.4837344 L13.5370011,8.4837344 Z M12.5666239,5.46808889 C11.8550139,5.46808889 11.291271,6.01233261 11.291271,6.69932877 C11.291271,7.38632494 11.8550139,7.93056866 12.5666239,7.93056866 C13.2597504,7.93056866 13.8234934,7.38632494 13.8234934,6.69932877 C13.8234934,6.01233261 13.2597504,5.46808889 12.5666239,5.46808889 L12.5666239,5.46808889 Z M27.8061669,5.24503818 L25.8561708,5.24503818 C25.7729956,5.24503818 25.6990621,5.31641441 25.6990621,5.39671266 L25.6990621,9.04582218 L22.6400634,9.04582218 L22.6400634,5.39671266 C22.6400634,5.31641441 22.5661299,5.24503818 22.4829548,5.24503818 L20.5144753,5.24503818 C20.4313001,5.24503818 20.3573666,5.31641441 20.3573666,5.39671266 L20.3573666,15.3090859 C20.3573666,15.3893842 20.4405418,15.4607604 20.5144753,15.4607604 L22.4829548,15.4607604 C22.5661299,15.4607604 22.6400634,15.3893842 22.6400634,15.3090859 L22.6400634,11.0711226 L25.6990621,11.0711226 L25.6805787,15.3090859 C25.6805787,15.3893842 25.7545122,15.4607604 25.8376874,15.4607604 L27.8061669,15.4607604 C27.889342,15.4607604 27.9632755,15.3893842 27.9632755,15.3090859 L27.9632755,5.39671266 C27.9632755,5.31641441 27.889342,5.24503818 27.8061669,5.24503818 L27.8061669,5.24503818 Z M10.3671022,9.63467604 L10.3671022,14.7559202 C10.3671022,14.7916083 10.3578605,14.8540625 10.3116521,14.8719066 C10.3116521,14.8719066 9.15644112,15.6659671 7.25265346,15.6659671 C4.95147323,15.6659671 2.22517536,14.9700489 2.22517536,10.3841264 C2.22517536,5.79820393 4.60953078,4.85246895 6.93843608,4.86139097 C8.95312399,4.86139097 9.76639251,5.29857035 9.89577613,5.37886861 C9.93274288,5.42347875 9.95122626,5.45916686 9.95122626,5.503777 L9.56307538,7.09189801 C9.56307538,7.17219627 9.47990019,7.27033858 9.37824162,7.24357249 C9.04554087,7.14543018 8.54648973,6.94914556 7.3727954,6.94914556 C6.01426731,6.94914556 4.55408066,7.32387074 4.55408066,10.2770621 C4.55408066,13.2302534 5.94033381,13.5782125 6.93843608,13.5782125 C7.78867134,13.5782125 8.09364704,13.4800702 8.09364704,13.4800702 L8.09364704,11.4280037 L6.73511895,11.4280037 C6.63346038,11.4280037 6.55952688,11.3566275 6.55952688,11.2763292 L6.55952688,9.63467604 C6.55952688,9.55437778 6.63346038,9.48300156 6.73511895,9.48300156 L10.1915101,9.48300156 C10.2931687,9.48300156 10.3671022,9.55437778 10.3671022,9.63467604 Z M-10.7131874,3.07692308 C-6.62836143,3.07692308 -3.31983725,6.27100916 -3.31983725,10.2145456 C-3.31983725,13.3640215 -5.43618372,16.04063 -8.35655703,16.986365 C-8.72622454,17.0577412 -8.86484985,16.8346905 -8.86484985,16.6473279 C-8.86484985,16.4064331 -8.85560816,15.6391387 -8.85560816,14.6844817 C-8.85560816,14.0153296 -9.08665036,13.5870722 -9.3546593,13.3640215 C-7.70963889,13.185581 -5.9814433,12.5788831 -5.9814433,9.83982042 C-5.9814433,9.05468194 -6.26793562,8.42121794 -6.73926169,7.92158436 C-6.66532819,7.7431438 -6.40656093,7.01153749 -6.81319519,6.0301144 C-6.81319519,6.0301144 -7.43238826,5.83382978 -8.84636648,6.7617207 C-9.43783449,6.6011242 -10.0662693,6.52082594 -10.694704,6.52082594 C-11.3231388,6.52082594 -11.9515735,6.6011242 -12.5430415,6.7617207 C-13.9570198,5.8427518 -14.5762128,6.0301144 -14.5762128,6.0301144 C-14.9828471,7.01153749 -14.7240798,7.7431438 -14.6501463,7.92158436 C-15.1214724,8.42121794 -15.4079647,9.06360397 -15.4079647,9.83982042 C-15.4079647,12.569961 -13.6890108,13.185581 -12.0439904,13.3640215 C-12.2565492,13.5424621 -12.4506247,13.8547331 -12.5153165,14.3186785 C-12.9404341,14.5060411 -14.0032282,14.8093901 -14.6686297,13.7298247 C-14.807255,13.515696 -15.223131,12.9892964 -15.8053573,12.9982184 C-16.4245504,13.0071404 -16.0548829,13.3372555 -15.7961156,13.4710859 C-15.4818982,13.6406044 -15.1214724,14.2740684 -15.0382972,14.4792751 C-14.8904302,14.8807663 -14.4098625,15.6480607 -12.5522832,15.3179457 C-12.5522832,15.9157216 -12.5430415,16.4778094 -12.5430415,16.6473279 C-12.5430415,16.8346905 -12.6816669,17.0488192 -13.0513344,16.986365 C-15.9901911,16.04063 -18.1065375,13.3729436 -18.1065375,10.2145456 C-18.1065375,6.27100916 -14.7980133,3.07692308 -10.7131874,3.07692308 Z"/>
</svg>
