<svg class="logo" xmlns="http://www.w3.org/2000/svg" width="64" height="20" viewBox="0 0 64 20">
  <path fill="#9B9B9B" fill-rule="evenodd" d="M38.3500226,13.8101852 L38.3315393,13.8101852 C38.3398568,13.8101852 38.3454018,13.818215 38.3537193,13.8199994 C38.3546435,13.8199994 38.3583401,13.8191072 38.3592643,13.8191072 L38.3500226,13.8101852 Z M38.3537193,13.8199994 C38.2677716,13.8208916 38.0515161,13.8637174 37.8232464,13.8637174 C37.1023948,13.8637174 36.8528692,13.5425244 36.8528692,13.123189 L36.8528692,10.3305942 L38.3222976,10.3305942 C38.4054728,10.3305942 38.4701646,10.259218 38.4701646,10.1610757 L38.4701646,8.64433091 C38.4701646,8.56403266 38.3962311,8.49265643 38.3222976,8.49265643 L36.8528692,8.49265643 L36.8528692,6.61010849 C36.8528692,6.53873227 36.8066608,6.49412213 36.7234856,6.49412213 L34.7272811,6.49412213 C34.6441059,6.49412213 34.5978974,6.53873227 34.5978974,6.61010849 L34.5978974,8.5461886 C34.5978974,8.5461886 33.5905535,8.78708336 33.5258617,8.79600539 C33.4519282,8.81384945 33.4057197,8.87630364 33.4057197,8.94767987 L33.4057197,10.1610757 C33.4057197,10.259218 33.4796532,10.3305942 33.5628284,10.3305942 L34.5886557,10.3305942 L34.5886557,13.2570195 C34.5886557,15.4339943 36.1597426,15.657045 37.2317784,15.657045 C37.7215879,15.657045 38.3130559,15.5053706 38.4054728,15.4607604 C38.4609229,15.4429164 38.4886479,15.3804622 38.4886479,15.318008 L38.4886479,13.9797037 C38.4886479,13.8913757 38.4258045,13.8324903 38.3537193,13.8199994 L38.3537193,13.8199994 Z M60.2528224,11.856261 C60.2528224,10.2413739 59.5781792,10.0272453 58.8665693,10.0986215 C58.312068,10.1343096 57.868467,10.4019705 57.868467,10.4019705 L57.868467,13.5425244 C57.868467,13.5425244 58.3213097,13.8458733 58.9959529,13.8637174 C59.9478467,13.8904835 60.2528224,13.5603684 60.2528224,11.856261 L60.2528224,11.856261 Z M62.4985525,11.7135086 C62.4985525,14.7737643 61.4727252,15.648123 59.6798378,15.648123 C58.164201,15.648123 57.3509325,14.9075947 57.3509325,14.9075947 C57.3509325,14.9075947 57.3139657,15.318008 57.2677573,15.3715401 C57.2400322,15.4250723 57.1938238,15.4429164 57.1383737,15.4429164 L55.7706039,15.4429164 C55.678187,15.4429164 55.5950118,15.3715401 55.5950118,15.2912419 L55.6134952,5.37886861 C55.6134952,5.29857035 55.6874287,5.22719413 55.7706039,5.22719413 L57.7390834,5.22719413 C57.8222586,5.22719413 57.8961921,5.29857035 57.8961921,5.37886861 L57.8961921,8.74247322 C57.8961921,8.74247322 58.6540105,8.26960573 59.763013,8.26960573 L59.7537713,8.25176167 C60.8627738,8.25176167 62.4985525,8.65325294 62.4985525,11.7135086 L62.4985525,11.7135086 Z M54.4398009,8.49265643 L54.4305592,8.49265643 L52.4990465,8.49265643 C52.3973879,8.49265643 52.3419378,8.56403266 52.3419378,8.66217497 L52.3419378,13.5157583 C52.3419378,13.5157583 51.8336449,13.8637174 51.1405184,13.8637174 C50.4473918,13.8637174 50.2440747,13.5603684 50.2440747,12.8912163 L50.2440747,8.65325294 C50.2440747,8.57295469 50.1701412,8.50157846 50.086966,8.50157846 L48.1092448,8.50157846 C48.0260696,8.50157846 47.9521361,8.57295469 47.9521361,8.65325294 L47.9521361,13.2124093 C47.9521361,15.1752555 49.0888637,15.6659671 50.6507089,15.6659671 C51.9353035,15.6659671 52.9796142,14.9789709 52.9796142,14.9789709 C52.9796142,14.9789709 53.0258227,15.32693 53.0535477,15.3804622 C53.0720311,15.4250723 53.1367229,15.4607604 53.2014147,15.4607604 L54.4398009,15.4607604 C54.5414594,15.4607604 54.5969096,15.3893842 54.5969096,15.3090859 L54.6153929,8.64433091 C54.6153929,8.56403266 54.5414594,8.49265643 54.4398009,8.49265643 L54.4398009,8.49265643 Z M32.5370011,8.4837344 L30.5685216,8.4837344 C30.4853464,8.4837344 30.4114129,8.56403266 30.4114129,8.66217497 L30.4114129,15.2109436 C30.4114129,15.3893842 30.5315549,15.4518384 30.6886635,15.4518384 L32.4630676,15.4518384 C32.6479013,15.4518384 32.6941098,15.3715401 32.6941098,15.2109436 L32.6941098,8.64433091 L32.6941098,8.63540888 C32.6941098,8.55511063 32.6201763,8.4837344 32.5370011,8.4837344 L32.5370011,8.4837344 Z M31.5666239,5.46808889 C30.8550139,5.46808889 30.291271,6.01233261 30.291271,6.69932877 C30.291271,7.38632494 30.8550139,7.93056866 31.5666239,7.93056866 C32.2597504,7.93056866 32.8234934,7.38632494 32.8234934,6.69932877 C32.8234934,6.01233261 32.2597504,5.46808889 31.5666239,5.46808889 L31.5666239,5.46808889 Z M46.8061669,5.24503818 L44.8561708,5.24503818 C44.7729956,5.24503818 44.6990621,5.31641441 44.6990621,5.39671266 L44.6990621,9.04582218 L41.6400634,9.04582218 L41.6400634,5.39671266 C41.6400634,5.31641441 41.5661299,5.24503818 41.4829548,5.24503818 L39.5144753,5.24503818 C39.4313001,5.24503818 39.3573666,5.31641441 39.3573666,5.39671266 L39.3573666,15.3090859 C39.3573666,15.3893842 39.4405418,15.4607604 39.5144753,15.4607604 L41.4829548,15.4607604 C41.5661299,15.4607604 41.6400634,15.3893842 41.6400634,15.3090859 L41.6400634,11.0711226 L44.6990621,11.0711226 L44.6805787,15.3090859 C44.6805787,15.3893842 44.7545122,15.4607604 44.8376874,15.4607604 L46.8061669,15.4607604 C46.889342,15.4607604 46.9632755,15.3893842 46.9632755,15.3090859 L46.9632755,5.39671266 C46.9632755,5.31641441 46.889342,5.24503818 46.8061669,5.24503818 L46.8061669,5.24503818 Z M29.3671022,9.63467604 L29.3671022,14.7559202 C29.3671022,14.7916083 29.3578605,14.8540625 29.3116521,14.8719066 C29.3116521,14.8719066 28.1564411,15.6659671 26.2526535,15.6659671 C23.9514732,15.6659671 21.2251754,14.9700489 21.2251754,10.3841264 C21.2251754,5.79820393 23.6095308,4.85246895 25.9384361,4.86139097 C27.953124,4.86139097 28.7663925,5.29857035 28.8957761,5.37886861 C28.9327429,5.42347875 28.9512263,5.45916686 28.9512263,5.503777 L28.5630754,7.09189801 C28.5630754,7.17219627 28.4799002,7.27033858 28.3782416,7.24357249 C28.0455409,7.14543018 27.5464897,6.94914556 26.3727954,6.94914556 C25.0142673,6.94914556 23.5540807,7.32387074 23.5540807,10.2770621 C23.5540807,13.2302534 24.9403338,13.5782125 25.9384361,13.5782125 C26.7886713,13.5782125 27.093647,13.4800702 27.093647,13.4800702 L27.093647,11.4280037 L25.7351189,11.4280037 C25.6334604,11.4280037 25.5595269,11.3566275 25.5595269,11.2763292 L25.5595269,9.63467604 C25.5595269,9.55437778 25.6334604,9.48300156 25.7351189,9.48300156 L29.1915101,9.48300156 C29.2931687,9.48300156 29.3671022,9.55437778 29.3671022,9.63467604 Z M8.28681261,3.07692308 C12.3716386,3.07692308 15.6801628,6.27100916 15.6801628,10.2145456 C15.6801628,13.3640215 13.5638163,16.04063 10.643443,16.986365 C10.2737755,17.0577412 10.1351501,16.8346905 10.1351501,16.6473279 C10.1351501,16.4064331 10.1443918,15.6391387 10.1443918,14.6844817 C10.1443918,14.0153296 9.91334964,13.5870722 9.6453407,13.3640215 C11.2903611,13.185581 13.0185567,12.5788831 13.0185567,9.83982042 C13.0185567,9.05468194 12.7320644,8.42121794 12.2607383,7.92158436 C12.3346718,7.7431438 12.5934391,7.01153749 12.1868048,6.0301144 C12.1868048,6.0301144 11.5676117,5.83382978 10.1536335,6.7617207 C9.56216551,6.6011242 8.93373075,6.52082594 8.30529599,6.52082594 C7.67686123,6.52082594 7.04842646,6.6011242 6.45695845,6.7617207 C5.04298024,5.8427518 4.42378716,6.0301144 4.42378716,6.0301144 C4.0171529,7.01153749 4.27592016,7.7431438 4.34985366,7.92158436 C3.87852759,8.42121794 3.59203527,9.06360397 3.59203527,9.83982042 C3.59203527,12.569961 5.31098918,13.185581 6.95600959,13.3640215 C6.74345077,13.5424621 6.54937533,13.8547331 6.48468351,14.3186785 C6.05956588,14.5060411 4.9967718,14.8093901 4.33137029,13.7298247 C4.19274497,13.515696 3.77686903,12.9892964 3.1946427,12.9982184 C2.57544963,13.0071404 2.94511713,13.3372555 3.20388439,13.4710859 C3.51810177,13.6406044 3.87852759,14.2740684 3.96170278,14.4792751 C4.10956978,14.8807663 4.59013754,15.6480607 6.44771676,15.3179457 C6.44771676,15.9157216 6.45695845,16.4778094 6.45695845,16.6473279 C6.45695845,16.8346905 6.31833314,17.0488192 5.94866563,16.986365 C3.00980895,16.04063 0.89346247,13.3729436 0.89346247,10.2145456 C0.89346247,6.27100916 4.20198666,3.07692308 8.28681261,3.07692308 Z"/>
</svg>
