<svg xmlns="http://www.w3.org/2000/svg" width="42" height="12" viewBox="0 0 42 12">
  <path fill="#9B9B9B" fill-rule="evenodd" d="M17.3500226,9.81018521 L17.3315393,9.81018521 C17.3398568,9.81018521 17.3454018,9.81821504 17.3537193,9.81999944 C17.3546435,9.81999944 17.3583401,9.81910724 17.3592643,9.81910724 L17.3500226,9.81018521 Z M17.3537193,9.81999944 C17.2677716,9.82089164 17.0515161,9.86371738 16.8232464,9.86371738 C16.1023948,9.86371738 15.8528692,9.54252437 15.8528692,9.12318904 L15.8528692,6.33059423 L17.3222976,6.33059423 C17.4054728,6.33059423 17.4701646,6.25921801 17.4701646,6.1610757 L17.4701646,4.64433091 C17.4701646,4.56403266 17.3962311,4.49265643 17.3222976,4.49265643 L15.8528692,4.49265643 L15.8528692,2.61010849 C15.8528692,2.53873227 15.8066608,2.49412213 15.7234856,2.49412213 L13.7272811,2.49412213 C13.6441059,2.49412213 13.5978974,2.53873227 13.5978974,2.61010849 L13.5978974,4.5461886 C13.5978974,4.5461886 12.5905535,4.78708336 12.5258617,4.79600539 C12.4519282,4.81384945 12.4057197,4.87630364 12.4057197,4.94767987 L12.4057197,6.1610757 C12.4057197,6.25921801 12.4796532,6.33059423 12.5628284,6.33059423 L13.5886557,6.33059423 L13.5886557,9.25701947 C13.5886557,11.4339943 15.1597426,11.657045 16.2317784,11.657045 C16.7215879,11.657045 17.3130559,11.5053706 17.4054728,11.4607604 C17.4609229,11.4429164 17.4886479,11.3804622 17.4886479,11.318008 L17.4886479,9.97970375 C17.4886479,9.89137567 17.4258045,9.83249028 17.3537193,9.81999944 L17.3537193,9.81999944 Z M39.2528224,7.85626105 C39.2528224,6.24137395 38.5781792,6.02724527 37.8665693,6.0986215 C37.312068,6.13430961 36.868467,6.40197046 36.868467,6.40197046 L36.868467,9.54252437 C36.868467,9.54252437 37.3213097,9.84587332 37.9959529,9.86371738 C38.9478467,9.89048346 39.2528224,9.56036842 39.2528224,7.85626105 L39.2528224,7.85626105 Z M41.4985525,7.7135086 C41.4985525,10.7737643 40.4727252,11.648123 38.6798378,11.648123 C37.164201,11.648123 36.3509325,10.9075947 36.3509325,10.9075947 C36.3509325,10.9075947 36.3139657,11.318008 36.2677573,11.3715401 C36.2400322,11.4250723 36.1938238,11.4429164 36.1383737,11.4429164 L34.7706039,11.4429164 C34.678187,11.4429164 34.5950118,11.3715401 34.5950118,11.2912419 L34.6134952,1.37886861 C34.6134952,1.29857035 34.6874287,1.22719413 34.7706039,1.22719413 L36.7390834,1.22719413 C36.8222586,1.22719413 36.8961921,1.29857035 36.8961921,1.37886861 L36.8961921,4.74247322 C36.8961921,4.74247322 37.6540105,4.26960573 38.763013,4.26960573 L38.7537713,4.25176167 C39.8627738,4.25176167 41.4985525,4.65325294 41.4985525,7.7135086 L41.4985525,7.7135086 Z M33.4398009,4.49265643 L33.4305592,4.49265643 L31.4990465,4.49265643 C31.3973879,4.49265643 31.3419378,4.56403266 31.3419378,4.66217497 L31.3419378,9.51575828 C31.3419378,9.51575828 30.8336449,9.86371738 30.1405184,9.86371738 C29.4473918,9.86371738 29.2440747,9.56036842 29.2440747,8.89121631 L29.2440747,4.65325294 C29.2440747,4.57295469 29.1701412,4.50157846 29.086966,4.50157846 L27.1092448,4.50157846 C27.0260696,4.50157846 26.9521361,4.57295469 26.9521361,4.65325294 L26.9521361,9.21240932 C26.9521361,11.1752555 28.0888637,11.6659671 29.6507089,11.6659671 C30.9353035,11.6659671 31.9796142,10.9789709 31.9796142,10.9789709 C31.9796142,10.9789709 32.0258227,11.32693 32.0535477,11.3804622 C32.0720311,11.4250723 32.1367229,11.4607604 32.2014147,11.4607604 L33.4398009,11.4607604 C33.5414594,11.4607604 33.5969096,11.3893842 33.5969096,11.3090859 L33.6153929,4.64433091 C33.6153929,4.56403266 33.5414594,4.49265643 33.4398009,4.49265643 L33.4398009,4.49265643 Z M11.5370011,4.4837344 L9.5685216,4.4837344 C9.48534641,4.4837344 9.41141291,4.56403266 9.41141291,4.66217497 L9.41141291,11.2109436 C9.41141291,11.3893842 9.53155485,11.4518384 9.68866354,11.4518384 L11.4630676,11.4518384 C11.6479013,11.4518384 11.6941098,11.3715401 11.6941098,11.2109436 L11.6941098,4.64433091 L11.6941098,4.63540888 C11.6941098,4.55511063 11.6201763,4.4837344 11.5370011,4.4837344 L11.5370011,4.4837344 Z M10.5666239,1.46808889 C9.85501392,1.46808889 9.29127097,2.01233261 9.29127097,2.69932877 C9.29127097,3.38632494 9.85501392,3.93056866 10.5666239,3.93056866 C11.2597504,3.93056866 11.8234934,3.38632494 11.8234934,2.69932877 C11.8234934,2.01233261 11.2597504,1.46808889 10.5666239,1.46808889 L10.5666239,1.46808889 Z M25.8061669,1.24503818 L23.8561708,1.24503818 C23.7729956,1.24503818 23.6990621,1.31641441 23.6990621,1.39671266 L23.6990621,5.04582218 L20.6400634,5.04582218 L20.6400634,1.39671266 C20.6400634,1.31641441 20.5661299,1.24503818 20.4829548,1.24503818 L18.5144753,1.24503818 C18.4313001,1.24503818 18.3573666,1.31641441 18.3573666,1.39671266 L18.3573666,11.3090859 C18.3573666,11.3893842 18.4405418,11.4607604 18.5144753,11.4607604 L20.4829548,11.4607604 C20.5661299,11.4607604 20.6400634,11.3893842 20.6400634,11.3090859 L20.6400634,7.07112257 L23.6990621,7.07112257 L23.6805787,11.3090859 C23.6805787,11.3893842 23.7545122,11.4607604 23.8376874,11.4607604 L25.8061669,11.4607604 C25.889342,11.4607604 25.9632755,11.3893842 25.9632755,11.3090859 L25.9632755,1.39671266 C25.9632755,1.31641441 25.889342,1.24503818 25.8061669,1.24503818 L25.8061669,1.24503818 Z M8.36710221,5.63467604 L8.36710221,10.7559202 C8.36710221,10.7916083 8.35786052,10.8540625 8.31165208,10.8719066 C8.31165208,10.8719066 7.15644112,11.6659671 5.25265346,11.6659671 C2.95147323,11.6659671 0.225175361,10.9700489 0.225175361,6.3841264 C0.225175361,1.79820393 2.60953078,0.852468946 4.93843608,0.861390974 C6.95312399,0.861390974 7.76639251,1.29857035 7.89577613,1.37886861 C7.93274288,1.42347875 7.95122626,1.45916686 7.95122626,1.503777 L7.56307538,3.09189801 C7.56307538,3.17219627 7.47990019,3.27033858 7.37824162,3.24357249 C7.04554087,3.14543018 6.54648973,2.94914556 5.3727954,2.94914556 C4.01426731,2.94914556 2.55408066,3.32387074 2.55408066,6.27706206 C2.55408066,9.23025338 3.94033381,9.57821248 4.93843608,9.57821248 C5.78867134,9.57821248 6.09364704,9.48007017 6.09364704,9.48007017 L6.09364704,7.42800369 L4.73511895,7.42800369 C4.63346038,7.42800369 4.55952688,7.35662747 4.55952688,7.27632922 L4.55952688,5.63467604 C4.55952688,5.55437778 4.63346038,5.48300156 4.73511895,5.48300156 L8.19151014,5.48300156 C8.2931687,5.48300156 8.36710221,5.55437778 8.36710221,5.63467604 Z M-12.7131874,-0.923076923 C-8.62836143,-0.923076923 -5.31983725,2.27100916 -5.31983725,6.2145456 C-5.31983725,9.36402154 -7.43618372,12.04063 -10.356557,12.986365 C-10.7262245,13.0577412 -10.8648499,12.8346905 -10.8648499,12.6473279 C-10.8648499,12.4064331 -10.8556082,11.6391387 -10.8556082,10.6844817 C-10.8556082,10.0153296 -11.0866504,9.58707224 -11.3546593,9.36402154 C-9.70963889,9.18558097 -7.9814433,8.57888306 -7.9814433,5.83982042 C-7.9814433,5.05468194 -8.26793562,4.42121794 -8.73926169,3.92158436 C-8.66532819,3.7431438 -8.40656093,3.01153749 -8.81319519,2.0301144 C-8.81319519,2.0301144 -9.43238826,1.83382978 -10.8463665,2.7617207 C-11.4378345,2.6011242 -12.0662693,2.52082594 -12.694704,2.52082594 C-13.3231388,2.52082594 -13.9515735,2.6011242 -14.5430415,2.7617207 C-15.9570198,1.8427518 -16.5762128,2.0301144 -16.5762128,2.0301144 C-16.9828471,3.01153749 -16.7240798,3.7431438 -16.6501463,3.92158436 C-17.1214724,4.42121794 -17.4079647,5.06360397 -17.4079647,5.83982042 C-17.4079647,8.56996103 -15.6890108,9.18558097 -14.0439904,9.36402154 C-14.2565492,9.5424621 -14.4506247,9.85473309 -14.5153165,10.3186785 C-14.9404341,10.5060411 -16.0032282,10.8093901 -16.6686297,9.72982469 C-16.807255,9.51569602 -17.223131,8.98929635 -17.8053573,8.99821838 C-18.4245504,9.00714041 -18.0548829,9.33725545 -17.7961156,9.47108588 C-17.4818982,9.64060441 -17.1214724,10.2740684 -17.0382972,10.4792751 C-16.8904302,10.8807663 -16.4098625,11.6480607 -14.5522832,11.3179457 C-14.5522832,11.9157216 -14.5430415,12.4778094 -14.5430415,12.6473279 C-14.5430415,12.8346905 -14.6816669,13.0488192 -15.0513344,12.986365 C-17.9901911,12.04063 -20.1065375,9.37294357 -20.1065375,6.2145456 C-20.1065375,2.27100916 -16.7980133,-0.923076923 -12.7131874,-0.923076923 Z"/>
</svg>
