<svg xmlns="http://www.w3.org/2000/svg" width="318" height="74" viewBox="0 0 318 74">
  <g fill="none" fill-rule="evenodd">
    <text fill="#000000" font-family="PixelOperator8, Pixel Operator 8" font-size="12">
      <tspan x="62" y="58">Connecting DIYbio Worldwide</tspan>
    </text>
    <path fill="#000000" d="M29.0034984,13 C42.7897481,13 51.1320532,23.1971096 52.8330638,32.5381888 C51.6440681,31.0662584 50.3893762,29.3097912 47.6429135,27.6009449 C46.5289878,25.1052187 42.9700105,20.9578172 40.0020067,19.2390341 C39.2901908,19.2390341 38.981007,20.2896392 39.3339598,21.4975393 C39.7526497,22.1634428 41.6412875,22.1833106 41.7339926,23.5526864 C41.4549573,24.1507861 42.5703056,24.251325 41.4170311,25.1052187 C36.6111198,24.2513064 26.861423,25.2422496 22.000899,34.1259885 C21.2182866,33.8692155 18.5614753,32.0894857 17.9515496,32.0734897 C16.6187477,32.0894857 16.7821111,33.319618 15.4806536,32.5381888 C15.0826799,32.3910896 14.582544,31.5924957 14.582544,30.5620041 C14.0856942,28.876001 14.7100719,28.9462071 15.1548993,28.4811008 C14.3782003,28.0304755 11.6217143,27.8903386 14.4775178,25.2422496 C17.7823578,23.0618613 17.6449351,26.8579227 18.4202034,26.7157536 C19.0687958,26.6126618 18.2923147,24.9454014 19.0687958,24.4495325 C21.998103,22.5788467 22.5379833,23.159599 26.2119262,21.899059 C26.9374384,21.7076439 27.0720451,22.9356334 27.739392,21.8237598 C28.1749547,20.7832418 28.2015932,19.5974035 27.204843,18.930048 C25.4488255,18.3230261 24.3513671,20.5970807 23.5126359,20.2171974 C22.9326961,19.9545276 23.1949992,18.6420514 24.0241534,18.1860813 C25.100819,17.2604183 25.0631787,18.0013422 26.4755203,17.9425842 C27.2473954,18.1860813 26.8866345,18.2984761 27.8612104,18.402097 C28.5882578,18.1860813 29.0034984,17.8559323 28.7613686,16.2651892 C22.6854305,16.3928259 15.6179396,19.2786036 11.4110027,26.0092251 C11.754482,27.1121922 11.3687253,27.6549472 11.8177009,28.4811008 C12.2059392,29.2383442 13.0070008,29.2004709 13.2219363,29.4270227 C13.3125174,29.6354646 13.0905405,29.7102876 13.3066266,30.2689534 C13.5227126,30.8276193 13.8256278,30.2877691 13.8256278,31.1575982 C13.9790346,31.8980331 15.3273856,32.7703312 15.1956921,34.1259885 C14.54568,35.4841278 13.6240669,36.4467312 13.6240669,38.1108388 C13.8078711,40.1992007 14.5056084,40.4553037 15.9337831,41.6825357 C15.9337831,42.6531111 16.1672184,42.7752934 16.4770154,43.4050416 C15.6298885,50.2874011 16.3534762,53.8364352 19.5943078,55.2339589 C19.5943078,55.2339589 17.1296215,52.174205 20.7156328,49.2828746 C23.5126359,56.195364 28.1644433,59.2366815 33.9418645,60.762064 C32.304552,61.027667 31.1076184,61.2071271 29.0034984,61.2071271 C14.9015357,61.2071271 5,50.213584 5,37.0220646 C5,23.8305451 15.2172488,13 29.0034984,13 Z M29.6862258,16.2571323 C29.5834772,18.059866 29.2587277,17.8747158 29.3282131,18.6066479 C29.4820384,19.5224765 29.9119457,20.3368765 30.3865595,20.4267061 C31.077199,20.3368765 31.3654833,19.3055174 32.0842333,18.5321929 C32.5536974,18.1844713 32.620697,18.5812743 33.2591326,18.2604566 C33.7495035,17.8808722 33.685662,17.8384874 34.0338692,16.8362648 C32.6470007,16.4815286 31.265597,16.3172609 29.6862258,16.2571323 Z M38.2481268,21.4861952 C37.8033919,22.0035351 38.2734716,21.9770197 38.1477467,22.2624985 C37.8128525,22.540137 37.56542,22.7197397 37.6557136,22.9074871 C38.056668,23.4453194 38.2481268,22.9074871 38.6275933,23.0989851 C38.8202149,23.8732064 38.8621338,24.8903029 39.9269875,24.6976048 C39.9403833,24.6934968 39.950885,24.6786456 39.964794,24.6768433 C40.6649496,24.5861145 40.129587,23.4179734 39.7783423,22.7460948 C39.3092572,21.8488053 38.6559668,21.2730183 38.2481268,21.4861952 Z M38.1134284,27.1292431 C47.0769239,27.1292431 53.9813178,34.2365272 53.9813178,42.9656032 C53.9813178,48.2359221 50.983163,52.5513558 50.983163,52.5513558 C55.8486245,57.4274755 58.4183257,58.0091771 55.741847,60.5766227 C53.0653684,63.1440683 51.9935391,60.0562447 47.6744268,55.7366418 C47.6744268,55.7366418 43.0451973,58.8335289 38.1134284,58.8335289 C29.3369061,58.8335289 22.1729197,51.6978076 22.1729197,42.9656032 C22.1729197,34.2748498 29.149933,27.1292431 38.1134284,27.1292431 Z M38.1134253,55.4378152 C45.0203972,55.4378152 50.6196043,49.8529809 50.6196043,42.9637387 C50.6196043,36.0744965 45.0203972,30.4896622 38.1134253,30.4896622 C31.2064534,30.4896622 25.6072464,36.0744965 25.6072464,42.9637387 C25.6072464,49.8529809 31.2064534,55.4378152 38.1134253,55.4378152 Z M43.8015237,38.0669697 C45.9078862,38.2003559 47.6629612,39.614311 48.289075,41.5408765 C48.7844311,41.9688238 49.1276081,42.821816 49.1276081,43.4044541 C49.1276081,44.1177614 48.6139261,45.2383286 47.9344444,45.4845373 C47.0810524,47.0670777 45.4057817,48.1432447 43.4772917,48.1432447 C41.3176232,48.1432447 39.4787815,46.7911042 38.7527421,44.8910923 L37.6329438,44.8910923 C36.9070282,46.7911042 35.0686818,48.1432447 32.9089514,48.1432447 C30.9955679,48.1432447 29.3317508,47.0836892 28.4720439,45.5214037 C27.7287311,45.3834479 27.1479986,44.1629644 27.1479986,43.4044541 C27.1479986,42.7632743 27.5628695,41.7945572 28.1396396,41.4252134 C28.8215359,39.4909288 30.6471284,38.0972286 32.8103878,38.0506052 L43.8015237,38.0669697 Z M39.9642561,43.2214993 C39.9642561,45.1105191 41.5000396,46.6419282 43.3941066,46.6419282 C45.2880498,46.6419282 46.8232761,45.1105191 46.8232761,43.2214993 C46.8232761,42.7297614 46.7177165,42.2632803 46.5299381,41.8406438 L44.5665918,43.554409 L44.179767,43.1129996 L46.2407482,41.3140772 C46.092098,41.0931255 45.9153399,40.893108 45.7196987,40.7126661 L42.0814531,43.5641659 L41.7181548,43.1033044 L45.2409349,40.3422725 C44.7077507,40.001088 44.0747647,39.8008235 43.3941066,39.8008235 C41.5000396,39.8008235 39.9642561,41.3324178 39.9642561,43.2214993 Z M33.0279315,46.6419282 C34.9218747,46.6419282 36.4572249,45.1105191 36.4572249,43.2214993 C36.4572249,42.630401 36.3067792,42.0745018 36.0421683,41.5897419 L33.5226066,43.5641659 L33.1593083,43.1033044 L35.7150265,41.1004741 C35.5175898,40.8518571 35.2862874,40.6323874 35.0281153,40.4465113 L31.0496026,43.5641659 L30.6863043,43.1033044 L34.4834774,40.1276196 C34.0414273,39.92013 33.548981,39.8008235 33.0279315,39.8008235 C31.1338645,39.8008235 29.5991954,41.3324178 29.5991954,43.2214993 C29.5991954,45.1105191 31.1338645,46.6419282 33.0279315,46.6419282 Z"/>
    <path fill="#000000" d="M29.0034984,13 C42.7897481,13 51.1320532,23.1971096 52.8330638,32.5381888 C51.6440681,31.0662584 50.3893762,29.3097912 47.6429135,27.6009449 C46.5289878,25.1052187 42.9700105,20.9578172 40.0020067,19.2390341 C39.2901908,19.2390341 38.981007,20.2896392 39.3339598,21.4975393 C39.7526497,22.1634428 41.6412875,22.1833106 41.7339926,23.5526864 C41.4549573,24.1507861 42.5703056,24.251325 41.4170311,25.1052187 C36.6111198,24.2513064 26.861423,25.2422496 22.000899,34.1259885 C21.2182866,33.8692155 18.5614753,32.0894857 17.9515496,32.0734897 C16.6187477,32.0894857 16.7821111,33.319618 15.4806536,32.5381888 C15.0826799,32.3910896 14.582544,31.5924957 14.582544,30.5620041 C14.0856942,28.876001 14.7100719,28.9462071 15.1548993,28.4811008 C14.3782003,28.0304755 11.6217143,27.8903386 14.4775178,25.2422496 C17.7823578,23.0618613 17.6449351,26.8579227 18.4202034,26.7157536 C19.0687958,26.6126618 18.2923147,24.9454014 19.0687958,24.4495325 C21.998103,22.5788467 22.5379833,23.159599 26.2119262,21.899059 C26.9374384,21.7076439 27.0720451,22.9356334 27.739392,21.8237598 C28.1749547,20.7832418 28.2015932,19.5974035 27.204843,18.930048 C25.4488255,18.3230261 24.3513671,20.5970807 23.5126359,20.2171974 C22.9326961,19.9545276 23.1949992,18.6420514 24.0241534,18.1860813 C25.100819,17.2604183 25.0631787,18.0013422 26.4755203,17.9425842 C27.2473954,18.1860813 26.8866345,18.2984761 27.8612104,18.402097 C28.5882578,18.1860813 29.0034984,17.8559323 28.7613686,16.2651892 C22.6854305,16.3928259 15.6179396,19.2786036 11.4110027,26.0092251 C11.754482,27.1121922 11.3687253,27.6549472 11.8177009,28.4811008 C12.2059392,29.2383442 13.0070008,29.2004709 13.2219363,29.4270227 C13.3125174,29.6354646 13.0905405,29.7102876 13.3066266,30.2689534 C13.5227126,30.8276193 13.8256278,30.2877691 13.8256278,31.1575982 C13.9790346,31.8980331 15.3273856,32.7703312 15.1956921,34.1259885 C14.54568,35.4841278 13.6240669,36.4467312 13.6240669,38.1108388 C13.8078711,40.1992007 14.5056084,40.4553037 15.9337831,41.6825357 C15.9337831,42.6531111 16.1672184,42.7752934 16.4770154,43.4050416 C15.6298885,50.2874011 16.3534762,53.8364352 19.5943078,55.2339589 C19.5943078,55.2339589 17.1296215,52.174205 20.7156328,49.2828746 C23.5126359,56.195364 28.1644433,59.2366815 33.9418645,60.762064 C32.304552,61.027667 31.1076184,61.2071271 29.0034984,61.2071271 C14.9015357,61.2071271 5,50.213584 5,37.0220646 C5,23.8305451 15.2172488,13 29.0034984,13 Z M29.6862258,16.2571323 C29.5834772,18.059866 29.2587277,17.8747158 29.3282131,18.6066479 C29.4820384,19.5224765 29.9119457,20.3368765 30.3865595,20.4267061 C31.077199,20.3368765 31.3654833,19.3055174 32.0842333,18.5321929 C32.5536974,18.1844713 32.620697,18.5812743 33.2591326,18.2604566 C33.7495035,17.8808722 33.685662,17.8384874 34.0338692,16.8362648 C32.6470007,16.4815286 31.265597,16.3172609 29.6862258,16.2571323 Z M38.2481268,21.4861952 C37.8033919,22.0035351 38.2734716,21.9770197 38.1477467,22.2624985 C37.8128525,22.540137 37.56542,22.7197397 37.6557136,22.9074871 C38.056668,23.4453194 38.2481268,22.9074871 38.6275933,23.0989851 C38.8202149,23.8732064 38.8621338,24.8903029 39.9269875,24.6976048 C39.9403833,24.6934968 39.950885,24.6786456 39.964794,24.6768433 C40.6649496,24.5861145 40.129587,23.4179734 39.7783423,22.7460948 C39.3092572,21.8488053 38.6559668,21.2730183 38.2481268,21.4861952 Z M38.1134284,27.1292431 C47.0769239,27.1292431 53.9813178,34.2365272 53.9813178,42.9656032 C53.9813178,48.2359221 50.983163,52.5513558 50.983163,52.5513558 C55.8486245,57.4274755 58.4183257,58.0091771 55.741847,60.5766227 C53.0653684,63.1440683 51.9935391,60.0562447 47.6744268,55.7366418 C47.6744268,55.7366418 43.0451973,58.8335289 38.1134284,58.8335289 C29.3369061,58.8335289 22.1729197,51.6978076 22.1729197,42.9656032 C22.1729197,34.2748498 29.149933,27.1292431 38.1134284,27.1292431 Z M38.1134253,55.4378152 C45.0203972,55.4378152 50.6196043,49.8529809 50.6196043,42.9637387 C50.6196043,36.0744965 45.0203972,30.4896622 38.1134253,30.4896622 C31.2064534,30.4896622 25.6072464,36.0744965 25.6072464,42.9637387 C25.6072464,49.8529809 31.2064534,55.4378152 38.1134253,55.4378152 Z M43.8015237,38.0669697 C45.9078862,38.2003559 47.6629612,39.614311 48.289075,41.5408765 C48.7844311,41.9688238 49.1276081,42.821816 49.1276081,43.4044541 C49.1276081,44.1177614 48.6139261,45.2383286 47.9344444,45.4845373 C47.0810524,47.0670777 45.4057817,48.1432447 43.4772917,48.1432447 C41.3176232,48.1432447 39.4787815,46.7911042 38.7527421,44.8910923 L37.6329438,44.8910923 C36.9070282,46.7911042 35.0686818,48.1432447 32.9089514,48.1432447 C30.9955679,48.1432447 29.3317508,47.0836892 28.4720439,45.5214037 C27.7287311,45.3834479 27.1479986,44.1629644 27.1479986,43.4044541 C27.1479986,42.7632743 27.5628695,41.7945572 28.1396396,41.4252134 C28.8215359,39.4909288 30.6471284,38.0972286 32.8103878,38.0506052 L43.8015237,38.0669697 Z M39.9642561,43.2214993 C39.9642561,45.1105191 41.5000396,46.6419282 43.3941066,46.6419282 C45.2880498,46.6419282 46.8232761,45.1105191 46.8232761,43.2214993 C46.8232761,42.7297614 46.7177165,42.2632803 46.5299381,41.8406438 L44.5665918,43.554409 L44.179767,43.1129996 L46.2407482,41.3140772 C46.092098,41.0931255 45.9153399,40.893108 45.7196987,40.7126661 L42.0814531,43.5641659 L41.7181548,43.1033044 L45.2409349,40.3422725 C44.7077507,40.001088 44.0747647,39.8008235 43.3941066,39.8008235 C41.5000396,39.8008235 39.9642561,41.3324178 39.9642561,43.2214993 Z M33.0279315,46.6419282 C34.9218747,46.6419282 36.4572249,45.1105191 36.4572249,43.2214993 C36.4572249,42.630401 36.3067792,42.0745018 36.0421683,41.5897419 L33.5226066,43.5641659 L33.1593083,43.1033044 L35.7150265,41.1004741 C35.5175898,40.8518571 35.2862874,40.6323874 35.0281153,40.4465113 L31.0496026,43.5641659 L30.6863043,43.1033044 L34.4834774,40.1276196 C34.0414273,39.92013 33.548981,39.8008235 33.0279315,39.8008235 C31.1338645,39.8008235 29.5991954,41.3324178 29.5991954,43.2214993 C29.5991954,45.1105191 31.1338645,46.6419282 33.0279315,46.6419282 Z"/>
    <text fill="#000000" font-family="SourceCodePro-Medium, Source Code Pro" font-size="36" font-weight="400" letter-spacing="-1.125">
      <tspan x="63" y="55">DIYbio</tspan> <tspan x="185.238" y="55" font-family="SourceCodePro-Black, Source Code Pro" font-weight="700">sphere</tspan>
    </text>
  </g>
</svg>
