<svg xmlns="http://www.w3.org/2000/svg" width="167" height="74" viewBox="0 0 167 74">
  <g fill="none" fill-rule="evenodd">
    <text fill="#000000" font-family="PixelOperator8, Pixel Operator 8" font-size="7">
      <tspan x="10" y="66">Connecting DIYbio Worldwide</tspan>
    </text>
    <path fill="#000000" d="M37.0034984,6 C50.7897481,6 59.1320532,16.1971096 60.8330638,25.5381888 C59.6440681,24.0662584 58.3893762,22.3097912 55.6429135,20.6009449 C54.5289878,18.1052187 50.9700105,13.9578172 48.0020067,12.2390341 C47.2901908,12.2390341 46.981007,13.2896392 47.3339598,14.4975393 C47.7526497,15.1634428 49.6412875,15.1833106 49.7339926,16.5526864 C49.4549573,17.1507861 50.5703056,17.251325 49.4170311,18.1052187 C44.6111198,17.2513064 34.861423,18.2422496 30.000899,27.1259885 C29.2182866,26.8692155 26.5614753,25.0894857 25.9515496,25.0734897 C24.6187477,25.0894857 24.7821111,26.319618 23.4806536,25.5381888 C23.0826799,25.3910896 22.582544,24.5924957 22.582544,23.5620041 C22.0856942,21.876001 22.7100719,21.9462071 23.1548993,21.4811008 C22.3782003,21.0304755 19.6217143,20.8903386 22.4775178,18.2422496 C25.7823578,16.0618613 25.6449351,19.8579227 26.4202034,19.7157536 C27.0687958,19.6126618 26.2923147,17.9454014 27.0687958,17.4495325 C29.998103,15.5788467 30.5379833,16.159599 34.2119262,14.899059 C34.9374384,14.7076439 35.0720451,15.9356334 35.739392,14.8237598 C36.1749547,13.7832418 36.2015932,12.5974035 35.204843,11.930048 C33.4488255,11.3230261 32.3513671,13.5970807 31.5126359,13.2171974 C30.9326961,12.9545276 31.1949992,11.6420514 32.0241534,11.1860813 C33.100819,10.2604183 33.0631787,11.0013422 34.4755203,10.9425842 C35.2473954,11.1860813 34.8866345,11.2984761 35.8612104,11.402097 C36.5882578,11.1860813 37.0034984,10.8559323 36.7613686,9.26518925 C30.6854305,9.39282594 23.6179396,12.2786036 19.4110027,19.0092251 C19.754482,20.1121922 19.3687253,20.6549472 19.8177009,21.4811008 C20.2059392,22.2383442 21.0070008,22.2004709 21.2219363,22.4270227 C21.3125174,22.6354646 21.0905405,22.7102876 21.3066266,23.2689534 C21.5227126,23.8276193 21.8256278,23.2877691 21.8256278,24.1575982 C21.9790346,24.8980331 23.3273856,25.7703312 23.1956921,27.1259885 C22.54568,28.4841278 21.6240669,29.4467312 21.6240669,31.1108388 C21.8078711,33.1992007 22.5056084,33.4553037 23.9337831,34.6825357 C23.9337831,35.6531111 24.1672184,35.7752934 24.4770154,36.4050416 C23.6298885,43.2874011 24.3534762,46.8364352 27.5943078,48.2339589 C27.5943078,48.2339589 25.1296215,45.174205 28.7156328,42.2828746 C31.5126359,49.195364 36.1644433,52.2366815 41.9418645,53.762064 C40.304552,54.027667 39.1076184,54.2071271 37.0034984,54.2071271 C22.9015357,54.2071271 13,43.213584 13,30.0220646 C13,16.8305451 23.2172488,6 37.0034984,6 Z M37.6862258,9.25713232 C37.5834772,11.059866 37.2587277,10.8747158 37.3282131,11.6066479 C37.4820384,12.5224765 37.9119457,13.3368765 38.3865595,13.4267061 C39.077199,13.3368765 39.3654833,12.3055174 40.0842333,11.5321929 C40.5536974,11.1844713 40.620697,11.5812743 41.2591326,11.2604566 C41.7495035,10.8808722 41.685662,10.8384874 42.0338692,9.83626481 C40.6470007,9.48152856 39.265597,9.3172609 37.6862258,9.25713232 Z M46.2481268,14.4861952 C45.8033919,15.0035351 46.2734716,14.9770197 46.1477467,15.2624985 C45.8128525,15.540137 45.56542,15.7197397 45.6557136,15.9074871 C46.056668,16.4453194 46.2481268,15.9074871 46.6275933,16.0989851 C46.8202149,16.8732064 46.8621338,17.8903029 47.9269875,17.6976048 C47.9403833,17.6934968 47.950885,17.6786456 47.964794,17.6768433 C48.6649496,17.5861145 48.129587,16.4179734 47.7783423,15.7460948 C47.3092572,14.8488053 46.6559668,14.2730183 46.2481268,14.4861952 Z M46.1134284,20.1292431 C55.0769239,20.1292431 61.9813178,27.2365272 61.9813178,35.9656032 C61.9813178,41.2359221 58.983163,45.5513558 58.983163,45.5513558 C63.8486245,50.4274755 66.4183257,51.0091771 63.741847,53.5766227 C61.0653684,56.1440683 59.9935391,53.0562447 55.6744268,48.7366418 C55.6744268,48.7366418 51.0451973,51.8335289 46.1134284,51.8335289 C37.3369061,51.8335289 30.1729197,44.6978076 30.1729197,35.9656032 C30.1729197,27.2748498 37.149933,20.1292431 46.1134284,20.1292431 Z M46.1134253,48.4378152 C53.0203972,48.4378152 58.6196043,42.8529809 58.6196043,35.9637387 C58.6196043,29.0744965 53.0203972,23.4896622 46.1134253,23.4896622 C39.2064534,23.4896622 33.6072464,29.0744965 33.6072464,35.9637387 C33.6072464,42.8529809 39.2064534,48.4378152 46.1134253,48.4378152 Z M51.8015237,31.0669697 C53.9078862,31.2003559 55.6629612,32.614311 56.289075,34.5408765 C56.7844311,34.9688238 57.1276081,35.821816 57.1276081,36.4044541 C57.1276081,37.1177614 56.6139261,38.2383286 55.9344444,38.4845373 C55.0810524,40.0670777 53.4057817,41.1432447 51.4772917,41.1432447 C49.3176232,41.1432447 47.4787815,39.7911042 46.7527421,37.8910923 L45.6329438,37.8910923 C44.9070282,39.7911042 43.0686818,41.1432447 40.9089514,41.1432447 C38.9955679,41.1432447 37.3317508,40.0836892 36.4720439,38.5214037 C35.7287311,38.3834479 35.1479986,37.1629644 35.1479986,36.4044541 C35.1479986,35.7632743 35.5628695,34.7945572 36.1396396,34.4252134 C36.8215359,32.4909288 38.6471284,31.0972286 40.8103878,31.0506052 L51.8015237,31.0669697 Z M47.9642561,36.2214993 C47.9642561,38.1105191 49.5000396,39.6419282 51.3941066,39.6419282 C53.2880498,39.6419282 54.8232761,38.1105191 54.8232761,36.2214993 C54.8232761,35.7297614 54.7177165,35.2632803 54.5299381,34.8406438 L52.5665918,36.554409 L52.179767,36.1129996 L54.2407482,34.3140772 C54.092098,34.0931255 53.9153399,33.893108 53.7196987,33.7126661 L50.0814531,36.5641659 L49.7181548,36.1033044 L53.2409349,33.3422725 C52.7077507,33.001088 52.0747647,32.8008235 51.3941066,32.8008235 C49.5000396,32.8008235 47.9642561,34.3324178 47.9642561,36.2214993 Z M41.0279315,39.6419282 C42.9218747,39.6419282 44.4572249,38.1105191 44.4572249,36.2214993 C44.4572249,35.630401 44.3067792,35.0745018 44.0421683,34.5897419 L41.5226066,36.5641659 L41.1593083,36.1033044 L43.7150265,34.1004741 C43.5175898,33.8518571 43.2862874,33.6323874 43.0281153,33.4465113 L39.0496026,36.5641659 L38.6863043,36.1033044 L42.4834774,33.1276196 C42.0414273,32.92013 41.548981,32.8008235 41.0279315,32.8008235 C39.1338645,32.8008235 37.5991954,34.3324178 37.5991954,36.2214993 C37.5991954,38.1105191 39.1338645,39.6419282 41.0279315,39.6419282 Z"/>
    <text fill="#000000" font-family="SourceCodePro-Medium, Source Code Pro" font-size="24" font-weight="400" letter-spacing="-1.125">
      <tspan x="71.408" y="33">DIYbio</tspan> <tspan x="71" y="54" font-family="SourceCodePro-Black, Source Code Pro" font-weight="700">sphere</tspan>
    </text>
  </g>
</svg>
