<svg xmlns="http://www.w3.org/2000/svg" width="300" height="300" viewBox="0 0 300 300" xmlns:xlink="http://www.w3.org/1999/xlink">
  <defs>
    <polygon id="a" points="151.757 303.27 303.514 303.27 303.514 0 0 0 0 151.635 0 303.27"/>
    <polygon id="c" points="25.517 .303 25.517 66.284 .783 66.284 .783 .303 25.517 .303"/>
    <polygon id="e" points="117.756 48.279 .296 48.279 .296 .612 117.756 .612"/>
    <polygon id="g" points="139.272 55.284 .83 55.284 .83 .457 139.272 .457 139.272 55.284"/>
    <polygon id="i" points="51.38 145.27 .366 145.27 .366 .876 51.38 .876"/>
    <polygon id="k" points="42.165 148.269 .335 148.269 .335 .698 42.165 .698 42.165 148.269"/>
    <polygon id="m" points="26.382 112.266 .589 112.266 .589 .509 26.382 .509"/>
    <polygon id="o" points="14.609 41.288 .325 41.288 .325 .813 14.609 .813"/>
    <polygon id="q" points="65.555 70.281 .704 70.281 .704 .205 65.555 .205 65.555 70.281"/>
    <polygon id="s" points="24.394 50.277 .175 50.277 .175 .817 24.394 .817 24.394 50.277"/>
    <polygon id="u" points="36.206 42.286 .432 42.286 .432 .385 36.206 .385 36.206 42.286"/>
    <polygon id="w" points="65.124 15.266 .859 15.266 .859 .877 65.124 .877 65.124 15.266"/>
    <polygon id="y" points="66.523 .03 66.523 69.877 .112 69.877 .112 .03"/>
    <polygon id="A" points="70.521 .243 70.521 78.12 .396 78.12 .396 .243 70.521 .243"/>
    <polygon id="C" points="77.506 .761 77.506 73.776 .447 73.776 .447 .761 77.506 .761"/>
    <polygon id="E" points="83.509 .811 83.509 70.797 .28 70.797 .28 .811 83.509 .811"/>
    <polygon id="G" points="86.509 .115 86.509 64.263 .316 64.263 .316 .115 86.509 .115"/>
    <polygon id="I" points="84.509 .683 84.509 45.676 .564 45.676 .564 .683 84.509 .683"/>
    <polygon id="K" points="87.509 .688 87.509 41.504 .711 41.504 .711 .688 87.509 .688"/>
    <polygon id="M" points="90.507 .906 90.507 36.644 .855 36.644 .855 .906 90.507 .906"/>
    <polygon id="O" points="22.522 .44 22.522 15.759 .778 15.759 .778 .44 22.522 .44"/>
  </defs>
  <g fill="none" fill-rule="evenodd">
    <mask id="b" fill="white">
      <use xlink:href="#a"/>
    </mask>
    <polyline fill="#212E46" points="124.725 177.013 304 205.893 304 205.139 122.257 174.07 124.725 177.013" mask="url(#b)"/>
    <polyline fill="#212E46" points="134.526 188.76 304 209.018 304 208.289 132.276 186.084 134.526 188.76" mask="url(#b)"/>
    <polyline fill="#212E46" points="143.646 199.667 304 212.156 304 211.426 141.542 197.15 143.646 199.667" mask="url(#b)"/>
    <polyline fill="#212E46" points="152.036 209.724 304 215.281 304 214.551 150.091 207.425 152.036 209.724" mask="url(#b)"/>
    <polyline fill="#212E46" points="292.63 217.688 280.616 217.64 277.053 217.64 265.161 217.53 261.379 217.482 249.487 217.482 245.814 217.384 233.764 217.384 230.25 217.324 158.116 217.007 159.892 219.123 230.663 218.783 234.335 218.783 246.228 218.685 249.791 218.685 261.598 218.637 265.27 218.637 277.163 218.54 280.726 218.54 292.63 218.479 296.291 218.479 304 218.406 304 217.761 296.291 217.688 292.63 217.688" mask="url(#b)"/>
    <polyline fill="#212E46" points="296.181 221.166 292.728 221.312 280.932 221.677 277.37 221.823 265.939 222.297 262.267 222.358 250.8 222.832 247.334 222.99 235.892 223.355 232.438 223.513 165.607 225.933 167.236 227.915 232.864 224.863 236.33 224.717 247.699 224.194 251.153 224.036 262.486 223.513 266.049 223.355 277.516 222.832 281.03 222.674 292.728 222.042 296.181 221.884 304 221.543 304 220.874 296.291 221.166 296.181 221.166" mask="url(#b)"/>
    <polyline fill="#212E46" points="292.728 224.863 281.309 225.811 277.844 226.03 266.73 226.979 263.167 227.197 252.15 228.073 248.794 228.328 237.91 229.18 234.542 229.496 172.575 234.311 174.095 236.147 235.004 230.76 238.324 230.481 249.11 229.544 252.478 229.228 263.373 228.231 266.827 228.024 277.941 227.027 281.407 226.723 292.728 225.726 296.181 225.386 304 224.717 304 224.024 296.181 224.68 292.728 224.863" mask="url(#b)"/>
    <polyline fill="#212E46" points="292.728 228.499 281.613 229.848 278.257 230.237 267.52 231.539 264.054 231.891 253.475 233.217 250.265 233.581 239.783 234.846 236.694 235.199 179.092 242.069 180.552 243.857 237.108 236.5 240.257 236.099 250.581 234.724 253.828 234.36 264.261 232.998 267.617 232.584 278.415 231.174 281.723 230.76 292.728 229.325 296.181 228.851 304 227.83 304 227.124 296.181 228.073 292.728 228.499" mask="url(#b)"/>
    <polyline fill="#212E46" points="294.698 237.643 294.564 236.573 287.535 238.166 287.754 239.333 294.698 237.643" mask="url(#b)"/>
    <polyline fill="#212E46" points="296.923 237.023 304 235.272 304 234.36 296.765 236.026 296.923 237.023" mask="url(#b)"/>
    <polyline fill="#212E46" points="195.661 262 198.971 261.201 198.201 259.628 200.583 259.104 201.267 260.594 201.279 260.641 208.863 258.794 208.35 257.316 210.634 256.792 211.159 258.246 218.841 256.386 218.389 255.004 220.759 254.491 221.15 255.814 228.905 253.943 228.587 252.68 231.042 252.144 231.36 253.347 239.139 251.464 238.932 250.356 241.326 249.76 241.497 250.88 249.435 248.961 249.374 247.972 251.756 247.436 251.817 248.389 259.853 246.435 259.804 245.577 262.259 245.04 262.259 245.851 270.319 243.896 270.319 243.169 272.774 242.573 272.774 243.288 277 242.263 276.67 241 194 259.938 194 260.022 195.649 262 195.661 262"/>
    <g transform="translate(278 236)">
      <mask id="d" fill="white">
        <use xlink:href="#c"/>
      </mask>
      <polyline fill="#212E46" points="7.832 4.061 7.603 2.94 .783 4.503 1.073 5.708 7.832 4.061" mask="url(#d)"/>
      <polyline fill="#212E46" points="18.817 .303 16.633 .84 16.765 1.89 25.215 67 26 67 26 62.383 18.974 1.281 18.817 .303" mask="url(#d)"/>
      <polyline fill="#212E46" points="9.655 2.403 7.603 2.94 7.832 4.061 9.269 11.697 9.8 11.471 10.186 13.953 9.716 14.096 11.237 22.042 11.538 21.97 11.925 24.381 11.695 24.452 13.204 32.458 13.361 32.387 13.735 34.857 13.675 34.857 19.783 67 21.039 67 9.873 3.548 9.655 2.403" mask="url(#d)"/>
    </g>
    <polyline fill="#212E46" points="280.302 253.576 280.29 253.588 280 253.744 281.895 261.203 283.634 260.591 284.165 262.857 282.427 263.457 284.322 271 286 270.46 284.177 262.857 283.646 260.603 283.646 260.531 281.823 253 280.302 253.6 280.302 253.576"/>
    <polyline fill="#212E46" points="286.654 281 288 280.63 286.389 273 285 273.441 286.654 281"/>
    <polyline fill="#212E46" points="290.822 301 292 300.904 290.333 293 289 293.24 290.822 301"/>
    <polyline fill="#212E46" points="288.744 291 290 290.772 288.322 283 287 283.384 288.744 291"/>
    <polyline fill="#212E46" points="278.352 251 279.231 250.531 280 250.148 280 250.173 280 250.16 278.143 241.247 277.879 240 276 240.469 276.297 241.778 278.352 251"/>
    <polyline fill="#212E46" points="224.542 275 224.529 275.012 218 277.671 218.012 277.694 218.471 279 225 276.435 224.542 275.024 224.542 275"/>
    <polyline fill="#212E46" points="215.584 278 215.573 278 211 279.996 211.843 281 216 279.209 215.584 278"/>
    <polyline fill="#212E46" points="193.291 289.241 195.655 288.253 199 286.904 198.382 286 195.036 287.434 192.685 288.41 191 289.096 191.533 290 193.291 289.241"/>
    <polyline fill="#212E46" points="164.758 301.351 167.166 300.364 171 298.74 170.682 298 166.834 299.714 164.439 300.766 163 301.429 163.229 302 164.758 301.351"/>
    <polyline fill="#212E46" points="201.682 286 201.694 285.987 201.778 285.987 203.644 285.098 205.894 284.146 208 283.194 207.474 282 205.068 283.117 202.831 284.146 201.012 284.959 201 284.959 201.012 284.984 201.682 286"/>
    <polyline fill="#212E46" points="242.7 267 242.688 267 236 270.183 236 270.196 236.372 272 242.988 268.923 243 268.923 242.7 267.013 242.7 267"/>
    <polyline fill="#212E46" points="184.086 293.305 184.147 293.305 186.454 292.335 190 290.838 189.46 290 185.926 291.521 183.607 292.503 182 293.162 182.454 294 184.086 293.305"/>
    <polyline fill="#212E46" points="174.905 297.365 177.353 296.337 181 294.813 180.609 294 176.962 295.613 174.502 296.641 173 297.276 173.315 298 174.905 297.365"/>
    <polyline fill="#212E46" points="250.789 263 250.777 263 244 266.122 244 266.134 244.305 268 250.988 265.027 251 265.015 250.789 263"/>
    <polyline fill="#212E46" points="231.613 272 231.601 272 225 274.667 225 274.689 225.447 276 231.988 273.49 232 273.479 231.613 272"/>
    <g transform="translate(157 255)">
      <mask id="f" fill="white">
        <use xlink:href="#e"/>
      </mask>
      <polyline fill="#212E46" points="113.073 .612 113.073 .624 105.593 3.857 105.593 3.869 105.666 6.045 113.073 2.944 113.073 .612" mask="url(#f)"/>
    </g>
    <polyline fill="#212E46" points="259.92 260 259.908 260.012 253 263.084 253 263.107 253.218 265 259.989 262.068 260 262.056 259.92 260.023 259.92 260"/>
    <polyline fill="#212E46" points="280.077 252.876 280.225 250.389 281 250.024 281 250 280.202 250.365 279.291 250.813 279.279 250.825 273 253.642 273 256 279.781 253.041 279.792 253.041 280.066 252.888 280.077 252.876"/>
    <g transform="translate(164 248)">
      <mask id="h" fill="white">
        <use xlink:href="#g"/>
      </mask>
      <polyline fill="#212E46" points="124.109 2.94 123.721 .457 123.187 .684 123.636 3.083 124.109 2.94" mask="url(#h)"/>
      <polyline fill="#212E46" points="12.329 52.623 47.07 40.628 48.89 40.032 54.991 37.931 56.823 37.263 63.058 35.162 64.902 34.482 71.294 32.31 73.272 31.57 79.749 29.374 81.654 28.634 88.349 26.391 90.339 25.651 97.192 23.324 99.182 22.643 106.108 20.244 108.243 19.493 115.254 17.022 117.462 16.282 118.141 16.044 118.153 16.044 119.9 15.447 119.366 13.191 117.62 13.8 117.608 13.812 115.485 14.528 108.243 17.165 106.108 17.917 99.097 20.459 97.047 21.211 90.193 23.694 88.131 24.433 81.423 26.904 79.373 27.584 72.968 29.983 70.918 30.663 64.513 32.978 62.597 33.647 56.35 35.902 54.53 36.583 48.356 38.826 46.536 39.495 14.452 51.131 11.941 52.014 4.25 54.783 1.885 55.63 .83 56 2.783 56 4.554 55.391 12.329 52.623" mask="url(#h)"/>
      <polyline fill="#212E46" points="125.856 13.37 125.468 10.959 125.165 11.031 125.626 13.442 125.856 13.37" mask="url(#h)"/>
      <polyline fill="#212E46" points="122.266 25.352 121.744 23.013 120.058 23.55 10.874 56 13.651 56 120.677 25.794 122.266 25.352" mask="url(#h)"/>
      <polyline fill="#212E46" points="127.676 23.849 127.3 21.378 127.142 21.45 127.615 23.849 127.676 23.849" mask="url(#h)"/>
      <polyline fill="#212E46" points="124.631 35.389 124.109 32.99 122.569 33.36 25.733 56 30.767 56 123.187 35.771 124.631 35.389" mask="url(#h)"/>
      <polyline fill="#212E46" points="127.081 45.426 126.463 43.111 125.092 43.338 55.683 55.248 53.257 55.702 51.473 56 53.232 56 53.269 55.726 55.646 55.26 55.622 56 59.928 56 125.626 45.665 127.081 45.426" mask="url(#h)"/>
    </g>
    <polyline fill="#212E46" points="201.146 261.605 201.134 261.555 200.434 260 198 260.547 198.787 262.189 198.861 262.426 203.131 272.166 203.194 272.253 208 278 201.208 261.878 201.146 261.605"/>
    <polyline fill="#212E46" points="209.456 282.51 210 282.339 209.469 282.476 208.517 281.553 206 279 207.483 281.929 208.082 283 209.456 282.51"/>
    <polyline fill="#212E46" points="217.541 277.828 210.874 258.757 210.778 258.489 210.258 257 208 257.537 208.507 259.05 208.592 259.294 215.645 278.682 216.092 279.976 216.104 280 218 279.219 218 279.207 217.553 277.853 217.541 277.828"/>
    <polyline fill="#212E46" points="225.559 273.777 220.69 256.521 220.62 256.299 220.249 255 218 255.503 218.429 256.86 218.51 257.118 223.751 274.573 223.751 274.596 224.18 276 224.191 276 226 275.193 225.988 275.169 225.559 273.801 225.559 273.777"/>
    <polyline fill="#212E46" points="235.616 269.549 231.874 253.414 231.812 253.19 231.49 252 229 252.53 229.322 253.78 229.384 254.015 233.51 270.433 233.906 271.988 233.906 272 236 271.175 236 271.163 235.616 269.56 235.616 269.549"/>
    <polyline fill="#212E46" points="243.705 266.367 241.426 251.418 241.381 251.12 241.222 250 239 250.596 239.193 251.703 239.227 251.942 241.789 267.261 241.789 267.273 242.073 268.988 242.073 269 244 268.166 243.705 266.379 243.705 266.367"/>
    <polyline fill="#212E46" points="253.772 263.085 252.414 249.227 252.402 248.972 252.342 248 250 248.547 250.06 249.555 250.072 249.822 251.886 265.976 251.886 266 254 265.101 254 265.077 253.772 263.109 253.772 263.085"/>
    <polyline fill="#212E46" points="262.927 258.843 262.461 246.102 262.461 245 260 245.564 260.049 246.466 260.073 246.729 260.771 259.77 260.771 259.795 260.857 261.975 260.857 262 263 261.148 263 261.123 262.927 258.856 262.927 258.843"/>
    <polyline fill="#212E46" points="271.817 254.653 272 243.994 272 243 270.067 243.606 270.067 244.589 270 255.635 270 258 271.817 257.091 271.817 254.653"/>
    <polyline fill="#212E46" points="280.206 250.392 280 252.976 280 253 282 252.388 281.286 250 281.286 250.012 280.206 250.392"/>
    <polyline fill="#212E46" points="210.689 282 211.166 281.854 211.325 281.806 213 281.114 212.988 281.102 212.071 280.034 212.059 280.022 208.99 276.296 208.953 276.26 204.246 270.653 204.184 270.568 196.616 261.649 196.604 261.649 194.953 259.634 194.929 259.622 194.929 259.574 181.222 243.349 179.755 241.565 174.73 235.655 173.202 233.822 167.834 227.439 166.196 225.461 160.449 218.665 158.664 216.553 152.55 209.284 150.594 206.991 144.114 199.248 141.999 196.736 134.944 188.363 132.682 185.693 125.089 176.64 122.607 173.703 105.159 153 105 153.049 121.812 173.606 124.245 176.543 131.63 185.584 133.782 188.205 140.678 196.627 142.732 199.139 149.127 206.881 151.022 209.224 156.976 216.505 158.774 218.665 164.361 225.558 165.988 227.548 171.257 233.919 172.786 235.812 177.689 241.832 179.168 243.603 207.522 278.25 207.571 278.299 209.833 281.017 210.689 282"/>
    <polyline fill="#212E46" points="200.634 286 200.67 286 203 285.004 202.313 284.032 202.301 284.008 172.444 244.177 171.071 242.27 166.436 236.099 164.94 234.107 159.974 227.511 158.441 225.47 153.157 218.401 151.526 216.202 145.922 208.768 144.12 206.351 138.247 198.504 136.346 195.94 129.958 187.462 127.996 184.789 121.178 175.727 119.008 172.8 104.159 153 104 153.097 118.91 173.577 120.332 175.57 126.941 184.668 128.903 187.352 135.083 195.831 136.922 198.406 142.685 206.302 144.439 208.719 149.883 216.202 151.526 218.401 156.7 225.519 158.184 227.56 163.04 234.277 164.462 236.257 169.06 242.549 170.446 244.432 199.996 285.065 199.996 285.077 200.621 285.988 200.634 286"/>
    <polyline fill="#212E46" points="194 290.074 193.46 289.161 105.621 156.143 104.319 154.073 104.233 154 104 154.073 104.086 154.304 105.474 156.375 191.151 290.147 191.691 291 194 290.074"/>
    <polyline fill="#212E46" points="114 172.568 109.968 165.515 108.725 163.416 104.608 156.399 103.378 154.288 103.231 154 103 154.06 103.146 154.372 104.45 156.555 108.433 163.56 108.433 163.632 109.578 165.743 113.549 172.892 113.61 173 113.537 172.856 114 172.568"/>
    <polyline fill="#212E46" points="179.739 295 182 294.013 181.557 293.16 114 173.012 114 173 115.065 175.254 114.814 175.449 114.825 175.473 179.296 294.22 179.667 295 179.739 295"/>
    <polyline fill="#212E46" points="172 298.005 171.701 297.313 140.945 234.283 139.819 232.146 136.3 224.742 135.079 222.461 131.619 215.129 130.421 212.848 126.806 205.529 125.764 203.32 122.149 196.001 121.095 193.719 117.492 186.4 116.426 184.118 112.823 176.872 111.781 174.663 108.166 167.259 107.112 165.05 103.496 157.743 102.443 155.534 102.144 155 102 155.073 102.287 155.583 102.383 155.522 103.437 157.719 103.365 157.84 106.813 165.208 106.813 165.22 107.064 165.086 108.106 167.283 107.938 167.453 107.938 167.502 111.326 174.893 111.542 175.318 111.326 174.869 111.733 174.663 112.787 176.848 112.44 177.102 112.452 177.102 115.84 184.421 116.354 184.154 117.456 186.412 116.941 186.752 116.953 186.788 120.425 194.022 121.035 193.719 122.125 195.964 121.466 196.304 121.466 196.316 124.914 203.672 125.74 203.344 126.794 205.541 125.968 205.881 125.98 205.917 129.428 213.224 130.374 212.848 131.559 215.154 130.481 215.506 130.493 215.53 133.929 222.8 135.079 222.473 136.228 224.718 135.019 224.985 138.383 232.377 138.586 232.79 138.395 232.377 139.772 232.122 140.897 234.283 139.496 234.635 139.52 234.659 169.45 298.308 169.749 299 172 298.005"/>
    <polyline fill="#212E46" points="127 216 126.075 213.992 122.938 207.023 122.925 207 122 207.35 125.05 214.354 126.05 213.981 127 216"/>
    <polyline fill="#212E46" points="123 207 122.16 205.007 118.736 197.568 118.478 197 118.736 197.592 118 197.93 118.013 197.954 121.178 205.345 122.134 204.983 123 207"/>
    <polyline fill="#212E46" points="119 194.674 115.879 187.382 114.884 184.955 111.836 177.602 110.852 175.308 107.646 167.81 106.663 165.54 103.445 157.958 102.461 155.761 102.146 155 102 155 102.304 155.833 102.449 156.183 102.304 155.809 102.437 155.761 103.433 157.97 103.299 158.091 103.299 158.103 106.408 165.709 106.626 165.528 107.586 167.858 107.416 168.003 107.416 168.052 110.379 175.598 110.816 175.308 111.763 177.626 111.326 177.843 111.386 177.904 114.349 185.329 114.446 185.546 114.349 185.317 114.859 184.991 115.867 187.369 115.345 187.623 118.381 195 119 194.71 119 194.674"/>
    <polyline fill="#212E46" points="163 302.082 162.782 301.543 135.002 235.019 134.093 232.851 131.04 225.552 130.131 223.311 127.09 216 126 216.367 126.024 216.392 128.92 223.617 128.932 223.654 130.107 223.323 131.016 225.552 129.828 225.859 132.724 233.17 133.184 234.284 132.724 233.158 134.081 232.827 134.99 235.043 133.62 235.362 133.633 235.399 160.577 302.461 160.795 303 163 302.082"/>
    <g transform="translate(102 158)">
      <mask id="j" fill="white">
        <use xlink:href="#i"/>
      </mask>
      <polyline fill="#212E46" points="14.562 40.929 13.717 38.714 11.134 31.22 10.313 28.774 7.657 21.206 6.824 18.919 4.168 11.12 3.263 8.76 .535 .876 .366 .949 .378 .973 3.022 8.894 3.227 8.736 4.108 11.096 3.854 11.291 3.854 11.364 6.426 19.126 6.776 18.895 7.621 21.182 7.186 21.486 7.198 21.523 9.77 29.066 10.289 28.799 11.109 31.195 10.53 31.487 10.542 31.536 13.041 39.019 13.705 38.69 14.526 40.916 13.777 41.282 13.789 41.294 16.3 48.715 17.133 48.411 14.562 40.929" mask="url(#j)"/>
      <polyline fill="#212E46" points="27.068 76.686 24.557 69.581 23.797 67.367 21.298 60.176 20.465 57.889 17.966 50.638 17.157 48.496 17.954 50.638 17.037 50.978 17.049 51.015 19.475 58.278 19.487 58.291 20.429 57.913 21.286 60.188 20.32 60.517 22.662 67.683 22.674 67.683 23.748 67.415 24.545 69.569 23.41 69.873 23.422 69.885 25.776 76.918 25.776 76.954 27.044 76.662 27.756 78.864 26.525 79.144 48.821 146 51.38 146 27.816 78.816 27.068 76.686" mask="url(#j)"/>
    </g>
    <polyline fill="#212E46" points="102 158 101.4 156.052 101.063 155 101 155.072 101.253 156.1 101.337 156.04 102 158"/>
    <g transform="translate(100 155)">
      <mask id="l" fill="white">
        <use xlink:href="#k"/>
      </mask>
      <polyline fill="#212E46" points="6.674 23.008 4.521 14.995 3.772 12.547 1.441 4.436 .775 1.989 .406 .698 .335 .771 .632 2.074 .739 2.5 .632 2.037 .763 1.976 1.441 4.461 1.298 4.595 3.546 12.717 3.546 12.729 3.725 12.571 4.462 15.019 4.212 15.214 4.212 15.238 6.234 23.324 6.567 24.505 6.246 23.324 6.674 23.008" mask="url(#l)"/>
      <polyline fill="#212E46" points="22.968 80.926 20.946 73.887 20.352 71.743 18.401 64.632 17.735 62.342 15.725 55.072 15.047 52.856 13.037 45.366 12.359 43.065 10.266 35.563 9.517 33.115 6.757 23.3 7.316 25.419 6.9 25.699 8.993 33.432 9.481 33.103 10.218 35.539 9.648 35.819 9.671 35.88 11.669 43.418 12.3 43.101 12.978 45.391 12.288 45.732 12.288 45.744 14.215 53.197 15.035 52.856 15.69 55.096 14.881 55.413 14.893 55.449 16.76 62.72 16.76 62.732 17.711 62.342 18.377 64.632 17.438 64.948 19.234 72.06 19.353 72.45 19.234 72.036 20.328 71.743 20.958 73.911 19.9 74.179 19.9 74.191 21.696 81.194 22.945 80.901 23.527 82.996 22.279 83.288 22.29 83.3 39.75 149 42.165 149 23.563 82.996 22.968 80.926" mask="url(#l)"/>
    </g>
    <polyline fill="#212E46" points="104.415 182 104.022 182.284 104 182.295 104.011 182.331 105.519 189.976 105.53 190 106 189.669 104.426 182.035 104.415 182"/>
    <g transform="translate(106 191)">
      <mask id="n" fill="white">
        <use xlink:href="#m"/>
      </mask>
      <polyline fill="#212E46" points="1.195 .509 .601 .803 .589 .815 2.26 8.486 2.26 8.523 2.272 8.51 2.937 8.131 3.24 9.44 2.95 8.107 1.195 .509" mask="url(#n)"/>
      <polyline fill="#212E46" points="11.833 47.916 10.538 48.197 10.538 48.222 11.458 52.455 12.088 52.112 12.608 54.62 11.979 54.938 11.991 54.987 13.649 63.074 14.399 62.731 14.968 65.166 14.194 65.471 15.852 73.619 16.747 73.252 17.304 75.625 16.396 76.017 16.396 76.029 18.067 84.018 19.144 83.688 19.64 86.098 18.539 86.428 20.197 94.245 20.197 94.27 21.419 94.025 22.012 96.46 20.742 96.741 22.327 104.546 22.339 104.583 23.743 104.326 24.3 106.712 22.86 106.92 22.86 106.932 24.118 113 26.382 113 11.833 47.928 11.833 47.916" mask="url(#n)"/>
    </g>
    <polyline fill="#212E46" points="114.017 221.023 114.017 221 113 221.326 114.569 227.977 114.569 228 115.724 227.709 116 229 115.762 227.744 114.017 221.023"/>
    <polyline fill="#212E46" points="109.825 201.024 109.825 201 109 201.292 109 201.316 110.729 208.808 110.742 208.857 111.62 208.443 112 210 111.646 208.419 109.825 201.024"/>
    <polyline fill="#212E46" points="111.981 212 111.028 212.421 111 212.421 111 212.434 112.766 219.885 112.766 219.923 112.794 219.923 113.902 219.604 114 220 113.902 219.579 111.981 212"/>
    <polyline fill="#212E46" points="117.635 237.534 118 239 117.671 237.534 116.106 231.012 116.106 231 115.035 231.289 115 231.289 115 231.312 116.412 237.753 116.412 237.776 116.435 237.776 117.635 237.534"/>
    <polyline fill="#212E46" points="99.156 156 99 156.092 99.403 158 99.494 157.954 99.481 157.924 99.156 156"/>
    <polyline fill="#212E46" points="100.142 160.343 100.059 160 100.142 160.356 100.012 160.429 100 160.441 101.704 168.975 101.704 169 102 168.767 102 168.743 100.142 160.343"/>
    <polyline fill="#212E46" points="102.584 171.189 102 169 102.543 171.225 102.176 171.459 102.163 171.471 104.118 179.684 104.118 179.697 104.145 179.684 104.606 179.488 105 181 104.633 179.451 102.584 171.189"/>
    <polyline fill="#212E46" points="99.866 160.672 100 160.598 99.915 160.245 99.415 158 99.39 158.012 99.305 158.049 99.281 158.061 0 241.122 0 242 99.854 160.684 99.866 160.672"/>
    <polyline fill="#212E46" points="100.143 157 100 157.069 100.117 157.594 100.702 160 100.728 159.972 100.884 159.82 100.143 157"/>
    <polyline fill="#212E46" points="102 157.921 101.859 157.616 101.118 156 101.024 156.049 101 156.059 101.788 158 101.835 157.98 102 157.921"/>
    <polyline fill="#212E46" points="102.118 156 102 156.041 102.129 156.355 102.849 158 102.882 157.959 103 157.858 102.118 156"/>
    <polyline fill="#212E46" points="103.111 155 103.03 155.052 103 155.063 103.929 157 103.939 156.99 104 156.885 103.111 155"/>
    <polyline fill="#212E46" points="102.669 170.787 103 170.554 102.51 168.331 102.436 168 102.424 168 102.118 168.233 102.118 168.233 0 244.177 0 245 102.657 170.799 102.669 170.787"/>
    <polyline fill="#212E46" points="103.244 167 103.061 167.176 103 167.231 103.683 170 103.744 169.946 104 169.729 103.244 167"/>
    <polyline fill="#212E46" points="104.215 166 104.032 166.182 104 166.224 104.731 169 104.774 168.944 105 168.72 104.215 166"/>
    <polyline fill="#212E46" points="105.202 165 105.02 165.215 105 165.244 105.808 168 105.859 167.943 106 167.77 105.202 165"/>
    <polyline fill="#212E46" points="107.209 164 107.018 164.111 107 164.111 107.827 166 107.873 165.96 108 165.819 107.209 164"/>
    <polyline fill="#212E46" points="104.548 181.632 104.988 181.343 105 181.331 104.793 180.478 104.439 179 104.024 179.192 103.999 179.204 0 246.243 0 247 104.524 181.644 104.548 181.632"/>
    <polyline fill="#212E46" points="105.478 178.323 105.411 178 105.4 178 105 178.35 105.3 179.655 105.6 181 105.611 180.973 106 180.664 105.478 178.323"/>
    <polyline fill="#212E46" points="108.314 176 108.029 176.268 108 176.296 108.637 179 108.647 179 109 178.648 108.314 176"/>
    <polyline fill="#212E46" points="110.328 176 110.017 176.341 110 176.37 110.672 179 110.69 178.986 111 178.73 110.328 176"/>
    <polyline fill="#212E46" points="112.279 175 112 175.167 112.148 175.532 112.738 177 112.762 176.98 113 176.773 112.279 175"/>
    <polyline fill="#212E46" points="114.609 173.01 114.594 173 114 173.232 114.094 173.348 115.609 175 115.672 174.952 116 174.797 114.609 173.01"/>
    <polyline fill="#212E46" points="106.391 191.733 106.988 191.444 107 191.444 106.489 189 106.452 189.012 105.929 189.349 105.893 189.361 0 249.278 0 250 106.379 191.745 106.391 191.733"/>
    <polyline fill="#212E46" points="108.41 188 108.019 188.362 108 188.388 108.514 191 108.543 190.987 109 190.679 108.41 188"/>
    <polyline fill="#212E46" points="111.404 187 111.026 187.296 111 187.309 111.553 190 111.579 189.973 112 189.65 111.404 187"/>
    <polyline fill="#212E46" points="114.672 185 114 185.368 114.128 185.627 115.264 188 115.312 187.973 116 187.686 114.672 185"/>
    <polyline fill="#212E46" points="116.637 184 116 184.307 117.348 187 117.363 186.986 118 186.595 116.637 184"/>
    <polyline fill="#212E46" points="108.223 202.606 108.988 202.316 109 202.316 108.757 201.291 108.454 200 107.786 200.374 107.774 200.386 0 253.349 0 254 108.211 202.606 108.223 202.606"/>
    <polyline fill="#212E46" points="111.496 198 111.027 198.359 111 198.373 111.46 201 111.487 200.986 112 200.599 111.496 198"/>
    <polyline fill="#212E46" points="115.452 197 115.008 197.38 115 197.38 115.5 200 116 199.577 115.452 197"/>
    <polyline fill="#212E46" points="118.692 196.895 117.862 195 117.846 195.014 117.062 195.359 117 195.388 118.123 198 119 197.598 118.692 196.895"/>
    <polyline fill="#212E46" points="120.77 193 120.081 193.35 120 193.379 121.23 196 121.257 195.986 122 195.593 120.77 193"/>
    <polyline fill="#212E46" points="125.893 203 125.025 203.388 125 203.388 126.107 206 126.132 206 127 205.598 125.893 203"/>
    <polyline fill="#212E46" points="123 206.585 122.882 206.309 122 204 121.026 204.415 121 204.429 122 207 122.026 207 123 206.585"/>
    <polyline fill="#212E46" points="118.057 206.099 118.029 206 117.043 206.354 117 206.354 117.9 209 117.914 208.986 119 208.59 118.057 206.099"/>
    <polyline fill="#212E46" points="115.12 208 114.016 208.398 114 208.412 114.864 211 114.912 210.986 116 210.616 115.12 208"/>
    <polyline fill="#212E46" points="111.156 211.617 111.988 211.219 112 211.207 111.853 210.544 111.499 209 110.679 209.41 0 255.337 0 256 111.132 211.617 111.156 211.617"/>
    <polyline fill="#212E46" points="129.906 212 129.033 212.423 129 212.45 130.006 215 130.006 214.986 131 214.591 129.906 212"/>
    <polyline fill="#212E46" points="127 216.589 126.904 216.37 125.994 214 125.036 214.438 125 214.452 125.922 217 127 216.589"/>
    <polyline fill="#212E46" points="122.066 215 121.039 215.433 121 215.433 121.895 218 121.947 217.986 123 217.609 122.066 215"/>
    <polyline fill="#212E46" points="117.188 217 116.029 217.444 116 217.458 116.783 220 116.855 219.972 118 219.611 117.188 217"/>
    <polyline fill="#212E46" points="112.986 221.538 113.976 221.201 114 221.201 113.597 219.373 113.511 219 112.546 219.301 112.522 219.301 0 258.387 0 259 112.962 221.538 112.986 221.538"/>
    <polyline fill="#212E46" points="135.015 222 134.031 222.388 134 222.402 134.903 225 134.964 224.971 136 224.656 135.015 222"/>
    <polyline fill="#212E46" points="130.133 224 129.012 224.26 129 224.26 129.855 226 129.867 225.99 131 225.75 130.133 224"/>
    <polyline fill="#212E46" points="125.165 224 124.038 224.217 124 224.227 124.747 226 124.81 225.99 126 225.744 125.165 224"/>
    <polyline fill="#212E46" points="120.269 226 119 226.239 119.138 226.577 119.717 228 119.772 227.99 121 227.771 120.269 226"/>
    <polyline fill="#212E46" points="83.914 237.55 86.356 236.799 86.356 236.966 94.402 234.829 94.365 234.579 96.734 233.875 96.807 234.173 104.792 232.048 104.731 231.583 107.173 230.843 107.197 231.404 114.84 229.351 114.877 229.351 115.988 229.053 116 229.053 115.853 228.325 115.585 227 114.462 227.298 114.449 227.298 0 259.487 0 260 83.939 237.61 83.914 237.55"/>
    <polyline fill="#212E46" points="140.651 233 139 233.203 139.23 233.531 140.292 235 140.321 235 142 234.72 140.651 233"/>
    <polyline fill="#212E46" points="134.198 234 133 234.26 133.406 235.144 133.781 236 133.791 235.99 135 235.74 134.198 234"/>
    <polyline fill="#212E46" points="129.289 235 128.024 235.234 128 235.244 128.711 237 128.771 236.99 130 236.766 129.289 235"/>
    <polyline fill="#212E46" points="122.368 237 121.013 237.245 121 237.255 121.606 239 121.645 239 123 238.755 122.368 237"/>
    <polyline fill="#212E46" points="94.792 243 87 244.479 87.245 246 95 244.595 94.792 243"/>
    <polyline fill="#212E46" points="105 242.212 105 241.843 104.876 240 97.062 241.911 97 241.939 97.223 244 105 242.212"/>
    <polyline fill="#212E46" points="35 256.009 35.411 257 43 255.086 42.566 254 35 256.009"/>
    <polyline fill="#212E46" points="66.392 251 74 249.418 73.715 248 66 249.711 66.392 251"/>
    <polyline fill="#212E46" points="107.035 242 115.753 240.206 116.988 239.943 117 239.943 116.885 239.451 116.527 238 115.349 238.24 115.326 238.24 107 240.114 107.012 240.983 107.035 242"/>
    <polyline fill="#212E46" points="55.473 253 63 251.369 62.597 250 55 251.821 55.473 253"/>
    <polyline fill="#212E46" points="21.643 259 0 263.537 0 264 22 259.683 21.643 259"/>
    <polyline fill="#212E46" points="45.411 255 53 253.187 52.566 252 45 253.877 45.411 255"/>
    <polyline fill="#212E46" points="32.644 257.221 32.542 257 24 259.088 24.331 259.696 24.483 260 33 257.995 32.644 257.221"/>
    <polyline fill="#212E46" points="32.69 256.364 34 256 32 256.559 32.591 256.442 32.69 256.364"/>
    <polyline fill="#212E46" points="78.312 248 86 246.489 85.712 245 78 246.611 78.312 248"/>
    <polyline fill="#212E46" points="107.623 242.028 107.595 241 105 242.202 105 242.513 105.488 250 108 248.983 107.623 242.028"/>
    <polyline fill="#212E46" points="106.743 251 105 252.025 105.347 260 107 259.095 106.743 251"/>
    <g transform="translate(106 262)">
      <mask id="p" fill="white">
        <use xlink:href="#o"/>
      </mask>
      <polyline fill="#212E46" points="2.288 .813 .325 1.667 .715 9.264 2.592 8.611 2.288 .813" mask="url(#p)"/>
    </g>
    <polyline fill="#212E46" points="108.703 273 107 273.654 107.385 281 109 280.489 108.703 273"/>
    <polyline fill="#212E46" points="108.649 282 107 282.501 107.386 290 109 289.599 108.649 282"/>
    <polyline fill="#212E46" points="109.692 292 108 292.341 108.41 299 110 298.784 109.692 292"/>
    <g transform="translate(49 232)">
      <mask id="r" fill="white">
        <use xlink:href="#q"/>
      </mask>
      <polyline fill="#212E46" points="53.638 .948 53.697 1.415 56.045 .768 56.021 .205 53.638 .948" mask="url(#r)"/>
      <polyline fill="#212E46" points="52.232 67.092 51.564 60.38 51.278 58.258 50.694 51.509 50.408 49.387 49.753 42.351 48.824 33.001 48.621 30.844 47.894 23.519 47.656 21.278 46.905 13.702 46.655 11.461 46.44 9.65 44.2 10.166 44.402 11.976 44.498 12.695 44.772 14.985 45.558 22.297 45.809 24.526 46.631 31.743 46.881 33.792 47.739 40.913 47.906 42.998 48.764 49.951 48.919 51.977 49.741 58.677 49.92 60.763 50.718 67.416 50.897 69.322 51.111 71 52.625 71 52.434 69.082 52.232 67.092" mask="url(#r)"/>
      <polyline fill="#212E46" points="43.521 3.957 43.556 4.208 45.904 3.549 45.832 3.249 43.521 3.957" mask="url(#r)"/>
      <polyline fill="#212E46" points="36.847 13.57 36.609 11.844 34.297 12.419 34.583 14.026 44.474 71 46.011 71 36.847 13.57" mask="url(#r)"/>
      <polyline fill="#212E46" points="33.32 6.941 33.344 7.001 35.703 6.354 35.703 6.186 33.32 6.941" mask="url(#r)"/>
      <polyline fill="#212E46" points="26.647 14.158 24.263 14.721 24.549 16.171 37.503 71 39.219 71 26.956 15.656 26.647 14.158" mask="url(#r)"/>
      <polyline fill="#212E46" points="16.529 16.471 14.194 16.963 14.611 18.341 30.448 71 32.104 71 16.923 17.79 16.529 16.471" mask="url(#r)"/>
      <polyline fill="#212E46" points="6.341 18.797 4.029 19.336 4.482 20.451 22.976 71 24.728 71 6.829 19.983 6.341 18.797" mask="url(#r)"/>
      <polyline fill="#212E46" points="2.349 36.729 .704 37.448 3.838 44.796 4.041 44.689 5.161 44.233 5.697 46.558 4.791 46.918 15.302 71 17.089 71 2.623 36.597 2.349 36.729" mask="url(#r)"/>
    </g>
    <polyline fill="#212E46" points="49.058 268 51 267.141 47.965 260 46 260.976 49.058 268"/>
    <g transform="translate(42 253)">
      <mask id="t" fill="white">
        <use xlink:href="#s"/>
      </mask>
      <polyline fill="#212E46" points=".175 1.396 .632 2.36 2.125 5.771 4.219 4.723 3.004 1.878 2.57 .817 .175 1.396" mask="url(#t)"/>
    </g>
    <polyline fill="#212E46" points="54.311 298 56 297.563 52.723 291 51 291.527 54.311 298"/>
    <polyline fill="#212E46" points="37 265.176 40.132 272 42 271.091 38.04 262 38.957 264.117 37 265.176"/>
    <polyline fill="#212E46" points="45.2 281 47 280.28 43.878 273 42 273.859 45.2 281"/>
    <polyline fill="#212E46" points="49.289 290 51 289.418 47.801 282 46 282.696 49.289 290"/>
    <polyline fill="#212E46" points="32.692 256.329 32.58 256.399 32 256.693 32.313 257.351 35.069 263 37 261.931 34.578 256.857 34.176 256 32.692 256.329"/>
    <g transform="translate(23 261)">
      <mask id="v" fill="white">
        <use xlink:href="#u"/>
      </mask>
      <polyline fill="#212E46" points="3.883 7.355 5.819 6.32 2.464 .385 .432 1.539 3.883 7.355" mask="url(#v)"/>
    </g>
    <polyline fill="#212E46" points="31.223 276 33 275.131 29.81 269 28 269.953 31.223 276"/>
    <polyline fill="#212E46" points="46.03 300 48 299.63 43.97 293 42 293.561 46.03 300"/>
    <polyline fill="#212E46" points="35.867 283 38 282.287 34.081 276 32 276.856 35.867 283"/>
    <polyline fill="#212E46" points="41.966 292 44 291.417 40.009 285 38 285.643 41.966 292"/>
    <polyline fill="#212E46" points="22 259.657 22.407 260.543 22.719 261 25 259.629 24.647 259 22 259.657"/>
    <polyline fill="#212E46" points="109.502 299.637 108 299.875 108.085 302 109.575 301.775 128.268 298.688 128.558 298.65 130 298.438 129.443 296 128.037 296.262 127.807 296.3 109.502 299.637"/>
    <polyline fill="#212E46" points="109.652 290.333 108 290.728 108.144 293 109.724 292.63 126.468 288.802 126.743 288.741 128 288.457 127.414 286 126.205 286.247 125.965 286.296 109.652 290.333"/>
    <polyline fill="#212E46" points="108.741 280.138 107 280.685 107.142 283 108.812 282.491 123.697 277.925 123.922 277.849 125 277.506 124.514 275 123.461 275.343 123.153 275.458 108.741 280.138"/>
    <polyline fill="#212E46" points="107.91 269.114 106 269.76 106.112 272 108.034 271.355 121.772 266.757 122.07 266.651 123 266.276 122.43 264 121.512 264.352 121.276 264.446 107.91 269.114"/>
    <polyline fill="#212E46" points="108.045 259.658 106 260.608 106.184 263 108.155 262.089 119.935 256.962 120.216 256.835 121 256.519 120.424 254 119.665 254.354 119.457 254.468 108.045 259.658"/>
    <polyline fill="#212E46" points="107.169 249.42 105 250.506 105.169 253 107.289 251.951 117.12 246.975 117.373 246.852 118 246.531 117.482 244 116.855 244.346 116.602 244.457 107.169 249.42"/>
    <polyline fill="#212E46" points="107 240.844 106.99 240 105 240.5 105.102 242 107 240.844"/>
    <g transform="translate(1 288)">
      <mask id="x" fill="white">
        <use xlink:href="#w"/>
      </mask>
      <polyline fill="#212E46" points="54.2 12.88 54.236 12.941 55.976 12.525 54.853 10.164 53.04 10.641 54.2 12.88" mask="url(#x)"/>
      <polyline fill="#212E46" points="49.487 3.581 51.336 3.006 50.309 .877 48.46 1.44 49.487 3.581" mask="url(#x)"/>
      <polyline fill="#212E46" points="43.396 5.294 42.26 3.288 40.351 3.887 .859 16 6.708 16 41.56 5.869 43.396 5.294" mask="url(#x)"/>
    </g>
    <polyline fill="#212E46" points="56 279.598 55.423 277 54.218 277.509 54 277.629 55.026 280 56 279.598"/>
    <polyline fill="#212E46" points="45.06 283 47 282.26 45.952 280 44 280.767 45.06 283"/>
    <polyline fill="#212E46" points="40 284.973 38.946 283 36.912 283.731 0 297.247 0 299 38.088 285.63 40 284.973"/>
    <polyline fill="#212E46" points="49.987 270 51.712 269.286 52 269.155 51.087 267 49 267.869 49.987 270"/>
    <polyline fill="#212E46" points="42.012 274 44 273.128 42.965 271 41 271.936 42.012 274"/>
    <polyline fill="#212E46" points="35 275.899 33.916 274 31.954 274.893 0 289.176 0 291 33.026 276.792 35 275.899"/>
    <polyline fill="#212E46" points="30 268.888 28.942 267 27.006 268.066 0 282.1 0 284 28.028 269.856 30 268.888"/>
    <polyline fill="#212E46" points="36.941 265 39 264 38.035 262 36 263.071 36.941 265"/>
    <polyline fill="#212E46" points="45.956 261 48 260.057 47.105 258 45 258.989 45.956 261"/>
    <polyline fill="#212E46" points="32.104 256.325 32.78 256 32 256.117 32.104 256.325"/>
    <polyline fill="#212E46" points="26 260.825 25.096 259.275 24.949 259 22.897 260.2 22.921 260.275 0 273.988 0 276 23.935 262.038 26 260.825"/>
    <polyline fill="#212E46" points="209.547 81.062 0 47 0 47.451 212 84 209.547 81.062"/>
    <polyline fill="#212E46" points="200.741 69.298 0 45 0 45.455 203 72 200.741 69.298"/>
    <polyline fill="#212E46" points="191.896 58.407 0 43 0 43.438 194 61 191.896 58.407"/>
    <polyline fill="#212E46" points="185 51 183.071 48.705 11.499 42.471 7.836 42.302 0 42 0 42.495 7.739 42.834 185 51"/>
    <polyline fill="#212E46" points="11.754 40.191 23.629 40.249 27.292 40.249 39.168 40.353 42.831 40.353 54.803 40.387 58.357 40.387 70.232 40.491 73.993 40.538 85.868 40.538 89.519 40.642 101.552 40.642 105.057 40.699 177 41 175.217 39 104.633 39.301 100.97 39.301 89.106 39.405 85.552 39.405 73.786 39.451 70.111 39.451 58.248 39.543 54.694 39.543 42.831 39.601 39.168 39.601 27.389 39.694 23.629 39.694 11.863 39.751 8.2 39.751 0 39.821 0 40.133 8.2 40.191 11.754 40.191"/>
    <polyline fill="#212E46" points="12.212 37.596 23.902 37.12 27.685 37.025 39.277 36.621 39.374 36.621 42.841 36.467 54.639 36.11 58.203 35.955 69.637 35.492 73.299 35.432 84.793 34.981 88.248 34.826 99.682 34.47 103.136 34.315 170 31.949 168.37 30 102.723 32.984 99.256 33.138 87.883 33.649 84.416 33.804 73.092 34.315 69.528 34.47 58.045 34.981 54.53 35.123 42.841 35.753 39.374 35.896 27.685 36.407 24.011 36.562 12.322 37.073 12.212 37.073 8.648 37.227 0 37.679 0 38 8.551 37.75 12.212 37.596"/>
    <polyline fill="#212E46" points="12.527 35.025 24.215 34.112 27.888 33.775 39.37 32.813 42.836 32.6 54.256 31.625 57.723 31.413 68.839 30.438 72.403 30.225 83.422 29.313 86.766 29.038 97.676 28.175 101.033 27.85 163 22.9 161.48 21 100.558 26.563 97.262 26.825 86.45 27.8 83.105 28.125 72.196 29.15 68.742 29.363 57.625 30.375 54.159 30.712 42.836 31.725 39.37 32.063 27.888 33.075 24.215 33.462 12.637 34.487 9.122 34.8 0 35.638 0 36 8.964 35.237 12.527 35.025"/>
    <polyline fill="#212E46" points="12.947 32.41 24.343 31.082 28.065 30.726 42.698 28.982 53.778 27.654 57.112 27.298 67.829 26.017 71.272 25.661 81.843 24.38 85.031 24.024 95.469 22.79 98.561 22.446 156 15.744 154.533 14 98.136 21.165 95.009 21.568 84.704 22.909 81.479 23.253 71.078 24.593 67.72 24.996 56.966 26.372 53.669 26.788 42.698 28.176 39.242 28.626 28.065 30.062 24.513 30.465 13.057 31.9 9.505 32.363 0 33.632 0 34 9.408 32.873 12.947 32.41"/>
    <polyline fill="#212E46" points="115.951 2.863 113.608 3.393 113.209 2.033 105.551 3.934 105.865 5.209 103.426 5.739 103.112 4.536 95.442 6.437 95.623 7.556 93.28 8.157 93.099 7.014 85.248 8.963 85.309 9.962 82.965 10.491 82.893 9.541 74.933 11.526 74.994 12.38 72.566 12.921 72.566 12.103 64.595 14.076 64.595 14.81 62.167 15.412 62.167 14.678 58 15.713 58.302 17 131 0 125.71 0 125.891 .517 123.62 1.047 123.246 0 121.434 0 115.516 1.468 115.951 2.863"/>
    <polyline fill="#212E46" points="50 18.784 50.227 20 57 18.306 56.701 17 50 18.784"/>
    <polyline fill="#212E46" points="2.074 29.575 2 30 9.926 28.541 10 28 2.074 29.575"/>
    <polyline fill="#212E46" points="41 19.832 41.154 21 48 19.248 47.775 18 41 19.832"/>
    <polyline fill="#212E46" points="31 21.977 31 23 38 21.132 37.848 20 31 21.977"/>
    <polyline fill="#212E46" points="12 27.452 12 28 19.924 26.615 20 26 12 27.452"/>
    <polyline fill="#212E46" points="21 25.045 21.08 26 28 24.023 28 23 21 25.045"/>
    <polyline fill="#212E46" points="1.694 29.117 5 0 3.118 0 0 24.421 0 30 1.624 29.635 1.694 29.117"/>
    <polyline fill="#212E46" points="9 29 11.497 28.387 11.497 27.689 13 0 11.012 0 9.075 28.314 9 29"/>
    <polyline fill="#212E46" points="19 26 21 25.474 20.928 24.636 20.785 0 19.205 0 19.062 25.234 19 26"/>
    <polyline fill="#212E46" points="29.084 24 31 23.468 31 22.56 29.674 0 28 0 29.084 23.093 29.084 24"/>
    <polyline fill="#212E46" points="38.667 22 41 21.451 40.833 20.377 38.09 0 36 0 38.5 20.987 38.667 22"/>
    <polyline fill="#212E46" points="47.139 19 49 18.486 48.791 17.387 47.48 9.909 46.996 10.119 46.654 7.7 47.062 7.549 45.718 0 44 0 46.93 17.902 47.139 19"/>
    <polyline fill="#212E46" points="55.705 4.411 55.705 4.434 55.717 4.434 56 4.284 56 4.273 54.89 0 53 0 54.228 5 55.705 4.411"/>
    <polyline fill="#212E46" points="55.659 6 54.769 6.457 54.011 6.852 54 6.827 54 6.84 55.868 15.753 56.143 17 58 16.531 57.725 15.21 55.659 6"/>
    <polyline fill="#212E46" points="65 .565 65 3 65.013 3 72 0 66.372 0 65.013 .552 65 .565"/>
    <polyline fill="#212E46" points="54 7.976 54.011 8 54.797 7.623 55.718 7.187 55.73 7.175 62 4.369 62 2 55.218 4.959 55.206 4.959 54.933 5.112 54.922 5.112 54.785 7.611 54 7.976"/>
    <polyline fill="#212E46" points="47 7.177 47.403 10 47.975 9.755 47.481 7 47 7.177"/>
    <polyline fill="#212E46" points="128 .494 127.795 0 125 0 125.425 1 128 .494"/>
    <polyline fill="#212E46" points="114.515 1.798 114.876 3 117 2.532 116.529 1.064 116.201 0 114 0 114.46 1.596 114.515 1.798"/>
    <polyline fill="#212E46" points="105.068 4.742 105.402 6 108 5.447 107.666 4.113 107.601 3.862 106.662 0 104 0 105.016 4.491 105.068 4.742"/>
    <polyline fill="#212E46" points="94.232 6.879 94.43 8 97 7.41 96.748 6.065 95.543 0 93 0 94.179 6.596 94.232 6.879"/>
    <polyline fill="#212E46" points="83.842 9.094 83.906 10 86 9.495 85.946 8.544 85.924 8.28 85.05 0 83 0 83.82 8.853 83.842 9.094"/>
    <polyline fill="#212E46" points="72.466 12.177 72.466 13 75 12.455 74.937 11.596 74.912 11.318 74.282 0 72 0 72.466 11.923 72.466 12.177"/>
    <polyline fill="#212E46" points="63.184 4.368 63 15.006 63 16 64.942 15.394 64.942 14.401 65 3.375 65 1 63.184 1.921 63.184 4.368"/>
    <polyline fill="#212E46" points="55.808 7.61 56 5.024 56 5 54 5.622 54.704 8 54.704 7.988 55.808 7.61"/>
    <polyline fill="#212E46" points="156.36 15.938 161.355 21.869 162.881 23.724 168.255 30.131 169.891 32.132 175.618 38.978 177.414 41.09 183.532 48.387 185.473 50.706 191.946 58.492 194.059 61.018 201.105 69.439 203.376 72.123 210.948 81.227 213.427 84.168 230.853 105 231 104.951 214.208 84.278 211.79 81.325 204.427 72.221 202.265 69.597 195.377 61.128 193.326 58.602 186.939 50.816 185.058 48.448 179.111 41.138 177.316 38.978 171.723 32.035 170.086 30.033 164.835 23.614 163.321 21.722 158.412 15.669 156.934 13.888 145.65 0 143 0 154.882 14.144 156.36 15.938"/>
    <polyline fill="#212E46" points="165.071 14.847 169.72 21.009 171.2 22.998 176.155 29.584 177.684 31.622 182.956 38.694 184.583 40.889 190.174 48.313 197.832 58.562 199.716 61.122 206.114 69.588 208.059 72.257 214.873 81.305 217.014 84.229 231.841 104 232 103.891 217.124 83.44 215.705 81.463 209.111 72.366 207.166 69.697 200.988 61.231 199.141 58.659 193.404 50.775 191.654 48.361 186.223 40.889 184.583 38.694 179.421 31.574 177.941 29.536 173.096 22.84 171.665 20.851 167.077 14.58 165.707 12.7 156.483 0 154 0 163.701 12.955 165.071 14.847"/>
    <polyline fill="#212E46" points="230.701 103.927 230.785 104 231 103.927 230.94 103.696 229.579 101.626 166.269 0 164 0 229.436 101.857 230.701 103.927"/>
    <polyline fill="#212E46" points="222 85 220.928 82.741 221.169 82.545 221.157 82.533 176.168 0 174 0 222 84.988 222 85"/>
    <polyline fill="#212E46" points="222 84.525 226.044 91.55 227.262 93.637 231.392 100.603 232.622 102.702 232.769 103 233 102.928 232.842 102.63 231.55 100.46 227.579 93.494 227.579 93.411 226.434 91.311 222.451 84.215 222.317 84 222.451 84.239 222 84.525"/>
    <polyline fill="#212E46" points="194.786 26.052 198.355 33.51 199.577 35.828 203.073 43.224 204.282 45.53 207.923 52.926 208.988 55.171 212.641 62.555 213.706 64.86 217.359 72.257 218.411 74.575 222.052 81.885 223.129 84.117 226.77 91.599 227.835 93.832 231.476 101.228 232.54 103.46 232.855 104 233 103.926 232.71 103.411 232.601 103.473 231.536 101.24 231.621 101.142 228.137 93.672 227.895 93.795 226.831 91.575 227 91.428 227 91.366 223.577 83.897 223.335 83.418 223.577 83.921 223.165 84.13 222.101 81.922 222.44 81.677 222.44 81.664 219.028 74.256 218.484 74.538 217.383 72.244 217.891 71.913 217.867 71.876 214.383 64.566 213.778 64.86 212.665 62.591 213.331 62.26 213.319 62.248 209.847 54.815 209.012 55.134 207.948 52.914 208.782 52.583 208.77 52.546 205.286 45.162 204.331 45.542 203.133 43.212 204.222 42.856 204.21 42.831 200.726 35.472 199.577 35.803 198.415 33.546 199.649 33.277 196.226 25.807 195.923 25.194 196.214 25.807 194.835 26.064 193.685 23.881 195.113 23.525 195.089 23.501 184.044 0 182 0 193.637 23.881 194.786 26.052"/>
    <polyline fill="#212E46" points="201.103 24.373 204.079 31.575 204.98 33.786 207.957 40.988 207.957 41 209 40.65 208.988 40.601 206.166 33.484 206.154 33.448 204.992 33.762 204.115 31.575 205.277 31.261 202.443 24.059 202.229 23.551 202.443 24.071 201.115 24.397 200.237 22.21 201.553 21.884 201.542 21.859 192.838 0 191 0 200.213 22.234 201.103 24.373"/>
    <polyline fill="#212E46" points="212 52 212.492 53.416 215.377 61.056 215.738 62 215.377 61.031 216 60.696 215.989 60.658 213.333 53.043 212.514 53.429 212 52"/>
    <polyline fill="#212E46" points="208 42 208.955 44.035 212.069 50.965 212.069 51 213 50.663 209.973 43.674 208.98 44.047 208 42"/>
    <polyline fill="#212E46" points="217 62.35 220.109 69.631 221.104 72.057 224.164 79.41 225.148 81.692 228.354 89.19 229.349 91.472 232.555 99.054 233.539 101.251 233.842 102 234 102 233.709 101.167 233.526 100.781 233.709 101.191 233.563 101.251 232.567 99.042 232.701 98.897 229.592 91.291 229.374 91.484 228.402 89.154 228.596 89.009 228.596 88.973 225.621 81.414 225.184 81.704 224.225 79.386 224.674 79.169 224.614 79.108 221.651 71.695 221.129 72.009 220.133 69.643 220.643 69.389 217.607 62 217 62.302 217 62.35"/>
    <polyline fill="#212E46" points="207.286 22.966 209.836 29.988 209.848 30 211 29.687 211 29.675 208.598 22.737 208.598 22.701 207.311 22.99 206.563 20.814 207.825 20.537 200.802 0 199 0 206.514 20.85 207.286 22.966"/>
    <polyline fill="#212E46" points="210 30 210.731 32.168 213.211 39.288 214.05 41.552 216.53 48.732 217.357 50.924 219.921 58.344 220.736 60.537 223.3 67.957 224.139 70.366 226.763 77.871 227.602 80.136 230.226 87.845 231.136 90.194 233.832 97.988 233.844 98 234 97.916 233.988 97.904 231.364 90.05 231.172 90.218 230.286 87.869 230.525 87.689 230.525 87.616 227.973 79.931 227.65 80.172 226.787 77.895 227.218 77.606 227.206 77.558 224.666 70.101 224.151 70.342 223.336 67.969 223.923 67.68 223.911 67.656 221.431 60.236 220.76 60.561 219.945 58.356 220.688 57.995 220.676 57.959 218.196 50.635 217.369 50.948 216.554 48.732 217.441 48.382 217.429 48.358 215.032 41.167 215.032 41.155 214.086 41.54 213.223 39.275 214.194 38.95 211.857 31.855 211.857 31.843 210.779 32.12 210 30"/>
    <polyline fill="#212E46" points="235 100 235.627 102.004 235.931 103 236 102.922 235.755 101.97 235.667 102.015 235 100"/>
    <polyline fill="#212E46" points="230 81.031 232.049 88.91 232.758 91.32 234.942 99.307 235.583 101.729 235.921 103 236 102.928 235.719 101.645 235.629 101.285 235.719 101.681 235.595 101.741 234.942 99.307 235.077 99.163 232.972 91.176 232.972 91.14 232.792 91.296 232.094 88.898 232.33 88.706 232.33 88.694 230.417 80.708 230.214 80 230.417 80.719 230 81.031"/>
    <polyline fill="#212E46" points="214.486 31.7 214 30 214.462 31.712 216.416 38.803 217.08 41.085 219.081 48.334 219.756 50.532 221.77 58.011 222.421 60.306 224.518 67.773 225.264 70.226 227.42 77.924 228 80 227.443 77.899 227.858 77.608 225.785 69.91 225.311 70.226 224.565 67.81 225.134 67.53 225.122 67.47 223.12 59.966 222.481 60.27 221.817 57.987 222.504 57.647 222.504 57.635 220.585 50.204 219.768 50.52 219.117 48.298 219.922 47.982 219.898 47.958 218.039 40.709 218.039 40.697 217.103 41.085 216.44 38.791 217.376 38.487 215.587 31.396 215.421 30.85 215.575 31.421 214.486 31.7"/>
    <polyline fill="#212E46" points="212.019 21.979 213.983 29 215 28.72 215 28.707 213.255 21.698 212.042 21.991 211.476 19.894 212.678 19.614 212.678 19.602 207.617 0 206 0 211.442 19.906 212.019 21.979"/>
    <polyline fill="#212E46" points="229 64.684 227.065 56.734 227.051 56.709 226.28 57.114 226 56 226.266 57.127 228.299 65 229 64.684 229 64.684"/>
    <polyline fill="#212E46" points="227 54.681 225.295 47.429 225.295 47.394 224.436 47.783 224 46 224.41 47.795 226.179 54.988 226.192 55 227 54.717 227 54.681"/>
    <polyline fill="#212E46" points="236.976 98.571 237 98.547 235.296 90.037 235.296 90 235.284 90 235 90.245 235 90.269 236.858 98.645 236.929 99 236.858 98.633 236.976 98.571"/>
    <polyline fill="#212E46" points="231 74.704 230.989 74.669 229.475 67.024 229.475 67 229 67.32 230.591 74.976 230.591 75 230.989 74.716 231 74.704"/>
    <polyline fill="#212E46" points="220 26.686 220 26.686 218.622 19.657 218.61 19.632 218.587 19.632 217.417 19.908 217 18 217.382 19.908 218.923 27 219.965 26.699 220 26.686"/>
    <polyline fill="#212E46" points="225 45.566 225 45.566 223.234 38.102 223.234 38.064 223.206 38.077 222.098 38.396 222 38 222.098 38.421 224.005 46 224.958 45.579 225 45.566"/>
    <polyline fill="#212E46" points="234.818 86.714 234.846 86.69 232.827 78.91 232.813 78.898 232.799 78.898 232.308 79.097 232 78 232.294 79.131 234.411 86.959 235 89 234.453 86.935 234.818 86.714"/>
    <polyline fill="#212E46" points="216.822 18 217.989 17.707 218 17.707 217.989 17.695 217.163 13.647 216.579 13.94 216.106 11.558 216.689 11.253 216.678 11.206 215.17 3.438 214.498 3.79 213.969 1.443 214.663 1.15 214.443 0 213 0 216.822 17.977 216.822 18"/>
    <polyline fill="#212E46" points="223 35.691 221.438 29.144 221.438 29.133 220.298 29.396 220 28 220.26 29.362 221.983 35.977 221.996 36 223 35.702 223 35.691"/>
    <g transform="translate(236 42)">
      <mask id="z" fill="white">
        <use xlink:href="#y"/>
      </mask>
      <polyline fill="#212E46" points=".709 57.833 1.019 59.358 1.162 59.285 .792 57.772 .697 57.808 .709 57.833" mask="url(#z)"/>
      <polyline fill="#212E46" points=".231 55.169 .112 55.23 .184 55.593 .673 57.808 .697 57.808 .792 57.772 .816 57.76 67 1.604 67 .03 .255 55.145 .231 55.169" mask="url(#z)"/>
    </g>
    <polyline fill="#212E46" points="236.754 102 236.897 101.931 236.793 101.475 236.195 99 236.156 99.028 236 99.194 236.754 102"/>
    <polyline fill="#212E46" points="235 99.079 235.071 99.218 235.871 101 235.976 100.96 236 100.95 235.2 99 235.165 99.01 235.012 99.079 235 99.079"/>
    <polyline fill="#212E46" points="234.872 102 235 101.949 234.84 101.604 234.149 100 234.117 100.02 234 100.142 234.872 102"/>
    <g transform="translate(232 35)">
      <mask id="B" fill="white">
        <use xlink:href="#A"/>
      </mask>
      <polyline fill="#212E46" points="1.451 68.159 1.559 68.097 1.595 68.085 .492 65.776 .48 65.813 .396 65.912 1.451 68.159" mask="url(#B)"/>
      <polyline fill="#212E46" points="1.667 51.754 1.355 51.988 1.823 54.173 1.907 54.556 1.919 54.556 2.207 54.309 2.219 54.309 71 1.737 71 .243 1.691 51.729 1.667 51.754" mask="url(#B)"/>
    </g>
    <polyline fill="#212E46" points="232.765 91 232.963 90.823 233 90.768 232.321 88 232.259 88.055 232 88.273 232.765 91"/>
    <polyline fill="#212E46" points="231.796 92 231.968 91.804 232 91.776 231.269 89 231.215 89.056 231 89.266 231.796 92"/>
    <polyline fill="#212E46" points="229.8 93 229.98 92.77 230 92.756 229.21 90 229.16 90.057 229 90.23 229.8 93"/>
    <g transform="translate(226 29)">
      <mask id="D" fill="white">
        <use xlink:href="#C"/>
      </mask>
      <polyline fill="#212E46" points="1.534 64.026 1.781 63.905 1.806 63.893 .682 61.619 .62 61.68 .447 61.826 1.534 64.026" mask="url(#D)"/>
      <polyline fill="#212E46" points="4.251 46.848 3.807 47.14 3.794 47.152 4.079 48.38 4.35 49.523 4.783 49.316 4.795 49.316 78 2.147 78 .761 4.264 46.836 4.251 46.848" mask="url(#D)"/>
    </g>
    <polyline fill="#212E46" points="229.511 80.664 229.587 81 229.598 81 230 80.65 229.804 79.843 229.402 78 229.38 78.013 229 78.336 229.511 80.664"/>
    <polyline fill="#212E46" points="226.699 82 226.961 81.72 227 81.678 226.359 79 226.35 79.014 226 79.35 226.699 82"/>
    <polyline fill="#212E46" points="224.681 83 224.991 82.66 225 82.632 224.336 80 224.319 80.028 224 80.283 224.681 83"/>
    <polyline fill="#212E46" points="223.721 83 224 82.833 223.836 82.429 223.254 81 223.23 81.03 223 81.227 223.721 83"/>
    <g transform="translate(220 23)">
      <mask id="F" fill="white">
        <use xlink:href="#E"/>
      </mask>
      <polyline fill="#212E46" points="1.372 61.163 1.384 61.175 1.838 60.884 1.703 60.642 .599 58.678 .525 58.727 .28 58.921 1.372 61.163" mask="url(#F)"/>
      <polyline fill="#212E46" points="8.609 42.051 7.996 42.354 7.983 42.367 8.511 44.815 8.548 44.79 9.075 44.463 9.1 44.451 84 2.12 84 .811 8.609 42.051 8.609 42.051" mask="url(#F)"/>
    </g>
    <polyline fill="#212E46" points="225.6 69 225.981 68.652 226 68.638 225.486 66 225.457 66.027 225 66.335 225.6 69"/>
    <polyline fill="#212E46" points="223.602 71 223.982 70.73 224 70.703 223.451 68 223.434 68.014 223 68.338 223.602 71"/>
    <polyline fill="#212E46" points="221.312 72 222 71.644 220.72 69 220.672 69.027 220 69.315 221.312 72"/>
    <g transform="translate(217 18)">
      <mask id="H" fill="white">
        <use xlink:href="#G"/>
      </mask>
      <polyline fill="#212E46" points="1.433 54.787 1.986 54.509 .831 52.191 .831 52.203 .316 52.529 1.433 54.787" mask="url(#H)"/>
      <polyline fill="#212E46" points="9.389 36.571 8.616 36.861 8.591 36.873 8.91 38.128 9.156 39.19 9.831 38.804 87 1.298 87 .115 9.402 36.559 9.389 36.571" mask="url(#H)"/>
    </g>
    <polyline fill="#212E46" points="223.496 59 223.973 58.656 224 58.628 223.549 56 223.513 56.028 223 56.413 223.496 59"/>
    <polyline fill="#212E46" points="220.088 61 220.984 60.62 221 60.606 219.992 58 219.992 58 219 58.423 220.088 61"/>
    <polyline fill="#212E46" points="216.508 61.01 217.154 62 217.169 61.99 217.938 61.75 218 61.731 216.892 60 216.877 60 216 60.26 216.508 61.01"/>
    <polyline fill="#212E46" points="214.252 64 214.932 63.662 215 63.62 213.762 61 213.748 61.014 213 61.394 214.252 64"/>
    <polyline fill="#212E46" points="209.114 55 209.987 54.627 210 54.612 208.886 52 208.873 52.014 208 52.402 209.114 55"/>
    <polyline fill="#212E46" points="212 50.415 212.392 51.41 213.007 53 213.987 52.571 214 52.571 212.993 50 212.98 50.014 212 50.415"/>
    <polyline fill="#212E46" points="216.978 52 217.971 51.634 218 51.62 217.094 49 217.065 49 216 49.408 216.978 52"/>
    <g transform="translate(219 13)">
      <mask id="J" fill="white">
        <use xlink:href="#I"/>
      </mask>
      <polyline fill="#212E46" points="1.239 36.228 2.086 35.917 2.098 35.905 1.423 33.716 1.398 33.728 .564 34.039 1.239 36.228" mask="url(#J)"/>
      <polyline fill="#212E46" points="5.278 32.137 4.443 32.532 4.443 32.544 4.529 32.927 4.946 34.733 5.769 34.338 85 1.831 85 .683 5.315 32.125 5.278 32.137" mask="url(#J)"/>
    </g>
    <polyline fill="#212E46" points="204.094 45 204.967 44.577 205 44.55 204.006 42 203.994 42.014 203 42.409 204.094 45"/>
    <polyline fill="#212E46" points="208 41.411 208.06 41.589 209.006 44 209.964 43.562 210 43.548 209.066 41 209.054 41.014 208 41.411"/>
    <polyline fill="#212E46" points="212.941 42 213.974 41.556 214 41.542 213.098 39 213.059 39.014 212 39.389 212.941 42"/>
    <g transform="translate(216 8)">
      <mask id="L" fill="white">
        <use xlink:href="#K"/>
      </mask>
      <polyline fill="#212E46" points="1.4 31.992 2.37 31.604 2.407 31.591 1.731 29.371 1.682 29.395 .711 29.699 1.4 31.992" mask="url(#L)"/>
      <polyline fill="#212E46" points="6.241 27.891 5.245 28.206 5.209 28.218 5.614 30.063 5.7 30.439 6.671 30.135 6.695 30.123 88 1.804 88 .688 6.265 27.879 6.241 27.891" mask="url(#L)"/>
    </g>
    <polyline fill="#212E46" points="199.985 34 200.959 33.74 201 33.731 200.097 32 200.046 32.019 199 32.231 199.985 34"/>
    <polyline fill="#212E46" points="204.855 33 205.988 32.749 206 32.749 205.156 31 205.133 31 204 31.251 204.855 33"/>
    <polyline fill="#212E46" points="210 30.265 210 30.275 210.823 32 211.962 31.775 212 31.765 211.253 30 211.19 30.01 210 30.265"/>
    <g transform="translate(213 4)">
      <mask id="N" fill="white">
        <use xlink:href="#M"/>
      </mask>
      <polyline fill="#212E46" points=".855 24.907 .991 25.352 1.496 27.036 2.629 26.759 2.468 26.194 2.001 24.619 1.951 24.631 .868 24.907 .855 24.907" mask="url(#N)"/>
      <polyline fill="#212E46" points="38.324 15.023 35.849 15.78 35.849 15.6 27.735 17.765 27.784 18.017 25.383 18.727 25.322 18.426 17.269 20.566 17.343 21.035 14.856 21.793 14.843 21.216 7.123 23.272 7.086 23.284 5.978 23.573 5.965 23.585 6.089 24.174 6.384 25.641 7.517 25.364 7.542 25.352 91 1.892 91 .906 38.287 14.963 38.324 15.023" mask="url(#N)"/>
    </g>
    <polyline fill="#212E46" points="195.364 25 197 24.797 196.656 24.314 195.722 23 195.694 23 194 23.28 195.364 25"/>
    <polyline fill="#212E46" points="200.796 24 202 23.74 201.806 23.327 201.204 22 201.194 22 200 22.26 200.796 24"/>
    <polyline fill="#212E46" points="206.726 22 207.976 21.766 208 21.756 207.298 20 207.226 20.01 206 20.234 206.726 22"/>
    <polyline fill="#212E46" points="212.632 21 213.987 20.755 214 20.755 213.381 19 213.342 19.01 212 19.245 212.632 21"/>
    <polyline fill="#212E46" points="248.743 12 241 13.4 241.22 15 249 13.516 248.743 12"/>
    <polyline fill="#212E46" points="269.619 8 262 9.588 262.286 11 270 9.284 269.619 8"/>
    <polyline fill="#212E46" points="258.676 10 251 11.517 251.3 13 259 11.406 258.676 10"/>
    <g transform="translate(281)">
      <mask id="P" fill="white">
        <use xlink:href="#O"/>
      </mask>
      <polyline fill="#212E46" points="8.732 3.524 .778 5.249 1.233 6.399 9.162 4.6 8.732 3.524" mask="url(#P)"/>
    </g>
    <path fill="#212E46" d="M288.259083,0.536788292 L288,0 L289.242604,0 L290.260355,0 L291.538462,3.29787234 L292,4.34840426 L289.633136,5 L289.207101,3.82978723 L288,0.678191489 L288.259083,0.536788292 Z M227.052996,10.0021596 L218.408333,14.5549451 L218.155556,14.6909341 L217.517593,15 L217,12.4903846 L217.637963,12.168956 L217.890741,12.0453297 L227.712963,7.05082418 L229.831481,6 L230,8.50961538 L229.561218,8.7287165 L230,15.4845758 L230,15.8084833 L227.416667,17 L227.375,15.9820051 L227.052996,10.0021596 Z M279.897794,6.92738161 L280,7.18326693 L272.391931,9 L272,7.62549801 L279.192351,6.07234715 L279.069825,5.77992958 L277,0 L279.543641,0 L281.526185,5.28697183 L282,6.44542254 L279.897794,6.92738161 Z M299.588571,1 L300,2.00452489 L292.445714,4 L292,2.92760181 L299.588571,1 Z M231.124031,18 L231,16.1706485 L231,15.7883959 L238.789147,14 L239,16.0750853 L238.937984,16.1023891 L231.124031,18 Z M301.418719,2.117 L302,2 L300,2.559 L301.310345,2.182 L301.418719,2.117 Z M218.630058,20.7485714 L217.462428,21 L217.046243,19.2628571 L217,19.0685714 L218.225434,18.7828571 L218.236994,18.7828571 L226.953757,17 L226.988439,18.0057143 L227,18.8857143 L218.653179,20.7485714 L218.630058,20.7485714 Z M229,5.90825688 L227.213198,7 L227,0 L228.746193,0 L229,5.90825688 Z M231,24.3823529 L229.009852,25 L229,24.5294118 L230.940887,24 L231,24.3823529 Z M238.474164,4.32757325 L238.218845,2.09166041 L238,0 L240.224924,0 L240.589666,3.31780616 L241.404255,10.6506386 L241.683891,12.9466566 L241.781155,13.6558978 L242,15.4830954 L239.68997,16 L239.483283,14.1728024 L239.227964,11.9368896 L238.474164,4.32757325 Z M241,21.2625 L239.05,22 L239,21.6875 L240.96,21 L241,21.2625 Z M249.406915,14 L249.12766,12.2423714 L247,0 L249.433511,0 L251.667553,11.7907585 L252,13.4263296 L249.406915,14 Z M252,18.065 L250,18.884 L250,18.689 L251.970149,18 L252,18.065 Z M259.572816,11 L259.245146,9.53870293 L257,0 L259.43932,0 L261.708738,9.05543933 L262,10.4476987 L259.572816,11 Z M269.638554,9 L269.253012,7.69908016 L267,0 L269.373494,0 L271.590361,7.15505913 L272,8.5151117 L269.638554,9 Z M300.219178,2 L299.726027,1.17777778 L299,0 L302.054795,0 L302.506849,0.711111111 L303,1.52222222 L302.876712,1.33333333 L302.191781,1.62222222 L302.041096,1.67777778 L300.219178,2 Z M214.732558,1.21362229 L215.011628,1.08978328 L217.44186,0 L223,0 L215.476744,3.52941176 L215.267442,3.62848297 L214.55814,4 L214,1.52321981 L214.732558,1.21362229 Z M229,17.1444444 L230.897959,16 L231,17.4888889 L229.010204,18 L229,17.1444444 Z M302.65,2 L302.767,2.221 L302,2.338 L302.65,2 Z"/>
  </g>
</svg>
