<svg xmlns="http://www.w3.org/2000/svg" width="300" height="300" viewBox="0 0 300 300">
  <g fill="none" fill-rule="evenodd" transform="translate(3 1)">
    <path fill="#000000" d="M153,172 L153,171 L154,171.5 L153,172 Z M165,167 L152,159.5 L165,152 L165,167 Z M150,154 L150,140 L162,147 L150,154 Z M142,152 L133,147 L142,142 L142,152 Z M131,161 L131,157 L134,159 L131,161 Z M143,179 L131,172 L143,165 L143,179 Z M164,190 L153,183.49949 L164,177 L164,190 Z M175,159 L175,158 L176,158.5 L175,159 Z M165,142 L152,134.500524 L165,127 L165,142 Z M131,137 L131,132 L135,134.501101 L131,137 Z M122,166 L110,159 L122,152 L122,166 Z M129,189 L129,178 L139,183.499498 L129,189 Z M172,189 L172,178 L182,183.5 L172,189 Z M185,176 L176,171 L185,166 L185,176 Z M184,148 L181,146.5 L184,145 L184,148 Z M171,142 L171,128 L183,135.00053 L171,142 Z M151,128 L151,117 L161,122.5 L151,128 Z M144,130 L131,122.5 L144,115 L144,130 Z M122,142 L109,134.500524 L122,127 L122,142 Z M107,154 L107,140 L120,147 L107,154 Z M110,173 L110,170 L113,171.500452 L110,173 Z M119,187 L115,184.499445 L119,182 L119,187 Z M144,204 L131,196.500524 L144,189 L144,204 Z M151,202 L151,191 L160,196.500539 L151,202 Z M171,216 L171,201 L184,208.498952 L171,216 Z M186,201 L177,196.000522 L186,191 L186,201 Z M196,174 L196,170 L199,172.000587 L196,174 Z M208,167 L195,159.5 L208,152 L208,167 Z M193,154 L193,139 L206,146.500524 L193,154 Z M184,125 L179,122 L184,119 L184,125 Z M175,109.752 L175,109 L175.651,109.376 L175,109.752 Z M165,117 L154,110.500532 L165,104 L165,117 Z M128,117 L128,103 L140,110 L128,117 Z M122,116 L110,109.5005 L122,103 L122,116 Z M110,124 L110,121 L112,122.5 L110,124 Z M96.124,147.143 L96,147.072 L96.124,147 L96.124,147.143 Z M89,159.143 L89,159 L89.124,159.071 L89,159.143 Z M108,201 L108,191 L117,196.000528 L108,201 Z M122,216 L109,208.498952 L122,201 L122,216 Z M132,210 L132,208 L133,208.998058 L132,210 Z M162,211 L159,208.998963 L162,207 L162,211 Z M184,223 L180,220.99951 L184,219 L184,223 Z M194,202 L194,191 L204,196.5 L194,202 Z M208,191 L196,184 L208,177 L208,191 Z M215,164 L215,154 L224,159 L215,164 Z M207,139 L199,134.500515 L207,130 L207,139 Z M193,128 L193,115 L205,121.5 L193,128 Z M185,102 L177,97.5 L185,93 L185,102 Z M154,97.249 L154,97 L154.217,97.125 L154,97.249 Z M141,100 L137,97.5005304 L141,95 L141,100 Z M108,103 L108,92 L118,97.5 L108,103 Z M99,127 L91,122.500537 L99,118 L99,127 Z M88,137 L88,131 L93,134.000516 L88,137 Z M76,160 L74,158.999457 L76,158 L76,160 Z M85,191 L85,176 L98,183.5 L85,191 Z M101,204 L88,196.500524 L101,189 L101,204 Z M109,223 L109,218 L114,220.499025 L109,223 Z M140,223 L136,220.5 L140,218 L140,223 Z M150,227 L150,214 L162,220.499493 L150,227 Z M196,223 L196,219 L200,220.99951 L196,223 Z M206,211 L200,207.998547 L206,205 L206,211 Z M215,190 L215,179 L224,184.49946 L215,190 Z M228,174 L222,171 L228,168 L228,174 Z M229,152 L219,146.500506 L229,141 L229,152 Z M214,142 L214,127 L227,134.500524 L214,142 Z M206,115 L198,110.000542 L206,105 L206,115 Z M195,101 L195,94 L201,97.5 L195,101 Z M174,86 L174,83 L177,84.500445 L174,86 Z M163,87 L159,85.0004898 L163,83 L163,87 Z M131,87 L131,82 L136,84.5004822 L131,87 Z M119,88 L115,85.5010117 L119,83 L119,88 Z M99,102 L90,97 L99,92 L99,102 Z M89,109.752 L89,109 L89.651,109.376 L89,109.752 Z M79,142 L66,134.500524 L79,127 L79,142 Z M67,147 L67,146 L67.901,146.5 L67,147 Z M64,178 L64,164 L77,171 L64,178 Z M75.096,184.114 L75,184.057 L75.096,184 L75.096,184.114 Z M85,215 L85,202 L97,208.498986 L85,215 Z M100,227 L90,220.999467 L100,215 L100,227 Z M118,235 L116,233.5 L118,232 L118,235 Z M130,237 L130,230 L136,233.5 L130,237 Z M161.02,233.024 L161,233.012 L161.02,233 L161.02,233.024 Z M172,238 L172,228 L181,233.000502 L172,238 Z M194,250 L194,241 L202,245.500538 L194,250 Z M208,239 L196,232.5 L208,226 L208,239 Z M216,213 L216,205 L223,208.998948 L216,213 Z M229,202 L219,196.5 L229,191 L229,202 Z M238,175 L238,169 L243,172 L238,175 Z M249,162 L244,158.999469 L249,156 L249,162 Z M238,150 L238,144 L243,147.000548 L238,150 Z M230,130 L217,122.5 L230,115 L230,130 Z M216,114 L216,106 L223,110.000519 L216,114 Z M204.097,85.113 L204,85.057 L204.097,85 L204.097,85.113 Z M194,78 L194,68 L203,72.9995062 L194,78 Z M186,79 L175,72.9994866 L186,67 L186,79 Z M150,80 L150,66 L162,73 L150,80 Z M143,80 L131,72.999487 L143,66 L143,80 Z M107,79 L107,66 L119,72.5 L107,79 Z M100,79 L89,72.4994744 L100,66 L100,79 Z M88,86 L88,83 L91,84.500445 L88,86 Z M79,117 L68,110.500532 L79,104 L79,117 Z M67,123 L67,121 L68,121.999349 L67,123 Z M57,152 L48,147.000526 L57,142 L57,152 Z M43,164 L43,154 L52,159 L43,164 Z M58,179 L45,171.500524 L58,164 L58,179 Z M65,202 L65,191 L75,196.500515 L65,202 Z M76,210 L74,208.998979 L76,208 L76,210 Z M88,236 L88,230 L93,233 L88,236 Z M99,250 L90,245 L99,240 L99,250 Z M107,251 L107,239 L118,245.001027 L107,251 Z M142,250 L135,246.001068 L142,242 L142,250 Z M150,252 L150,240 L160,246.000523 L150,252 Z M185,250 L177,245.500499 L185,241 L185,250 Z M204,260 L202,258.5 L204,257 L204,260 Z M217,235 L217,231 L220,233.000571 L217,235 Z M228,224 L222,220.499471 L228,217 L228,224 Z M236,203 L236,190 L247,196.500511 L236,203 Z M249,189 L242,184.5 L249,180 L249,189 Z M257,166 L257,152 L269,159 L257,166 Z M250,141 L240,135.00054 L250,129 L250,141 Z M238,126 L238,119 L244,122.50054 L238,126 Z M226,98 L225,97.4996054 L226,97 L226,98 Z M215,92 L215,79 L226,85.5 L215,92 Z M205,63 L201,60.5 L205,58 L205,63 Z M173,64 L173,57 L179,60.5004967 L173,64 Z M163,64 L156,60.0005194 L163,56 L163,64 Z M130,66 L130,56 L138,61 L130,66 Z M120,64 L113,60.0005194 L120,56 L120,64 Z M87,64 L87,57 L93,60.5004967 L87,64 Z M76,86 L74,85.0005105 L76,84 L76,86 Z M66,101 L66,95 L71,98 L66,101 Z M58,130 L45,122.5 L58,115 L58,130 Z M45,137 L45,133 L48,135.00052 L45,137 Z M35,164 L26,159 L35,154 L35,164 Z M46,184 L46,183 L47,183.5 L46,184 Z M57,203 L46,196.499482 L57,190 L57,203 Z M65,225 L65,216 L73,220.499471 L65,225 Z M79,239 L68,233 L79,227 L79,239 Z M88,261 L88,256 L92,258.5 L88,261 Z M120,261 L115,258 L120,255 L120,261 Z M131,261 L131,255 L136,258.00053 L131,261 Z M163,261 L158,258.000542 L163,255 L163,261 Z M174,260 L174,255 L178,257.5 L174,260 Z M218,258 L218,257 L219,257.5 L218,258 Z M228,250 L220,245.500492 L228,241 L228,250 Z M238,223 L238,218 L242,220.499467 L238,223 Z M251,215 L239,207.998471 L251,201 L251,215 Z M258,190 L258,177 L269,183.499488 L258,190 Z M273,179 L260,171.500524 L273,164 L273,179 Z M271,151 L264,147 L271,143 L271,151 Z M259,138 L259,131 L265,134.500545 L259,138 Z M247.098,110.111 L247,110.056 L247.098,110 L247.098,110.111 Z M236,104 L236,91 L248,97.4995019 L236,104 Z M228,77 L220,72.5 L228,68 L228,77 Z M217,62 L217,59 L220,60.5004815 L217,62 Z M197,48.692 L197,48 L197.599,48.346 L197,48.692 Z M183,49 L181,48 L183,47 L183,49 Z M153,50 L153,47 L155,48.4994152 L153,50 Z M141,50 L137,48 L141,46 L141,50 Z M110,50 L110,47 L112,48.4994152 L110,50 Z M97,49 L95,47.9994609 L97,47 L97,49 Z M77,64 L72,61 L77,58 L77,64 Z M65,78 L65,68 L73,73 L65,78 Z M54,99 L51,97.5 L54,96 L54,99 Z M44,113 L44,107 L49,110.001042 L44,113 Z M34,138 L29,135.000562 L34,132 L34,138 Z M22,151 L22,143 L29,147 L22,151 Z M23,175 L23,168 L29,171.5 L23,175 Z M36,191 L23,183.5 L36,176 L36,191 Z M42,216 L42,201 L55,208.498952 L42,216 Z M53.256,221.295 L53,221.147 L53.256,221 L53.256,221.295 Z M65,251 L65,240 L75,245.500521 L65,251 Z M76,259 L73,257.499518 L76,256 L76,259 Z M96.235,270.272 L96,270.136 L96.235,270 L96.235,270.272 Z M111,270.692 L111,270 L111.598,270.346 L111,270.692 Z M140,271 L139,270.50038 L140,270 L140,271 Z M154,270.692 L154,270 L154.599,270.346 L154,270.692 Z M182.062,270.07 L182,270.035 L182.062,270 L182.062,270.07 Z M193,277 L193,264 L204,270.5 L193,277 Z M216,287 L216,279 L223,283.000544 L216,287 Z M229,276 L219,270.499487 L229,265 L229,276 Z M239,247 L239,244 L241,245.50117 L239,247 Z M249,237 L243,233.5 L249,230 L249,237 Z M258,213 L258,203 L267,207.999012 L258,213 Z M270,199 L266,196.499477 L270,194 L270,199 Z M282,173 L282,169 L286,171.000464 L282,173 Z M291,161 L288,159.5 L291,158 L291,161 Z M279,154 L279,139 L292,146.500524 L279,154 Z M271,126 L265,122.5 L271,119 L271,126 Z M258,116 L258,104 L269,110 L258,116 Z M249,89 L243,85.5005027 L249,82 L249,89 Z M237,78 L237,67 L247,72.4994897 L237,78 Z M229,55 L218,48.5 L229,42 L229,55 Z M216,40 L216,31 L224,35.5 L216,40 Z M207,41 L198,36.0005145 L207,31 L207,41 Z M172,42 L172,30 L182,36 L172,42 Z M165,42 L154,36 L165,30 L165,42 Z M129,42 L129,29 L140,35.5005182 L129,42 Z M121,42 L110,35.5005182 L121,29 L121,42 Z M85,43 L85,29 L98,36.0005013 L85,43 Z M78,41 L69,36 L78,31 L78,41 Z M68,48.071 L68,48 L68.062,48.035 L68,48.071 Z M56,77 L49,72.9994806 L56,69 L56,77 Z M43,91 L43,79 L54,85.0010267 L43,91 Z M35,114 L27,109.500509 L35,105 L35,114 Z M23,125 L23,120 L28,122.5 L23,125 Z M14,153 L3,146.500516 L14,140 L14,153 Z M2,160 L2,157 L5,158.5 L2,160 Z M12,175 L7,172.000538 L12,169 L12,175 Z M22,201 L22,191 L30,196 L22,201 Z M36,216 L24,208.998956 L36,202 L36,216 Z M46,234 L46,233 L46.971,233.5 L46,234 Z M55,249 L49,245.5 L55,242 L55,249 Z M64,277 L64,264 L75,270.499482 L64,277 Z M78,287 L70,282.500528 L78,278 L78,287 Z M87,287 L87,278 L95,282.500493 L87,287 Z M121,287 L112,282.000498 L121,277 L121,287 Z M129,287 L129,277 L138,282.000498 L129,287 Z M165,288 L155,282.500513 L165,277 L165,288 Z M172,288 L172,278 L181,283 L172,288 Z M206,286 L199,282.000504 L206,278 L206,286 Z M227,297 L222,294.500471 L227,292 L227,297 Z M237,275 L237,266 L245,270.499507 L237,275 Z M251,264 L240,257.500518 L251,251 L251,264 Z M260,235 L260,231 L263,233 L260,235 Z M270,224 L264,220.499497 L270,217 L270,224 Z M280,201 L280,192 L288,196.5 L280,201 Z M293,188 L285,183.499501 L293,179 L293,188 Z M279,128 L279,116 L290,122 L279,128 Z M270,101 L264,97.5 L270,94 L270,101 Z M260,88 L260,83 L264,85.5010212 L260,88 Z M247.061,60.071 L247,60.036 L247.061,60 L247.061,60.071 Z M237,54 L237,43 L246,48.499477 L237,54 Z M226,25 L223,22.9994812 L226,21 L226,25 Z M195,26 L195,20 L201,22.9995139 L195,26 Z M186,29 L175,23 L186,17 L186,29 Z M151,27 L151,19 L158,23 L151,27 Z M142,27 L135,23 L142,19 L142,27 Z M109,28 L109,20 L116,23.9994556 L109,28 Z M99,28 L91,23.4994839 L99,19 L99,28 Z M66,26 L66,20 L71,22.9994984 L66,26 Z M57,55 L45,48 L57,41 L57,55 Z M45,62 L45,59 L47,60.5 L45,62 Z M34,89 L26,84.5004989 L34,80 L34,89 Z M21,104 L21,91 L32,97.5005256 L21,104 Z M11,123 L10,122.500395 L11,122 L11,123 Z M3,135 L3,134 L4,134.500395 L3,135 Z M2,186 L2,182 L5,183.999476 L2,186 Z M15,204 L2,196.500524 L15,189 L15,204 Z M23,224 L23,219 L27,221.498856 L23,224 Z M33,234 L31,233 L33,232 L33,234 Z M45,259 L45,256 L48,257.500542 L45,259 Z M57,276 L46,269.998994 L57,264 L57,276 Z M67,297 L67,293 L70,294.999481 L67,297 Z M98.2796774,297.786 L93.2757258,295.03 L98.2796774,292.274 L98.2796774,297.786 Z M109.696613,298 L109.029839,298 L109.029839,291.693 L115.090565,295.03 L109.696613,298 Z M141.791935,298 L141.58121,298 L136.189355,295.03 L141.791935,291.944 L141.791935,298 Z M152.592419,298 L152.554677,298 L152.554677,292.04 L157.982177,295.03 L152.592419,298 Z M184,298 L179,295 L184,292 L184,298 Z M196,297 L196,293 L200,294.99952 L196,297 Z M239,296 L239,294 L241,294.999532 L239,296 Z M248,285 L244,282.5 L248,280 L248,285 Z M258,263 L258,252 L268,257.5 L258,263 Z M272,252 L261,245.5 L272,239 L272,252 Z M282,223 L282,220 L284,221.499415 L282,223 Z M291,211 L288,208.998956 L291,207 L291,211 Z M293,116 L283,110.001048 L293,104 L293,116 Z M282,100 L282,96 L285,98 L282,100 Z M272,80 L261,73.5 L272,67 L272,80 Z M258,66 L258,54 L269,60.0005028 L258,66 Z M249,39 L243,36.0004861 L249,33 L249,39 Z M238,26 L238,20 L243,22.9994807 L238,26 Z M218,12 L218,10 L219,11.000639 L218,12 Z M205,12 L203,11 L205,10 L205,12 Z M174,12 L174,9 L177,10.4995425 L174,12 Z M162,12 L159,10.4995425 L162,9 L162,12 Z M131,13 L131,9 L134,11 L131,13 Z M119,13 L116,11 L119,9 L119,13 Z M88,13 L88,10 L90,11.5 L88,13 Z M76,12 L74,11 L76,10 L76,12 Z M54,26 L50,23.4989618 L54,21 L54,26 Z M44,40 L44,32 L51,36 L44,40 Z M31.599,60.693 L31,60.347 L31.599,60 L31.599,60.693 Z M24,74 L24,71 L27,72.5 L24,74 Z M13,102 L5,97.5 L13,93 L13,102 Z M0,115 L0,104 L10,109.5 L0,115 Z M2,211 L2,206 L6,208.49945 L2,211 Z M14,227 L3,220.999503 L14,215 L14,227 Z M21,253 L21,239 L33,246.000532 L21,253 Z M36,265 L24,258 L36,251 L36,265 Z M44,286 L44,279 L50,282.5 L44,286 Z M54,296 L51,294.5 L54,293 L54,296 Z M260,284 L260,281 L263,282.5 L260,284 Z M271,273 L265,269.999514 L271,267 L271,273 Z M280,251 L280,240 L290,245.5 L280,251 Z M294,240 L283,233.500518 L294,227 L294,240 Z M290.062,85.071 L290,85.036 L290.062,85 L290.062,85.071 Z M279,79 L279,66 L290,72.5005182 L279,79 Z M271,52 L264,47.9994556 L271,44 L271,52 Z M260,38 L260,33 L264,35.5 L260,38 Z M248,12 L246,10.9995688 L248,10 L248,12 Z M237,4 L237,0 L245,0 L237,4 Z M230,5 L221,0 L230,0 L230,5 Z M193,5 L193,0 L202,0 L193,5 Z M187,6 L177,0 L187,0 L187,6 Z M100,6 L90,0 L100,0 L100,6 Z M64,5 L64,0 L73,0 L64,5 Z M57,5 L48,0 L57,0 L57,5 Z M46,11.814 L46,11 L46.705,11.407 L46,11.814 Z M34,40 L27,36.0005444 L34,32 L34,40 Z M21,54 L21,43 L31,48.5 L21,54 Z M11,74 L9,73 L11,72 L11,74 Z M2,88 L2,83 L6,85.5005592 L2,88 Z M0,239 L0,227 L10,233 L0,239 Z M14,252 L3,245.500518 L14,239 L14,252 Z M22,275 L22,266 L30,270.499467 L22,275 Z M33.4212766,285.432556 L28.0208511,282.276444 L33.4212766,279.119278 L33.4212766,285.432556 Z M272.620511,298 L265.679191,298 L260.316298,294.865 L272.620511,287.672444 L272.620511,298 Z M282,272 L282,268 L286,269.99952 L282,272 Z M292,261 L286,257.5 L292,254 L292,261 Z M292,64 L285,60 L292,56 L292,64 Z M281,51 L281,45 L286,47.9994984 L281,51 Z M268.706,23.814 L268,23.407 L268.706,23 L268.706,23.814 Z M258,18 L258,5 L269,11.5 L258,18 Z M32.217,11.25 L32,11.125 L32.217,11 L32.217,11.25 Z M24,25 L24,22 L26,23.5 L24,25 Z M13,53 L5,48.5 L13,44 L13,53 Z M0,67 L0,55 L10,61.0005298 L0,67 Z M0,262 L0,253 L8,257.5 L0,262 Z M13,274 L6,269.999456 L13,266 L13,274 Z M24.1960781,295.72 L24.1960781,294.34 L25.4445117,295.03 L24.1960781,295.72 Z M285.319992,298 L279.384457,298 L279.384457,288.774 L290.68398,295.03 L285.319992,298 Z M290.217,282.249 L290,282.125 L290.217,282 L290.217,282.249 Z M291,37 L289,36 L291,35 L291,37 Z M279,30 L279,16 L291,22.9994863 L279,30 Z M271,4 L265,0 L271,0 L271,4 Z M21,4 L21,0 L29,0 L21,4 Z M10,25 L9,23.999361 L10,23 L10,25 Z M2,38 L2,33 L6,35.500541 L2,38 Z M2,284 L2,281 L4,282.50057 L2,284 Z M10.216,295.25 L10,295.125 L10.216,295 L10.216,295.25 Z M293,16 L284,11 L293,6 L293,16 Z M280,3 L280,0 L286,0 L280,3 Z M14,4 L7,0 L14,0 L14,4 Z M0,17 L0,5 L11,11 L0,17 Z"/>
  </g>
</svg>
