<svg xmlns="http://www.w3.org/2000/svg" width="300" height="300" viewBox="0 0 300 300">
  <g fill="#000105" fill-rule="evenodd" transform="translate(0 -1)">
    <polyline points="259 13 253.108 2 246 12.318 259 13"/>
    <polyline points="198 13 193.498 3 187 11.847 198 13"/>
    <polyline points="139 11.528 132.191 3 128 13 139 11.528"/>
    <polyline points="79 11.325 71.551 2 67 13 79 11.325"/>
    <polyline points="18 14 13.879 3 6 11.889 18 14"/>
    <polyline points="277 26 283.014 37 290 26.548 277 26"/>
    <polyline points="216 26.643 223.557 38 230 26 216 26.643"/>
    <polyline points="155 27.853 163.825 38 168 25 155 27.853"/>
    <polyline points="95 24 100.828 38 110 26.027 95 24"/>
    <polyline points="35 26.209 43.076 37 49 25 35 26.209"/>
    <polyline points="259 61.798 252.452 53 248 63 259 61.798"/>
    <polyline points="199 63 193.354 53 187 62.608 199 63"/>
    <polyline points="139 62.475 131.686 53 127 64 139 62.475"/>
    <polyline points="78 61.214 70.897 53 67 63 78 61.214"/>
    <polyline points="17 63 12.249 53 6 62.122 17 63"/>
    <polyline points="275 77 281.981 90 290 77.615 275 77"/>
    <polyline points="216 76 221.919 90 232 78.344 216 76"/>
    <polyline points="157 78 163.242 89 170 78.294 157 78"/>
    <polyline points="94 78.881 103.96 90 109 76 94 78.881"/>
    <polyline points="37 77 41.159 88 49 79.078 37 77"/>
    <polyline points="259 114 253.3 103 247 113.632 259 114"/>
    <polyline points="199 112.515 193.043 104 188 113 199 112.515"/>
    <polyline points="139 112.928 131.803 104 128 115 139 112.928"/>
    <polyline points="80 113.864 72.079 102 66 115 80 113.864"/>
    <polyline points="19 115 13.357 102 4 112.934 19 115"/>
    <polyline points="277 126 281.682 138 290 128.107 277 126"/>
    <polyline points="215 128.466 223.473 139 228 126 215 128.466"/>
    <polyline points="157 126 162.913 138 171 127.222 157 126"/>
    <polyline points="96 128.138 102.962 138 108 127 96 128.138"/>
    <polyline points="36 126 41.955 139 50 127.28 36 126"/>
    <polyline points="259 163 253.34 153 247 162.623 259 163"/>
    <polyline points="199 162.517 192.561 153 187 163 199 162.517"/>
    <polyline points="141 163.946 132.108 151 125 165 141 163.946"/>
    <polyline points="80 163.321 71.924 151 65 164 80 163.321"/>
    <polyline points="21 164.19 12.32 151 5 165 21 164.19"/>
    <polyline points="276 176 281.933 188 290 177.202 276 176"/>
    <polyline points="216 175 222.112 189 232 177.143 216 175"/>
    <polyline points="155 176.795 163.18 189 170 176 155 176.795"/>
    <polyline points="96 177.164 102.643 188 109 177 96 177.164"/>
    <polyline points="35 175 42.502 189 51 175.599 35 175"/>
    <polyline points="260 212.465 251.929 203 248 215 260 212.465"/>
    <polyline points="199 213 193.137 203 187 212.847 199 213"/>
    <polyline points="139 212.938 133.442 204 128 213 139 212.938"/>
    <polyline points="81 213.588 71.009 201 65 216 81 213.588"/>
    <polyline points="18 211.644 11.307 203 7 213 18 211.644"/>
    <polyline points="277 227 282.433 238 290 228.169 277 227"/>
    <polyline points="214 228.506 223.604 240 229 226 214 228.506"/>
    <polyline points="157 229.987 163.654 238 167 228 157 229.987"/>
    <polyline points="94 228.681 103.77 240 109 226 94 228.681"/>
    <polyline points="37 227 40.862 239 49 229.603 37 227"/>
    <polyline points="259 265 253.83 251 244 262.249 259 265"/>
    <polyline points="200 262.054 192.168 251 186 263 200 262.054"/>
    <polyline points="139 263 132.748 252 126 262.716 139 263"/>
    <polyline points="78 264 72.836 252 65 262.412 78 264"/>
    <polyline points="18 263 12.942 252 6 261.881 18 263"/>
    <polyline points="276 277.229 283.195 289 290 277 276 277.229"/>
    <polyline points="216 279.005 224.228 289 229 277 216 279.005"/>
    <polyline points="155 276 161.996 289 170 276.598 155 276"/>
    <polyline points="96 276 101.064 289 110 278.283 96 276"/>
    <polyline points="36 278 42.067 289 49 278.49 36 278"/>
    <path d="M249.045341 0L242 17 261 14.0603569 249.045341 0zM249.227506 1.14730888L259.844866 13.6345208 242.970532 16.2450815 249.227506 1.14730888zM195.389739 0L184 10.4212584 199 15 195.389739 0zM195.051424 1.11032113L198.186279 14.1320062 185.163215 10.1570091 195.051424 1.11032113zM130.777893 1L127 13 140 10.0245675 130.777893 1zM131.066141 2.1176043L138.812662 9.69777584 127.892343 12.1975578 131.066141 2.1176043zM75.045718 1L67 13.3040015 82 14 75.045718 1zM74.9931986 2.18187292L80.9677238 13.3491571 68.0817772 12.7512968 74.9931986 2.18187292zM14.1652597 1L6 11.0894901 19 13 14.1652597 1zM13.9910993 2.16247956L18.0594146 12.260889 7.11951734 10.65304 13.9910993 2.16247956zM275 23L281.320489 39 293 26.049505 275 23zM275.958394 23.762524L291.825352 26.4502734 281.529984 37.8662627 275.958394 23.762524zM231 24L214 26.4256899 224.473183 40 231 24zM230.052872 24.7532438L224.315917 38.8174685 215.110283 26.8849849 230.052872 24.7532438zM170 23L155 29.6250658 168.095181 39 170 23zM169.283755 23.9731599L167.622257 37.9239907 156.204079 29.7495677 169.283755 23.9731599zM111 24L92 24.0940994 101.524923 40 111 24zM109.913846 24.6240279L101.522462 38.7952796 93.0861538 24.707603 109.913846 24.6240279zM48 23L31 25.1461247 41.2551175 39 48 23zM47.0506251 23.73683L41.1161561 37.8138386 32.094175 25.6254933 47.0506251 23.73683zM252.725963 54L249 66 262 62.9571614 252.725963 54zM253.01816 55.1065917L260.817794 62.6398385 249.88452 65.1986153 253.01816 55.1065917zM192.510166 51L185 67 203 65.1824784 192.510166 51zM192.626116 52.1735512L201.882171 64.6867907 186.000067 66.2906642 192.626116 52.1735512zM128.372898 50L124 66 140 61.6391764 128.372898 50zM128.67204 51.1454139L138.842884 61.3267357 124.846196 65.142153 128.67204 51.1454139zM70.2105309 53L66 66 80 62.9026767 70.2105309 53zM70.4816704 54.1204078L78.8282898 62.5628761 66.8914923 65.2036289 70.4816704 54.1204078zM16.1440902 51L4 62.8304562 21 67 16.1440902 51zM15.8469155 52.1397194L20.1016937 66.1593516 5.20596235 62.5055098 15.8469155 52.1397194zM271 76L280.643773 93 291 76.4044859 271 76zM272.053902 76.6314373L289.919555 76.9926072 280.668507 91.8176566 272.053902 76.6314373zM212 73L219.01752 93 233 77.2072558 212 73zM212.910039 73.8029486L231.85374 77.5983734 219.240157 91.8449237 212.910039 73.8029486zM168 76L154 76.3560652 161.300837 88 168 76zM166.953901 76.6300543L161.27048 86.8105009 155.077063 76.932408 166.953901 76.6300543zM109 75L94 80.0545929 105.836182 90 109 75zM108.195956 75.8984097L105.453418 88.898647 95.1946317 80.2788986 108.195956 75.8984097zM36 74L43.1010182 89 53 75.5286549 36 74zM36.9792873 74.6820335L51.9009694 76.0241948 43.2118697 87.8484765 36.9792873 74.6820335zM255.915632 101L248 112.877337 262 114 255.915632 101zM255.827511 102.201017L261.026011 113.308283 249.064444 112.348448 255.827511 102.201017zM194.860853 103L186 115.946641 202 117 194.860853 103zM194.782931 104.207449L200.956092 116.313375 187.121212 115.403011 194.782931 104.207449zM133.198157 104L130 116 142 112.719747 133.198157 104zM133.498272 105.112849L140.876728 112.423026 130.81682 115.172796 133.498272 105.112849zM68.7490745 100L63 117 81 113.13598 68.7490745 100zM68.9957979 101.146189L79.836018 112.769585 63.9082541 116.188869 68.9957979 101.146189zM11.3830269 99L0 114.485032 20 116 11.3830269 99zM11.2876249 100.141245L18.9868068 115.331076 1.11704858 113.977287 11.2876249 100.141245zM274 124L279.729782 139 290 126.66996 274 124zM274.935938 124.771349L288.86265 127.09572 279.923425 137.827793 274.935938 124.771349zM229 121L210 127.20481 224.748516 140 229 121zM228.183538 121.90309L224.383178 138.885059 211.200998 127.448742 228.183538 121.90309zM152 125L160.999585 141 171 125.525717 152 125zM153.050568 125.631825L169.909399 126.098459 161.035372 139.828592 153.050568 125.631825zM108 123L91 125.584115 101.811667 138 108 123zM107.034662 123.742609L101.621172 136.864002 92.1637962 126.003416 107.034662 123.742609zM35 125L43.2392213 142 54 126.488148 35 125zM35.9970051 125.68951L52.9075622 127.013663 43.329912 140.820334 35.9970051 125.68951zM252.283553 150L243 163.138488 260 164 252.283553 150zM252.218487 151.139155L258.95649 163.363053 244.112259 162.611199 252.218487 151.139155zM193.518157 150L186 164 202 163.446484 193.518157 150zM193.558777 151.174271L200.944479 162.882161 187.012546 163.364237 193.558777 151.174271zM130.988014 150L125 171 147 165.032051 130.988014 150zM131.301149 151.127859L145.79141 164.731289 125.882027 170.132277 131.301149 151.127859zM72.4376454 147L63 166 85 164.1646 72.4376454 147zM72.5340979 148.126681L83.9084396 163.6675 63.9892266 165.329384 72.5340979 148.126681zM9.60785018 149L1 168 23 165.238903 9.60785018 149zM9.76037897 150.128602L21.8508687 164.788641 1.98931028 167.281584 9.76037897 150.128602zM273 173L280.942952 190 292 174.829224 273 173zM273.980538 173.698136L290.901324 175.327721 281.054592 188.838244 273.980538 173.698136zM214 171L218.552611 191 235 177.77575 214 171zM214.831154 171.889347L233.767091 177.998823 218.936551 189.923484 214.831154 171.889347zM155 176L164.420178 192 174 176.128605 155 176zM156.077745 176.622721L172.91675 176.736559 164.426907 190.803169 156.077745 176.622721zM95 174L101.741494 187 110 174.897872 95 174zM95.9897112 174.640343L108.940723 175.41525 101.810476 185.8649 95.9897112 174.640343zM34 173L41.8556329 190 53 174.981419 34 173zM34.9775242 173.703547L51.9002114 175.4678 41.9737627 188.844771 34.9775242 173.703547zM251.687453 201L244 215 260 214.719394 251.687453 201zM251.713298 202.210807L258.928926 214.119862 245.03982 214.363384 251.713298 202.210807zM193.998527 202L186 212.873705 200 214 193.998527 202zM193.898431 203.146136L198.99298 213.33356 187.108328 212.377669 193.898431 203.146136zM134.557042 203L127 212.21461 139 214 134.557042 203zM134.37918 204.154768L138.058589 213.264667 128.120471 211.786352 134.37918 204.154768zM70.6857484 199L60 220 84 218.545956 70.6857484 199zM70.7596899 200.177083L82.8992248 217.998775 61.0161002 219.324142 70.7596899 200.177083zM10.2207016 201L3 215 19 214.164096 10.2207016 201zM10.2881733 202.208513L17.8879433 213.604565 4.03722446 214.328192 10.2881733 202.208513zM277 224L284.487926 240 295 225.741585 277 224zM278.014802 224.718103L293.860573 226.251166 284.606412 238.803162 278.014802 224.718103zM215 226L222.829093 240 231 226.215088 215 226zM216.052616 226.635318L229.932287 226.822432 222.844191 238.78096 216.052616 226.635318zM168 227L152 228.144523 161.10382 241 168 227zM167.003446 227.668482L161.010936 239.834028 153.100225 228.662865 167.003446 227.668482zM110 225L90 227.333064 102.018858 243 110 225zM109.024885 225.72322L101.881005 241.834981 91.1231127 227.811176 109.024885 225.72322zM35 224L38.0397777 238 49 228.564224 35 224zM35.8170922 224.899734L47.7950321 228.804193 38.417926 236.877137 35.8170922 224.899734zM251.637433 248L240 267 263 266.971422 251.637433 248zM251.63196 249.174123L261.927899 266.364599 241.086087 266.390745 251.63196 249.174123zM194.330255 249L186 265 204 264.216067 194.330255 249zM194.381317 250.199029L202.925914 263.645542 187.020055 264.338191 194.381317 250.199029zM133.076552 252L128 265 142 262.719605 133.076552 252zM133.260126 253.132032L140.898556 262.307851 128.914374 264.259892 133.260126 253.132032zM73.9090671 249L63 265.651543 84 266 73.9090671 249zM73.8833857 250.144004L82.9342243 265.391676 64.0981831 265.079245 73.8833857 250.144004zM15.082812 251L7 262.695849 21 264 15.082812 251zM14.976765 252.214936L20.0157879 263.286279 8.09264224 262.175428 14.976765 252.214936zM273 274L280.848743 292 293 276.628114 273 274zM273.959651 274.724199L291.889446 277.080071 280.99611 290.86121 273.959651 274.724199zM228 274L210 279.228784 223.661288 291 228 274zM227.151215 274.859149L223.310277 289.909204 211.216307 279.487995 227.151215 274.859149zM158 275L162.309648 290 173 278.893289 158 275zM158.865613 275.856058L171.843869 279.224567 162.594819 288.834708 158.865613 275.856058zM90 276L100.212353 294 111 276.187809 90 276zM91.0305882 276.614924L109.945294 276.783952 100.228824 292.827707 91.0305882 276.614924zM39 276L43.4336671 289 52 278.569452 39 276zM39.8919632 276.803108L50.8947792 278.977165 43.6446004 287.805192 39.8919632 276.803108z"/>
  </g>
</svg>
