<svg xmlns="http://www.w3.org/2000/svg" width="69" height="21" viewBox="0 0 69 21">
  <g fill="none" fill-rule="evenodd">
    <path fill="#9B9B9B" d="M12.9771071 2.59994074C16.6513191 3.40978729 19.4088318 6.68127026 19.4088318 10.5823572 19.4088318 15.0908369 15.7271926 18.7598321 11.2031759 18.7598321 6.67916555 18.7598321 3 15.0908369 3 10.5823572 3 6.68373536 5.75255911 3.41719521 9.42181762 2.60240583L9.25086724 2.39253785 10.2295015 2.55055669 10.0734117 1.57281829 10.8439347 2.19748572 11.1957488 1.27406155 11.5500365 2.19748572 12.3205531 1.57528338 12.1669496 2.53821226 13.1431039 2.39500927 12.9771071 2.59994074zM11.2155692 2.39994578C10.5937026 2.39994578 10.0882786 2.90363398 10.0882786 3.52089349 10.0882786 4.138153 10.5937026 4.64184121 11.2155692 4.64184121 11.8349559 4.64184121 12.3403736 4.138153 12.3403736 3.52089349 12.3403736 2.90363398 11.8349559 2.39994578 11.2155692 2.39994578zM12.2511848 4.93565512L12.3207307 5.45415285 11.565081 4.84182985 11.3396229 5.48872105 11.3396229 12.1403281C11.463499 11.8835475 11.7087775 11.695897 12.0036039 11.6539272L12.0036039 11.3280101 12.6725449 10.7132157C12.6725449 10.7132157 12.6700078 6.35534061 12.6700078 6.34794532 12.6700078 6.16277253 12.8211441 6.0096902 13.0069551 6.0096902 13.1952523 6.0096902 13.3463822 6.16277253 13.3463822 6.34794532 13.3463822 6.35535325 13.3413082 7.18001564 13.3413082 7.18001564L13.7278033 7.18001564 13.7278033 6.63929414 14.3818773 6.63929414 14.3818773 7.02940472 14.8600474 7.02940472 14.8600474 6.63929414 15.3877655 6.63929414C14.565221 5.77266194 13.4750976 5.16280404 12.2511848 4.93565512zM12.5633581 14.3550569C11.9811323 14.1525969 11.5252626 13.6834769 11.3394453 13.0958491L11.3394453 16.3228845C14.4562055 16.251283 16.9684459 13.7057006 16.9684459 10.5823572 16.9684459 9.12315433 16.4184275 7.78740213 15.5141215 6.77262411L15.5141215 8.08368745 14.8600474 8.08368745 14.8600474 7.73555299 14.3818773 7.73555299 14.3818773 8.08368745 13.8392924 8.08368745 13.8392924 8.52811228 14.3818773 8.52811228 14.3818773 8.87871815 14.8600474 8.87871815 14.8600474 8.52811228 15.5141215 8.52811228 15.5141215 9.97497701 14.8600474 9.97497701 14.8600474 9.56511406 14.3818773 9.56511406 14.3818773 9.97497701 13.7278033 9.97497701 13.7278033 9.4342555 13.3413082 9.4342555 13.3413082 10.7132157 14.0127227 11.3280101 14.0127227 11.6539272C14.4363851 11.7156493 14.7634253 12.0761282 14.7634253 12.5156229 14.7634253 13.3674392 14.2158805 14.0908684 13.4527973 14.3550569 13.6187941 14.4192568 13.7377167 14.5797408 13.7377167 14.7698564 13.7377167 15.016764 13.5370325 15.2167526 13.2892804 15.2167526L12.7243951 15.2167526C12.4791165 15.2167526 12.2784387 15.016764 12.2784387 14.7698564 12.2784387 14.5797408 12.3973613 14.4192568 12.5633581 14.3550569zM11.7011665 12.5156229C11.7011665 13.3205266 12.2586183 13.8069338 13.0068346 13.9921066 13.7575371 13.8069338 14.312509 13.3205266 14.312509 12.5156229 14.312509 12.30822 14.1613791 12.1353916 13.9631748 12.098352 13.945828 12.3477247 13.7401903 12.5452482 13.4874846 12.5452482L12.5286708 12.5452482C12.2759588 12.5452482 12.0702957 12.3477247 12.0529806 12.098352 11.8547763 12.1353853 11.7011665 12.30822 11.7011665 12.5156229zM7.34810647 8.25652214L6.04990988 8.01461426C5.96815459 8.17510451 5.89630634 8.34053127 5.82941161 8.50842313L7.32089699 8.50589483C7.30599203 8.47379804 7.29609768 8.43922984 7.29609768 8.39972513 7.29609768 8.34540457 7.31588639 8.29849194 7.34810647 8.25652214zM6.40663312 7.40222805L7.4893484 7.8170275C7.48687481 7.78742741 7.49182199 7.75531799 7.50171635 7.72567365 7.52153677 7.67626432 7.5562241 7.64175301 7.59833854 7.61703886 7.29855224 7.3824757 7.07310045 7.05409359 6.96903847 6.69114328 6.76340077 6.91336201 6.5751099 7.15039027 6.40663312 7.40222805zM5.87148166 9.30833345L5.87141823 9.30827024C5.764889 9.3280226 5.67074039 9.30576722 5.59889215 9.24407667 5.49728472 9.67368565 5.44032875 10.1205819 5.44032875 10.582294 5.44032875 11.6810179 5.75002209 12.7081404 6.29012708 13.5821868 6.30499399 13.490833 6.34710842 13.4068807 6.41152956 13.3377506 6.5007183 13.2414223 6.61964085 13.1872535 6.75095037 13.1821969 6.87235285 13.1772604 6.98632188 13.2167651 7.08046414 13.2933094L7.21920711 13.2933094 7.11267788 13.1821969 7.11014086 13.1847252C7.11014086 13.1847252 7.09035215 13.1650044 7.06555284 13.1353601L7.02591199 13.0958554 7.02591199 13.0933271C6.93176338 12.9896288 6.78558696 12.8340751 6.78558696 12.8340751 6.73851266 12.7871751 6.66169186 12.7871751 6.61215666 12.8340751 6.58983093 12.8562988 6.57746299 12.888383 6.57746299 12.9204924L6.57746299 13.0686382 6.38916578 12.8809877 6.38916578 12.8562735C6.38916578 12.5871485 6.60967038 12.3698726 6.87724295 12.3698726 7.1373884 12.3698726 7.34800499 12.5748041 7.36284652 12.8291133 7.46194865 12.9303465 7.64776592 13.1229272 7.68740677 13.1624319 7.72456769 13.1426795 7.93763884 13.0315733 8.18787091 12.9007148 8.01444061 12.8834338 7.88808461 12.7896086 7.75182157 12.6562786L7.70228636 12.6069135 8.06401387 12.325444 8.10118113 12.3649487C8.23249065 12.4958199 8.30681883 12.4859406 8.5099766 12.3205138 8.5099766 12.3205138 9.65954855 11.073663 9.69176863 11.0415536 9.69176863 11.0193298 9.69176863 10.7971174 9.69430564 10.5625543 9.56051619 10.5971288 9.46636759 10.6069892 9.32267109 10.6069892 9.14924079 10.6069892 8.97829042 10.5822813 8.81972702 10.5329162L8.44809247 11.8291637C8.38615761 12.0390064 8.16813294 12.1599857 7.95754172 12.1007602 7.74939872 12.0415031 7.62554802 11.8217558 7.69244274 11.5995434L8.33660338 10.305761C8.3316562 10.3009572 8.32930946 10.2984289 8.32423543 10.2959006 8.30193508 10.2909704 8.27960935 10.2885053 8.25982064 10.278645 8.22264069 10.2588926 8.19543121 10.2292736 8.17310549 10.194699L7.24897898 11.4144085C7.11271593 11.5921797 6.857524 11.629213 6.67666659 11.4934179 6.49828277 11.3576229 6.46359544 11.1033074 6.60977186 10.9131917L7.77174347 9.8539725C7.74696318 9.84164703 7.72463746 9.82685647 7.70484874 9.80460741 7.67516568 9.77251063 7.66026072 9.73547733 7.65036636 9.69597262L6.36201338 10.4885572C6.27034471 10.5477827 6.16133555 10.5651015 6.05479997 10.5403874 5.9482644 10.5132271 5.85662744 10.4490335 5.79960804 10.3576733 5.68316542 10.1675577 5.7426267 9.91571994 5.9482644 9.79226298L7.41497583 9.22191611C7.39518711 9.20214479 7.38028215 9.17995895 7.3703878 9.15277971 7.35307268 9.113275 7.35307268 9.07130519 7.36049344 9.03180048 6.58254336 9.17500348 5.87148166 9.30833345 5.87148166 9.30833345zM6.53546906 13.8390306L6.53546906 13.844043C6.54042258 13.8736684 6.58254336 13.9453078 6.6246578 14.0069983 6.70889936 13.8415716 6.8600293 13.7280003 7.03593319 13.6884956L6.68411907 13.6859673C6.64200463 13.6884324 6.6048564 13.705688 6.5751099 13.7377974 6.547837 13.7649577 6.53546906 13.8044561 6.53546906 13.8390306zM6.98142544 14.3501204L6.98140641 14.3500825C6.9788694 14.3600061 6.9788694 14.3698665 6.9788694 14.3772618 6.9788694 14.4019569 6.98381658 14.424206 6.99618452 14.4439267L7.10024017 14.6118186C8.10860824 15.6315331 9.49603797 16.2759655 11.0321177 16.3228655 10.8760342 16.1500372 10.79178 15.972266 10.7818856 15.5154904 10.7397712 15.5352112 10.7025913 15.5673838 10.6530561 15.5648555 10.4548518 15.5574476 10.3309631 15.3697844 10.3235423 15.359924L10.2467342 15.2710353C10.2467342 15.2710353 10.5440405 15.1870893 10.7026039 15.0265991 10.9602631 14.7698185 10.9949568 14.2537922 10.9949568 13.6710945 10.9949568 13.5599883 10.9949568 13.4488821 10.9924198 13.3353045L10.9924198 13.2390141C10.7843085 13.7229437 10.3779739 14.7229311 10.3680796 14.7377217 10.1822623 14.9229008 10.1005007 15.1574576 10.1005007 15.3623891 10.1005007 15.4883112 10.1277736 15.6068253 10.1773088 15.7055871 10.2367701 15.8315091 10.4126993 16.0339755 10.4671817 16.0759453L10.5613303 16.1450754 10.4498349 16.182115C10.2937514 16.2339641 9.92212953 15.9278121 9.88743586 15.8932376 9.71895908 15.7253394 9.61737703 15.4660937 9.61737703 15.1796814 9.61737703 15.0364784 9.64465627 14.8883326 9.69913866 14.7401931 9.61737703 14.6587123 9.56041471 14.6019456 9.53314181 14.5747663 9.40183228 14.7155042 9.33493756 14.8512993 9.33493756 15.1179529 9.33493756 15.2512829 9.36962489 15.4290541 9.47368053 15.5327524L9.53564711 15.5945061 9.45388548 15.6315458C9.32505589 15.6883377 9.16896608 15.658706 9.06739037 15.5550078 8.95094141 15.4414301 8.87165971 15.2439066 8.87165971 15.0192228 8.87165971 14.7624422 8.97324176 14.4686282 9.23834074 14.2019746 9.82056651 13.7032229 10.4349997 12.8686875 10.4994145 12.1576027 10.3086437 12.2761169 8.26961351 13.5674278 8.1531709 13.6415008 8.19281175 13.6810055 8.27460509 13.7625116 8.33403465 13.821737 8.58922024 13.8365529 8.79237801 14.0464209 8.79237801 14.3032015 8.79237801 14.43406 8.74283012 14.557517 8.64868151 14.6488709 8.55701284 14.7402437 8.43561036 14.7920738 8.30430084 14.7920738L8.27950153 14.7920738 8.09120432 14.6044233 8.23986068 14.6044233C8.27209344 14.6044233 8.3042501 14.5920978 8.32657583 14.5673837 8.37617446 14.5204711 8.37617446 14.4439204 8.32911284 14.3970204L8.0664938 14.1550557 8.06395679 14.157584 8.02678953 14.1180793 7.97478073 14.0736444 7.97985476 14.0711161 7.77174347 13.858783 7.03590782 14.2735824C7.00869835 14.290895 6.98884621 14.318011 6.98142544 14.3501204zM10.0733927 6.18988856L11.0941287 6.52066623 11.0941287 5.4960152 10.8364632 4.83430815 10.0733736 5.45403908 10.1551353 4.93554134C9.03280452 5.14047281 8.02196286 5.67378639 7.22914587 6.42931238 7.30594763 7.14780508 7.86835298 7.65395838 8.62152912 7.65395838L8.73797808 7.65648668C8.94608937 7.63673433 9.13437389 7.77746591 9.16659397 7.98486879 9.19136792 8.15029555 9.13686016 8.31077949 8.99811719 8.38978891 8.88910802 8.54780774 8.93122246 8.77249157 9.09226579 8.88359778 9.25330912 8.99223889 9.47133379 8.95026276 9.58034296 8.78977883L10.1799092 7.86635466 10.2691043 7.7354961C10.358293 7.63919942 10.358293 7.51327737 10.358293 7.42192352 10.358293 7.2293428 10.1997296 7.07132396 10.0064853 7.07132396L9.05262494 7.07132396C9.00307071 7.20464762 8.87424112 7.29847288 8.72558476 7.29847288 8.60418863 7.29847288 8.49767842 7.23921582 8.43571184 7.14539055 8.44065902 7.14791885 8.44807979 7.14791885 8.45550056 7.14791885 8.58929001 7.14791885 8.70329075 7.07384594 8.76272031 6.96767625L8.08882587 6.96767625C7.89309521 6.96767625 7.73701174 6.80965741 7.73701174 6.61707669L7.73701174 6.38992145C7.73701174 6.58497358 7.89309521 6.74052733 8.08882587 6.74052733L8.79988123 6.74052733C8.79246046 6.70348771 8.78256611 6.66399564 8.76518756 6.63188621 8.75776679 6.61949754 8.75281961 6.60963716 8.74292526 6.59731169 8.68098405 6.50591992 8.57444847 6.44669446 8.45552593 6.44669446 8.32174282 6.44669446 8.20526214 6.52076737 8.14583258 6.63187357 8.11855968 6.58002443 8.10371814 6.52320718 8.10371814 6.46398172 8.10371814 6.26892326 8.25980161 6.11337584 8.45552593 6.11337584 8.49021325 6.11337584 8.52240797 6.11830603 8.55462805 6.1281664 8.57444847 6.02940463 8.66116363 5.95533172 8.76274568 5.95533172L8.91635556 5.95533172 8.8469809 5.71089554C8.8469809 5.59485282 8.94360309 5.49855614 9.06252564 5.49855614 9.09227848 5.49855614 9.11948796 5.50348633 9.14428727 5.5158118 9.13692993 5.49362595 9.13439292 5.473842 9.13439292 5.45658634 9.13439292 5.38004201 9.19880771 5.31584844 9.27560948 5.31584844 9.35486581 5.31584844 9.41683238 5.38004201 9.41683238 5.45658634 9.41683238 5.473842 9.41448564 5.49356275 9.40941161 5.5158118 9.43415385 5.50361275 9.46142675 5.49855614 9.49117325 5.49855614 9.60761586 5.49855614 9.70423805 5.59485282 9.70423805 5.71089554L9.63734333 5.95533172 10.2096621 5.95533172 10.0733927 6.18988856zM11.2031569 18.2709281L11.2031252 18.2709281C15.4570894 18.2709281 18.9182303 14.8216676 18.9182303 10.5823193 18.9182303 6.82690674 16.2028321 3.69615535 12.6277222 3.0270467L12.5335736 3.14308941 13.4453131 3.51591906 12.5434869 3.85911069 13.1430532 4.63439536 12.1891929 4.48131303 12.2164658 4.68130799C15.0483066 5.16030102 17.2136928 7.62440886 17.2136928 10.5823193 17.2136928 13.8834339 14.518115 16.5697542 11.2031442 16.5697542 7.89065968 16.5697542 5.19508191 13.8834339 5.19508191 10.5823193 5.19508191 7.62193744 7.36046173 5.1578296 10.1972624 4.67883658L10.2294825 4.47884162 9.25084822 4.63439536 9.87518842 3.86651862 8.94858833 3.51344764 9.87518842 3.16037667 9.76865919 3.02951179C6.19850281 3.70109185 3.48805814 6.83184325 3.48805814 10.5823193 3.48805814 14.8216676 6.94919902 18.2709281 11.2031569 18.2709281zM11.2180428 4.10852763C11.2824766 4.10852763 11.3320118 4.16040837 11.3320118 4.22209893 11.3320118 4.28631146 11.2824576 4.33567655 11.2180428 4.33567655 11.1560889 4.33567655 11.1065537 4.28629882 11.1065537 4.22209893 11.1065537 4.16035781 11.1561397 4.10852763 11.2180428 4.10852763zM11.1338076 2.9505403L11.1337505 2.95055926 11.1337505 3.17277799 10.7819364 3.17277799 10.7844734 2.98512746 11.0000181 2.98512746 11.0000181 2.94808784C11.0000181 2.9233737 11.0000181 2.89625767 11.0025552 2.87154352 11.0174221 2.75797222 11.0991773 2.69377233 11.2180999 2.69377233 11.3717098 2.69377233 11.4361246 2.80241344 11.4361246 2.93820851L11.4361246 2.9851085 11.6541492 2.9851085 11.6541492 3.17275903 11.2998615 3.17275903 11.2973245 2.9505403C11.2973245 2.9061054 11.2651108 2.87153088 11.2205227 2.87153088 11.1685013 2.87153088 11.1338076 2.90117521 11.1338076 2.9505403zM11.3443988 3.55051886L11.3443988 3.32583504 11.532696 3.32583504 11.532696 3.96038181 11.3443988 3.96038181 11.3443988 3.7085377 11.0842534 3.7085377 11.0867904 3.96038181 10.8960196 3.96038181 10.8960196 3.32583504 11.0867904 3.32583504 11.0842534 3.55051886 11.3443988 3.55051886zM10.764653 3.80729948L10.764653 3.96038181 10.3409906 3.96038181 10.3409906 3.80729948 10.4599132 3.80982778 10.4599132 3.47897425 10.3484241 3.47897425 10.3484241 3.32836334 10.7547396 3.32836334 10.7547396 3.47897425 10.6432505 3.47897425 10.6432505 3.80982778 10.764653 3.80729948zM11.8374295 3.64434413L11.6367517 3.32830645 12.1297824 3.32830645 12.1297824 3.47891737 11.9365316 3.47891737 12.0455471 3.64681554 11.9365316 3.80729948 12.1322623 3.80729948 12.1322623 3.96038181 11.6367517 3.96038181 11.8374295 3.64434413zM16.5175297 6.36029608C16.5992913 6.24924044 16.7553748 6.22451997 16.8668639 6.3060008 16.9783022 6.38747532 17.0031079 6.54302906 16.9213462 6.65413527 16.8420645 6.76519091 16.6835012 6.78990505 16.5720121 6.70843054 16.4605737 6.62942112 16.435768 6.47140228 16.5175297 6.36029608zM5.88388131 6.65410998C5.80211968 6.76516562 5.64603622 6.78987977 5.53454078 6.70840526 5.423039 6.62692442 5.39829676 6.471377 5.48005839 6.36027079 5.56181368 6.24921515 5.71790349 6.22449469 5.82939259 6.30597552 5.94083094 6.38745003 5.96563026 6.54300378 5.88387497 6.65410998zM7.93033224 16.6043603C8.01208753 16.4957065 8.16817734 16.4735144 8.27966643 16.5574603 8.3886312 16.6389348 8.41096327 16.7944886 8.32920164 16.9055948 8.24496642 17.0141853 8.08888295 17.0364407 7.97986744 16.9549599 7.86836566 16.8710139 7.84609702 16.7154665 7.93033224 16.6043603zM17.6819812 8.98488785L17.6820129 8.98488785C17.4639883 9.05896076 17.2806509 8.79477223 17.1939358 8.54292812 17.1022671 8.27873959 17.1047407 7.97998917 17.3277189 7.90097975L17.4491213 8.24911421C17.3574717 8.27380308 17.3648925 8.39725372 17.4020597 8.50342341 17.4293136 8.57749632 17.4788678 8.66393895 17.5457562 8.6416899 17.6225009 8.61700103 17.5704921 8.41947748 17.5432192 8.2120746 17.5159653 8.00467803 17.5159653 7.78737053 17.6968291 7.72814507 17.9470612 7.64172772 18.125445 7.90097975 18.2270207 8.19479366 18.3335563 8.500952 18.3261228 8.80464524 18.0734172 8.893534L17.9520147 8.54786463C18.0684446 8.4984869 18.0709182 8.38984579 18.021383 8.24170629 17.9842221 8.13800801 17.9198073 8.03922095 17.8454791 8.0639351 17.758783 8.09356047 17.8083118 8.29108402 17.8331112 8.49601549 17.8578851 8.70094696 17.8628386 8.92313409 17.6819812 8.98488785zM17.5159844 9.85892797L17.4639756 9.49597766 18.5020711 9.34536675 18.5540799 9.70831706 17.5159844 9.85892797zM18.2939344 10.2836068C18.5590588 10.2959512 18.6308563 10.6045809 18.6160148 10.9132107 18.6036278 11.2366563 18.4847052 11.5181131 18.2171327 11.5082528L18.2319742 11.1403659C18.3558693 11.1378945 18.4004573 11.0391328 18.4078781 10.8811139 18.4128316 10.7724728 18.3880577 10.656487 18.3112559 10.6539587 18.2171073 10.6490222 18.192308 10.8490171 18.1402992 11.0514772 18.0882714 11.2490007 18.0114696 11.4588561 17.8182189 11.4489957 17.5902872 11.4391164 17.5159717 11.1255501 17.525866 10.8613616 17.5382593 10.5823572 17.652222 10.3033718 17.8900671 10.3132321L17.872752 10.6786539C17.7761298 10.6687745 17.741563 10.7872886 17.736489 10.9008663 17.734009 10.9798757 17.7488759 11.0785806 17.8182443 11.0811089 17.897526 11.0860454 17.9223253 10.8811139 17.9743341 10.6786539 18.0263619 10.4786589 18.1056436 10.2762115 18.2939344 10.2836068zM17.3623745 12.1526725L17.4639502 11.821819 18.4673584 12.1230409 18.3583429 12.4835261 17.5903062 12.7649955 17.5877692 12.7675238 18.2145893 12.9551744 18.1130136 13.2860279 17.1095991 12.9847997 17.2186146 12.6243209 17.9792242 12.34038 17.9817612 12.3378517 17.3623745 12.1526725zM17.2434519 14.4167854L17.6472939 13.7526133 17.8479781 13.8760639 17.2533653 14.8538086 16.3564863 14.3106157 16.941192 13.3501583 17.1294829 13.4637359 16.7355543 14.1106208 16.8941177 14.204446 17.2533653 13.6143468 17.4342227 13.7229816 17.0725016 14.3155522 17.2434519 14.4167854zM15.920437 14.816769L16.1904324 14.5452863 16.6116148 15.6045119 16.3143085 15.9057337 15.2563925 15.4859978 15.526445 15.2119299 16.2746676 15.5650072 16.2772046 15.5599506 15.920437 14.816769zM14.8253601 16.7278109L15.4868676 16.3204194 15.6107437 16.517943 14.6345893 17.1203866 14.0845709 16.2315307 15.0433848 15.63896 15.1573538 15.8266105 14.5107133 16.2241227 14.6073354 16.3796765 15.1994746 16.0167262 15.3084838 16.1944974 14.7188245 16.5574477 14.8253601 16.7278109zM13.3685621 16.5154715L13.7004923 16.4142447 14.0126656 17.4117354 13.6509445 17.5228416 12.9869571 17.04632 12.98442 17.0488483 13.1776708 17.6685793 12.8456771 17.7722775 12.5359837 16.7747868 12.895225 16.6636806 13.5567324 17.1327943 13.5618065 17.130266 13.3685621 16.5154715zM11.4236805 17.6882684L12.2017004 17.64877 12.2140683 17.8833269 11.0669636 17.9400872 11.0149548 16.8956775 12.1422391 16.8389171 12.1521334 17.056193 11.3940038 17.0956978 11.4038981 17.2784055 12.0951331 17.2438309 12.107501 17.4536989 11.4137862 17.4882734 11.4236805 17.6882684zM9.90494126 16.9524948L9.90487784 16.9524821C9.67198626 16.9055695 9.55059646 17.0388995 9.51837638 17.1895104 9.48864892 17.3425927 9.54563026 17.5129686 9.77852184 17.5598686 9.95690566 17.5969019 10.0906888 17.5598686 10.127856 17.4709799L9.87762396 17.4191497 9.91726481 17.2216261 10.4994906 17.3426117 10.383048 17.9030792 10.1501564 17.8537141 10.1526934 17.7376714C10.0362508 17.8166808 9.86778034 17.8191459 9.73894441 17.7919667 9.32023556 17.7055493 9.097232 17.4117354 9.15919857 17.1154501 9.22113344 16.8191648 9.54074016 16.6389222 9.95944901 16.7253395 10.246842 16.7845966 10.5292498 16.9623678 10.509461 17.2240912L10.1502198 17.1500183C10.1551733 17.0611296 10.0511177 16.9846042 9.90494126 16.9524948zM5.90121546 15.6883441L6.98641067 15.2389764 7.26885014 15.4834126 6.98888426 16.6191698 6.69653776 16.3697971 6.75349373 16.1698085 6.37690566 15.848828 6.18860845 15.9352453 5.90121546 15.6883441zM6.81790852 15.9599405L6.93943151 15.5822312 6.93435748 15.5797029 6.5751099 15.7525376 6.81790852 15.9599405zM6.14154049 14.3081443L5.49489359 14.7970167 5.89378201 15.3204572 5.70796474 15.4636602 5.08609812 14.6464058 5.91855596 14.0143304 6.14154049 14.3081443zM5.49242 13.1526347C5.67327741 13.5575548 5.55683479 13.8859433 5.27934884 14.0093939 5.0018629 14.1328445 4.67730265 14.001986 4.49644524 13.5970595 4.31310155 13.1921394 4.4320241 12.8637573 4.70703646 12.7403067 4.98699599 12.6168497 5.30908265 12.7477083 5.49242 13.1526347zM5.1282189 13.6736039C5.27179488 13.6094103 5.37597104 13.4637359 5.27686891 13.2489251 5.18024672 13.0316618 5.0018629 13.0118968 4.8581664 13.0760967 4.71693082 13.1378189 4.61288786 13.2859647 4.70951005 13.5007692 4.80613858 13.7180388 4.98699599 13.7377974 5.1282189 13.6736039zM5.05637065 11.9057649L5.11833089 12.2687153 4.08519521 12.4440214 4.02322863 12.0835361 4.44937094 12.0094696 4.36512938 11.5329416 3.94147335 11.6070145 3.87705221 11.2440642 4.91019423 11.066293 4.97460902 11.4292433 4.59802095 11.4934369 4.67978258 11.9699648 5.05637065 11.9057649zM4.24868676 10.7280316L4.24867407 10.7280316C3.98110151 10.6860618 3.8448131 10.4095288 3.872086 10.051515 3.9042934 9.62683622 4.16691244 9.37003033 4.46917868 9.39227938 4.7739185 9.41696824 4.9944231 9.71078847 4.95972943 10.1354609 4.93743542 10.4391542 4.76895864 10.7576443 4.51625298 10.7477839L4.54352588 10.3798971C4.65006146 10.3700241 4.71450162 10.2638544 4.72686957 10.1107721 4.74421006 9.87374382 4.59803364 9.77249167 4.44195017 9.7601662 4.28586036 9.74782177 4.12479166 9.82683118 4.10500295 10.061388 4.09261598 10.2342227 4.1595107 10.3378957 4.27843325 10.3601448L4.24868676 10.7280316zM4.36513572 8.970072C4.11243006 8.88612608 4.12729062 8.5700884 4.22391916 8.27627449 4.3279748 7.97010983 4.5187456 7.73061016 4.77393753 7.81209099L4.65748857 8.16269687C4.53856602 8.13060009 4.46917868 8.21454601 4.41964347 8.36268551 4.38496883 8.46885521 4.37506179 8.58487896 4.44938997 8.60959311 4.53857871 8.63921848 4.6178604 8.45404569 4.72191605 8.27380308 4.82597804 8.09603188 4.95728756 7.91829229 5.1406249 7.97751776 5.35616964 8.04911925 5.34378267 8.37256485 5.25954745 8.62193754 5.1728323 8.88859749 4.98701502 9.12562575 4.7615569 9.05401793L4.87800586 8.70341837C4.9671946 8.74045167 5.03408298 8.63428197 5.06877665 8.52811228 5.09351254 8.45404569 5.10591854 8.35283778 5.04150375 8.33058873 4.96470198 8.30589986 4.88542028 8.49601549 4.78135829 8.6762581 4.67482906 8.85649438 4.5435132 9.02929747 4.36512938 8.970072zM15.6627715 4.78998071L15.6628476 4.79001231C15.9824543 5.03444849 15.9799744 5.31838938 15.8115039 5.53319387 15.6331201 5.76528562 15.3457208 5.86651881 14.9988665 5.59985886 14.7981697 5.44431144 14.7089936 5.26406883 14.7882753 5.08382622L15.0360274 5.27641326C15.0235961 5.30604495 15.0285433 5.34306561 15.0459218 5.37517503 15.0632369 5.40730342 15.0929834 5.44181474 15.1252035 5.46652888 15.2713799 5.57764773 15.3977359 5.51839067 15.4869247 5.4171638L15.4843877 5.4146355C15.3877655 5.43932436 15.266363 5.38501013 15.1722207 5.31340863 14.9566443 5.14551045 14.8972084 4.91589012 15.0186108 4.75787128 15.1548739 4.58504924 15.4373197 4.61468093 15.6627715 4.78998071zM15.3432345 5.21469742C15.4572035 5.30110212 15.5711345 5.29616561 15.6281539 5.22208638 15.6851353 5.15048489 15.6603613 5.03937868 15.5439124 4.95296134 15.4448102 4.87396456 15.3258687 4.87643598 15.2738599 4.94556606 15.2143986 5.01963897 15.234219 5.13074517 15.3432345 5.21469742zM14.4239981 4.39987012L14.4238776 4.39984484C14.6766086 4.52576689 14.7831252 4.71341742 14.6889766 4.90353305 14.5750075 5.12821687 14.2975216 5.13068197 14.0126022 4.98500756 13.7425497 4.84921249 13.5691194 4.66650479 13.6607881 4.44182096L13.9630543 4.59243188C13.928367 4.66403337 14.0126022 4.76033637 14.1017973 4.80477127 14.2207198 4.86403466 14.3371688 4.85169023 14.3817568 4.76280147 14.4263575 4.67391903 14.3867167 4.57759075 14.2628343 4.51590019 14.178599 4.4714653 14.1067508 4.45414643 14.0324226 4.48379077L13.7598902 4.34798938 14.1414381 3.89368522 14.9193882 4.28626722 14.8252396 4.47391143 14.2777012 4.19984988 14.1463916 4.34058145 14.1514657 4.34310975C14.2357009 4.33074004 14.3298495 4.35050504 14.4239981 4.39987012zM7.92785231 4.7134427L7.92778888 4.71349959 7.65525646 4.85176607 7.51155996 4.27894778 8.28703646 3.88142927 8.38365865 4.06907981 7.83860014 4.34561277 7.87824099 4.5357284 7.88077801 4.5332001C7.92041886 4.45666209 7.99474703 4.39492097 8.08889564 4.34555589 8.33912771 4.21716242 8.55467245 4.24185128 8.65377457 4.42950181 8.7677436 4.65418564 8.60670027 4.87639805 8.32178721 5.02453755 8.05420831 5.16033894 7.80149631 5.19243573 7.67266672 4.98503284L7.97244668 4.83195683C8.01208753 4.90350776 8.13844353 4.89118229 8.22763861 4.8442823 8.3441066 4.78502524 8.40353616 4.68132696 8.35894813 4.59490961 8.31187383 4.50603982 8.21029177 4.48132567 8.08641571 4.54307943 8.00218049 4.58752065 7.94764102 4.63443328 7.92785231 4.7134427zM6.9071036 5.17761988L6.64447822 5.38007994 6.53298912 5.23441185C6.68907259 5.11836282 6.812955 4.95540747 6.72623985 4.8196124L6.94674445 4.64924281 7.57356459 5.45415285 7.29112513 5.67142875 6.9071036 5.17761988zM25.1777668 8.99229577C23.3988884 8.99229577 23 7.97751776 23 6.84669702L23 2.9851085 24.0826899 2.9851085 24.0826899 6.77756062C24.0826899 7.52074218 24.3180551 8.04664784 25.252095 8.04664784 26.0870327 8.04664784 26.4363669 7.67876102 26.4363669 6.67139092L26.4363669 2.9851085 27.5141033 2.9851085 27.5141033 6.60226084C27.5141033 8.2120746 26.6618251 8.99229577 25.1777668 8.99229577zM31.8770704 8.89599909C31.8770704 8.89599909 29.7513314 5.02700897 29.5828609 4.64184121 29.6175546 5.14799451 29.6348697 6.07635519 29.6348697 6.78496854L29.6348697 8.89599909 28.5819073 8.89599909 28.5819073 2.98757991 29.95943 2.98757991C29.95943 2.98757991 32.0455281 6.75040034 32.2536394 7.19729658 32.211525 6.60226084 32.1966834 5.55044953 32.1966834 4.82454891L32.1966834 2.98757991 33.2471659 2.98757991 33.2471659 8.89599909 31.8770767 8.89599909zM34.5231002 2.98757991L35.6082701 2.98757991 35.6082701 8.89599909 34.5231002 8.89599909 34.5231002 2.98757991zM39.5128937 8.89599909L38.261727 8.89599909 36.299505 2.98757991 37.4862506 2.98757991 38.5788538 6.444242C38.687863 6.77756062 38.8117454 7.17014262 38.9133211 7.5997516L38.9281627 7.5997516C39.0123979 7.19729658 39.1040666 6.8738573 39.26263 6.3751056L40.3725737 2.98757991 41.4825175 2.98757991 39.5128684 8.89599909 39.5128937 8.89599909zM42.2233321 8.89599909L42.2233321 2.98757991 45.3177983 2.98757991 45.3177983 3.94062945 43.3184153 3.94062945 43.3184153 5.39489578 45.2186961 5.39489578 45.2186961 6.32079137 43.3184153 6.32079137 43.3184153 7.9231972 45.3177983 7.9231972 45.3177983 8.89599909 42.2233321 8.89599909zM49.1877346 8.89599909L47.6194475 6.45411502 47.577333 6.45411502 47.577333 8.89599909 46.4921632 8.89599909 46.4921632 2.98757991C46.935646 2.96040067 47.4608904 2.9505403 48.1124845 2.9505403 49.3562177 2.9505403 50.1564682 3.40731587 50.1564682 4.61468093 50.1564682 5.49119246 49.5742424 6.1207964 48.7219641 6.2615343 48.8805275 6.4788102 49.0390909 6.70595912 49.1803075 6.90841918L50.5330562 8.89599909 49.1877346 8.89599909zM48.0034626 3.87890097C47.8448992 3.87890097 47.6863358 3.88876135 47.5773267 3.90608021L47.5773267 5.61219065C47.6541284 5.62205103 47.8027848 5.62950951 47.9712552 5.62950951 48.6203757 5.62950951 49.0217377 5.28136873 49.0217377 4.7283028 49.0217377 4.16042734 48.6872705 3.87895154 48.0034626 3.87895154L48.0034626 3.87890097zM52.366436 8.99229577C51.9675476 8.99229577 51.5661856 8.94786088 51.2143714 8.85155788L51.2812662 7.79233864C51.598393 7.90591626 52.0493092 8.00220662 52.4581047 8.00220662 53.0081231 8.00220662 53.434259 7.76764978 53.434259 7.22445686 53.434259 6.09363613 51.0731549 6.61213386 51.0731549 4.66653007 51.0731549 3.61718385 51.8659719 2.88881814 53.2187143 2.88881814 53.5358411 2.88881814 53.9025221 2.93325304 54.2369894 2.99498784L54.1775598 3.99247859C53.860433 3.89618823 53.5110988 3.83445975 53.1667182 3.83445975 52.5423716 3.83445975 52.2252448 4.13321649 52.2252448 4.55295245 52.2252448 5.61217169 54.5937887 5.21959601 54.5937887 7.06643802 54.5937887 8.17751272 53.7514175 8.99229577 52.3664677 8.99229577L52.366436 8.99229577zM55.4708092 2.98757991L56.5559791 2.98757991 56.5559791 8.89599909 55.4708092 8.89599909 55.4708092 2.98757991zM59.8436897 3.95791039L59.8436897 8.89599909 58.7585262 8.89599909 58.7585262 3.95791039 57.2992418 3.95791039 57.2992418 2.98757991 61.3054476 2.98757991 61.3054476 3.95791039 59.8436897 3.95791039zM62.1626794 8.89599909L62.1626794 2.98757991 65.3859751 2.98757991 65.3859751 3.94062945 63.3048305 3.94062945 63.3048305 5.39489578 65.2794459 5.39489578 65.2794459 6.32079137 63.3048305 6.32079137 63.3048305 7.9231972 65.3859751 7.9231972 65.3859751 8.89599909 62.1626794 8.89599909zM63.3642918 2.59994074L62.9777967 1.96292256 64.5163564 1 64.9821395 1.77034184 63.3642918 2.59994074zM23.0297275 18.3154136L23.0297275 12.4242753C23.4955106 12.4045546 24.2164794 12.3798404 24.9448816 12.3798404 26.7807476 12.3798404 27.9476727 13.1946298 27.9476727 15.2686271 27.9476727 17.3006482 26.6147508 18.3598674 24.6822562 18.3598674 24.0653494 18.3598485 23.5301979 18.3326692 23.0297275 18.3154136zM24.8655999 13.3328963C24.6029745 13.3328963 24.3552223 13.3427567 24.171885 13.3600755L24.171885 17.3426496C24.3304484 17.3698288 24.5658136 17.3870845 24.7962252 17.3870845 25.9111225 17.3870845 26.7188064 16.7574742 26.7188064 15.355057 26.7188064 14.0859698 26.2183423 13.3329152 24.8655999 13.3329152L24.8655999 13.3328963zM28.7231492 18.3228152L28.7231492 12.4143897 31.946445 12.4143897 31.946445 13.3699106 29.8653004 13.3699106 29.8653004 14.8217055 31.8399094 14.8217055 31.8399094 15.7500662 29.8653004 15.7500662 29.8653004 17.3524784 31.946445 17.3524784 31.946445 18.3228152 28.7231492 18.3228152zM40.124847 13.6390357C39.6491568 13.456328 39.1065719 13.3427503 38.5516 13.3427503 37.3846748 13.3427503 36.53983 14.078524 36.53983 15.3994667 36.53983 16.6512729 37.2261114 17.3870466 38.4301975 17.3870466 38.7101634 17.3870466 38.9554419 17.352472 39.1858536 17.2833483L39.1858536 15.2241606 40.3280047 15.2241606 40.3280047 18.0438108C39.7383455 18.280839 39.0099497 18.4116976 38.2964144 18.4116976 36.4184275 18.4116976 35.3010503 17.3080371 35.3010503 15.5056364 35.3010503 13.648915 36.5670776 12.3255072 38.6234482 12.3255072 39.2106275 12.3255072 39.7903797 12.4316706 40.3007509 12.5798164L40.124847 13.6390357zM41.5395306 18.3228152L41.5395306 12.4143897 44.7628264 12.4143897 44.7628264 13.3699106 42.6816818 13.3699106 42.6816818 14.8217055 44.6587707 14.8217055 44.6587707 15.7500662 42.6816818 15.7500662 42.6816818 17.3524784 44.7628264 17.3524784 44.7628264 18.3228152 41.5395306 18.3228152zM49.4156727 18.3228152C49.4156727 18.3228152 47.1784382 14.4538187 47.0025344 14.068651 47.037228 14.5772757 47.0570167 15.5056364 47.0570167 16.2142497L47.0570167 18.3228152 45.9495465 18.3228152 45.9495465 12.4143897 47.4013974 12.4143897C47.4013974 12.4143897 49.5940311 16.1796815 49.8145294 16.6265777 49.7699413 16.0290706 49.7526262 14.9797244 49.7526262 14.2538301L49.7526262 12.4143897 50.8600901 12.4143897 50.8600901 18.3228152 49.415679 18.3228152zM52.0468293 18.3228152L52.0468293 12.4143897 55.2701314 12.4143897 55.2701314 13.3699106 53.1889868 13.3699106 53.1889868 14.8217055 55.1635958 14.8217055 55.1635958 15.7500662 53.1889868 15.7500662 53.1889868 17.3524784 55.2701314 17.3524784 55.2701314 18.3228152 52.0468293 18.3228152zM54.0040978 12.0390949L52.3887364 11.2070246 52.87186 10.4268098 54.4005063 11.3897386 54.0040978 12.0390949zM59.3556125 18.3228152L58.0375574 18.3228152 55.9712734 12.4143897 57.2199601 12.4143897 58.3695448 15.8735232C58.4835138 16.2043704 58.6173033 16.5994175 58.7213589 17.0290328L58.7387374 17.0290328C58.8279262 16.6265777 58.9245484 16.3006671 59.0905452 15.8019217L60.2599503 12.4143897 61.4293553 12.4143897 59.3556442 18.3228152 59.3556125 18.3228152zM62.1750663 18.3228152L62.1750663 12.4143897 65.3983684 12.4143897 65.3983684 13.3699106 63.3172238 13.3699106 63.3172238 14.8217055 65.2943065 14.8217055 65.2943065 15.7500662 63.3172238 15.7500662 63.3172238 17.3524784 65.3983684 17.3524784 65.3983684 18.3228152 62.1750663 18.3228152z"/>
  </g>
</svg>
