<svg xmlns="http://www.w3.org/2000/svg" width="63" height="18" viewBox="0 0 63 18">
  <g fill="none" fill-rule="evenodd">
    <path fill="#9B9B9B" d="M9.9771071 1.59994074C13.6513191 2.40978729 16.4088318 5.68127026 16.4088318 9.58235718 16.4088318 14.0908369 12.7271926 17.7598321 8.20317591 17.7598321 3.67916555 17.7598321 0 14.0908369 0 9.58235718 0 5.68373536 2.75255911 2.41719521 6.42181762 1.60240583L6.25086724 1.39253785 7.22950151 1.55055669 7.0734117.572818289 7.84393468 1.19748572 8.1957488.274061553 8.55003651 1.19748572 9.32055315.575283383 9.16694961 1.53821226 10.1431039 1.39500927 9.9771071 1.59994074zM8.21556923 1.39994578C7.59370261 1.39994578 7.0882786 1.90363398 7.0882786 2.52089349 7.0882786 3.138153 7.59370261 3.64184121 8.21556923 3.64184121 8.83495591 3.64184121 9.34037357 3.138153 9.34037357 2.52089349 9.34037357 1.90363398 8.83495591 1.39994578 8.21556923 1.39994578zM9.25118483 3.93565512L9.32073074 4.45415285 8.56508101 3.84182985 8.33962289 4.48872105 8.33962289 11.1403281C8.46349895 10.8835475 8.7087775 10.695897 9.00360394 10.6539272L9.00360394 10.3280101 9.67254486 9.71321574C9.67254486 9.71321574 9.67000785 5.35534061 9.67000785 5.34794532 9.67000785 5.16277253 9.82114414 5.0096902 10.0069551 5.0096902 10.1952523 5.0096902 10.3463822 5.16277253 10.3463822 5.34794532 10.3463822 5.35535325 10.3413082 6.18001564 10.3413082 6.18001564L10.7278033 6.18001564 10.7278033 5.63929414 11.3818773 5.63929414 11.3818773 6.02940472 11.8600474 6.02940472 11.8600474 5.63929414 12.3877655 5.63929414C11.565221 4.77266194 10.4750976 4.16280404 9.25118483 3.93565512zM9.56335811 13.3550569C8.98113234 13.1525969 8.52526257 12.6834769 8.33944529 12.0958491L8.33944529 15.3228845C11.4562055 15.251283 13.9684459 12.7057006 13.9684459 9.58235718 13.9684459 8.12315433 13.4184275 6.78740213 12.5141215 5.77262411L12.5141215 7.08368745 11.8600474 7.08368745 11.8600474 6.73555299 11.3818773 6.73555299 11.3818773 7.08368745 10.8392924 7.08368745 10.8392924 7.52811228 11.3818773 7.52811228 11.3818773 7.87871815 11.8600474 7.87871815 11.8600474 7.52811228 12.5141215 7.52811228 12.5141215 8.97497701 11.8600474 8.97497701 11.8600474 8.56511406 11.3818773 8.56511406 11.3818773 8.97497701 10.7278033 8.97497701 10.7278033 8.4342555 10.3413082 8.4342555 10.3413082 9.71321574 11.0127227 10.3280101 11.0127227 10.6539272C11.4363851 10.7156493 11.7634253 11.0761282 11.7634253 11.5156229 11.7634253 12.3674392 11.2158805 13.0908684 10.4527973 13.3550569 10.6187941 13.4192568 10.7377167 13.5797408 10.7377167 13.7698564 10.7377167 14.016764 10.5370325 14.2167526 10.2892804 14.2167526L9.72439509 14.2167526C9.47911655 14.2167526 9.27843871 14.016764 9.27843871 13.7698564 9.27843871 13.5797408 9.39736126 13.4192568 9.56335811 13.3550569zM8.70116646 11.5156229C8.70116646 12.3205266 9.25861828 12.8069338 10.0068346 12.9921066 10.7575371 12.8069338 11.312509 12.3205266 11.312509 11.5156229 11.312509 11.30822 11.1613791 11.1353916 10.9631748 11.098352 10.945828 11.3477247 10.7401903 11.5452482 10.4874846 11.5452482L9.52867078 11.5452482C9.27595878 11.5452482 9.07029571 11.3477247 9.05298058 11.098352 8.85477634 11.1353853 8.70116646 11.30822 8.70116646 11.5156229zM4.34810647 7.25652214L3.04990988 7.01461426C2.96815459 7.17510451 2.89630634 7.34053127 2.82941161 7.50842313L4.32089699 7.50589483C4.30599203 7.47379804 4.29609768 7.43922984 4.29609768 7.39972513 4.29609768 7.34540457 4.31588639 7.29849194 4.34810647 7.25652214zM3.40663312 6.40222805L4.4893484 6.8170275C4.48687481 6.78742741 4.49182199 6.75531799 4.50171635 6.72567365 4.52153677 6.67626432 4.5562241 6.64175301 4.59833854 6.61703886 4.29855224 6.3824757 4.07310045 6.05409359 3.96903847 5.69114328 3.76340077 5.91336201 3.5751099 6.15039027 3.40663312 6.40222805zM2.87148166 8.30833345L2.87141823 8.30827024C2.764889 8.3280226 2.67074039 8.30576722 2.59889215 8.24407667 2.49728472 8.67368565 2.44032875 9.12058188 2.44032875 9.58229397 2.44032875 10.6810179 2.75002209 11.7081404 3.29012708 12.5821868 3.30499399 12.490833 3.34710842 12.4068807 3.41152956 12.3377506 3.5007183 12.2414223 3.61964085 12.1872535 3.75095037 12.1821969 3.87235285 12.1772604 3.98632188 12.2167651 4.08046414 12.2933094L4.21920711 12.2933094 4.11267788 12.1821969 4.11014086 12.1847252C4.11014086 12.1847252 4.09035215 12.1650044 4.06555284 12.1353601L4.02591199 12.0958554 4.02591199 12.0933271C3.93176338 11.9896288 3.78558696 11.8340751 3.78558696 11.8340751 3.73851266 11.7871751 3.66169186 11.7871751 3.61215666 11.8340751 3.58983093 11.8562988 3.57746299 11.888383 3.57746299 11.9204924L3.57746299 12.0686382 3.38916578 11.8809877 3.38916578 11.8562735C3.38916578 11.5871485 3.60967038 11.3698726 3.87724295 11.3698726 4.1373884 11.3698726 4.34800499 11.5748041 4.36284652 11.8291133 4.46194865 11.9303465 4.64776592 12.1229272 4.68740677 12.1624319 4.72456769 12.1426795 4.93763884 12.0315733 5.18787091 11.9007148 5.01444061 11.8834338 4.88808461 11.7896086 4.75182157 11.6562786L4.70228636 11.6069135 5.06401387 11.325444 5.10118113 11.3649487C5.23249065 11.4958199 5.30681883 11.4859406 5.5099766 11.3205138 5.5099766 11.3205138 6.65954855 10.073663 6.69176863 10.0415536 6.69176863 10.0193298 6.69176863 9.79711742 6.69430564 9.56255425 6.56051619 9.59712878 6.46636759 9.60698915 6.32267109 9.60698915 6.14924079 9.60698915 5.97829042 9.58228133 5.81972702 9.53291624L5.44809247 10.8291637C5.38615761 11.0390064 5.16813294 11.1599857 4.95754172 11.1007602 4.74939872 11.0415031 4.62554802 10.8217558 4.69244274 10.5995434L5.33660338 9.305761C5.3316562 9.30095723 5.32930946 9.29842893 5.32423543 9.29590063 5.30193508 9.29097044 5.27960935 9.28850534 5.25982064 9.27864497 5.22264069 9.25889261 5.19543121 9.22927356 5.17310549 9.19469904L4.24897898 10.4144085C4.11271593 10.5921797 3.857524 10.629213 3.67666659 10.4934179 3.49828277 10.3576229 3.46359544 10.1033074 3.60977186 9.91319174L4.77174347 8.8539725C4.74696318 8.84164703 4.72463746 8.82685647 4.70484874 8.80460741 4.67516568 8.77251063 4.66026072 8.73547733 4.65036636 8.69597262L3.36201338 9.48855719C3.27034471 9.54778265 3.16133555 9.56510152 3.05479997 9.54038737 2.9482644 9.51322709 2.85662744 9.44903352 2.79960804 9.35767335 2.68316542 9.16755772 2.7426267 8.91571994 2.9482644 8.79226298L4.41497583 8.22191611C4.39518711 8.20214479 4.38028215 8.17995895 4.3703878 8.15277971 4.35307268 8.113275 4.35307268 8.07130519 4.36049344 8.03180048 3.58254336 8.17500348 2.87148166 8.30833345 2.87148166 8.30833345zM3.53546906 12.8390306L3.53546906 12.844043C3.54042258 12.8736684 3.58254336 12.9453078 3.6246578 13.0069983 3.70889936 12.8415716 3.8600293 12.7280003 4.03593319 12.6884956L3.68411907 12.6859673C3.64200463 12.6884324 3.6048564 12.705688 3.5751099 12.7377974 3.547837 12.7649577 3.53546906 12.8044561 3.53546906 12.8390306zM3.98142544 13.3501204L3.98140641 13.3500825C3.9788694 13.3600061 3.9788694 13.3698665 3.9788694 13.3772618 3.9788694 13.4019569 3.98381658 13.424206 3.99618452 13.4439267L4.10024017 13.6118186C5.10860824 14.6315331 6.49603797 15.2759655 8.03211772 15.3228655 7.87603425 15.1500372 7.79178 14.972266 7.78188565 14.5154904 7.73977121 14.5352112 7.70259126 14.5673838 7.65305606 14.5648555 7.45485181 14.5574476 7.33096306 14.3697844 7.32354229 14.359924L7.24673418 14.2710353C7.24673418 14.2710353 7.54404055 14.1870893 7.70260395 14.0265991 7.96026313 13.7698185 7.9949568 13.2537922 7.9949568 12.6710945 7.9949568 12.5599883 7.9949568 12.4488821 7.99241978 12.3353045L7.99241978 12.2390141C7.7843085 12.7229437 7.37797393 13.7229311 7.36807958 13.7377217 7.1822623 13.9229008 7.10050067 14.1574576 7.10050067 14.3623891 7.10050067 14.4883112 7.12777358 14.6068253 7.17730878 14.7055871 7.23677005 14.8315091 7.41269932 15.0339755 7.4671817 15.0759453L7.5613303 15.1450754 7.44983486 15.182115C7.2937514 15.2339641 6.92212953 14.9278121 6.88743586 14.8932376 6.71895908 14.7253394 6.61737703 14.4660937 6.61737703 14.1796814 6.61737703 14.0364784 6.64465627 13.8883326 6.69913866 13.7401931 6.61737703 13.6587123 6.56041471 13.6019456 6.53314181 13.5747663 6.40183228 13.7155042 6.33493756 13.8512993 6.33493756 14.1179529 6.33493756 14.2512829 6.36962489 14.4290541 6.47368053 14.5327524L6.53564711 14.5945061 6.45388548 14.6315458C6.32505589 14.6883377 6.16896608 14.658706 6.06739037 14.5550078 5.95094141 14.4414301 5.87165971 14.2439066 5.87165971 14.0192228 5.87165971 13.7624422 5.97324176 13.4686282 6.23834074 13.2019746 6.82056651 12.7032229 7.43499967 11.8686875 7.49941447 11.1576027 7.30864367 11.2761169 5.26961351 12.5674278 5.1531709 12.6415008 5.19281175 12.6810055 5.27460509 12.7625116 5.33403465 12.821737 5.58922024 12.8365529 5.79237801 13.0464209 5.79237801 13.3032015 5.79237801 13.43406 5.74283012 13.557517 5.64868151 13.6488709 5.55701284 13.7402437 5.43561036 13.7920738 5.30430084 13.7920738L5.27950153 13.7920738 5.09120432 13.6044233 5.23986068 13.6044233C5.27209344 13.6044233 5.3042501 13.5920978 5.32657583 13.5673837 5.37617446 13.5204711 5.37617446 13.4439204 5.32911284 13.3970204L5.0664938 13.1550557 5.06395679 13.157584 5.02678953 13.1180793 4.97478073 13.0736444 4.97985476 13.0711161 4.77174347 12.858783 4.03590782 13.2735824C4.00869835 13.290895 3.98884621 13.318011 3.98142544 13.3501204zM7.07339267 5.18988856L8.09412869 5.52066623 8.09412869 4.4960152 7.83646317 3.83430815 7.07337364 4.45403908 7.15513528 3.93554134C6.03280452 4.14047281 5.02196286 4.67378639 4.22914587 5.42931238 4.30594763 6.14780508 4.86835298 6.65395838 5.62152912 6.65395838L5.73797808 6.65648668C5.94608937 6.63673433 6.13437389 6.77746591 6.16659397 6.98486879 6.19136792 7.15029555 6.13686016 7.31077949 5.99811719 7.38978891 5.88910802 7.54780774 5.93122246 7.77249157 6.09226579 7.88359778 6.25330912 7.99223889 6.47133379 7.95026276 6.58034296 7.78977883L7.17990922 6.86635466 7.2691043 6.7354961C7.35829304 6.63919942 7.35829304 6.51327737 7.35829304 6.42192352 7.35829304 6.2293428 7.19972965 6.07132396 7.00648526 6.07132396L6.05262494 6.07132396C6.00307071 6.20464762 5.87424112 6.29847288 5.72558476 6.29847288 5.60418863 6.29847288 5.49767842 6.23921582 5.43571184 6.14539055 5.44065902 6.14791885 5.44807979 6.14791885 5.45550056 6.14791885 5.58929001 6.14791885 5.70329075 6.07384594 5.76272031 5.96767625L5.08882587 5.96767625C4.89309521 5.96767625 4.73701174 5.80965741 4.73701174 5.61707669L4.73701174 5.38992145C4.73701174 5.58497358 4.89309521 5.74052733 5.08882587 5.74052733L5.79988123 5.74052733C5.79246046 5.70348771 5.78256611 5.66399564 5.76518756 5.63188621 5.75776679 5.61949754 5.75281961 5.60963716 5.74292526 5.59731169 5.68098405 5.50591992 5.57444847 5.44669446 5.45552593 5.44669446 5.32174282 5.44669446 5.20526214 5.52076737 5.14583258 5.63187357 5.11855968 5.58002443 5.10371814 5.52320718 5.10371814 5.46398172 5.10371814 5.26892326 5.25980161 5.11337584 5.45552593 5.11337584 5.49021325 5.11337584 5.52240797 5.11830603 5.55462805 5.1281664 5.57444847 5.02940463 5.66116363 4.95533172 5.76274568 4.95533172L5.91635556 4.95533172 5.8469809 4.71089554C5.8469809 4.59485282 5.94360309 4.49855614 6.06252564 4.49855614 6.09227848 4.49855614 6.11948796 4.50348633 6.14428727 4.5158118 6.13692993 4.49362595 6.13439292 4.473842 6.13439292 4.45658634 6.13439292 4.38004201 6.19880771 4.31584844 6.27560948 4.31584844 6.35486581 4.31584844 6.41683238 4.38004201 6.41683238 4.45658634 6.41683238 4.473842 6.41448564 4.49356275 6.40941161 4.5158118 6.43415385 4.50361275 6.46142675 4.49855614 6.49117325 4.49855614 6.60761586 4.49855614 6.70423805 4.59485282 6.70423805 4.71089554L6.63734333 4.95533172 7.20966206 4.95533172 7.07339267 5.18988856zM8.20315688 17.2709281L8.20312517 17.2709281C12.4570894 17.2709281 15.9182303 13.8216676 15.9182303 9.58231925 15.9182303 5.82690674 13.2028321 2.69615535 9.62772216 2.0270467L9.53357356 2.14308941 10.4453131 2.51591906 9.54348694 2.85911069 10.1430532 3.63439536 9.18919289 3.48131303 9.21646579 3.68130799C12.0483066 4.16030102 14.2136928 6.62440886 14.2136928 9.58231925 14.2136928 12.8834339 11.518115 15.5697542 8.2031442 15.5697542 4.89065968 15.5697542 2.19508191 12.8834339 2.19508191 9.58231925 2.19508191 6.62193744 4.36046173 4.1578296 7.1972624 3.67883658L7.22948248 3.47884162 6.25084822 3.63439536 6.87518842 2.86651862 5.94858833 2.51344764 6.87518842 2.16037667 6.76865919 2.02951179C3.19850281 2.70109185.488058139 5.83184325.488058139 9.58231925.488058139 13.8216676 3.94919902 17.2709281 8.20315688 17.2709281zM8.21804281 3.10852763C8.28247664 3.10852763 8.33201184 3.16040837 8.33201184 3.22209893 8.33201184 3.28631146 8.28245761 3.33567655 8.21804281 3.33567655 8.15608892 3.33567655 8.10655372 3.28629882 8.10655372 3.22209893 8.10655372 3.16035781 8.15613966 3.10852763 8.21804281 3.10852763zM8.13380759 1.9505403L8.13375051 1.95055926 8.13375051 2.17277799 7.78193639 2.17277799 7.7844734 1.98512746 8.00001814 1.98512746 8.00001814 1.94808784C8.00001814 1.9233737 8.00001814 1.89625767 8.00255516 1.87154352 8.01742206 1.75797222 8.09917735 1.69377233 8.2180999 1.69377233 8.37170977 1.69377233 8.43612457 1.80241344 8.43612457 1.93820851L8.43612457 1.9851085 8.65414924 1.9851085 8.65414924 2.17275903 8.29986153 2.17275903 8.29732451 1.9505403C8.29732451 1.9061054 8.26511077 1.87153088 8.22052275 1.87153088 8.16850127 1.87153088 8.13380759 1.90117521 8.13380759 1.9505403zM8.34439881 2.55051886L8.34439881 2.32583504 8.53269602 2.32583504 8.53269602 2.96038181 8.34439881 2.96038181 8.34439881 2.7085377 8.08425336 2.7085377 8.08679038 2.96038181 7.89601958 2.96038181 7.89601958 2.32583504 8.08679038 2.32583504 8.08425336 2.55051886 8.34439881 2.55051886zM7.76465298 2.80729948L7.76465298 2.96038181 7.34099061 2.96038181 7.34099061 2.80729948 7.45991315 2.80982778 7.45991315 2.47897425 7.34842406 2.47897425 7.34842406 2.32836334 7.75473959 2.32836334 7.75473959 2.47897425 7.6432505 2.47897425 7.6432505 2.80982778 7.76465298 2.80729948zM8.8374295 2.64434413L8.63675167 2.32830645 9.12978235 2.32830645 9.12978235 2.47891737 8.93653163 2.47891737 9.04554713 2.64681554 8.93653163 2.80729948 9.13226228 2.80729948 9.13226228 2.96038181 8.63675167 2.96038181 8.8374295 2.64434413zM13.5175297 5.36029608C13.5992913 5.24924044 13.7553748 5.22451997 13.8668639 5.3060008 13.9783022 5.38747532 14.0031079 5.54302906 13.9213462 5.65413527 13.8420645 5.76519091 13.6835012 5.78990505 13.5720121 5.70843054 13.4605737 5.62942112 13.435768 5.47140228 13.5175297 5.36029608zM2.88388131 5.65410998C2.80211968 5.76516562 2.64603622 5.78987977 2.53454078 5.70840526 2.423039 5.62692442 2.39829676 5.471377 2.48005839 5.36027079 2.56181368 5.24921515 2.71790349 5.22449469 2.82939259 5.30597552 2.94083094 5.38745003 2.96563026 5.54300378 2.88387497 5.65410998zM4.93033224 15.6043603C5.01208753 15.4957065 5.16817734 15.4735144 5.27966643 15.5574603 5.3886312 15.6389348 5.41096327 15.7944886 5.32920164 15.9055948 5.24496642 16.0141853 5.08888295 16.0364407 4.97986744 15.9549599 4.86836566 15.8710139 4.84609702 15.7154665 4.93033224 15.6043603zM14.6819812 7.98488785L14.6820129 7.98488785C14.4639883 8.05896076 14.2806509 7.79477223 14.1939358 7.54292812 14.1022671 7.27873959 14.1047407 6.97998917 14.3277189 6.90097975L14.4491213 7.24911421C14.3574717 7.27380308 14.3648925 7.39725372 14.4020597 7.50342341 14.4293136 7.57749632 14.4788678 7.66393895 14.5457562 7.6416899 14.6225009 7.61700103 14.5704921 7.41947748 14.5432192 7.2120746 14.5159653 7.00467803 14.5159653 6.78737053 14.6968291 6.72814507 14.9470612 6.64172772 15.125445 6.90097975 15.2270207 7.19479366 15.3335563 7.500952 15.3261228 7.80464524 15.0734172 7.893534L14.9520147 7.54786463C15.0684446 7.4984869 15.0709182 7.38984579 15.021383 7.24170629 14.9842221 7.13800801 14.9198073 7.03922095 14.8454791 7.0639351 14.758783 7.09356047 14.8083118 7.29108402 14.8331112 7.49601549 14.8578851 7.70094696 14.8628386 7.92313409 14.6819812 7.98488785zM14.5159844 8.85892797L14.4639756 8.49597766 15.5020711 8.34536675 15.5540799 8.70831706 14.5159844 8.85892797zM15.2939344 9.28360676C15.5590588 9.29595119 15.6308563 9.60458095 15.6160148 9.9132107 15.6036278 10.2366563 15.4847052 10.5181131 15.2171327 10.5082528L15.2319742 10.1403659C15.3558693 10.1378945 15.4004573 10.0391328 15.4078781 9.88111391 15.4128316 9.7724728 15.3880577 9.65648697 15.3112559 9.65395867 15.2171073 9.64902216 15.192308 9.84901713 15.1402992 10.0514772 15.0882714 10.2490007 15.0114696 10.4588561 14.8182189 10.4489957 14.5902872 10.4391164 14.5159717 10.1255501 14.525866 9.86136156 14.5382593 9.58235718 14.652222 9.30337176 14.8900671 9.31323213L14.872752 9.67865386C14.7761298 9.66877452 14.741563 9.78728865 14.736489 9.90086627 14.734009 9.97987569 14.7488759 10.0785806 14.8182443 10.0811089 14.897526 10.0860454 14.9223253 9.88111391 14.9743341 9.67865386 15.0263619 9.47865889 15.1056436 9.27621148 15.2939344 9.28360676zM14.3623745 11.1526725L14.4639502 10.821819 15.4673584 11.1230409 15.3583429 11.4835261 14.5903062 11.7649955 14.5877692 11.7675238 15.2145893 11.9551744 15.1130136 12.2860279 14.1095991 11.9847997 14.2186146 11.6243209 14.9792242 11.34038 14.9817612 11.3378517 14.3623745 11.1526725zM14.2434519 13.4167854L14.6472939 12.7526133 14.8479781 12.8760639 14.2533653 13.8538086 13.3564863 13.3106157 13.941192 12.3501583 14.1294829 12.4637359 13.7355543 13.1106208 13.8941177 13.204446 14.2533653 12.6143468 14.4342227 12.7229816 14.0725016 13.3155522 14.2434519 13.4167854zM12.920437 13.816769L13.1904324 13.5452863 13.6116148 14.6045119 13.3143085 14.9057337 12.2563925 14.4859978 12.526445 14.2119299 13.2746676 14.5650072 13.2772046 14.5599506 12.920437 13.816769zM11.8253601 15.7278109L12.4868676 15.3204194 12.6107437 15.517943 11.6345893 16.1203866 11.0845709 15.2315307 12.0433848 14.63896 12.1573538 14.8266105 11.5107133 15.2241227 11.6073354 15.3796765 12.1994746 15.0167262 12.3084838 15.1944974 11.7188245 15.5574477 11.8253601 15.7278109zM10.3685621 15.5154715L10.7004923 15.4142447 11.0126656 16.4117354 10.6509445 16.5228416 9.98695705 16.04632 9.98442004 16.0488483 10.1776708 16.6685793 9.84567707 16.7722775 9.53598372 15.7747868 9.89522496 15.6636806 10.5567324 16.1327943 10.5618065 16.130266 10.3685621 15.5154715zM8.42368051 16.6882684L9.20170037 16.64877 9.21406831 16.8833269 8.06696361 16.9400872 8.01495481 15.8956775 9.14223909 15.8389171 9.15213345 16.056193 8.39400379 16.0956978 8.40389814 16.2784055 9.09513308 16.2438309 9.10750102 16.4536989 8.41378616 16.4882734 8.42368051 16.6882684zM6.90494126 15.9524948L6.90487784 15.9524821C6.67198626 15.9055695 6.55059646 16.0388995 6.51837638 16.1895104 6.48864892 16.3425927 6.54563026 16.5129686 6.77852184 16.5598686 6.95690566 16.5969019 7.09068877 16.5598686 7.12785603 16.4709799L6.87762396 16.4191497 6.91726481 16.2216261 7.49949058 16.3426117 7.38304796 16.9030792 7.15015638 16.8537141 7.1526934 16.7376714C7.03625078 16.8166808 6.86778034 16.8191459 6.73894441 16.7919667 6.32023556 16.7055493 6.097232 16.4117354 6.15919857 16.1154501 6.22113344 15.8191648 6.54074016 15.6389222 6.95944901 15.7253395 7.246842 15.7845966 7.52924976 15.9623678 7.50946104 16.2240912L7.15021981 16.1500183C7.15517333 16.0611296 7.05111769 15.9846042 6.90494126 15.9524948zM2.90121546 14.6883441L3.98641067 14.2389764 4.26885014 14.4834126 3.98888426 15.6191698 3.69653776 15.3697971 3.75349373 15.1698085 3.37690566 14.848828 3.18860845 14.9352453 2.90121546 14.6883441zM3.81790852 14.9599405L3.93943151 14.5822312 3.93435748 14.5797029 3.5751099 14.7525376 3.81790852 14.9599405zM3.14154049 13.3081443L2.49489359 13.7970167 2.89378201 14.3204572 2.70796474 14.4636602 2.08609812 13.6464058 2.91855596 13.0143304 3.14154049 13.3081443zM2.49242 12.1526347C2.67327741 12.5575548 2.55683479 12.8859433 2.27934884 13.0093939 2.0018629 13.1328445 1.67730265 13.001986 1.49644524 12.5970595 1.31310155 12.1921394 1.4320241 11.8637573 1.70703646 11.7403067 1.98699599 11.6168497 2.30908265 11.7477083 2.49242 12.1526347zM2.1282189 12.6736039C2.27179488 12.6094103 2.37597104 12.4637359 2.27686891 12.2489251 2.18024672 12.0316618 2.0018629 12.0118968 1.8581664 12.0760967 1.71693082 12.1378189 1.61288786 12.2859647 1.70951005 12.5007692 1.80613858 12.7180388 1.98699599 12.7377974 2.1282189 12.6736039zM2.05637065 10.9057649L2.11833089 11.2687153 1.08519521 11.4440214 1.02322863 11.0835361 1.44937094 11.0094696 1.36512938 10.5329416.941473346 10.6070145.877052209 10.2440642 1.91019423 10.066293 1.97460902 10.4292433 1.59802095 10.4934369 1.67978258 10.9699648 2.05637065 10.9057649zM1.24868676 9.72803158L1.24867407 9.72803158C.981101511 9.68606178.844813099 9.40952881.872086003 9.05151501.904293401 8.62683622 1.16691244 8.37003033 1.46917868 8.39227938 1.7739185 8.41696824 1.9944231 8.71078847 1.95972943 9.13546094 1.93743542 9.43915418 1.76895864 9.75764431 1.51625298 9.74778394L1.54352588 9.37989712C1.65006146 9.3700241 1.71450162 9.2638544 1.72686957 9.11077207 1.74421006 8.87374382 1.59803364 8.77249167 1.44195017 8.7601662 1.28586036 8.74782177 1.12479166 8.82683118 1.10500295 9.06138803 1.09261598 9.23422271 1.1595107 9.33789571 1.27843325 9.36014476L1.24868676 9.72803158zM1.36513572 7.970072C1.11243006 7.88612608 1.12729062 7.5700884 1.22391916 7.27627449 1.3279748 6.97010983 1.5187456 6.73061016 1.77393753 6.81209099L1.65748857 7.16269687C1.53856602 7.13060009 1.46917868 7.21454601 1.41964347 7.36268551 1.38496883 7.46885521 1.37506179 7.58487896 1.44938997 7.60959311 1.53857871 7.63921848 1.6178604 7.45404569 1.72191605 7.27380308 1.82597804 7.09603188 1.95728756 6.91829229 2.1406249 6.97751776 2.35616964 7.04911925 2.34378267 7.37256485 2.25954745 7.62193754 2.1728323 7.88859749 1.98701502 8.12562575 1.7615569 8.05401793L1.87800586 7.70341837C1.9671946 7.74045167 2.03408298 7.63428197 2.06877665 7.52811228 2.09351254 7.45404569 2.10591854 7.35283778 2.04150375 7.33058873 1.96470198 7.30589986 1.88542028 7.49601549 1.78135829 7.6762581 1.67482906 7.85649438 1.5435132 8.02929747 1.36512938 7.970072zM12.6627715 3.78998071L12.6628476 3.79001231C12.9824543 4.03444849 12.9799744 4.31838938 12.8115039 4.53319387 12.6331201 4.76528562 12.3457208 4.86651881 11.9988665 4.59985886 11.7981697 4.44431144 11.7089936 4.26406883 11.7882753 4.08382622L12.0360274 4.27641326C12.0235961 4.30604495 12.0285433 4.34306561 12.0459218 4.37517503 12.0632369 4.40730342 12.0929834 4.44181474 12.1252035 4.46652888 12.2713799 4.57764773 12.3977359 4.51839067 12.4869247 4.4171638L12.4843877 4.4146355C12.3877655 4.43932436 12.266363 4.38501013 12.1722207 4.31340863 11.9566443 4.14551045 11.8972084 3.91589012 12.0186108 3.75787128 12.1548739 3.58504924 12.4373197 3.61468093 12.6627715 3.78998071zM12.3432345 4.21469742C12.4572035 4.30110212 12.5711345 4.29616561 12.6281539 4.22208638 12.6851353 4.15048489 12.6603613 4.03937868 12.5439124 3.95296134 12.4448102 3.87396456 12.3258687 3.87643598 12.2738599 3.94556606 12.2143986 4.01963897 12.234219 4.13074517 12.3432345 4.21469742zM11.4239981 3.39987012L11.4238776 3.39984484C11.6766086 3.52576689 11.7831252 3.71341742 11.6889766 3.90353305 11.5750075 4.12821687 11.2975216 4.13068197 11.0126022 3.98500756 10.7425497 3.84921249 10.5691194 3.66650479 10.6607881 3.44182096L10.9630543 3.59243188C10.928367 3.66403337 11.0126022 3.76033637 11.1017973 3.80477127 11.2207198 3.86403466 11.3371688 3.85169023 11.3817568 3.76280147 11.4263575 3.67391903 11.3867167 3.57759075 11.2628343 3.51590019 11.178599 3.4714653 11.1067508 3.45414643 11.0324226 3.48379077L10.7598902 3.34798938 11.1414381 2.89368522 11.9193882 3.28626722 11.8252396 3.47391143 11.2777012 3.19984988 11.1463916 3.34058145 11.1514657 3.34310975C11.2357009 3.33074004 11.3298495 3.35050504 11.4239981 3.39987012zM4.92785231 3.7134427L4.92778888 3.71349959 4.65525646 3.85176607 4.51155996 3.27894778 5.28703646 2.88142927 5.38365865 3.06907981 4.83860014 3.34561277 4.87824099 3.5357284 4.88077801 3.5332001C4.92041886 3.45666209 4.99474703 3.39492097 5.08889564 3.34555589 5.33912771 3.21716242 5.55467245 3.24185128 5.65377457 3.42950181 5.7677436 3.65418564 5.60670027 3.87639805 5.32178721 4.02453755 5.05420831 4.16033894 4.80149631 4.19243573 4.67266672 3.98503284L4.97244668 3.83195683C5.01208753 3.90350776 5.13844353 3.89118229 5.22763861 3.8442823 5.3441066 3.78502524 5.40353616 3.68132696 5.35894813 3.59490961 5.31187383 3.50603982 5.21029177 3.48132567 5.08641571 3.54307943 5.00218049 3.58752065 4.94764102 3.63443328 4.92785231 3.7134427zM3.9071036 4.17761988L3.64447822 4.38007994 3.53298912 4.23441185C3.68907259 4.11836282 3.812955 3.95540747 3.72623985 3.8196124L3.94674445 3.64924281 4.57356459 4.45415285 4.29112513 4.67142875 3.9071036 4.17761988zM22.1777668 7.99229577C20.3988884 7.99229577 20 6.97751776 20 5.84669702L20 1.9851085 21.0826899 1.9851085 21.0826899 5.77756062C21.0826899 6.52074218 21.3180551 7.04664784 22.252095 7.04664784 23.0870327 7.04664784 23.4363669 6.67876102 23.4363669 5.67139092L23.4363669 1.9851085 24.5141033 1.9851085 24.5141033 5.60226084C24.5141033 7.2120746 23.6618251 7.99229577 22.1777668 7.99229577zM28.8770704 7.89599909C28.8770704 7.89599909 26.7513314 4.02700897 26.5828609 3.64184121 26.6175546 4.14799451 26.6348697 5.07635519 26.6348697 5.78496854L26.6348697 7.89599909 25.5819073 7.89599909 25.5819073 1.98757991 26.95943 1.98757991C26.95943 1.98757991 29.0455281 5.75040034 29.2536394 6.19729658 29.211525 5.60226084 29.1966834 4.55044953 29.1966834 3.82454891L29.1966834 1.98757991 30.2471659 1.98757991 30.2471659 7.89599909 28.8770767 7.89599909zM31.5231002 1.98757991L32.6082701 1.98757991 32.6082701 7.89599909 31.5231002 7.89599909 31.5231002 1.98757991zM36.5128937 7.89599909L35.261727 7.89599909 33.299505 1.98757991 34.4862506 1.98757991 35.5788538 5.444242C35.687863 5.77756062 35.8117454 6.17014262 35.9133211 6.5997516L35.9281627 6.5997516C36.0123979 6.19729658 36.1040666 5.8738573 36.26263 5.3751056L37.3725737 1.98757991 38.4825175 1.98757991 36.5128684 7.89599909 36.5128937 7.89599909zM39.2233321 7.89599909L39.2233321 1.98757991 42.3177983 1.98757991 42.3177983 2.94062945 40.3184153 2.94062945 40.3184153 4.39489578 42.2186961 4.39489578 42.2186961 5.32079137 40.3184153 5.32079137 40.3184153 6.9231972 42.3177983 6.9231972 42.3177983 7.89599909 39.2233321 7.89599909zM46.1877346 7.89599909L44.6194475 5.45411502 44.577333 5.45411502 44.577333 7.89599909 43.4921632 7.89599909 43.4921632 1.98757991C43.935646 1.96040067 44.4608904 1.9505403 45.1124845 1.9505403 46.3562177 1.9505403 47.1564682 2.40731587 47.1564682 3.61468093 47.1564682 4.49119246 46.5742424 5.1207964 45.7219641 5.2615343 45.8805275 5.4788102 46.0390909 5.70595912 46.1803075 5.90841918L47.5330562 7.89599909 46.1877346 7.89599909zM45.0034626 2.87890097C44.8448992 2.87890097 44.6863358 2.88876135 44.5773267 2.90608021L44.5773267 4.61219065C44.6541284 4.62205103 44.8027848 4.62950951 44.9712552 4.62950951 45.6203757 4.62950951 46.0217377 4.28136873 46.0217377 3.7283028 46.0217377 3.16042734 45.6872705 2.87895154 45.0034626 2.87895154L45.0034626 2.87890097zM49.366436 7.99229577C48.9675476 7.99229577 48.5661856 7.94786088 48.2143714 7.85155788L48.2812662 6.79233864C48.598393 6.90591626 49.0493092 7.00220662 49.4581047 7.00220662 50.0081231 7.00220662 50.434259 6.76764978 50.434259 6.22445686 50.434259 5.09363613 48.0731549 5.61213386 48.0731549 3.66653007 48.0731549 2.61718385 48.8659719 1.88881814 50.2187143 1.88881814 50.5358411 1.88881814 50.9025221 1.93325304 51.2369894 1.99498784L51.1775598 2.99247859C50.860433 2.89618823 50.5110988 2.83445975 50.1667182 2.83445975 49.5423716 2.83445975 49.2252448 3.13321649 49.2252448 3.55295245 49.2252448 4.61217169 51.5937887 4.21959601 51.5937887 6.06643802 51.5937887 7.17751272 50.7514175 7.99229577 49.3664677 7.99229577L49.366436 7.99229577zM52.4708092 1.98757991L53.5559791 1.98757991 53.5559791 7.89599909 52.4708092 7.89599909 52.4708092 1.98757991zM56.8436897 2.95791039L56.8436897 7.89599909 55.7585262 7.89599909 55.7585262 2.95791039 54.2992418 2.95791039 54.2992418 1.98757991 58.3054476 1.98757991 58.3054476 2.95791039 56.8436897 2.95791039zM59.1626794 7.89599909L59.1626794 1.98757991 62.3859751 1.98757991 62.3859751 2.94062945 60.3048305 2.94062945 60.3048305 4.39489578 62.2794459 4.39489578 62.2794459 5.32079137 60.3048305 5.32079137 60.3048305 6.9231972 62.3859751 6.9231972 62.3859751 7.89599909 59.1626794 7.89599909zM60.3642918 1.59994074L59.9777967.962922556 61.5163564 0 61.9821395.770341837 60.3642918 1.59994074zM20.0297275 17.3154136L20.0297275 11.4242753C20.4955106 11.4045546 21.2164794 11.3798404 21.9448816 11.3798404 23.7807476 11.3798404 24.9476727 12.1946298 24.9476727 14.2686271 24.9476727 16.3006482 23.6147508 17.3598674 21.6822562 17.3598674 21.0653494 17.3598485 20.5301979 17.3326692 20.0297275 17.3154136zM21.8655999 12.3328963C21.6029745 12.3328963 21.3552223 12.3427567 21.171885 12.3600755L21.171885 16.3426496C21.3304484 16.3698288 21.5658136 16.3870845 21.7962252 16.3870845 22.9111225 16.3870845 23.7188064 15.7574742 23.7188064 14.355057 23.7188064 13.0859698 23.2183423 12.3329152 21.8655999 12.3329152L21.8655999 12.3328963zM25.7231492 17.3228152L25.7231492 11.4143897 28.946445 11.4143897 28.946445 12.3699106 26.8653004 12.3699106 26.8653004 13.8217055 28.8399094 13.8217055 28.8399094 14.7500662 26.8653004 14.7500662 26.8653004 16.3524784 28.946445 16.3524784 28.946445 17.3228152 25.7231492 17.3228152zM37.124847 12.6390357C36.6491568 12.456328 36.1065719 12.3427503 35.5516 12.3427503 34.3846748 12.3427503 33.53983 13.078524 33.53983 14.3994667 33.53983 15.6512729 34.2261114 16.3870466 35.4301975 16.3870466 35.7101634 16.3870466 35.9554419 16.352472 36.1858536 16.2833483L36.1858536 14.2241606 37.3280047 14.2241606 37.3280047 17.0438108C36.7383455 17.280839 36.0099497 17.4116976 35.2964144 17.4116976 33.4184275 17.4116976 32.3010503 16.3080371 32.3010503 14.5056364 32.3010503 12.648915 33.5670776 11.3255072 35.6234482 11.3255072 36.2106275 11.3255072 36.7903797 11.4316706 37.3007509 11.5798164L37.124847 12.6390357zM38.5395306 17.3228152L38.5395306 11.4143897 41.7628264 11.4143897 41.7628264 12.3699106 39.6816818 12.3699106 39.6816818 13.8217055 41.6587707 13.8217055 41.6587707 14.7500662 39.6816818 14.7500662 39.6816818 16.3524784 41.7628264 16.3524784 41.7628264 17.3228152 38.5395306 17.3228152zM46.4156727 17.3228152C46.4156727 17.3228152 44.1784382 13.4538187 44.0025344 13.068651 44.037228 13.5772757 44.0570167 14.5056364 44.0570167 15.2142497L44.0570167 17.3228152 42.9495465 17.3228152 42.9495465 11.4143897 44.4013974 11.4143897C44.4013974 11.4143897 46.5940311 15.1796815 46.8145294 15.6265777 46.7699413 15.0290706 46.7526262 13.9797244 46.7526262 13.2538301L46.7526262 11.4143897 47.8600901 11.4143897 47.8600901 17.3228152 46.415679 17.3228152zM49.0468293 17.3228152L49.0468293 11.4143897 52.2701314 11.4143897 52.2701314 12.3699106 50.1889868 12.3699106 50.1889868 13.8217055 52.1635958 13.8217055 52.1635958 14.7500662 50.1889868 14.7500662 50.1889868 16.3524784 52.2701314 16.3524784 52.2701314 17.3228152 49.0468293 17.3228152zM51.0040978 11.0390949L49.3887364 10.2070246 49.87186 9.42680975 51.4005063 10.3897386 51.0040978 11.0390949zM56.3556125 17.3228152L55.0375574 17.3228152 52.9712734 11.4143897 54.2199601 11.4143897 55.3695448 14.8735232C55.4835138 15.2043704 55.6173033 15.5994175 55.7213589 16.0290328L55.7387374 16.0290328C55.8279262 15.6265777 55.9245484 15.3006671 56.0905452 14.8019217L57.2599503 11.4143897 58.4293553 11.4143897 56.3556442 17.3228152 56.3556125 17.3228152zM59.1750663 17.3228152L59.1750663 11.4143897 62.3983684 11.4143897 62.3983684 12.3699106 60.3172238 12.3699106 60.3172238 13.8217055 62.2943065 13.8217055 62.2943065 14.7500662 60.3172238 14.7500662 60.3172238 16.3524784 62.3983684 16.3524784 62.3983684 17.3228152 59.1750663 17.3228152z"/>
  </g>
</svg>
