<?xml version="1.0" encoding="utf-8"?>
<!-- Generator: Adobe Illustrator 16.0.0, SVG Export Plug-In . SVG Version: 6.00 Build 0)  -->
<!DOCTYPE svg PUBLIC "-//W3C//DTD SVG 1.1//EN" "http://www.w3.org/Graphics/SVG/1.1/DTD/svg11.dtd">
<svg version="1.1" id="Layer_1" xmlns="http://www.w3.org/2000/svg" xmlns:xlink="http://www.w3.org/1999/xlink" x="0px" y="0px"
	 width="404px" height="104px" viewBox="0 0 404 104" enable-background="new 0 0 404 104" xml:space="preserve">
<g>
	<g>
		<path fill="#E02127" d="M50.203,16.138c9.056,0,17.825,3.634,24.645,10.189c1.424,1.417,2.917,2.048,4.838,2.048
			c3.578,0,6.489-2.906,6.489-6.484c0-1.874-0.868-3.717-2.33-4.973c-9.078-8.868-21.02-13.75-33.642-13.75
			C23.624,3.167,2,24.792,2,51.375s21.623,48.206,48.203,48.206c12.917,0,25.008-4.978,34.048-14.017
			c1.259-1.259,1.924-2.883,1.924-4.702c0-3.577-2.911-6.489-6.489-6.489c-2.625,0-4.115,1.475-4.82,2.173
			c-6.619,6.492-15.378,10.065-24.663,10.065c-19.429,0-35.233-15.808-35.233-35.237S30.774,16.138,50.203,16.138"/>
		<path fill="#E02127" d="M395.51,3.167c-3.572,0-6.481,2.913-6.481,6.488v83.442c0,3.578,2.909,6.484,6.481,6.484
			c3.579,0,6.489-2.906,6.489-6.484V9.655C402,6.08,399.089,3.167,395.51,3.167"/>
		<path fill="#E02127" d="M305.838,6.459c-1.022-2.03-3.193-3.292-5.675-3.292c-2.233,0-4.219,1.057-5.574,3.104l-47.998,83.254
			c-0.669,1.008-1.035,2.278-1.035,3.569c0,3.577,2.911,6.489,6.489,6.489c3.442,0,5.119-2.685,5.986-4.084l29.122-50.561
			l23.969,41.675h-27.767c-3.577,0-6.484,2.908-6.484,6.481c0,3.577,2.908,6.489,6.484,6.489h64.931
			c3.573,0,6.481-2.913,6.481-6.489c0-1.298-0.366-2.567-0.908-3.378L305.838,6.459z M326.087,86.612l-31.445-54.673l5.525-9.592
			l37.13,64.266H326.087z"/>
		<path fill="#E02127" d="M204.801,3.169c-3.578,0-6.489,2.911-6.489,6.487v35.236h-63.516V9.656c0-3.577-2.913-6.487-6.491-6.487
			c-3.572,0-6.479,2.911-6.479,6.487v83.442c0,3.577,2.908,6.485,6.479,6.485c3.578,0,6.491-2.908,6.491-6.485V57.861h63.516v35.237
			c0,3.577,2.911,6.485,6.489,6.485c3.576,0,6.487-2.908,6.487-6.485V9.656C211.289,6.08,208.377,3.169,204.801,3.169"/>
	</g>
</g>
<g id="New_Symbol_2">
</g>
</svg>
